<?xml version="1.0" encoding="UTF-8" standalone="no"?>
<!-- Created with Vectornator (http://vectornator.io/) -->

<svg
   height="300.40872"
   stroke-miterlimit="10"
   style="clip-rule:evenodd;fill-rule:nonzero;stroke-linecap:round;stroke-linejoin:round"
   version="1.1"
   viewBox="0 0 701.99997 300.40873"
   width="702"
   xml:space="preserve"
   id="svg10352"
   sodipodi:docname="деревья.svg"
   inkscape:version="1.2.1 (9c6d41e410, 2022-07-14)"
   xmlns:inkscape="http://www.inkscape.org/namespaces/inkscape"
   xmlns:sodipodi="http://sodipodi.sourceforge.net/DTD/sodipodi-0.dtd"
   xmlns="http://www.w3.org/2000/svg"
   xmlns:svg="http://www.w3.org/2000/svg"
   xmlns:vectornator="http://vectornator.io"><sodipodi:namedview
   id="namedview10354"
   pagecolor="#ffffff"
   bordercolor="#000000"
   borderopacity="0.25"
   inkscape:showpageshadow="2"
   inkscape:pageopacity="0.0"
   inkscape:pagecheckerboard="0"
   inkscape:deskcolor="#d1d1d1"
   showgrid="false"
   inkscape:zoom="1.1363636"
   inkscape:cx="272.36"
   inkscape:cy="230.12"
   inkscape:window-width="1920"
   inkscape:window-height="991"
   inkscape:window-x="-9"
   inkscape:window-y="-9"
   inkscape:window-maximized="1"
   inkscape:current-layer="svg10352" />
<defs
   id="defs10263" />
<g
   id="Layer-3"
   vectornator:layerName="Layer 3"
   transform="translate(7.4670498,-144.36292)">




















<g
   id="g10887"
   transform="translate(-2.6654975,-35.376153)"><path
     d="m 533.62,428.908 c 7.784,1.166 0.749,-1.817 28.197,1.407 18.903,2.22 30.567,41.338 4.515,47.646 -26.051,6.307 -55.577,-7.258 -55.698,-23.185 -0.15,-19.761 15.202,-27.034 22.986,-25.868 z"
     fill="#0a0809"
     fill-opacity="0.578828"
     fill-rule="nonzero"
     opacity="1"
     stroke="none"
     id="path10265" /><path
     d="m 522.578,418.388 c 0,0 -10.004,28.911 1.685,38.952 11.689,10.04 38.159,8.229 46.828,-1.827 4.971,-5.767 -1.157,-53.909 -1.157,-53.909 z"
     fill="#58333c"
     fill-rule="nonzero"
     opacity="1"
     stroke="none"
     id="path10271" /><path
     d="m 542.959,219.374 c -44.958,-1.499 -77.778,131.877 -79.726,184.028 -1.948,52.152 79.126,9.591 79.126,9.591 0,0 80.176,48.555 82.124,-3.596 1.948,-52.152 -36.566,-188.525 -81.524,-190.023 z"
     fill="#b7ca6b"
     fill-rule="nonzero"
     opacity="1"
     stroke="none"
     id="path10273" /><path
     d="m 537.231,213.749 c -36.893,-1.187 -63.825,104.397 -65.423,145.681 -1.599,41.284 64.931,7.592 64.931,7.592 0,0 65.791,38.437 67.39,-2.847 1.599,-41.284 -30.006,-149.24 -66.898,-150.426 z"
     fill="#b7ca6b"
     fill-rule="nonzero"
     opacity="1"
     stroke="none"
     id="path10275" /><path
     d="m 540.6,234.806 c -36.893,-1.187 -63.824,104.397 -65.423,145.681 -1.598,41.284 64.931,7.592 64.931,7.592 0,0 65.792,38.437 67.39,-2.847 1.599,-41.284 -30.005,-149.24 -66.898,-150.426 z"
     fill="#b7ca6b"
     fill-rule="nonzero"
     opacity="1"
     stroke="none"
     id="path10277" /><path
     d="m 529.831,238.349 c -5.116,-2.505 -14.264,7.472 -16.587,11.948 -2.324,4.476 8.724,5.019 8.724,5.019 0,0 7.276,8.495 9.6,4.02 2.323,-4.476 3.379,-18.482 -1.737,-20.987 z"
     fill="#32b055"
     fill-rule="nonzero"
     opacity="0.317873"
     stroke="none"
     id="path10279" /><path
     d="m 507.678,287.318 c -5.116,-2.505 -14.263,7.472 -16.587,11.948 -2.323,4.476 8.724,5.019 8.724,5.019 0,0 7.276,8.495 9.6,4.019 2.324,-4.475 3.379,-18.481 -1.737,-20.986 z"
     fill="#32b055"
     fill-rule="nonzero"
     opacity="0.317873"
     stroke="none"
     id="path10281" /><path
     d="m 513.544,331.49 c -5.115,-2.505 -14.263,7.472 -16.587,11.947 -2.323,4.476 8.724,5.02 8.724,5.02 0,0 7.277,8.495 9.6,4.019 2.324,-4.476 3.379,-18.482 -1.737,-20.986 z"
     fill="#32b055"
     fill-rule="nonzero"
     opacity="0.317873"
     stroke="none"
     id="path10283" /><path
     d="m 495.691,387.077 c -5.116,-2.504 -14.263,7.473 -16.587,11.948 -2.324,4.476 8.724,5.019 8.724,5.019 0,0 7.276,8.496 9.6,4.02 2.323,-4.476 3.379,-18.482 -1.737,-20.987 z"
     fill="#32b055"
     fill-rule="nonzero"
     opacity="0.317873"
     stroke="none"
     id="path10285" /><path
     d="m 550.939,312.259 c -5.623,0.906 -7.338,14.332 -6.653,19.329 0.684,4.996 10.021,-0.934 10.021,-0.934 0,0 10.844,2.74 10.16,-2.257 -0.685,-4.996 -7.904,-17.044 -13.528,-16.138 z"
     fill="#32b055"
     fill-rule="nonzero"
     opacity="0.317873"
     stroke="none"
     id="path10287" /><path
     d="m 564.955,255.663 c -5.624,0.906 -7.338,14.333 -6.654,19.329 0.685,4.996 10.022,-0.934 10.022,-0.934 0,0 10.844,2.74 10.159,-2.256 -0.684,-4.997 -7.903,-17.045 -13.527,-16.139 z"
     fill="#32b055"
     fill-rule="nonzero"
     opacity="0.317873"
     stroke="none"
     id="path10289" /><path
     d="m 590.119,309.841 c -5.623,0.906 -7.338,14.333 -6.653,19.329 0.684,4.997 10.021,-0.934 10.021,-0.934 0,0 10.844,2.74 10.16,-2.256 -0.685,-4.996 -7.904,-17.044 -13.528,-16.139 z"
     fill="#32b055"
     fill-rule="nonzero"
     opacity="0.317873"
     stroke="none"
     id="path10291" /><path
     d="m 603.246,358.784 c -5.637,-0.818 -11.289,11.482 -12.131,16.454 -0.841,4.972 9.842,2.106 9.842,2.106 0,0 9.529,5.858 10.37,0.886 0.841,-4.972 -2.444,-18.628 -8.081,-19.446 z"
     fill="#32b055"
     fill-rule="nonzero"
     opacity="0.317873"
     stroke="none"
     id="path10293" /><path
     d="m 586.959,396.506 c -5.637,-0.817 -11.289,11.482 -12.13,16.454 -0.841,4.973 9.842,2.106 9.842,2.106 0,0 9.528,5.859 10.369,0.887 0.841,-4.973 -2.443,-18.629 -8.081,-19.447 z"
     fill="#32b055"
     fill-rule="nonzero"
     opacity="0.317873"
     stroke="none"
     id="path10295" /><path
     d="m 554.501,391.943 c -2.064,-0.27 -4.133,3.802 -4.441,5.448 -0.308,1.646 3.603,0.697 3.603,0.697 0,0 3.488,1.94 3.796,0.294 0.308,-1.647 -0.894,-6.168 -2.958,-6.439 z"
     fill="#32b055"
     fill-rule="nonzero"
     opacity="0.317873"
     stroke="none"
     id="path10297" /><path
     d="m 572.949,356.553 c -2.064,-0.271 -4.133,3.801 -4.441,5.447 -0.308,1.647 3.603,0.698 3.603,0.698 0,0 3.489,1.939 3.797,0.293 0.308,-1.646 -0.895,-6.168 -2.959,-6.438 z"
     fill="#32b055"
     fill-rule="nonzero"
     opacity="0.317873"
     stroke="none"
     id="path10299" /><path
     d="m 538.688,346.011 c -2.064,-0.271 -4.133,3.801 -4.441,5.447 -0.308,1.647 3.603,0.698 3.603,0.698 0,0 3.489,1.939 3.797,0.293 0.308,-1.646 -0.895,-6.167 -2.959,-6.438 z"
     fill="#32b055"
     fill-rule="nonzero"
     opacity="0.317873"
     stroke="none"
     id="path10301" /><path
     d="m 534.547,302.714 c -2.064,-0.271 -4.134,3.801 -4.442,5.447 -0.308,1.647 3.604,0.698 3.604,0.698 0,0 3.488,1.939 3.796,0.293 0.308,-1.646 -0.894,-6.167 -2.958,-6.438 z"
     fill="#32b055"
     fill-rule="nonzero"
     opacity="0.317873"
     stroke="none"
     id="path10303" /><path
     d="m 546.971,279.748 c -2.064,-0.271 -4.133,3.801 -4.441,5.447 -0.308,1.646 3.603,0.698 3.603,0.698 0,0 3.489,1.939 3.797,0.293 0.308,-1.646 -0.895,-6.168 -2.959,-6.438 z"
     fill="#32b055"
     fill-rule="nonzero"
     opacity="0.317873"
     stroke="none"
     id="path10305" /></g>










<g
   id="g10847"
   transform="matrix(0.85832703,0,0,1,209.88109,-118.54645)"><path
     d="m 126.313,514.206 c 7.784,1.166 6.407,-6.598 33.856,-3.375 18.903,2.22 22.823,19.749 14.562,33.919 -3.734,6.405 -11.248,9.695 -17.789,14.006 -21.012,13.848 -47.836,-7.536 -47.956,-23.464 -0.15,-19.76 9.543,-22.252 17.327,-21.086 z"
     fill="#0a0809"
     fill-opacity="0.578828"
     fill-rule="nonzero"
     opacity="1"
     stroke="none"
     id="path10307" /><path
     d="m 121.528,501.143 c 0,0 -3.421,27.96 2.223,36.774 0.668,1.043 43.999,0.576 47.767,-6.159 2.18,-3.896 -0.674,-35.505 -0.674,-35.505 z"
     fill="#58333c"
     fill-rule="nonzero"
     opacity="1"
     stroke="none"
     id="path10309" /><path
     d="m 47.6038,375.265 c 6.9728,-12.451 81.0042,-58.86 83.4952,-60.354 0.604,-0.362 82.677,59.766 82.179,68.731 -0.125,2.24 -14.521,1.687 -26.216,2.522 -9.72,0.693 -17.115,2.957 -17.115,2.957 0,0 38.848,20.918 60.762,35.362 13.262,8.74 -47.813,15.439 -47.813,15.439 0,0 46.36,21.467 67.149,28.397 5.589,1.862 -8.928,16.03 -30.864,24.846 -20.756,8.34 -47.894,11.422 -79.812,10.744 -31.855,-0.676 -60.7088,-3.655 -84.8398,-14.091 -21.1937,-9.165 -40.1025,-25.781 -35.6334,-28.429 13.3641,-7.919 69.3702,-22.463 69.3702,-22.463 0,0 -67.2372,-15.937 -51.7976,-20.42 26.0314,-7.557 64.2486,-29.883 64.2486,-29.883 l -34.7994,-9.398 c 0,0 -19.5551,-1.743 -18.3138,-3.96 z"
     fill="#074f6f"
     fill-rule="nonzero"
     opacity="1"
     stroke="none"
     id="path10311" /><path
     d="m 96.1105,351.012 -23.2634,22.273 29.2029,-9.899 2.97,14.849 17.324,-14.849 9.404,24.748 11.879,-14.849 20.789,7.425 -3.465,-13.86 28.213,3.465 -59.891,-45.042 z"
     fill="#01a89d"
     fill-rule="nonzero"
     opacity="1"
     stroke="none"
     id="path10313" /><path
     d="m 108.583,347.578 -14.0643,14.612 17.6553,-6.494 1.796,9.741 10.473,-9.741 5.686,16.235 7.182,-9.741 12.568,4.87 -2.095,-9.091 17.057,2.273 -36.208,-29.548 z"
     fill="#5ae0d7"
     fill-rule="nonzero"
     opacity="1"
     stroke="none"
     id="path10315" /><path
     d="m 60.9679,418.822 47.5171,-24.253 21.85,9.57 26.656,-7.096 48.012,23.264 -22.768,7.424 -11.88,16.334 -15.344,-16.829 -10.889,12.375 -13.364,-14.849 -15.839,22.768 -5.444,-18.809 -18.8091,5.94 -8.4144,-11.384 z"
     fill="#01a89d"
     fill-rule="nonzero"
     opacity="1"
     stroke="none"
     id="path10317" /><path
     d="m 82.1258,416.81 28.0992,-16.494 19.387,8.678 29.688,-4.952 31.594,11.875 -9.447,6.037 -11.8,12.58 -18.422,-15.152 -10.158,8.965 -10.905,-8.242 -12.632,16.316 0.97,-13.917 -8.522,-0.167 -17.1489,4.063 z"
     fill="#5ae0d7"
     fill-rule="nonzero"
     opacity="1"
     stroke="none"
     id="path10319" /><path
     d="m 45.624,470.793 54.446,-17.323 24.254,9.899 25.738,-5.94 20.788,6.93 c 0,0 13.859,-6.93 16.829,-9.405 2.97,-2.474 40.587,16.829 40.587,16.829 l -31.182,4.455 -19.799,17.819 -26.728,-11.879 -19.304,13.364 -18.314,-15.839 -17.8184,14.354 -17.8188,-17.324 z"
     fill="#01a89d"
     fill-rule="nonzero"
     opacity="1"
     stroke="none"
     id="path10321" /><path
     d="m 62.3498,470.507 37.4975,-11.629 23.8517,10.17 26.303,-6.283 22.325,7.461 c 0,0 15.38,-8.212 17.722,-9.768 2.343,-1.555 20.357,7.72 20.357,7.72 l -18.687,3.282 -16.397,13.826 -25.389,-10.951 -17.706,13.354 -20.77,-16.053 -14.6864,11.599 -9.4361,-8.995 z"
     fill="#5ae0d7"
     fill-rule="nonzero"
     opacity="1"
     stroke="none"
     id="path10323" /><path
     d="m 168.136,509.568 0.989,17.921 -6.905,2.242"
     fill="#58333c"
     fill-rule="nonzero"
     opacity="1"
     stroke="none"
     id="path10325" /><path
     d="m 160.814,512.734 0.373,13.061"
     fill="#58333c"
     fill-rule="nonzero"
     opacity="1"
     stroke="none"
     id="path10327" /></g>










<g
   id="g10901"
   transform="translate(-795.42504,-96.392067)"><path
     d="m 863.99014,490.53051 c 7.784,1.166 0.749,-1.817 28.197,1.407 18.903,2.22 30.567,41.338 4.515,47.646 -26.051,6.308 -55.577,-7.258 -55.698,-23.185 -0.15,-19.761 15.202,-27.033 22.986,-25.868 z"
     fill="#0a0809"
     fill-opacity="0.578828"
     fill-rule="nonzero"
     opacity="1"
     stroke="none"
     id="path10267" /><path
     d="m 850.16014,478.95351 c 0,0 -10.003,28.911 1.686,38.952 11.689,10.04 38.159,8.229 46.828,-1.827 4.971,-5.767 -1.158,-53.909 -1.158,-53.909 z"
     fill="#58333c"
     fill-rule="nonzero"
     opacity="1"
     stroke="none"
     id="path10269" /><path
     d="m 861.82014,243.93251 c -22.654,7.884 -37.823,23.353 -46.305,43.911 -8.483,20.558 12.374,38.322 12.374,38.322 0,0 -33.531,10.379 -36.725,29.54 -3.193,19.161 29.939,44.708 29.939,44.708 0,0 -39.22,16.966 -32.334,36.726 6.886,19.759 58.681,40.717 58.681,40.717 0,0 37.423,11.576 69.458,-3.992 32.035,-15.568 49.998,-17.265 54.688,-41.516 4.691,-24.25 -35.926,-55.487 -35.926,-55.487 0,0 31.236,-24.549 23.951,-43.91 -7.285,-19.361 -51.894,-31.935 -51.894,-31.935 0,0 15.867,-28.841 4.391,-43.112 -11.477,-14.271 -27.644,-21.856 -50.298,-13.972 z"
     fill="#01a89d"
     fill-rule="nonzero"
     opacity="1"
     stroke="none"
     id="path10331" /><path
     d="m 930.39714,327.87951 c -7.216,2.021 -12.34,20.424 -15.588,31.177 -3.248,10.753 4.33,17.609 11.547,15.589 7.217,-2.021 22.733,-15.805 25.981,-26.559 3.247,-10.753 -14.723,-22.228 -21.94,-20.207 z"
     fill="#0a0809"
     fill-opacity="0.578828"
     fill-rule="nonzero"
     opacity="0.358837"
     stroke="none"
     id="path10333" /><path
     d="m 870.33314,349.53851 c -4.381,1.257 -7.491,12.707 -9.463,19.397 -1.971,6.69 2.629,10.955 7.01,9.698 4.381,-1.257 13.8,-9.833 15.772,-16.523 1.971,-6.69 -8.938,-13.829 -13.319,-12.572 z"
     fill="#0a0809"
     fill-opacity="0.578828"
     fill-rule="nonzero"
     opacity="0.358837"
     stroke="none"
     id="path10335" /><path
     d="m 890.90114,392.30351 c -0.605,4.518 8.638,11.957 13.976,16.445 5.339,4.488 11.09,1.984 11.695,-2.534 0.605,-4.517 -3.476,-16.585 -8.815,-21.073 -5.338,-4.488 -16.252,2.644 -16.856,7.162 z"
     fill="#0a0809"
     fill-opacity="0.578828"
     fill-rule="nonzero"
     opacity="0.358837"
     stroke="none"
     id="path10337" /><path
     d="m 866.14914,430.85951 c -0.605,4.518 8.637,11.957 13.976,16.445 5.339,4.488 11.09,1.984 11.695,-2.534 0.604,-4.517 -3.476,-16.584 -8.815,-21.073 -5.338,-4.488 -16.252,2.644 -16.856,7.162 z"
     fill="#0a0809"
     fill-opacity="0.578828"
     fill-rule="nonzero"
     opacity="0.358837"
     stroke="none"
     id="path10339" /><path
     d="m 887.64614,319.51551 c -4.175,1.828 -5.738,13.589 -6.804,20.482 -1.065,6.892 4.061,10.509 8.236,8.681 4.175,-1.827 12.372,-11.578 13.438,-18.471 1.065,-6.892 -10.695,-12.519 -14.87,-10.692 z"
     fill="#0a0809"
     fill-opacity="0.578828"
     fill-rule="nonzero"
     opacity="0.358837"
     stroke="none"
     id="path10341" /><path
     d="m 941.07814,400.33751 c 11.475,-8.011 26.847,19.557 17.898,33.486 -8.949,13.929 -49.219,30.6 -53.693,22.228 -4.475,-8.372 24.321,-47.704 35.795,-55.714 z"
     fill="#0a0809"
     fill-opacity="0.578828"
     fill-rule="nonzero"
     opacity="0.358837"
     stroke="none"
     id="path10343" /><path
     d="m 825.60814,413.61651 c -11.547,-6.928 -26.702,12.124 -20.207,25.403 6.495,13.279 53.838,28.002 58.89,21.651 5.052,-6.351 -27.136,-40.126 -38.683,-47.054 z"
     fill="#0a0809"
     fill-opacity="0.578828"
     fill-rule="nonzero"
     opacity="0.358837"
     stroke="none"
     id="path10345" /><path
     d="m 822.43314,338.27151 c -6.062,4.619 -25.476,18.476 -17.609,30.311 7.866,11.836 36.4,24.948 41.308,18.814 4.907,-6.135 -17.637,-53.743 -23.699,-49.125 z"
     fill="#0a0809"
     fill-opacity="0.578828"
     fill-rule="nonzero"
     opacity="0.358837"
     stroke="none"
     id="path10347" /><path
     d="m 838.02114,292.66151 c -4.185,-12.485 12.125,-31.249 25.404,-37.239 13.279,-5.99 33.737,-1.892 37.923,10.593 4.186,12.485 -7.901,33.357 -21.18,39.347 -13.279,5.991 -37.961,-0.216 -42.147,-12.701 z"
     fill="#0a0809"
     fill-opacity="0.578828"
     fill-rule="nonzero"
     opacity="0.358837"
     stroke="none"
     id="path10349" /></g>
</g>
</svg>
