<?xml version="1.0" encoding="UTF-8" standalone="no"?>
<!DOCTYPE svg PUBLIC "-//W3C//DTD SVG 1.1//EN" "http://www.w3.org/Graphics/SVG/1.1/DTD/svg11.dtd">
<!-- Created with Vectornator (http://vectornator.io/) -->
<svg height="100%" stroke-miterlimit="10" style="fill-rule:nonzero;clip-rule:evenodd;stroke-linecap:round;stroke-linejoin:round;" version="1.1" viewBox="0 0 1417.68 614.43" width="100%" xml:space="preserve" xmlns="http://www.w3.org/2000/svg" xmlns:vectornator="http://vectornator.io" xmlns:xlink="http://www.w3.org/1999/xlink">
<defs/>
<g id="Layer-3" vectornator:layerName="Layer 3">
<path d="M460.14 494.028C467.924 495.194 460.889 492.211 488.337 495.435C507.24 497.655 518.904 536.773 492.852 543.081C466.801 549.388 437.275 535.823 437.154 519.896C437.004 500.135 452.356 492.862 460.14 494.028Z" fill="#0a0809" fill-opacity="0.578828" fill-rule="nonzero" opacity="1" stroke="none"/>
<path d="M763.185 489.286C770.969 490.452 763.934 487.469 791.382 490.693C810.285 492.913 821.949 532.031 795.897 538.339C769.846 544.647 740.32 531.081 740.199 515.154C740.049 495.393 755.401 488.121 763.185 489.286Z" fill="#0a0809" fill-opacity="0.578828" fill-rule="nonzero" opacity="1" stroke="none"/>
<path d="M749.355 477.709C749.355 477.709 739.352 506.62 751.041 516.661C762.73 526.701 789.2 524.89 797.869 514.834C802.84 509.067 796.711 460.925 796.711 460.925L749.355 477.709Z" fill="#58333c" fill-rule="nonzero" opacity="1" stroke="none"/>
<path d="M449.098 483.508C449.098 483.508 439.094 512.419 450.783 522.46C462.472 532.5 488.942 530.689 497.611 520.633C502.582 514.866 496.454 466.724 496.454 466.724L449.098 483.508Z" fill="#58333c" fill-rule="nonzero" opacity="1" stroke="none"/>
<path d="M469.479 284.494C424.521 282.995 391.701 416.371 389.753 468.522C387.805 520.674 468.879 478.113 468.879 478.113C468.879 478.113 549.055 526.668 551.003 474.517C552.951 422.365 514.437 285.992 469.479 284.494Z" fill="#b7ca6b" fill-rule="nonzero" opacity="1" stroke="none"/>
<path d="M463.751 278.869C426.858 277.682 399.926 383.266 398.328 424.55C396.729 465.834 463.259 432.142 463.259 432.142C463.259 432.142 529.05 470.579 530.649 429.295C532.248 388.011 500.643 280.055 463.751 278.869Z" fill="#b7ca6b" fill-rule="nonzero" opacity="1" stroke="none"/>
<path d="M467.12 299.926C430.227 298.739 403.296 404.323 401.697 445.607C400.099 486.891 466.628 453.199 466.628 453.199C466.628 453.199 532.42 491.636 534.018 450.352C535.617 409.068 504.013 301.112 467.12 299.926Z" fill="#b7ca6b" fill-rule="nonzero" opacity="1" stroke="none"/>
<path d="M456.351 303.469C451.235 300.964 442.087 310.941 439.764 315.417C437.44 319.893 448.488 320.436 448.488 320.436C448.488 320.436 455.764 328.931 458.088 324.456C460.411 319.98 461.467 305.974 456.351 303.469Z" fill="#32b055" fill-rule="nonzero" opacity="0.317873" stroke="none"/>
<path d="M434.198 352.438C429.082 349.933 419.935 359.91 417.611 364.386C415.288 368.862 426.335 369.405 426.335 369.405C426.335 369.405 433.611 377.9 435.935 373.424C438.259 368.949 439.314 354.943 434.198 352.438Z" fill="#32b055" fill-rule="nonzero" opacity="0.317873" stroke="none"/>
<path d="M440.064 396.61C434.949 394.105 425.801 404.082 423.477 408.557C421.154 413.033 432.201 413.577 432.201 413.577C432.201 413.577 439.478 422.072 441.801 417.596C444.125 413.12 445.18 399.114 440.064 396.61Z" fill="#32b055" fill-rule="nonzero" opacity="0.317873" stroke="none"/>
<path d="M422.211 452.197C417.095 449.693 407.948 459.67 405.624 464.145C403.3 468.621 414.348 469.164 414.348 469.164C414.348 469.164 421.624 477.66 423.948 473.184C426.271 468.708 427.327 454.702 422.211 452.197Z" fill="#32b055" fill-rule="nonzero" opacity="0.317873" stroke="none"/>
<path d="M477.459 377.379C471.836 378.285 470.121 391.711 470.806 396.708C471.49 401.704 480.827 395.774 480.827 395.774C480.827 395.774 491.671 398.514 490.987 393.517C490.302 388.521 483.083 376.473 477.459 377.379Z" fill="#32b055" fill-rule="nonzero" opacity="0.317873" stroke="none"/>
<path d="M491.475 320.783C485.851 321.689 484.137 335.116 484.821 340.112C485.506 345.108 494.843 339.178 494.843 339.178C494.843 339.178 505.687 341.918 505.002 336.922C504.318 331.925 497.099 319.877 491.475 320.783Z" fill="#32b055" fill-rule="nonzero" opacity="0.317873" stroke="none"/>
<path d="M516.639 374.961C511.016 375.867 509.301 389.294 509.986 394.29C510.67 399.287 520.007 393.356 520.007 393.356C520.007 393.356 530.851 396.096 530.167 391.1C529.482 386.104 522.263 374.056 516.639 374.961Z" fill="#32b055" fill-rule="nonzero" opacity="0.317873" stroke="none"/>
<path d="M529.766 423.904C524.129 423.086 518.477 435.386 517.635 440.358C516.794 445.33 527.477 442.464 527.477 442.464C527.477 442.464 537.006 448.322 537.847 443.35C538.688 438.378 535.403 424.722 529.766 423.904Z" fill="#32b055" fill-rule="nonzero" opacity="0.317873" stroke="none"/>
<path d="M513.479 461.626C507.842 460.809 502.19 473.108 501.349 478.08C500.508 483.053 511.191 480.186 511.191 480.186C511.191 480.186 520.719 486.045 521.56 481.073C522.401 476.1 519.117 462.444 513.479 461.626Z" fill="#32b055" fill-rule="nonzero" opacity="0.317873" stroke="none"/>
<path d="M481.021 457.063C478.957 456.793 476.888 460.865 476.58 462.511C476.272 464.157 480.183 463.208 480.183 463.208C480.183 463.208 483.671 465.148 483.979 463.502C484.287 461.855 483.085 457.334 481.021 457.063Z" fill="#32b055" fill-rule="nonzero" opacity="0.317873" stroke="none"/>
<path d="M499.469 421.673C497.405 421.402 495.336 425.474 495.028 427.12C494.72 428.767 498.631 427.818 498.631 427.818C498.631 427.818 502.12 429.757 502.428 428.111C502.736 426.465 501.533 421.943 499.469 421.673Z" fill="#32b055" fill-rule="nonzero" opacity="0.317873" stroke="none"/>
<path d="M465.208 411.131C463.144 410.86 461.075 414.932 460.767 416.578C460.459 418.225 464.37 417.276 464.37 417.276C464.37 417.276 467.859 419.215 468.167 417.569C468.475 415.923 467.272 411.402 465.208 411.131Z" fill="#32b055" fill-rule="nonzero" opacity="0.317873" stroke="none"/>
<path d="M461.067 367.834C459.003 367.563 456.933 371.635 456.625 373.281C456.317 374.928 460.229 373.979 460.229 373.979C460.229 373.979 463.717 375.918 464.025 374.272C464.333 372.626 463.131 368.105 461.067 367.834Z" fill="#32b055" fill-rule="nonzero" opacity="0.317873" stroke="none"/>
<path d="M473.491 344.868C471.427 344.597 469.358 348.669 469.05 350.315C468.742 351.961 472.653 351.013 472.653 351.013C472.653 351.013 476.142 352.952 476.45 351.306C476.758 349.66 475.555 345.138 473.491 344.868Z" fill="#32b055" fill-rule="nonzero" opacity="0.317873" stroke="none"/>
<path d="M126.313 514.206C134.097 515.372 132.72 507.608 160.169 510.831C179.072 513.051 182.992 530.58 174.731 544.75C170.997 551.155 163.483 554.445 156.942 558.756C135.93 572.604 109.106 551.22 108.986 535.292C108.836 515.532 118.529 513.04 126.313 514.206Z" fill="#0a0809" fill-opacity="0.578828" fill-rule="nonzero" opacity="1" stroke="none"/>
<path d="M121.528 501.143C121.528 501.143 118.107 529.103 123.751 537.917C124.419 538.96 167.75 538.493 171.518 531.758C173.698 527.862 170.844 496.253 170.844 496.253L121.528 501.143Z" fill="#58333c" fill-rule="nonzero" opacity="1" stroke="none"/>
<path d="M47.6038 375.265C54.5766 362.814 128.608 316.405 131.099 314.911C131.703 314.549 213.776 374.677 213.278 383.642C213.153 385.882 198.757 385.329 187.062 386.164C177.342 386.857 169.947 389.121 169.947 389.121C169.947 389.121 208.795 410.039 230.709 424.483C243.971 433.223 182.896 439.922 182.896 439.922C182.896 439.922 229.256 461.389 250.045 468.319C255.634 470.181 241.117 484.349 219.181 493.165C198.425 501.505 171.287 504.587 139.369 503.909C107.514 503.233 78.6602 500.254 54.5292 489.818C33.3355 480.653 14.4267 464.037 18.8958 461.389C32.2599 453.47 88.266 438.926 88.266 438.926C88.266 438.926 21.0288 422.989 36.4684 418.506C62.4998 410.949 100.717 388.623 100.717 388.623L65.9176 379.225C65.9176 379.225 46.3625 377.482 47.6038 375.265Z" fill="#074f6f" fill-rule="nonzero" opacity="1" stroke="none"/>
<path d="M96.1105 351.012L72.8471 373.285L102.05 363.386L105.02 378.235L122.344 363.386L131.748 388.134L143.627 373.285L164.416 380.71L160.951 366.85L189.164 370.315L129.273 325.273L96.1105 351.012Z" fill="#01a89d" fill-rule="nonzero" opacity="1" stroke="none"/>
<path d="M108.583 347.578L94.5187 362.19L112.174 355.696L113.97 365.437L124.443 355.696L130.129 371.931L137.311 362.19L149.879 367.06L147.784 357.969L164.841 360.242L128.633 330.694L108.583 347.578Z" fill="#5ae0d7" fill-rule="nonzero" opacity="1" stroke="none"/>
<path d="M60.9679 418.822L108.485 394.569L130.335 404.139L156.991 397.043L205.003 420.307L182.235 427.731L170.355 444.065L155.011 427.236L144.122 439.611L130.758 424.762L114.919 447.53L109.475 428.721L90.6659 434.661L82.2515 423.277L60.9679 418.822Z" fill="#01a89d" fill-rule="nonzero" opacity="1" stroke="none"/>
<path d="M82.1258 416.81L110.225 400.316L129.612 408.994L159.3 404.042L190.894 415.917L181.447 421.954L169.647 434.534L151.225 419.382L141.067 428.347L130.162 420.105L117.53 436.421L118.5 422.504L109.978 422.337L92.8291 426.4L82.1258 416.81Z" fill="#5ae0d7" fill-rule="nonzero" opacity="1" stroke="none"/>
<path d="M45.624 470.793L100.07 453.47L124.324 463.369L150.062 457.429L170.85 464.359C170.85 464.359 184.709 457.429 187.679 454.954C190.649 452.48 228.266 471.783 228.266 471.783L197.084 476.238L177.285 494.057L150.557 482.178L131.253 495.542L112.939 479.703L95.1206 494.057L77.3018 476.733L45.624 470.793Z" fill="#01a89d" fill-rule="nonzero" opacity="1" stroke="none"/>
<path d="M62.3498 470.507L99.8473 458.878L123.699 469.048L150.002 462.765L172.327 470.226C172.327 470.226 187.707 462.014 190.049 460.458C192.392 458.903 210.406 468.178 210.406 468.178L191.719 471.46L175.322 485.286L149.933 474.335L132.227 487.689L111.457 471.636L96.7706 483.235L87.3345 474.24L62.3498 470.507Z" fill="#5ae0d7" fill-rule="nonzero" opacity="1" stroke="none"/>
<path d="M168.136 509.568L169.125 527.489L162.22 529.731" fill="#58333c" fill-rule="nonzero" opacity="1" stroke="none"/>
<path d="M160.814 512.734L161.187 525.795" fill="#58333c" fill-rule="nonzero" opacity="1" stroke="none"/>
<path d="M760.217 240.692" fill="#0a0809" fill-opacity="0.578828" fill-rule="nonzero" opacity="1" stroke="none"/>
<path d="M761.015 242.688C738.361 250.572 723.192 266.041 714.71 286.599C706.227 307.157 727.084 324.921 727.084 324.921C727.084 324.921 693.553 335.3 690.359 354.461C687.166 373.622 720.298 399.169 720.298 399.169C720.298 399.169 681.078 416.135 687.964 435.895C694.85 455.654 746.645 476.612 746.645 476.612C746.645 476.612 784.068 488.188 816.103 472.62C848.138 457.052 866.101 455.355 870.791 431.104C875.482 406.854 834.865 375.617 834.865 375.617C834.865 375.617 866.101 351.068 858.816 331.707C851.531 312.346 806.922 299.772 806.922 299.772C806.922 299.772 822.789 270.931 811.313 256.66C799.836 242.389 783.669 234.804 761.015 242.688Z" fill="#01a89d" fill-rule="nonzero" opacity="1" stroke="none"/>
<path d="M829.592 326.635C822.376 328.656 817.252 347.059 814.004 357.812C810.756 368.565 818.334 375.421 825.551 373.401C832.768 371.38 848.284 357.596 851.532 346.842C854.779 336.089 836.809 324.614 829.592 326.635Z" fill="#0a0809" fill-opacity="0.578828" fill-rule="nonzero" opacity="0.358837" stroke="none"/>
<path d="M769.528 348.294C765.147 349.551 762.037 361.001 760.065 367.691C758.094 374.381 762.694 378.646 767.075 377.389C771.456 376.132 780.875 367.556 782.847 360.866C784.818 354.176 773.909 347.037 769.528 348.294Z" fill="#0a0809" fill-opacity="0.578828" fill-rule="nonzero" opacity="0.358837" stroke="none"/>
<path d="M790.096 391.059C789.491 395.577 798.734 403.016 804.072 407.504C809.411 411.992 815.162 409.488 815.767 404.97C816.372 400.453 812.291 388.385 806.952 383.897C801.614 379.409 790.7 386.541 790.096 391.059Z" fill="#0a0809" fill-opacity="0.578828" fill-rule="nonzero" opacity="0.358837" stroke="none"/>
<path d="M765.344 429.615C764.739 434.133 773.981 441.572 779.32 446.06C784.659 450.548 790.41 448.044 791.015 443.526C791.619 439.009 787.539 426.942 782.2 422.453C776.862 417.965 765.948 425.097 765.344 429.615Z" fill="#0a0809" fill-opacity="0.578828" fill-rule="nonzero" opacity="0.358837" stroke="none"/>
<path d="M786.841 318.271C782.666 320.099 781.103 331.86 780.037 338.753C778.972 345.645 784.098 349.262 788.273 347.434C792.448 345.607 800.645 335.856 801.711 328.963C802.776 322.071 791.016 316.444 786.841 318.271Z" fill="#0a0809" fill-opacity="0.578828" fill-rule="nonzero" opacity="0.358837" stroke="none"/>
<path d="M840.273 399.093C851.748 391.082 867.12 418.65 858.171 432.579C849.222 446.508 808.952 463.179 804.478 454.807C800.003 446.435 828.799 407.103 840.273 399.093Z" fill="#0a0809" fill-opacity="0.578828" fill-rule="nonzero" opacity="0.358837" stroke="none"/>
<path d="M724.803 412.372C713.256 405.444 698.101 424.496 704.596 437.775C711.091 451.054 758.434 465.777 763.486 459.426C768.538 453.075 736.35 419.3 724.803 412.372Z" fill="#0a0809" fill-opacity="0.578828" fill-rule="nonzero" opacity="0.358837" stroke="none"/>
<path d="M721.628 337.027C715.566 341.646 696.152 355.503 704.019 367.338C711.885 379.174 740.419 392.286 745.327 386.152C750.234 380.017 727.69 332.409 721.628 337.027Z" fill="#0a0809" fill-opacity="0.578828" fill-rule="nonzero" opacity="0.358837" stroke="none"/>
<path d="M737.216 291.417C733.031 278.932 749.341 260.168 762.62 254.178C775.899 248.188 796.357 252.286 800.543 264.771C804.729 277.256 792.642 298.128 779.363 304.118C766.084 310.109 741.402 303.902 737.216 291.417Z" fill="#0a0809" fill-opacity="0.578828" fill-rule="nonzero" opacity="0.358837" stroke="none"/>
</g>
</svg>
