<?xml version="1.0" encoding="UTF-8" standalone="no"?>
<!DOCTYPE svg PUBLIC "-//W3C//DTD SVG 1.1//EN" "http://www.w3.org/Graphics/SVG/1.1/DTD/svg11.dtd">
<!-- Created with Vectornator (http://vectornator.io/) -->
<svg height="100%" stroke-miterlimit="10" style="fill-rule:nonzero;clip-rule:evenodd;stroke-linecap:round;stroke-linejoin:round;" version="1.1" viewBox="0 0 595.35 419.58" width="100%" xml:space="preserve" xmlns="http://www.w3.org/2000/svg" xmlns:vectornator="http://vectornator.io" xmlns:xlink="http://www.w3.org/1999/xlink">
<defs>
<linearGradient gradientTransform="matrix(1 0 0 1 -1431.77 -89.5716)" gradientUnits="userSpaceOnUse" id="LinearGradient" x1="1483.12" x2="1531.17" y1="313.227" y2="313.227">
<stop offset="0" stop-color="#f2f2f2"/>
<stop offset="1" stop-color="#2773a9"/>
</linearGradient>
<linearGradient gradientTransform="matrix(1 0 0 1 -1435.99 6.79356)" gradientUnits="userSpaceOnUse" id="LinearGradient_2" x1="1483.12" x2="1531.17" y1="313.227" y2="313.227">
<stop offset="0" stop-color="#f2f2f2"/>
<stop offset="1" stop-color="#2773a9"/>
</linearGradient>
<linearGradient gradientTransform="matrix(1 0 0 1 -1609.13 -211.295)" gradientUnits="userSpaceOnUse" id="LinearGradient_3" x1="1729.64" x2="1778.89" y1="437.256" y2="437.256">
<stop offset="0" stop-color="#f2f2f2"/>
<stop offset="1" stop-color="#2773a9"/>
</linearGradient>
<linearGradient gradientTransform="matrix(1 0 0 1 -1431.77 -89.5716)" gradientUnits="userSpaceOnUse" id="LinearGradient_4" x1="1557.87" x2="1602.7" y1="406.563" y2="406.563">
<stop offset="0" stop-color="#f2f2f2"/>
<stop offset="1" stop-color="#2773a9"/>
</linearGradient>
<linearGradient gradientTransform="matrix(1 0 0 1 -1431.77 -89.5716)" gradientUnits="userSpaceOnUse" id="LinearGradient_5" x1="1553.07" x2="1601.2" y1="210.227" y2="210.227">
<stop offset="0" stop-color="#f2f2f2"/>
<stop offset="1" stop-color="#2773a9"/>
</linearGradient>
<linearGradient gradientTransform="matrix(1 0 0 1 -1431.77 -89.5716)" gradientUnits="userSpaceOnUse" id="LinearGradient_6" x1="1480.58" x2="1529.23" y1="215.812" y2="215.812">
<stop offset="0" stop-color="#f2f2f2"/>
<stop offset="1" stop-color="#2773a9"/>
</linearGradient>
<linearGradient gradientTransform="matrix(1 0 0 1 -1234.82 -90.2774)" gradientUnits="userSpaceOnUse" id="LinearGradient_7" x1="1483.12" x2="1531.17" y1="313.227" y2="313.227">
<stop offset="0" stop-color="#f2f2f2"/>
<stop offset="1" stop-color="#2773a9"/>
</linearGradient>
<linearGradient gradientTransform="matrix(1 0 0 1 -1240.03 8.53235)" gradientUnits="userSpaceOnUse" id="LinearGradient_8" x1="1483.12" x2="1531.17" y1="313.227" y2="313.227">
<stop offset="0" stop-color="#f2f2f2"/>
<stop offset="1" stop-color="#2773a9"/>
</linearGradient>
<linearGradient gradientTransform="matrix(1 0 0 1 -1058.07 -91.2704)" gradientUnits="userSpaceOnUse" id="LinearGradient_9" x1="1483.12" x2="1531.17" y1="313.227" y2="313.227">
<stop offset="0" stop-color="#f2f2f2"/>
<stop offset="1" stop-color="#2773a9"/>
</linearGradient>
<linearGradient gradientTransform="matrix(1 0 0 1 -1062.48 5.48183)" gradientUnits="userSpaceOnUse" id="LinearGradient_10" x1="1483.12" x2="1531.17" y1="313.227" y2="313.227">
<stop offset="0" stop-color="#f2f2f2"/>
<stop offset="1" stop-color="#2773a9"/>
</linearGradient>
<linearGradient gradientTransform="matrix(1 0 0 1 -1234.82 -90.2774)" gradientUnits="userSpaceOnUse" id="LinearGradient_11" x1="1552.28" x2="1601.53" y1="315.532" y2="315.532">
<stop offset="0" stop-color="#f2f2f2"/>
<stop offset="1" stop-color="#2773a9"/>
</linearGradient>
<linearGradient gradientTransform="matrix(1 0 0 1 -1058.07 -91.2704)" gradientUnits="userSpaceOnUse" id="LinearGradient_12" x1="1552.28" x2="1601.53" y1="315.532" y2="315.532">
<stop offset="0" stop-color="#f2f2f2"/>
<stop offset="1" stop-color="#2773a9"/>
</linearGradient>
<linearGradient gradientTransform="matrix(1 0 0 1 -1234.82 -90.2774)" gradientUnits="userSpaceOnUse" id="LinearGradient_13" x1="1557.87" x2="1602.7" y1="406.563" y2="406.563">
<stop offset="0" stop-color="#f2f2f2"/>
<stop offset="1" stop-color="#2773a9"/>
</linearGradient>
<linearGradient gradientTransform="matrix(1 0 0 1 -1058.07 -91.2704)" gradientUnits="userSpaceOnUse" id="LinearGradient_14" x1="1557.87" x2="1602.7" y1="406.563" y2="406.563">
<stop offset="0" stop-color="#f2f2f2"/>
<stop offset="1" stop-color="#2773a9"/>
</linearGradient>
<linearGradient gradientTransform="matrix(1 0 0 1 -1234.82 -90.2774)" gradientUnits="userSpaceOnUse" id="LinearGradient_15" x1="1553.07" x2="1601.2" y1="210.227" y2="210.227">
<stop offset="0" stop-color="#f2f2f2"/>
<stop offset="1" stop-color="#2773a9"/>
</linearGradient>
<linearGradient gradientTransform="matrix(1 0 0 1 -1058.07 -91.2704)" gradientUnits="userSpaceOnUse" id="LinearGradient_16" x1="1553.07" x2="1601.2" y1="210.227" y2="210.227">
<stop offset="0" stop-color="#f2f2f2"/>
<stop offset="1" stop-color="#2773a9"/>
</linearGradient>
<linearGradient gradientTransform="matrix(1 0 0 1 -1234.82 -90.2774)" gradientUnits="userSpaceOnUse" id="LinearGradient_17" x1="1480.58" x2="1529.23" y1="215.812" y2="215.812">
<stop offset="0" stop-color="#f2f2f2"/>
<stop offset="1" stop-color="#2773a9"/>
</linearGradient>
<linearGradient gradientTransform="matrix(1 0 0 1 -1058.07 -91.2704)" gradientUnits="userSpaceOnUse" id="LinearGradient_18" x1="1480.58" x2="1529.23" y1="215.812" y2="215.812">
<stop offset="0" stop-color="#f2f2f2"/>
<stop offset="1" stop-color="#2773a9"/>
</linearGradient>
</defs>
<g id="Layer-1" vectornator:layerName="Layer 1">
<path d="M33.8035 328.793L27.7527 336.317L29.1955 344.901L107.896 401.502L190.966 344.321L188.759 334.956L182.543 327.829L180.6 335.602L182.842 340.834L105.985 389.261L34.5775 335.985L33.8035 328.793Z" fill="#888b96" fill-rule="nonzero" opacity="1" stroke="none"/>
<path d="M34.5114 340.611L34.5114 260.31L108.235 311.932L108.235 392.233L34.5114 340.611Z" fill="#cb5135" fill-rule="nonzero" opacity="1" stroke="#ffffff" stroke-linecap="round" stroke-linejoin="round" stroke-width="3.02966"/>
<path d="M34.5114 340.611L34.5114 260.31L108.235 311.932L108.235 392.233L34.5114 340.611Z" fill="#eadae5" fill-rule="nonzero" opacity="1" stroke="#0a0809" stroke-linecap="round" stroke-linejoin="round" stroke-width="3.02966"/>
<path d="M34.5114 248.838L34.5114 168.538L108.235 220.16L108.235 300.46L34.5114 248.838Z" fill="#cb5135" fill-rule="nonzero" opacity="1" stroke="#ffffff" stroke-linecap="round" stroke-linejoin="round" stroke-width="3.02966"/>
<path d="M34.5114 248.838L34.5114 168.538L108.235 220.16L108.235 300.46L34.5114 248.838Z" fill="#eadae5" fill-rule="nonzero" opacity="1" stroke="#0a0809" stroke-linecap="round" stroke-linejoin="round" stroke-width="3.02966"/>
<path d="M34.5114 151.33L34.5114 71.0298L108.235 122.652L108.235 202.952L34.5114 151.33Z" fill="#cb5135" fill-rule="nonzero" opacity="1" stroke="#ffffff" stroke-linecap="round" stroke-linejoin="round" stroke-width="3.02966"/>
<path d="M34.5114 151.33L34.5114 71.0298L108.235 122.652L108.235 202.952L34.5114 151.33Z" fill="#eadae5" fill-rule="nonzero" opacity="1" stroke="#0a0809" stroke-linecap="round" stroke-linejoin="round" stroke-width="3.02966"/>
<path d="M108.235 311.932L181.959 260.31L181.959 340.611L108.235 392.233L108.235 311.932Z" fill="#cb5135" fill-rule="nonzero" opacity="1" stroke="#ffffff" stroke-linecap="round" stroke-linejoin="round" stroke-width="3.02966"/>
<path d="M108.235 311.932L181.959 260.31L181.959 340.611L108.235 392.233L108.235 311.932Z" fill="#eadae5" fill-rule="nonzero" opacity="1" stroke="#0a0809" stroke-linecap="round" stroke-linejoin="round" stroke-width="3.02966"/>
<path d="M108.235 220.16L181.959 168.538L181.959 248.838L108.235 300.46L108.235 220.16Z" fill="#eadae5" fill-rule="nonzero" opacity="1" stroke="#0a0809" stroke-linecap="round" stroke-linejoin="round" stroke-width="3.02966"/>
<path d="M108.235 122.652L181.959 71.0298L181.959 151.33L108.235 202.952L108.235 122.652Z" fill="#cb5135" fill-rule="nonzero" opacity="1" stroke="#ffffff" stroke-linecap="round" stroke-linejoin="round" stroke-width="3.02966"/>
<path d="M108.235 122.652L181.959 71.0298L181.959 151.33L108.235 202.952L108.235 122.652Z" fill="#eadae5" fill-rule="nonzero" opacity="1" stroke="#0a0809" stroke-linecap="round" stroke-linejoin="round" stroke-width="3.02966"/>
<path d="M28.6697 263.392L29.3106 249.298L34.3838 244.617L107.851 298.493L106.871 314.819L28.6697 263.392Z" fill="#a3a4a8" fill-rule="nonzero" opacity="1" stroke="#ffffff" stroke-linecap="round" stroke-linejoin="round" stroke-width="3.02966"/>
<path d="M28.6697 263.392L29.3106 249.298L34.3838 244.617L107.851 298.493L106.871 314.819L28.6697 263.392Z" fill="#a3a4a8" fill-rule="nonzero" opacity="1" stroke="#ffffff" stroke-linecap="round" stroke-linejoin="round" stroke-width="3.02966"/>
<path d="M28.6697 263.392L29.3106 249.298L34.3838 244.617L107.851 298.493L106.871 314.819L28.6697 263.392Z" fill="#a3a4a8" fill-rule="nonzero" opacity="1" stroke="#ffffff" stroke-linecap="round" stroke-linejoin="round" stroke-width="3.02966"/>
<path d="M28.6697 263.392L29.3106 249.298L34.3838 244.617L107.851 298.493L106.871 314.819L28.6697 263.392Z" fill="#a3a4a8" fill-rule="nonzero" opacity="1" stroke="#ffffff" stroke-linecap="round" stroke-linejoin="round" stroke-width="3.02966"/>
<path d="M30.612 168.234L31.2529 154.141L36.3261 149.459L109.793 203.335L108.813 219.661L30.612 168.234Z" fill="#a3a4a8" fill-rule="nonzero" opacity="1" stroke="#ffffff" stroke-linecap="round" stroke-linejoin="round" stroke-width="3.02966"/>
<path d="M30.612 168.234L31.2529 154.141L36.3261 149.459L109.793 203.335L108.813 219.661L30.612 168.234Z" fill="#a3a4a8" fill-rule="nonzero" opacity="1" stroke="#ffffff" stroke-linecap="round" stroke-linejoin="round" stroke-width="3.02966"/>
<path d="M28.6697 263.392L29.3106 249.298L34.3838 244.617L107.851 298.493L106.871 314.819L28.6697 263.392Z" fill="#a3a4a8" fill-rule="nonzero" opacity="1" stroke="#ffffff" stroke-linecap="round" stroke-linejoin="round" stroke-width="3.02966"/>
<path d="M48.4364 175.02L48.3206 238.954L95.4403 268.404L96.3773 207.233L48.4364 175.02Z" fill="#866dc0" fill-rule="nonzero" opacity="1" stroke="none"/>
<path d="M44.2213 271.385L44.1055 335.319L91.2252 364.769L92.1622 303.598L44.2213 271.385Z" fill="#866dc0" fill-rule="nonzero" opacity="1" stroke="none"/>
<path d="M51.4617 176.963L51.3459 240.898L98.4656 270.347L99.4026 209.176L51.4617 176.963Z" fill="url(#LinearGradient)" fill-rule="nonzero" opacity="1" stroke="none"/>
<path d="M47.2467 273.328L47.1308 337.263L94.2505 366.713L95.1875 305.542L47.2467 273.328Z" fill="url(#LinearGradient_2)" fill-rule="nonzero" opacity="1" stroke="none"/>
<path d="M28.6697 263.392L29.3106 249.298L34.3838 244.617L107.851 298.493L106.871 314.819L28.6697 263.392Z" fill="#132f53" fill-rule="nonzero" opacity="1" stroke="#0a0809" stroke-linecap="round" stroke-linejoin="round" stroke-width="4.29118"/>
<path d="M30.612 168.234L31.2529 154.141L36.3261 149.459L109.179 198.645L108.424 221.435L30.612 168.234Z" fill="#132f53" fill-rule="nonzero" opacity="1" stroke="#0a0809" stroke-linecap="round" stroke-linejoin="round" stroke-width="4.29118"/>
<path d="M123.201 208.37L122.724 271.561L170.218 237.9L171.978 177.31L123.201 208.37Z" fill="#866dc0" fill-rule="nonzero" opacity="1" stroke="none"/>
<path d="M120.985 209.895L120.508 273.086L168.001 239.425L169.761 178.835L120.985 209.895Z" fill="url(#LinearGradient_3)" fill-rule="nonzero" opacity="1" stroke="none"/>
<path d="M128.423 296.358L128.296 361.086L173.121 332.415L173.121 269.841L128.423 296.358Z" fill="#866dc0" fill-rule="nonzero" opacity="1" stroke="none"/>
<path d="M126.231 297.885L126.104 362.613L170.929 333.943L170.929 271.369L126.231 297.885Z" fill="url(#LinearGradient_4)" fill-rule="nonzero" opacity="1" stroke="none"/>
<path d="M123.727 103.736L123.335 167.706L171.46 135.427L170.09 70.8701L123.727 103.736Z" fill="#866dc0" fill-rule="nonzero" opacity="1" stroke="none"/>
<path d="M109.647 298.656L183.014 247.295L189.846 251.635L189.154 263.718L108.994 315.635L109.647 298.656Z" fill="#132f53" fill-rule="nonzero" opacity="1" stroke="#0a0809" stroke-linecap="round" stroke-linejoin="round" stroke-width="4.29118"/>
<path d="M121.692 105.103L121.301 169.074L169.425 136.795L168.056 72.2378L121.692 105.103Z" fill="url(#LinearGradient_5)" fill-rule="nonzero" opacity="1" stroke="none"/>
<path d="M47.2504 78.1993L46.4795 138.139L93.5541 170.724L95.139 108.59L47.2504 78.1993Z" fill="#866dc0" fill-rule="nonzero" opacity="1" stroke="none"/>
<path d="M108.615 198.928L183.014 149.626L187.358 154.171L188.175 170.007L108.312 221L108.615 198.928Z" fill="#132f53" fill-rule="nonzero" opacity="1" stroke="#0a0809" stroke-linecap="round" stroke-linejoin="round" stroke-width="4.29118"/>
<path d="M49.5752 79.9782L48.8044 139.918L95.879 172.503L97.4638 110.369L49.5752 79.9782Z" fill="url(#LinearGradient_6)" fill-rule="nonzero" opacity="1" stroke="none"/>
<path d="M29.4646 80.8745L28.686 66.0939L109.048 12.2906L187.341 65.7447L187.406 80.609L181.187 82.4283L180.541 72.3406L108.841 122.396L33.3414 71.6298L33.917 82.9071L29.4646 80.8745Z" fill="#132f53" fill-rule="nonzero" opacity="1" stroke="#0a0809" stroke-linecap="round" stroke-linejoin="round" stroke-width="4.29118"/>
<path d="M187.734 252.765L111.37 304.904L110.921 312.168L187.092 262.593L187.734 252.765Z" fill="#0d1e34" fill-rule="nonzero" opacity="1" stroke="none"/>
<path d="M31.358 250.348L105.323 304.328L104.948 310.973C104.948 310.973 30.7199 261.652 30.9 262.156C31.08 262.66 31.4648 250.937 31.358 250.348Z" fill="#0d1e34" fill-rule="nonzero" opacity="1" stroke="none"/>
<path d="M185.116 154.987L110.645 206.734L110.116 217.936L185.995 168.906L185.116 154.987Z" fill="#0d1e34" fill-rule="nonzero" opacity="1" stroke="none"/>
<path d="M33.4109 155.082L106.222 204.567L106.234 217.8L32.5715 167.244L33.4109 155.082Z" fill="#0d1e34" fill-rule="nonzero" opacity="1" stroke="none"/>
<path d="M230.758 328.087L224.707 335.611L226.15 344.195L304.85 400.796L387.92 343.615L385.713 334.25L379.498 327.123L377.555 334.896L379.797 340.128L302.94 388.555L231.532 335.279L230.758 328.087Z" fill="#888b96" fill-rule="nonzero" opacity="1" stroke="none"/>
<path d="M407.504 327.094L401.453 334.618L402.896 343.202L481.596 399.803L564.666 342.622L562.459 333.257L556.244 326.13L554.3 333.903L556.543 339.135L479.686 387.562L408.278 334.286L407.504 327.094Z" fill="#888b96" fill-rule="nonzero" opacity="1" stroke="none"/>
<path d="M231.466 339.905L231.466 259.604L305.19 311.226L305.19 391.527L231.466 339.905Z" fill="#cb5135" fill-rule="nonzero" opacity="1" stroke="#ffffff" stroke-linecap="round" stroke-linejoin="round" stroke-width="3.02966"/>
<path d="M408.212 338.912L408.212 258.611L481.935 310.233L481.935 390.534L408.212 338.912Z" fill="#cb5135" fill-rule="nonzero" opacity="1" stroke="#ffffff" stroke-linecap="round" stroke-linejoin="round" stroke-width="3.02966"/>
<path d="M231.466 339.905L231.466 259.604L305.19 311.226L305.19 391.527L231.466 339.905Z" fill="#f9d69d" fill-rule="nonzero" opacity="1" stroke="#0a0809" stroke-linecap="round" stroke-linejoin="round" stroke-width="3.02966"/>
<path d="M408.212 338.912L408.212 258.611L481.935 310.233L481.935 390.534L408.212 338.912Z" fill="#96dfbb" fill-rule="nonzero" opacity="1" stroke="#0a0809" stroke-linecap="round" stroke-linejoin="round" stroke-width="3.02966"/>
<path d="M231.466 248.133L231.466 167.832L305.19 219.454L305.19 299.755L231.466 248.133Z" fill="#cb5135" fill-rule="nonzero" opacity="1" stroke="#ffffff" stroke-linecap="round" stroke-linejoin="round" stroke-width="3.02966"/>
<path d="M408.212 247.14L408.212 166.839L481.935 218.461L481.935 298.762L408.212 247.14Z" fill="#cb5135" fill-rule="nonzero" opacity="1" stroke="#ffffff" stroke-linecap="round" stroke-linejoin="round" stroke-width="3.02966"/>
<path d="M231.466 248.133L231.466 167.832L305.19 219.454L305.19 299.755L231.466 248.133Z" fill="#f9d69d" fill-rule="nonzero" opacity="1" stroke="#0a0809" stroke-linecap="round" stroke-linejoin="round" stroke-width="3.02966"/>
<path d="M408.212 247.14L408.212 166.839L481.935 218.461L481.935 298.762L408.212 247.14Z" fill="#96dfbb" fill-rule="nonzero" opacity="1" stroke="#0a0809" stroke-linecap="round" stroke-linejoin="round" stroke-width="3.02966"/>
<path d="M231.466 150.625L231.466 70.324L305.19 121.946L305.19 202.247L231.466 150.625Z" fill="#cb5135" fill-rule="nonzero" opacity="1" stroke="#ffffff" stroke-linecap="round" stroke-linejoin="round" stroke-width="3.02966"/>
<path d="M408.212 149.632L408.212 69.331L481.935 120.953L481.935 201.254L408.212 149.632Z" fill="#cb5135" fill-rule="nonzero" opacity="1" stroke="#ffffff" stroke-linecap="round" stroke-linejoin="round" stroke-width="3.02966"/>
<path d="M231.466 150.625L231.466 70.324L305.19 121.946L305.19 202.247L231.466 150.625Z" fill="#f9d69d" fill-rule="nonzero" opacity="1" stroke="#0a0809" stroke-linecap="round" stroke-linejoin="round" stroke-width="3.02966"/>
<path d="M408.212 149.632L408.212 69.331L481.935 120.953L481.935 201.254L408.212 149.632Z" fill="#96dfbb" fill-rule="nonzero" opacity="1" stroke="#0a0809" stroke-linecap="round" stroke-linejoin="round" stroke-width="3.02966"/>
<path d="M305.19 311.226L378.913 259.604L378.913 339.905L305.19 391.527L305.19 311.226Z" fill="#cb5135" fill-rule="nonzero" opacity="1" stroke="#ffffff" stroke-linecap="round" stroke-linejoin="round" stroke-width="3.02966"/>
<path d="M481.935 310.233L555.659 258.611L555.659 338.912L481.935 390.534L481.935 310.233Z" fill="#cb5135" fill-rule="nonzero" opacity="1" stroke="#ffffff" stroke-linecap="round" stroke-linejoin="round" stroke-width="3.02966"/>
<path d="M305.19 311.226L378.913 259.604L378.913 339.905L305.19 391.527L305.19 311.226Z" fill="#f9d69d" fill-rule="nonzero" opacity="1" stroke="#0a0809" stroke-linecap="round" stroke-linejoin="round" stroke-width="3.02966"/>
<path d="M481.935 310.233L555.659 258.611L555.659 338.912L481.935 390.534L481.935 310.233Z" fill="#96dfbb" fill-rule="nonzero" opacity="1" stroke="#0a0809" stroke-linecap="round" stroke-linejoin="round" stroke-width="3.02966"/>
<path d="M305.19 219.454L378.913 167.832L378.913 248.133L305.19 299.755L305.19 219.454Z" fill="#f9d69d" fill-rule="nonzero" opacity="1" stroke="#0a0809" stroke-linecap="round" stroke-linejoin="round" stroke-width="3.02966"/>
<path d="M481.935 218.461L555.659 166.839L555.659 247.14L481.935 298.762L481.935 218.461Z" fill="#96dfbb" fill-rule="nonzero" opacity="1" stroke="#0a0809" stroke-linecap="round" stroke-linejoin="round" stroke-width="3.02966"/>
<path d="M305.19 121.946L378.913 70.324L378.913 150.625L305.19 202.247L305.19 121.946Z" fill="#cb5135" fill-rule="nonzero" opacity="1" stroke="#ffffff" stroke-linecap="round" stroke-linejoin="round" stroke-width="3.02966"/>
<path d="M481.935 120.953L555.659 69.331L555.659 149.632L481.935 201.254L481.935 120.953Z" fill="#cb5135" fill-rule="nonzero" opacity="1" stroke="#ffffff" stroke-linecap="round" stroke-linejoin="round" stroke-width="3.02966"/>
<path d="M305.19 121.946L378.913 70.324L378.913 150.625L305.19 202.247L305.19 121.946Z" fill="#f9d69d" fill-rule="nonzero" opacity="1" stroke="#0a0809" stroke-linecap="round" stroke-linejoin="round" stroke-width="3.02966"/>
<path d="M481.935 120.953L555.659 69.331L555.659 149.632L481.935 201.254L481.935 120.953Z" fill="#96dfbb" fill-rule="nonzero" opacity="1" stroke="#0a0809" stroke-linecap="round" stroke-linejoin="round" stroke-width="3.02966"/>
<path d="M225.624 262.686L226.265 248.592L231.338 243.911L304.805 297.787L303.826 314.113L225.624 262.686Z" fill="#a3a4a8" fill-rule="nonzero" opacity="1" stroke="#ffffff" stroke-linecap="round" stroke-linejoin="round" stroke-width="3.02966"/>
<path d="M402.37 261.693L403.011 247.599L408.084 242.918L481.551 296.794L480.572 313.12L402.37 261.693Z" fill="#a3a4a8" fill-rule="nonzero" opacity="1" stroke="#ffffff" stroke-linecap="round" stroke-linejoin="round" stroke-width="3.02966"/>
<path d="M225.624 262.686L226.265 248.592L231.338 243.911L304.805 297.787L303.826 314.113L225.624 262.686Z" fill="#a3a4a8" fill-rule="nonzero" opacity="1" stroke="#ffffff" stroke-linecap="round" stroke-linejoin="round" stroke-width="3.02966"/>
<path d="M402.37 261.693L403.011 247.599L408.084 242.918L481.551 296.794L480.572 313.12L402.37 261.693Z" fill="#a3a4a8" fill-rule="nonzero" opacity="1" stroke="#ffffff" stroke-linecap="round" stroke-linejoin="round" stroke-width="3.02966"/>
<path d="M225.624 262.686L226.265 248.592L231.338 243.911L304.805 297.787L303.826 314.113L225.624 262.686Z" fill="#a3a4a8" fill-rule="nonzero" opacity="1" stroke="#ffffff" stroke-linecap="round" stroke-linejoin="round" stroke-width="3.02966"/>
<path d="M402.37 261.693L403.011 247.599L408.084 242.918L481.551 296.794L480.572 313.12L402.37 261.693Z" fill="#a3a4a8" fill-rule="nonzero" opacity="1" stroke="#ffffff" stroke-linecap="round" stroke-linejoin="round" stroke-width="3.02966"/>
<path d="M225.624 262.686L226.265 248.592L231.338 243.911L304.805 297.787L303.826 314.113L225.624 262.686Z" fill="#a3a4a8" fill-rule="nonzero" opacity="1" stroke="#ffffff" stroke-linecap="round" stroke-linejoin="round" stroke-width="3.02966"/>
<path d="M402.37 261.693L403.011 247.599L408.084 242.918L481.551 296.794L480.572 313.12L402.37 261.693Z" fill="#a3a4a8" fill-rule="nonzero" opacity="1" stroke="#ffffff" stroke-linecap="round" stroke-linejoin="round" stroke-width="3.02966"/>
<path d="M227.567 167.529L228.208 153.435L233.281 148.754L306.748 202.629L305.768 218.955L227.567 167.529Z" fill="#a3a4a8" fill-rule="nonzero" opacity="1" stroke="#ffffff" stroke-linecap="round" stroke-linejoin="round" stroke-width="3.02966"/>
<path d="M404.312 166.536L404.953 152.442L410.027 147.761L483.493 201.636L482.514 217.962L404.312 166.536Z" fill="#a3a4a8" fill-rule="nonzero" opacity="1" stroke="#ffffff" stroke-linecap="round" stroke-linejoin="round" stroke-width="3.02966"/>
<path d="M227.567 167.529L228.208 153.435L233.281 148.754L306.748 202.629L305.768 218.955L227.567 167.529Z" fill="#a3a4a8" fill-rule="nonzero" opacity="1" stroke="#ffffff" stroke-linecap="round" stroke-linejoin="round" stroke-width="3.02966"/>
<path d="M404.312 166.536L404.953 152.442L410.027 147.761L483.493 201.636L482.514 217.962L404.312 166.536Z" fill="#a3a4a8" fill-rule="nonzero" opacity="1" stroke="#ffffff" stroke-linecap="round" stroke-linejoin="round" stroke-width="3.02966"/>
<path d="M225.624 262.686L226.265 248.592L231.338 243.911L304.805 297.787L303.826 314.113L225.624 262.686Z" fill="#a3a4a8" fill-rule="nonzero" opacity="1" stroke="#ffffff" stroke-linecap="round" stroke-linejoin="round" stroke-width="3.02966"/>
<path d="M402.37 261.693L403.011 247.599L408.084 242.918L481.551 296.794L480.572 313.12L402.37 261.693Z" fill="#a3a4a8" fill-rule="nonzero" opacity="1" stroke="#ffffff" stroke-linecap="round" stroke-linejoin="round" stroke-width="3.02966"/>
<path d="M245.391 174.314L245.275 238.248L292.395 267.698L293.332 206.527L245.391 174.314Z" fill="#ee8d10" fill-rule="nonzero" opacity="1" stroke="none"/>
<path d="M240.18 273.124L240.064 337.058L287.184 366.508L288.121 305.337L240.18 273.124Z" fill="#ee8d10" fill-rule="nonzero" opacity="1" stroke="none"/>
<path d="M422.137 173.321L422.021 237.255L469.141 266.705L470.078 205.534L422.137 173.321Z" fill="#01a89d" fill-rule="nonzero" opacity="1" stroke="none"/>
<path d="M417.724 270.073L417.608 334.007L464.727 363.457L465.664 302.286L417.724 270.073Z" fill="#01a89d" fill-rule="nonzero" opacity="1" stroke="none"/>
<path d="M248.416 176.257L248.301 240.192L295.42 269.642L296.357 208.471L248.416 176.257Z" fill="url(#LinearGradient_7)" fill-rule="nonzero" opacity="1" stroke="none"/>
<path d="M243.205 275.067L243.09 339.002L290.209 368.451L291.146 307.28L243.205 275.067Z" fill="url(#LinearGradient_8)" fill-rule="nonzero" opacity="1" stroke="none"/>
<path d="M425.162 175.264L425.046 239.199L472.166 268.649L473.103 207.478L425.162 175.264Z" fill="url(#LinearGradient_9)" fill-rule="nonzero" opacity="1" stroke="none"/>
<path d="M420.749 272.017L420.633 335.951L467.753 365.401L468.69 304.23L420.749 272.017Z" fill="url(#LinearGradient_10)" fill-rule="nonzero" opacity="1" stroke="none"/>
<path d="M225.624 262.686L226.265 248.592L231.338 243.911L304.805 297.787L303.826 314.113L225.624 262.686Z" fill="#132f53" fill-rule="nonzero" opacity="1" stroke="#0a0809" stroke-linecap="round" stroke-linejoin="round" stroke-width="4.29118"/>
<path d="M402.37 261.693L403.011 247.599L408.084 242.918L481.551 296.794L480.572 313.12L402.37 261.693Z" fill="#132f53" fill-rule="nonzero" opacity="1" stroke="#0a0809" stroke-linecap="round" stroke-linejoin="round" stroke-width="4.29118"/>
<path d="M227.567 167.529L228.208 153.435L233.281 148.754L306.134 197.94L305.379 220.729L227.567 167.529Z" fill="#132f53" fill-rule="nonzero" opacity="1" stroke="#0a0809" stroke-linecap="round" stroke-linejoin="round" stroke-width="4.29118"/>
<path d="M404.312 166.536L404.953 152.442L410.027 147.761L482.88 196.947L482.125 219.736L404.312 166.536Z" fill="#132f53" fill-rule="nonzero" opacity="1" stroke="#0a0809" stroke-linecap="round" stroke-linejoin="round" stroke-width="4.29118"/>
<path d="M320.156 207.664L319.679 270.855L367.172 237.194L368.932 176.604L320.156 207.664Z" fill="#ee8d10" fill-rule="nonzero" opacity="1" stroke="none"/>
<path d="M496.901 206.671L496.424 269.862L543.918 236.201L545.678 175.611L496.901 206.671Z" fill="#01a89d" fill-rule="nonzero" opacity="1" stroke="none"/>
<path d="M317.939 209.19L317.462 272.38L364.956 238.72L366.716 178.129L317.939 209.19Z" fill="url(#LinearGradient_11)" fill-rule="nonzero" opacity="1" stroke="none"/>
<path d="M494.685 208.197L494.208 271.387L541.702 237.727L543.462 177.136L494.685 208.197Z" fill="url(#LinearGradient_12)" fill-rule="nonzero" opacity="1" stroke="none"/>
<path d="M325.377 295.652L325.25 360.38L370.076 331.709L370.076 269.135L325.377 295.652Z" fill="#ee8d10" fill-rule="nonzero" opacity="1" stroke="none"/>
<path d="M502.123 294.659L501.996 359.387L546.822 330.717L546.822 268.143L502.123 294.659Z" fill="#01a89d" fill-rule="nonzero" opacity="1" stroke="none"/>
<path d="M323.185 297.18L323.058 361.908L367.884 333.237L367.884 270.663L323.185 297.18Z" fill="url(#LinearGradient_13)" fill-rule="nonzero" opacity="1" stroke="none"/>
<path d="M499.931 296.187L499.804 360.915L544.63 332.244L544.63 269.67L499.931 296.187Z" fill="url(#LinearGradient_14)" fill-rule="nonzero" opacity="1" stroke="none"/>
<path d="M320.681 103.03L320.29 167L368.415 134.722L367.045 70.1643L320.681 103.03Z" fill="#ee8d10" fill-rule="nonzero" opacity="1" stroke="none"/>
<path d="M497.427 102.037L497.036 166.007L545.16 133.729L543.791 69.1713L497.427 102.037Z" fill="#01a89d" fill-rule="nonzero" opacity="1" stroke="none"/>
<path d="M306.601 297.95L379.969 246.589L386.8 250.929L386.109 263.012L305.948 314.929L306.601 297.95Z" fill="#132f53" fill-rule="nonzero" opacity="1" stroke="#0a0809" stroke-linecap="round" stroke-linejoin="round" stroke-width="4.29118"/>
<path d="M483.347 296.957L556.714 245.596L563.546 249.936L562.855 262.02L482.694 313.936L483.347 296.957Z" fill="#132f53" fill-rule="nonzero" opacity="1" stroke="#0a0809" stroke-linecap="round" stroke-linejoin="round" stroke-width="4.29118"/>
<path d="M318.647 104.398L318.255 168.368L366.38 136.089L365.011 71.532L318.647 104.398Z" fill="url(#LinearGradient_15)" fill-rule="nonzero" opacity="1" stroke="none"/>
<path d="M495.392 103.405L495.001 167.375L543.126 135.096L541.756 70.5391L495.392 103.405Z" fill="url(#LinearGradient_16)" fill-rule="nonzero" opacity="1" stroke="none"/>
<path d="M244.205 77.4934L243.434 137.434L290.509 170.018L292.094 107.885L244.205 77.4934Z" fill="#ee8d10" fill-rule="nonzero" opacity="1" stroke="none"/>
<path d="M420.951 76.5005L420.18 136.441L467.255 169.025L468.839 106.892L420.951 76.5005Z" fill="#01a89d" fill-rule="nonzero" opacity="1" stroke="none"/>
<path d="M305.569 198.222L379.969 148.92L384.313 153.465L385.129 169.301L305.267 220.295L305.569 198.222Z" fill="#132f53" fill-rule="nonzero" opacity="1" stroke="#0a0809" stroke-linecap="round" stroke-linejoin="round" stroke-width="4.29118"/>
<path d="M482.315 197.229L556.714 147.927L561.059 152.472L561.875 168.308L482.012 219.302L482.315 197.229Z" fill="#132f53" fill-rule="nonzero" opacity="1" stroke="#0a0809" stroke-linecap="round" stroke-linejoin="round" stroke-width="4.29118"/>
<path d="M246.53 79.2724L245.759 139.213L292.834 171.797L294.419 109.664L246.53 79.2724Z" fill="url(#LinearGradient_17)" fill-rule="nonzero" opacity="1" stroke="none"/>
<path d="M423.276 78.2795L422.505 138.22L469.579 170.804L471.164 108.671L423.276 78.2795Z" fill="url(#LinearGradient_18)" fill-rule="nonzero" opacity="1" stroke="none"/>
<path d="M226.419 80.1687L225.641 65.3881L306.002 11.5848L384.295 65.0389L384.36 79.9032L378.141 81.7225L377.496 71.6348L305.796 121.69L230.296 70.924L230.872 82.2013L226.419 80.1687Z" fill="#132f53" fill-rule="nonzero" opacity="1" stroke="#0a0809" stroke-linecap="round" stroke-linejoin="round" stroke-width="4.29118"/>
<path d="M403.165 79.1757L402.386 64.3951L482.748 10.5919L561.041 64.046L561.106 78.9103L554.887 80.7295L554.242 70.6419L482.541 120.697L407.042 69.9311L407.617 81.2083L403.165 79.1757Z" fill="#132f53" fill-rule="nonzero" opacity="1" stroke="#0a0809" stroke-linecap="round" stroke-linejoin="round" stroke-width="4.29118"/>
<path d="M384.688 252.059L308.325 304.198L307.876 311.462L384.047 261.887L384.688 252.059Z" fill="#0d1e34" fill-rule="nonzero" opacity="1" stroke="none"/>
<path d="M561.434 251.066L485.071 303.205L484.621 310.469L560.792 260.894L561.434 251.066Z" fill="#0d1e34" fill-rule="nonzero" opacity="1" stroke="none"/>
<path d="M228.313 249.642L302.278 303.622L301.902 310.267C301.902 310.267 227.675 260.947 227.855 261.451C228.035 261.955 228.419 250.231 228.313 249.642Z" fill="#0d1e34" fill-rule="nonzero" opacity="1" stroke="none"/>
<path d="M405.058 248.649L479.024 302.629L478.648 309.274C478.648 309.274 404.42 259.954 404.6 260.458C404.78 260.962 405.165 249.238 405.058 248.649Z" fill="#0d1e34" fill-rule="nonzero" opacity="1" stroke="none"/>
<path d="M382.071 154.281L307.6 206.028L307.07 217.23L382.95 168.2L382.071 154.281Z" fill="#0d1e34" fill-rule="nonzero" opacity="1" stroke="none"/>
<path d="M558.816 153.288L484.346 205.035L483.816 216.237L559.696 167.207L558.816 153.288Z" fill="#0d1e34" fill-rule="nonzero" opacity="1" stroke="none"/>
<path d="M230.366 154.376L303.177 203.861L303.189 217.094L229.526 166.538L230.366 154.376Z" fill="#0d1e34" fill-rule="nonzero" opacity="1" stroke="none"/>
<path d="M407.111 153.383L479.922 202.868L479.934 216.101L406.272 165.545L407.111 153.383Z" fill="#0d1e34" fill-rule="nonzero" opacity="1" stroke="none"/>
</g>
</svg>
