<?xml version="1.0" encoding="UTF-8" standalone="no"?>
<!DOCTYPE svg PUBLIC "-//W3C//DTD SVG 1.1//EN" "http://www.w3.org/Graphics/SVG/1.1/DTD/svg11.dtd">
<!-- Created with Vectornator (http://vectornator.io/) -->
<svg height="100%" stroke-miterlimit="10" style="fill-rule:nonzero;clip-rule:evenodd;stroke-linecap:round;stroke-linejoin:round;" version="1.1" viewBox="0 0 595.35 419.58" width="100%" xml:space="preserve" xmlns="http://www.w3.org/2000/svg" xmlns:vectornator="http://vectornator.io" xmlns:xlink="http://www.w3.org/1999/xlink">
<defs>
<linearGradient gradientTransform="matrix(1 0 0 1 -1437.09 -86.3538)" gradientUnits="userSpaceOnUse" id="LinearGradient" x1="1483.12" x2="1531.17" y1="313.227" y2="313.227">
<stop offset="0" stop-color="#f2f2f2"/>
<stop offset="1" stop-color="#2773a9"/>
</linearGradient>
<linearGradient gradientTransform="matrix(1 0 0 1 -1614.45 -208.078)" gradientUnits="userSpaceOnUse" id="LinearGradient_2" x1="1729.64" x2="1778.89" y1="437.256" y2="437.256">
<stop offset="0" stop-color="#f2f2f2"/>
<stop offset="1" stop-color="#2773a9"/>
</linearGradient>
<linearGradient gradientTransform="matrix(1 0 0 1 -1437.09 -86.3538)" gradientUnits="userSpaceOnUse" id="LinearGradient_3" x1="1557.87" x2="1602.7" y1="406.563" y2="406.563">
<stop offset="0" stop-color="#f2f2f2"/>
<stop offset="1" stop-color="#2773a9"/>
</linearGradient>
<linearGradient gradientTransform="matrix(1 0 0 1 -1437.09 -86.3538)" gradientUnits="userSpaceOnUse" id="LinearGradient_4" x1="1553.07" x2="1601.2" y1="210.227" y2="210.227">
<stop offset="0" stop-color="#f2f2f2"/>
<stop offset="1" stop-color="#2773a9"/>
</linearGradient>
<linearGradient gradientTransform="matrix(1 0 0 1 -1437.09 -86.3538)" gradientUnits="userSpaceOnUse" id="LinearGradient_5" x1="1480.58" x2="1529.23" y1="215.812" y2="215.812">
<stop offset="0" stop-color="#f2f2f2"/>
<stop offset="1" stop-color="#2773a9"/>
</linearGradient>
<linearGradient gradientTransform="matrix(1 0 0 1 -1240.14 -87.0596)" gradientUnits="userSpaceOnUse" id="LinearGradient_6" x1="1483.12" x2="1531.17" y1="313.227" y2="313.227">
<stop offset="0" stop-color="#f2f2f2"/>
<stop offset="1" stop-color="#2773a9"/>
</linearGradient>
<linearGradient gradientTransform="matrix(1 0 0 1 -1063.39 -88.0526)" gradientUnits="userSpaceOnUse" id="LinearGradient_7" x1="1483.12" x2="1531.17" y1="313.227" y2="313.227">
<stop offset="0" stop-color="#f2f2f2"/>
<stop offset="1" stop-color="#2773a9"/>
</linearGradient>
<linearGradient gradientTransform="matrix(1 0 0 1 -1240.14 -87.0596)" gradientUnits="userSpaceOnUse" id="LinearGradient_8" x1="1552.28" x2="1601.53" y1="315.532" y2="315.532">
<stop offset="0" stop-color="#f2f2f2"/>
<stop offset="1" stop-color="#2773a9"/>
</linearGradient>
<linearGradient gradientTransform="matrix(1 0 0 1 -1063.39 -88.0526)" gradientUnits="userSpaceOnUse" id="LinearGradient_9" x1="1552.28" x2="1601.53" y1="315.532" y2="315.532">
<stop offset="0" stop-color="#f2f2f2"/>
<stop offset="1" stop-color="#2773a9"/>
</linearGradient>
<linearGradient gradientTransform="matrix(1 0 0 1 -1240.14 -87.0596)" gradientUnits="userSpaceOnUse" id="LinearGradient_10" x1="1557.87" x2="1602.7" y1="406.563" y2="406.563">
<stop offset="0" stop-color="#f2f2f2"/>
<stop offset="1" stop-color="#2773a9"/>
</linearGradient>
<linearGradient gradientTransform="matrix(1 0 0 1 -1063.39 -88.0526)" gradientUnits="userSpaceOnUse" id="LinearGradient_11" x1="1557.87" x2="1602.7" y1="406.563" y2="406.563">
<stop offset="0" stop-color="#f2f2f2"/>
<stop offset="1" stop-color="#2773a9"/>
</linearGradient>
<linearGradient gradientTransform="matrix(1 0 0 1 -1240.14 -87.0596)" gradientUnits="userSpaceOnUse" id="LinearGradient_12" x1="1553.07" x2="1601.2" y1="210.227" y2="210.227">
<stop offset="0" stop-color="#f2f2f2"/>
<stop offset="1" stop-color="#2773a9"/>
</linearGradient>
<linearGradient gradientTransform="matrix(1 0 0 1 -1063.39 -88.0526)" gradientUnits="userSpaceOnUse" id="LinearGradient_13" x1="1553.07" x2="1601.2" y1="210.227" y2="210.227">
<stop offset="0" stop-color="#f2f2f2"/>
<stop offset="1" stop-color="#2773a9"/>
</linearGradient>
<linearGradient gradientTransform="matrix(1 0 0 1 -1240.14 -87.0596)" gradientUnits="userSpaceOnUse" id="LinearGradient_14" x1="1480.58" x2="1529.23" y1="215.812" y2="215.812">
<stop offset="0" stop-color="#f2f2f2"/>
<stop offset="1" stop-color="#2773a9"/>
</linearGradient>
<linearGradient gradientTransform="matrix(1 0 0 1 -1063.39 -88.0526)" gradientUnits="userSpaceOnUse" id="LinearGradient_15" x1="1480.58" x2="1529.23" y1="215.812" y2="215.812">
<stop offset="0" stop-color="#f2f2f2"/>
<stop offset="1" stop-color="#2773a9"/>
</linearGradient>
</defs>
<g id="Layer-1" vectornator:layerName="Layer 1">
<path d="M28.4811 332.011L22.4303 339.535L23.8731 348.118L102.573 404.719L185.643 347.539L183.436 338.174L177.221 331.046L175.278 338.82L177.52 344.052L100.663 392.479L29.255 339.203L28.4811 332.011Z" fill="#888b96" fill-rule="nonzero" opacity="1" stroke="none"/>
<path d="M29.1889 343.828L29.1889 263.528L102.913 315.15L102.913 395.45L29.1889 343.828Z" fill="#cb5135" fill-rule="nonzero" opacity="1" stroke="#ffffff" stroke-linecap="round" stroke-linejoin="round" stroke-width="3.02966"/>
<path d="M29.1889 343.828L29.1889 263.528L102.913 315.15L102.913 395.45L29.1889 343.828Z" fill="#eadae5" fill-rule="nonzero" opacity="1" stroke="#0a0809" stroke-linecap="round" stroke-linejoin="round" stroke-width="3.02966"/>
<path d="M29.1889 252.056L29.1889 171.756L102.913 223.377L102.913 303.678L29.1889 252.056Z" fill="#cb5135" fill-rule="nonzero" opacity="1" stroke="#ffffff" stroke-linecap="round" stroke-linejoin="round" stroke-width="3.02966"/>
<path d="M29.1889 252.056L29.1889 171.756L102.913 223.377L102.913 303.678L29.1889 252.056Z" fill="#eadae5" fill-rule="nonzero" opacity="1" stroke="#0a0809" stroke-linecap="round" stroke-linejoin="round" stroke-width="3.02966"/>
<path d="M29.1889 154.548L29.1889 74.2476L102.913 125.869L102.913 206.17L29.1889 154.548Z" fill="#cb5135" fill-rule="nonzero" opacity="1" stroke="#ffffff" stroke-linecap="round" stroke-linejoin="round" stroke-width="3.02966"/>
<path d="M29.1889 154.548L29.1889 74.2476L102.913 125.869L102.913 206.17L29.1889 154.548Z" fill="#eadae5" fill-rule="nonzero" opacity="1" stroke="#0a0809" stroke-linecap="round" stroke-linejoin="round" stroke-width="3.02966"/>
<path d="M102.913 315.15L176.636 263.528L176.636 343.828L102.913 395.45L102.913 315.15Z" fill="#cb5135" fill-rule="nonzero" opacity="1" stroke="#ffffff" stroke-linecap="round" stroke-linejoin="round" stroke-width="3.02966"/>
<path d="M102.913 315.15L176.636 263.528L176.636 343.828L102.913 395.45L102.913 315.15Z" fill="#eadae5" fill-rule="nonzero" opacity="1" stroke="#0a0809" stroke-linecap="round" stroke-linejoin="round" stroke-width="3.02966"/>
<path d="M102.913 223.377L176.636 171.756L176.636 252.056L102.913 303.678L102.913 223.377Z" fill="#eadae5" fill-rule="nonzero" opacity="1" stroke="#0a0809" stroke-linecap="round" stroke-linejoin="round" stroke-width="3.02966"/>
<path d="M102.913 125.869L176.636 74.2476L176.636 154.548L102.913 206.17L102.913 125.869Z" fill="#cb5135" fill-rule="nonzero" opacity="1" stroke="#ffffff" stroke-linecap="round" stroke-linejoin="round" stroke-width="3.02966"/>
<path d="M102.913 125.869L176.636 74.2476L176.636 154.548L102.913 206.17L102.913 125.869Z" fill="#eadae5" fill-rule="nonzero" opacity="1" stroke="#0a0809" stroke-linecap="round" stroke-linejoin="round" stroke-width="3.02966"/>
<path d="M23.3473 266.61L23.9882 252.516L29.0614 247.835L102.528 301.71L101.549 318.036L23.3473 266.61Z" fill="#a3a4a8" fill-rule="nonzero" opacity="1" stroke="#ffffff" stroke-linecap="round" stroke-linejoin="round" stroke-width="3.02966"/>
<path d="M23.3473 266.61L23.9882 252.516L29.0614 247.835L102.528 301.71L101.549 318.036L23.3473 266.61Z" fill="#a3a4a8" fill-rule="nonzero" opacity="1" stroke="#ffffff" stroke-linecap="round" stroke-linejoin="round" stroke-width="3.02966"/>
<path d="M23.3473 266.61L23.9882 252.516L29.0614 247.835L102.528 301.71L101.549 318.036L23.3473 266.61Z" fill="#a3a4a8" fill-rule="nonzero" opacity="1" stroke="#ffffff" stroke-linecap="round" stroke-linejoin="round" stroke-width="3.02966"/>
<path d="M23.3473 266.61L23.9882 252.516L29.0614 247.835L102.528 301.71L101.549 318.036L23.3473 266.61Z" fill="#a3a4a8" fill-rule="nonzero" opacity="1" stroke="#ffffff" stroke-linecap="round" stroke-linejoin="round" stroke-width="3.02966"/>
<path d="M25.2896 171.452L25.9305 157.358L31.0037 152.677L104.471 206.553L103.491 222.879L25.2896 171.452Z" fill="#a3a4a8" fill-rule="nonzero" opacity="1" stroke="#ffffff" stroke-linecap="round" stroke-linejoin="round" stroke-width="3.02966"/>
<path d="M25.2896 171.452L25.9305 157.358L31.0037 152.677L104.471 206.553L103.491 222.879L25.2896 171.452Z" fill="#a3a4a8" fill-rule="nonzero" opacity="1" stroke="#ffffff" stroke-linecap="round" stroke-linejoin="round" stroke-width="3.02966"/>
<path d="M23.3473 266.61L23.9882 252.516L29.0614 247.835L102.528 301.71L101.549 318.036L23.3473 266.61Z" fill="#a3a4a8" fill-rule="nonzero" opacity="1" stroke="#ffffff" stroke-linecap="round" stroke-linejoin="round" stroke-width="3.02966"/>
<path d="M43.114 178.237L42.9981 242.172L90.1178 271.622L91.0548 210.451L43.114 178.237Z" fill="#866dc0" fill-rule="nonzero" opacity="1" stroke="none"/>
<path d="M46.1393 180.181L46.0235 244.115L93.1432 273.565L94.0802 212.394L46.1393 180.181Z" fill="url(#LinearGradient)" fill-rule="nonzero" opacity="1" stroke="none"/>
<path d="M23.3473 266.61L23.9882 252.516L29.0614 247.835L102.528 301.71L101.549 318.036L23.3473 266.61Z" fill="#132f53" fill-rule="nonzero" opacity="1" stroke="#0a0809" stroke-linecap="round" stroke-linejoin="round" stroke-width="4.29118"/>
<path d="M25.2896 171.452L25.9305 157.358L31.0037 152.677L103.857 201.863L103.102 224.652L25.2896 171.452Z" fill="#132f53" fill-rule="nonzero" opacity="1" stroke="#0a0809" stroke-linecap="round" stroke-linejoin="round" stroke-width="4.29118"/>
<path d="M117.878 211.588L117.401 274.778L164.895 241.118L166.655 180.527L117.878 211.588Z" fill="#866dc0" fill-rule="nonzero" opacity="1" stroke="none"/>
<path d="M115.662 213.113L115.185 276.304L162.679 242.643L164.439 182.053L115.662 213.113Z" fill="url(#LinearGradient_2)" fill-rule="nonzero" opacity="1" stroke="none"/>
<path d="M123.1 299.575L122.973 364.303L167.799 335.633L167.799 273.059L123.1 299.575Z" fill="#866dc0" fill-rule="nonzero" opacity="1" stroke="none"/>
<path d="M120.908 301.103L120.781 365.831L165.607 337.161L165.607 274.587L120.908 301.103Z" fill="url(#LinearGradient_3)" fill-rule="nonzero" opacity="1" stroke="none"/>
<path d="M118.404 106.953L118.013 170.924L166.137 138.645L164.768 74.0879L118.404 106.953Z" fill="#866dc0" fill-rule="nonzero" opacity="1" stroke="none"/>
<path d="M104.324 301.874L177.691 250.512L184.523 254.852L183.832 266.936L103.671 318.853L104.324 301.874Z" fill="#132f53" fill-rule="nonzero" opacity="1" stroke="#0a0809" stroke-linecap="round" stroke-linejoin="round" stroke-width="4.29118"/>
<path d="M116.37 108.321L115.978 172.292L164.103 140.013L162.733 75.4556L116.37 108.321Z" fill="url(#LinearGradient_4)" fill-rule="nonzero" opacity="1" stroke="none"/>
<path d="M41.9279 81.417L41.1571 141.357L88.2317 173.941L89.8165 111.808L41.9279 81.417Z" fill="#866dc0" fill-rule="nonzero" opacity="1" stroke="none"/>
<path d="M103.292 202.145L177.692 152.844L182.036 157.389L182.852 173.225L102.989 224.218L103.292 202.145Z" fill="#132f53" fill-rule="nonzero" opacity="1" stroke="#0a0809" stroke-linecap="round" stroke-linejoin="round" stroke-width="4.29118"/>
<path d="M44.2528 83.196L43.482 143.136L90.5566 175.72L92.1414 113.587L44.2528 83.196Z" fill="url(#LinearGradient_5)" fill-rule="nonzero" opacity="1" stroke="none"/>
<path d="M24.1422 84.0923L23.3636 69.3117L103.725 15.5084L182.018 68.9625L182.083 83.8268L175.864 85.6461L175.219 75.5584L103.519 125.614L28.019 74.8476L28.5946 86.1249L24.1422 84.0923Z" fill="#132f53" fill-rule="nonzero" opacity="1" stroke="#0a0809" stroke-linecap="round" stroke-linejoin="round" stroke-width="4.29118"/>
<path d="M37.0316 347.64L37.2733 291.88L62.758 308.491L60.2134 363.635L37.0316 347.64Z" fill="#541f4c" fill-rule="nonzero" opacity="1" stroke="#0a0809" stroke-linecap="round" stroke-linejoin="round" stroke-width="0.290355"/>
<path d="M42.9619 305.76L42.5068 331.7L55.2491 338.526L55.7042 313.497L42.9619 305.76Z" fill="#b9bed5" fill-rule="nonzero" opacity="1" stroke="#0a0809" stroke-linecap="round" stroke-linejoin="round" stroke-width="0.290355"/>
<path d="M42.855 305.956L42.351 333.215L56.4634 340.388L56.9674 314.086L42.855 305.956Z" fill="#32192f" fill-rule="nonzero" opacity="1" stroke="none"/>
<path d="M42.9619 305.76L42.5068 331.7L55.2491 338.526L55.7042 313.497L42.9619 305.76Z" fill="#b9bed5" fill-rule="nonzero" opacity="1" stroke="#0a0809" stroke-linecap="round" stroke-linejoin="round" stroke-width="0.290355"/>
<path d="M28.8543 271.629C28.8543 271.629 20.1077 289.414 23.1657 297.569C25.2136 303.03 85.0571 340.346 90.5181 339.436C93.4702 338.944 102.123 332.61 102.123 332.61L102.35 320.55L28.8543 271.629Z" fill="#f4ece2" fill-rule="nonzero" opacity="1" stroke="#0a0809" stroke-linecap="round" stroke-linejoin="round" stroke-width="1.40207"/>
<path d="M29.1368 272.658C29.1368 272.658 23.4583 284.545 23.2681 292.012C23.2187 293.952 22.8652 294.913 23.6205 296.97C24.1071 298.295 26.4294 300.166 26.5677 300.132C26.5677 300.132 26.965 296.781 29.2402 291.06C31.5154 285.34 37.5202 278.131 37.5202 278.131L29.1368 272.658Z" fill="#01618b" fill-rule="nonzero" opacity="1" stroke="none"/>
<path d="M41.8464 281.088C42.3901 280.738 37.7431 286.819 35.0796 292.516C32.5693 297.886 30.807 303.447 31.0331 303.63C32.7791 305.037 38.3973 309.132 38.5067 308.971C38.6161 308.81 39.2745 305.14 41.5497 299.419C43.8249 293.699 49.9309 286.455 49.9309 286.455C49.9309 286.455 41.7948 281.121 41.8464 281.088Z" fill="#cb5135" fill-rule="nonzero" opacity="1" stroke="none"/>
<path d="M41.8464 281.088C42.3901 280.738 37.7431 286.819 35.0796 292.516C32.5693 297.886 30.807 303.447 31.0331 303.63C32.7791 305.037 38.3973 309.132 38.5067 308.971C38.6161 308.81 39.2745 305.14 41.5497 299.419C43.8249 293.699 49.9309 286.455 49.9309 286.455C49.9309 286.455 41.7948 281.121 41.8464 281.088Z" fill="#01618b" fill-rule="nonzero" opacity="1" stroke="none"/>
<path d="M56.3581 290.768C56.9019 290.417 52.2548 296.499 49.5914 302.196C47.0811 307.566 45.2792 313.386 45.5053 313.568C47.2513 314.975 53.1033 318.758 53.2127 318.598C53.3221 318.437 53.7862 314.82 56.0614 309.099C58.3366 303.379 64.4426 296.134 64.4426 296.134C64.4426 296.134 56.3065 290.801 56.3581 290.768Z" fill="#01618b" fill-rule="nonzero" opacity="1" stroke="none"/>
<path d="M70.9623 300.374C71.506 300.024 66.8589 306.105 64.1955 311.803C61.6852 317.172 60.0587 322.727 60.2847 322.909C62.0307 324.317 67.6368 327.614 67.7462 327.453C67.8556 327.293 68.3903 324.426 70.6655 318.706C72.9407 312.985 79.0525 305.823 79.0525 305.823C79.0525 305.823 70.9106 300.407 70.9623 300.374Z" fill="#01618b" fill-rule="nonzero" opacity="1" stroke="none"/>
<path d="M85.6205 310.239C86.1643 309.888 81.5172 315.97 78.8538 321.667C76.3435 327.037 74.8119 331.452 75.038 331.635C76.784 333.042 82.7351 335.963 82.8445 335.802C82.9539 335.641 83.0486 334.291 85.3238 328.57C87.599 322.85 93.705 315.605 93.705 315.605C93.705 315.605 85.5689 310.272 85.6205 310.239Z" fill="#01618b" fill-rule="nonzero" opacity="1" stroke="none"/>
<path d="M182.411 255.982L106.048 308.122L105.599 315.386L181.769 265.811L182.411 255.982Z" fill="#0d1e34" fill-rule="nonzero" opacity="1" stroke="none"/>
<path d="M26.0356 253.566L100.001 307.546L99.6251 314.19C99.6251 314.19 25.3975 264.87 25.5776 265.374C25.7576 265.878 26.1424 254.155 26.0356 253.566Z" fill="#0d1e34" fill-rule="nonzero" opacity="1" stroke="none"/>
<path d="M179.794 158.204L105.323 209.952L104.793 221.154L180.673 172.124L179.794 158.204Z" fill="#0d1e34" fill-rule="nonzero" opacity="1" stroke="none"/>
<path d="M28.0885 158.299L100.899 207.784L100.912 221.018L27.249 170.461L28.0885 158.299Z" fill="#0d1e34" fill-rule="nonzero" opacity="1" stroke="none"/>
<path d="M225.436 331.305L219.385 338.829L220.828 347.413L299.528 404.014L382.598 346.833L380.391 337.468L374.176 330.34L372.232 338.114L374.475 343.346L297.618 391.773L226.21 338.497L225.436 331.305Z" fill="#888b96" fill-rule="nonzero" opacity="1" stroke="none"/>
<path d="M402.182 330.312L396.131 337.836L397.574 346.42L476.274 403.021L559.344 345.84L557.137 336.475L550.921 329.348L548.978 337.121L551.22 342.353L474.363 390.78L402.955 337.504L402.182 330.312Z" fill="#888b96" fill-rule="nonzero" opacity="1" stroke="none"/>
<path d="M226.144 343.123L226.144 262.822L299.867 314.444L299.867 394.745L226.144 343.123Z" fill="#cb5135" fill-rule="nonzero" opacity="1" stroke="#ffffff" stroke-linecap="round" stroke-linejoin="round" stroke-width="3.02966"/>
<path d="M402.889 342.13L402.889 261.829L476.613 313.451L476.613 393.752L402.889 342.13Z" fill="#cb5135" fill-rule="nonzero" opacity="1" stroke="#ffffff" stroke-linecap="round" stroke-linejoin="round" stroke-width="3.02966"/>
<path d="M226.144 343.123L226.144 262.822L299.867 314.444L299.867 394.745L226.144 343.123Z" fill="#f9d69d" fill-rule="nonzero" opacity="1" stroke="#0a0809" stroke-linecap="round" stroke-linejoin="round" stroke-width="3.02966"/>
<path d="M402.889 342.13L402.889 261.829L476.613 313.451L476.613 393.752L402.889 342.13Z" fill="#96dfbb" fill-rule="nonzero" opacity="1" stroke="#0a0809" stroke-linecap="round" stroke-linejoin="round" stroke-width="3.02966"/>
<path d="M226.144 251.35L226.144 171.05L299.867 222.672L299.867 302.972L226.144 251.35Z" fill="#cb5135" fill-rule="nonzero" opacity="1" stroke="#ffffff" stroke-linecap="round" stroke-linejoin="round" stroke-width="3.02966"/>
<path d="M402.889 250.358L402.889 170.057L476.613 221.679L476.613 301.979L402.889 250.358Z" fill="#cb5135" fill-rule="nonzero" opacity="1" stroke="#ffffff" stroke-linecap="round" stroke-linejoin="round" stroke-width="3.02966"/>
<path d="M226.144 251.35L226.144 171.05L299.867 222.672L299.867 302.972L226.144 251.35Z" fill="#f9d69d" fill-rule="nonzero" opacity="1" stroke="#0a0809" stroke-linecap="round" stroke-linejoin="round" stroke-width="3.02966"/>
<path d="M402.889 250.358L402.889 170.057L476.613 221.679L476.613 301.979L402.889 250.358Z" fill="#96dfbb" fill-rule="nonzero" opacity="1" stroke="#0a0809" stroke-linecap="round" stroke-linejoin="round" stroke-width="3.02966"/>
<path d="M226.144 153.842L226.144 73.5418L299.867 125.164L299.867 205.464L226.144 153.842Z" fill="#cb5135" fill-rule="nonzero" opacity="1" stroke="#ffffff" stroke-linecap="round" stroke-linejoin="round" stroke-width="3.02966"/>
<path d="M402.889 152.85L402.889 72.5488L476.613 124.171L476.613 204.471L402.889 152.85Z" fill="#cb5135" fill-rule="nonzero" opacity="1" stroke="#ffffff" stroke-linecap="round" stroke-linejoin="round" stroke-width="3.02966"/>
<path d="M226.144 153.842L226.144 73.5418L299.867 125.164L299.867 205.464L226.144 153.842Z" fill="#f9d69d" fill-rule="nonzero" opacity="1" stroke="#0a0809" stroke-linecap="round" stroke-linejoin="round" stroke-width="3.02966"/>
<path d="M402.889 152.85L402.889 72.5488L476.613 124.171L476.613 204.471L402.889 152.85Z" fill="#96dfbb" fill-rule="nonzero" opacity="1" stroke="#0a0809" stroke-linecap="round" stroke-linejoin="round" stroke-width="3.02966"/>
<path d="M299.867 314.444L373.591 262.822L373.591 343.123L299.867 394.745L299.867 314.444Z" fill="#cb5135" fill-rule="nonzero" opacity="1" stroke="#ffffff" stroke-linecap="round" stroke-linejoin="round" stroke-width="3.02966"/>
<path d="M476.613 313.451L550.337 261.829L550.337 342.13L476.613 393.752L476.613 313.451Z" fill="#cb5135" fill-rule="nonzero" opacity="1" stroke="#ffffff" stroke-linecap="round" stroke-linejoin="round" stroke-width="3.02966"/>
<path d="M299.867 314.444L373.591 262.822L373.591 343.123L299.867 394.745L299.867 314.444Z" fill="#f9d69d" fill-rule="nonzero" opacity="1" stroke="#0a0809" stroke-linecap="round" stroke-linejoin="round" stroke-width="3.02966"/>
<path d="M476.613 313.451L550.337 261.829L550.337 342.13L476.613 393.752L476.613 313.451Z" fill="#96dfbb" fill-rule="nonzero" opacity="1" stroke="#0a0809" stroke-linecap="round" stroke-linejoin="round" stroke-width="3.02966"/>
<path d="M299.867 222.672L373.591 171.05L373.591 251.35L299.867 302.972L299.867 222.672Z" fill="#f9d69d" fill-rule="nonzero" opacity="1" stroke="#0a0809" stroke-linecap="round" stroke-linejoin="round" stroke-width="3.02966"/>
<path d="M476.613 221.679L550.337 170.057L550.337 250.358L476.613 301.979L476.613 221.679Z" fill="#96dfbb" fill-rule="nonzero" opacity="1" stroke="#0a0809" stroke-linecap="round" stroke-linejoin="round" stroke-width="3.02966"/>
<path d="M299.867 125.164L373.591 73.5418L373.591 153.842L299.867 205.464L299.867 125.164Z" fill="#cb5135" fill-rule="nonzero" opacity="1" stroke="#ffffff" stroke-linecap="round" stroke-linejoin="round" stroke-width="3.02966"/>
<path d="M476.613 124.171L550.337 72.5488L550.337 152.85L476.613 204.471L476.613 124.171Z" fill="#cb5135" fill-rule="nonzero" opacity="1" stroke="#ffffff" stroke-linecap="round" stroke-linejoin="round" stroke-width="3.02966"/>
<path d="M299.867 125.164L373.591 73.5418L373.591 153.842L299.867 205.464L299.867 125.164Z" fill="#f9d69d" fill-rule="nonzero" opacity="1" stroke="#0a0809" stroke-linecap="round" stroke-linejoin="round" stroke-width="3.02966"/>
<path d="M476.613 124.171L550.337 72.5488L550.337 152.85L476.613 204.471L476.613 124.171Z" fill="#96dfbb" fill-rule="nonzero" opacity="1" stroke="#0a0809" stroke-linecap="round" stroke-linejoin="round" stroke-width="3.02966"/>
<path d="M220.302 265.904L220.943 251.81L226.016 247.129L299.483 301.005L298.503 317.331L220.302 265.904Z" fill="#a3a4a8" fill-rule="nonzero" opacity="1" stroke="#ffffff" stroke-linecap="round" stroke-linejoin="round" stroke-width="3.02966"/>
<path d="M397.048 264.911L397.689 250.817L402.762 246.136L476.229 300.012L475.249 316.338L397.048 264.911Z" fill="#a3a4a8" fill-rule="nonzero" opacity="1" stroke="#ffffff" stroke-linecap="round" stroke-linejoin="round" stroke-width="3.02966"/>
<path d="M220.302 265.904L220.943 251.81L226.016 247.129L299.483 301.005L298.503 317.331L220.302 265.904Z" fill="#a3a4a8" fill-rule="nonzero" opacity="1" stroke="#ffffff" stroke-linecap="round" stroke-linejoin="round" stroke-width="3.02966"/>
<path d="M397.048 264.911L397.689 250.817L402.762 246.136L476.229 300.012L475.249 316.338L397.048 264.911Z" fill="#a3a4a8" fill-rule="nonzero" opacity="1" stroke="#ffffff" stroke-linecap="round" stroke-linejoin="round" stroke-width="3.02966"/>
<path d="M220.302 265.904L220.943 251.81L226.016 247.129L299.483 301.005L298.503 317.331L220.302 265.904Z" fill="#a3a4a8" fill-rule="nonzero" opacity="1" stroke="#ffffff" stroke-linecap="round" stroke-linejoin="round" stroke-width="3.02966"/>
<path d="M397.048 264.911L397.689 250.817L402.762 246.136L476.229 300.012L475.249 316.338L397.048 264.911Z" fill="#a3a4a8" fill-rule="nonzero" opacity="1" stroke="#ffffff" stroke-linecap="round" stroke-linejoin="round" stroke-width="3.02966"/>
<path d="M220.302 265.904L220.943 251.81L226.016 247.129L299.483 301.005L298.503 317.331L220.302 265.904Z" fill="#a3a4a8" fill-rule="nonzero" opacity="1" stroke="#ffffff" stroke-linecap="round" stroke-linejoin="round" stroke-width="3.02966"/>
<path d="M397.048 264.911L397.689 250.817L402.762 246.136L476.229 300.012L475.249 316.338L397.048 264.911Z" fill="#a3a4a8" fill-rule="nonzero" opacity="1" stroke="#ffffff" stroke-linecap="round" stroke-linejoin="round" stroke-width="3.02966"/>
<path d="M222.244 170.746L222.885 156.653L227.958 151.971L301.425 205.847L300.446 222.173L222.244 170.746Z" fill="#a3a4a8" fill-rule="nonzero" opacity="1" stroke="#ffffff" stroke-linecap="round" stroke-linejoin="round" stroke-width="3.02966"/>
<path d="M398.99 169.753L399.631 155.66L404.704 150.979L478.171 204.854L477.191 221.18L398.99 169.753Z" fill="#a3a4a8" fill-rule="nonzero" opacity="1" stroke="#ffffff" stroke-linecap="round" stroke-linejoin="round" stroke-width="3.02966"/>
<path d="M222.244 170.746L222.885 156.653L227.958 151.971L301.425 205.847L300.446 222.173L222.244 170.746Z" fill="#a3a4a8" fill-rule="nonzero" opacity="1" stroke="#ffffff" stroke-linecap="round" stroke-linejoin="round" stroke-width="3.02966"/>
<path d="M398.99 169.753L399.631 155.66L404.704 150.979L478.171 204.854L477.191 221.18L398.99 169.753Z" fill="#a3a4a8" fill-rule="nonzero" opacity="1" stroke="#ffffff" stroke-linecap="round" stroke-linejoin="round" stroke-width="3.02966"/>
<path d="M220.302 265.904L220.943 251.81L226.016 247.129L299.483 301.005L298.503 317.331L220.302 265.904Z" fill="#a3a4a8" fill-rule="nonzero" opacity="1" stroke="#ffffff" stroke-linecap="round" stroke-linejoin="round" stroke-width="3.02966"/>
<path d="M397.048 264.911L397.689 250.817L402.762 246.136L476.229 300.012L475.249 316.338L397.048 264.911Z" fill="#a3a4a8" fill-rule="nonzero" opacity="1" stroke="#ffffff" stroke-linecap="round" stroke-linejoin="round" stroke-width="3.02966"/>
<path d="M240.069 177.532L239.953 241.466L287.073 270.916L288.01 209.745L240.069 177.532Z" fill="#ee8d10" fill-rule="nonzero" opacity="1" stroke="none"/>
<path d="M416.814 176.539L416.699 240.473L463.818 269.923L464.755 208.752L416.814 176.539Z" fill="#01a89d" fill-rule="nonzero" opacity="1" stroke="none"/>
<path d="M243.094 179.475L242.978 243.41L290.098 272.859L291.035 211.688L243.094 179.475Z" fill="url(#LinearGradient_6)" fill-rule="nonzero" opacity="1" stroke="none"/>
<path d="M419.84 178.482L419.724 242.417L466.844 271.866L467.781 210.695L419.84 178.482Z" fill="url(#LinearGradient_7)" fill-rule="nonzero" opacity="1" stroke="none"/>
<path d="M220.302 265.904L220.943 251.81L226.016 247.129L299.483 301.005L298.503 317.331L220.302 265.904Z" fill="#132f53" fill-rule="nonzero" opacity="1" stroke="#0a0809" stroke-linecap="round" stroke-linejoin="round" stroke-width="4.29118"/>
<path d="M397.048 264.911L397.689 250.817L402.762 246.136L476.229 300.012L475.249 316.338L397.048 264.911Z" fill="#132f53" fill-rule="nonzero" opacity="1" stroke="#0a0809" stroke-linecap="round" stroke-linejoin="round" stroke-width="4.29118"/>
<path d="M222.244 170.746L222.885 156.653L227.958 151.971L300.812 201.157L300.056 223.947L222.244 170.746Z" fill="#132f53" fill-rule="nonzero" opacity="1" stroke="#0a0809" stroke-linecap="round" stroke-linejoin="round" stroke-width="4.29118"/>
<path d="M398.99 169.753L399.631 155.66L404.704 150.979L477.557 200.164L476.802 222.954L398.99 169.753Z" fill="#132f53" fill-rule="nonzero" opacity="1" stroke="#0a0809" stroke-linecap="round" stroke-linejoin="round" stroke-width="4.29118"/>
<path d="M314.833 210.882L314.356 274.073L361.85 240.412L363.61 179.821L314.833 210.882Z" fill="#ee8d10" fill-rule="nonzero" opacity="1" stroke="none"/>
<path d="M491.579 209.889L491.102 273.08L538.596 239.419L540.356 178.829L491.579 209.889Z" fill="#01a89d" fill-rule="nonzero" opacity="1" stroke="none"/>
<path d="M312.617 212.407L312.14 275.598L359.634 241.937L361.394 181.347L312.617 212.407Z" fill="url(#LinearGradient_8)" fill-rule="nonzero" opacity="1" stroke="none"/>
<path d="M489.363 211.414L488.886 274.605L536.379 240.944L538.139 180.354L489.363 211.414Z" fill="url(#LinearGradient_9)" fill-rule="nonzero" opacity="1" stroke="none"/>
<path d="M320.055 298.87L319.928 363.597L364.754 334.927L364.754 272.353L320.055 298.87Z" fill="#ee8d10" fill-rule="nonzero" opacity="1" stroke="none"/>
<path d="M496.801 297.877L496.674 362.605L541.499 333.934L541.499 271.36L496.801 297.877Z" fill="#01a89d" fill-rule="nonzero" opacity="1" stroke="none"/>
<path d="M317.863 300.397L317.736 365.125L362.562 336.455L362.562 273.881L317.863 300.397Z" fill="url(#LinearGradient_10)" fill-rule="nonzero" opacity="1" stroke="none"/>
<path d="M494.609 299.404L494.482 364.132L539.307 335.462L539.307 272.888L494.609 299.404Z" fill="url(#LinearGradient_11)" fill-rule="nonzero" opacity="1" stroke="none"/>
<path d="M315.359 106.248L314.968 170.218L363.092 137.939L361.723 73.3821L315.359 106.248Z" fill="#ee8d10" fill-rule="nonzero" opacity="1" stroke="none"/>
<path d="M492.105 105.255L491.713 169.225L539.838 136.946L538.468 72.3891L492.105 105.255Z" fill="#01a89d" fill-rule="nonzero" opacity="1" stroke="none"/>
<path d="M301.279 301.168L374.646 249.807L381.478 254.147L380.786 266.23L300.626 318.147L301.279 301.168Z" fill="#132f53" fill-rule="nonzero" opacity="1" stroke="#0a0809" stroke-linecap="round" stroke-linejoin="round" stroke-width="4.29118"/>
<path d="M478.025 300.175L551.392 248.814L558.224 253.154L557.532 265.237L477.372 317.154L478.025 300.175Z" fill="#132f53" fill-rule="nonzero" opacity="1" stroke="#0a0809" stroke-linecap="round" stroke-linejoin="round" stroke-width="4.29118"/>
<path d="M313.324 107.615L312.933 171.586L361.058 139.307L359.688 74.7498L313.324 107.615Z" fill="url(#LinearGradient_12)" fill-rule="nonzero" opacity="1" stroke="none"/>
<path d="M490.07 106.622L489.679 170.593L537.803 138.314L536.434 73.7569L490.07 106.622Z" fill="url(#LinearGradient_13)" fill-rule="nonzero" opacity="1" stroke="none"/>
<path d="M238.883 80.7112L238.112 140.651L285.186 173.236L286.771 111.102L238.883 80.7112Z" fill="#ee8d10" fill-rule="nonzero" opacity="1" stroke="none"/>
<path d="M415.628 79.7183L414.858 139.658L461.932 172.243L463.517 110.109L415.628 79.7183Z" fill="#01a89d" fill-rule="nonzero" opacity="1" stroke="none"/>
<path d="M300.247 201.44L374.646 152.138L378.991 156.683L379.807 172.519L299.944 223.512L300.247 201.44Z" fill="#132f53" fill-rule="nonzero" opacity="1" stroke="#0a0809" stroke-linecap="round" stroke-linejoin="round" stroke-width="4.29118"/>
<path d="M476.993 200.447L551.392 151.145L555.736 155.69L556.553 171.526L476.69 222.519L476.993 200.447Z" fill="#132f53" fill-rule="nonzero" opacity="1" stroke="#0a0809" stroke-linecap="round" stroke-linejoin="round" stroke-width="4.29118"/>
<path d="M241.207 82.4902L240.437 142.43L287.511 175.015L289.096 112.881L241.207 82.4902Z" fill="url(#LinearGradient_14)" fill-rule="nonzero" opacity="1" stroke="none"/>
<path d="M417.953 81.4973L417.182 141.437L464.257 174.022L465.842 111.888L417.953 81.4973Z" fill="url(#LinearGradient_15)" fill-rule="nonzero" opacity="1" stroke="none"/>
<path d="M221.097 83.3865L220.318 68.6059L300.68 14.8026L378.973 68.2567L379.038 83.121L372.819 84.9403L372.174 74.8526L300.473 124.908L224.974 74.1418L225.549 85.4191L221.097 83.3865Z" fill="#132f53" fill-rule="nonzero" opacity="1" stroke="#0a0809" stroke-linecap="round" stroke-linejoin="round" stroke-width="4.29118"/>
<path d="M397.843 82.3935L397.064 67.6129L477.426 13.8096L555.719 67.2638L555.784 82.128L549.565 83.9473L548.919 73.8596L477.219 123.915L401.719 73.1489L402.295 84.4261L397.843 82.3935Z" fill="#132f53" fill-rule="nonzero" opacity="1" stroke="#0a0809" stroke-linecap="round" stroke-linejoin="round" stroke-width="4.29118"/>
<path d="M233.986 346.934L234.228 291.174L259.713 307.785L257.168 362.929L233.986 346.934Z" fill="#cb5135" fill-rule="nonzero" opacity="1" stroke="#0a0809" stroke-linecap="round" stroke-linejoin="round" stroke-width="0.290355"/>
<path d="M410.732 345.941L410.974 290.181L436.458 306.792L433.914 361.936L410.732 345.941Z" fill="#01618b" fill-rule="nonzero" opacity="1" stroke="#0a0809" stroke-linecap="round" stroke-linejoin="round" stroke-width="0.290355"/>
<path d="M239.917 305.054L239.461 330.994L252.204 337.82L252.659 312.791L239.917 305.054Z" fill="#b9bed5" fill-rule="nonzero" opacity="1" stroke="#0a0809" stroke-linecap="round" stroke-linejoin="round" stroke-width="0.290355"/>
<path d="M416.662 304.061L416.207 330.001L428.95 336.827L429.405 311.798L416.662 304.061Z" fill="#b9bed5" fill-rule="nonzero" opacity="1" stroke="#0a0809" stroke-linecap="round" stroke-linejoin="round" stroke-width="0.290355"/>
<path d="M239.838 305.635L239.334 332.894L253.446 340.068L253.95 313.765L239.838 305.635Z" fill="#923d29" fill-rule="nonzero" opacity="1" stroke="none"/>
<path d="M416.584 304.642L416.08 331.901L430.192 339.075L430.696 312.772L416.584 304.642Z" fill="#132f53" fill-rule="nonzero" opacity="1" stroke="none"/>
<path d="M239.917 305.054L239.461 330.994L252.204 337.82L252.659 312.791L239.917 305.054Z" fill="#b9bed5" fill-rule="nonzero" opacity="1" stroke="#0a0809" stroke-linecap="round" stroke-linejoin="round" stroke-width="0.290355"/>
<path d="M416.662 304.061L416.207 330.001L428.95 336.827L429.405 311.798L416.662 304.061Z" fill="#b9bed5" fill-rule="nonzero" opacity="1" stroke="#0a0809" stroke-linecap="round" stroke-linejoin="round" stroke-width="0.290355"/>
<path d="M225.809 270.923C225.809 270.923 217.062 288.708 220.12 296.863C222.168 302.324 282.012 339.641 287.473 338.73C290.425 338.238 299.077 331.904 299.077 331.904L299.305 319.845L225.809 270.923Z" fill="#f4ece2" fill-rule="nonzero" opacity="1" stroke="#0a0809" stroke-linecap="round" stroke-linejoin="round" stroke-width="1.40207"/>
<path d="M402.555 269.93C402.555 269.93 393.808 287.715 396.866 295.87C398.914 301.331 458.758 338.648 464.219 337.738C467.171 337.246 475.823 330.911 475.823 330.911L476.051 318.852L402.555 269.93Z" fill="#f4ece2" fill-rule="nonzero" opacity="1" stroke="#0a0809" stroke-linecap="round" stroke-linejoin="round" stroke-width="1.40207"/>
<path d="M226.092 271.953C226.092 271.953 220.413 283.839 220.223 291.307C220.173 293.246 219.82 294.207 220.575 296.264C221.062 297.589 223.384 299.46 223.522 299.426C223.522 299.426 223.92 296.075 226.195 290.354C228.47 284.634 234.475 277.425 234.475 277.425L226.092 271.953Z" fill="#cb5135" fill-rule="nonzero" opacity="1" stroke="none"/>
<path d="M402.837 270.96C402.837 270.96 397.159 282.846 396.969 290.314C396.919 292.253 396.566 293.214 397.321 295.271C397.808 296.596 400.13 298.467 400.268 298.433C400.268 298.433 400.665 295.082 402.941 289.361C405.216 283.641 411.221 276.432 411.221 276.432L402.837 270.96Z" fill="#fab82f" fill-rule="nonzero" opacity="1" stroke="none"/>
<path d="M238.801 280.382C239.345 280.032 234.698 286.113 232.034 291.811C229.524 297.18 227.762 302.741 227.988 302.924C229.734 304.331 235.352 308.426 235.461 308.265C235.571 308.104 236.229 304.434 238.504 298.714C240.78 292.993 246.886 285.749 246.886 285.749C246.886 285.749 238.749 280.416 238.801 280.382Z" fill="#cb5135" fill-rule="nonzero" opacity="1" stroke="none"/>
<path d="M415.547 279.389C416.091 279.039 411.444 285.12 408.78 290.818C406.27 296.187 404.507 301.749 404.734 301.931C406.48 303.338 412.098 307.433 412.207 307.272C412.317 307.111 412.975 303.441 415.25 297.721C417.525 292 423.631 284.756 423.631 284.756C423.631 284.756 415.495 279.423 415.547 279.389Z" fill="#cb5135" fill-rule="nonzero" opacity="1" stroke="none"/>
<path d="M238.801 280.382C239.345 280.032 234.698 286.113 232.034 291.811C229.524 297.18 227.762 302.741 227.988 302.924C229.734 304.331 235.352 308.426 235.461 308.265C235.571 308.104 236.229 304.434 238.504 298.714C240.78 292.993 246.886 285.749 246.886 285.749C246.886 285.749 238.749 280.416 238.801 280.382Z" fill="#cb5135" fill-rule="nonzero" opacity="1" stroke="none"/>
<path d="M415.547 279.389C416.091 279.039 411.444 285.12 408.78 290.818C406.27 296.187 404.507 301.749 404.734 301.931C406.48 303.338 412.098 307.433 412.207 307.272C412.317 307.111 412.975 303.441 415.25 297.721C417.525 292 423.631 284.756 423.631 284.756C423.631 284.756 415.495 279.423 415.547 279.389Z" fill="#fab82f" fill-rule="nonzero" opacity="1" stroke="none"/>
<path d="M253.313 290.062C253.857 289.711 249.21 295.793 246.546 301.49C244.036 306.86 242.234 312.68 242.46 312.862C244.206 314.27 250.058 318.053 250.167 317.892C250.277 317.731 250.741 314.114 253.016 308.393C255.291 302.673 261.397 295.428 261.397 295.428C261.397 295.428 253.261 290.095 253.313 290.062Z" fill="#cb5135" fill-rule="nonzero" opacity="1" stroke="none"/>
<path d="M430.059 289.069C430.602 288.719 425.955 294.8 423.292 300.497C420.781 305.867 418.98 311.687 419.206 311.869C420.952 313.277 426.804 317.06 426.913 316.899C427.023 316.738 427.487 313.121 429.762 307.4C432.037 301.68 438.143 294.436 438.143 294.436C438.143 294.436 430.007 289.102 430.059 289.069Z" fill="#fab82f" fill-rule="nonzero" opacity="1" stroke="none"/>
<path d="M267.917 299.668C268.461 299.318 263.814 305.399 261.15 311.097C258.64 316.467 257.013 322.021 257.239 322.203C258.985 323.611 264.591 326.908 264.701 326.748C264.81 326.587 265.345 323.72 267.62 318C269.895 312.279 276.007 305.117 276.007 305.117C276.007 305.117 267.865 299.702 267.917 299.668Z" fill="#cb5135" fill-rule="nonzero" opacity="1" stroke="none"/>
<path d="M444.663 298.675C445.206 298.325 440.559 304.406 437.896 310.104C435.386 315.474 433.759 321.028 433.985 321.21C435.731 322.618 441.337 325.915 441.447 325.755C441.556 325.594 442.091 322.727 444.366 317.007C446.641 311.286 452.753 304.124 452.753 304.124C452.753 304.124 444.611 298.709 444.663 298.675Z" fill="#fab82f" fill-rule="nonzero" opacity="1" stroke="none"/>
<path d="M282.575 309.533C283.119 309.182 278.472 315.264 275.808 320.961C273.298 326.331 271.767 330.747 271.993 330.929C273.739 332.336 279.69 335.257 279.799 335.096C279.909 334.935 280.003 333.585 282.279 327.864C284.554 322.144 290.66 314.899 290.66 314.899C290.66 314.899 282.524 309.566 282.575 309.533Z" fill="#cb5135" fill-rule="nonzero" opacity="1" stroke="none"/>
<path d="M459.321 308.54C459.865 308.189 455.218 314.271 452.554 319.968C450.044 325.338 448.512 329.754 448.738 329.936C450.484 331.344 456.436 334.264 456.545 334.103C456.654 333.943 456.749 332.592 459.024 326.871C461.299 321.151 467.405 313.906 467.405 313.906C467.405 313.906 459.269 308.573 459.321 308.54Z" fill="#fab82f" fill-rule="nonzero" opacity="1" stroke="none"/>
<path d="M379.366 255.277L303.003 307.416L302.553 314.68L378.724 265.105L379.366 255.277Z" fill="#0d1e34" fill-rule="nonzero" opacity="1" stroke="none"/>
<path d="M556.112 254.284L479.748 306.423L479.299 313.687L555.47 264.112L556.112 254.284Z" fill="#0d1e34" fill-rule="nonzero" opacity="1" stroke="none"/>
<path d="M222.99 252.86L296.955 306.84L296.58 313.485C296.58 313.485 222.352 264.164 222.532 264.668C222.712 265.172 223.097 253.449 222.99 252.86Z" fill="#0d1e34" fill-rule="nonzero" opacity="1" stroke="none"/>
<path d="M399.736 251.867L473.701 305.847L473.326 312.492C473.326 312.492 399.098 263.171 399.278 263.675C399.458 264.179 399.843 252.456 399.736 251.867Z" fill="#0d1e34" fill-rule="nonzero" opacity="1" stroke="none"/>
<path d="M376.748 157.499L302.277 209.246L301.748 220.448L377.628 171.418L376.748 157.499Z" fill="#0d1e34" fill-rule="nonzero" opacity="1" stroke="none"/>
<path d="M553.494 156.506L479.023 208.253L478.494 219.455L554.373 170.425L553.494 156.506Z" fill="#0d1e34" fill-rule="nonzero" opacity="1" stroke="none"/>
<path d="M225.043 157.594L297.854 207.079L297.866 220.312L224.204 169.756L225.043 157.594Z" fill="#0d1e34" fill-rule="nonzero" opacity="1" stroke="none"/>
<path d="M401.789 156.601L474.6 206.086L474.612 219.319L400.949 168.763L401.789 156.601Z" fill="#0d1e34" fill-rule="nonzero" opacity="1" stroke="none"/>
</g>
</svg>
