<?xml version="1.0" encoding="UTF-8" standalone="no"?>
<!DOCTYPE svg PUBLIC "-//W3C//DTD SVG 1.1//EN" "http://www.w3.org/Graphics/SVG/1.1/DTD/svg11.dtd">
<!-- Created with Vectornator (http://vectornator.io/) -->
<svg height="100%" stroke-miterlimit="10" style="fill-rule:nonzero;clip-rule:evenodd;stroke-linecap:round;stroke-linejoin:round;" version="1.1" viewBox="0 0 595.35 419.58" width="100%" xml:space="preserve" xmlns="http://www.w3.org/2000/svg" xmlns:vectornator="http://vectornator.io" xmlns:xlink="http://www.w3.org/1999/xlink">
<defs>
<linearGradient gradientTransform="matrix(1 0 0 1 0 0)" gradientUnits="userSpaceOnUse" id="LinearGradient" x1="198.364" x2="244.971" y1="235.863" y2="235.863">
<stop offset="0" stop-color="#b0bbf1" stop-opacity="0.942898"/>
<stop offset="0.530992" stop-color="#6d84ef" stop-opacity="0.942898"/>
<stop offset="1" stop-color="#4e6cf6" stop-opacity="0.942898"/>
</linearGradient>
<linearGradient gradientTransform="matrix(1 0 0 1 0 0)" gradientUnits="userSpaceOnUse" id="LinearGradient_2" x1="155.979" x2="192.36" y1="213.886" y2="213.886">
<stop offset="0" stop-color="#b0bbf1" stop-opacity="0.942898"/>
<stop offset="0.530992" stop-color="#6d84ef" stop-opacity="0.942898"/>
<stop offset="1" stop-color="#4e6cf6" stop-opacity="0.942898"/>
</linearGradient>
</defs>
<g id="Layer-2" vectornator:layerName="Layer 2">
<path d="M249.763 255.613L248.931 275.417L309.6 298.951L361.549 278.763L359.599 258.07L310.56 276.741L249.766 255.096" fill="#433328" fill-rule="nonzero" opacity="1" stroke="none"/>
<path d="M250.202 242.113L250.941 212.453L307.184 236.698L335.736 201.254L356.904 190.424L358.935 234.513L311.86 253.559L267.186 234.729L250.202 242.113Z" fill="#100d0b" fill-rule="nonzero" opacity="1" stroke="none"/>
<path d="M205.308 207.246C205.308 207.246 202.716 207.634 202.012 205.371C201.308 203.108 202.606 199.241 202.606 199.241L248.608 216.991L245.858 273.988L203.228 258.388L205.308 207.246Z" fill="#2b5b38" fill-rule="nonzero" opacity="1" stroke="none"/>
<path d="M150.235 168.932L149.2 234.261L199.147 256.967L201.676 207.339C201.676 207.339 198.366 207.191 198.077 205.232C197.787 203.274 198.731 197.931 198.731 197.931L245.234 216.178L244.942 226.227L242.756 273.397L248.391 275.311L250.549 212.583L150.235 168.932Z" fill="#49965e" fill-rule="nonzero" opacity="1" stroke="#0a0809" stroke-linecap="butt" stroke-linejoin="round" stroke-width="1.40207"/>
<path d="M179.504 141.85C179.504 141.85 154.955 162.354 150.988 169.988C150.506 170.915 150.776 172.048 150.966 172.522C152.34 175.937 305.405 239.738 308.796 240.006C311.435 240.215 338.157 204.86 338.157 204.86L179.504 141.85Z" fill="#6d4209" fill-opacity="0.75" fill-rule="nonzero" opacity="1" stroke="none"/>
<path d="M453.34 169.601C452.903 170.567 444.083 173.665 444.083 173.665L442.807 165.099L455.565 159.449L462.359 165.092C462.359 165.092 453.776 168.635 453.34 169.601Z" fill="#594538" fill-rule="nonzero" opacity="1" stroke="#0a0809" stroke-linecap="butt" stroke-linejoin="round" stroke-width="1.40207"/>
<path d="M175.695 134.118C175.695 134.118 143.718 161.294 145.514 165.874C146.914 169.443 303.984 236.452 307.44 236.732C310.129 236.951 337.358 199.991 337.358 199.991L175.695 134.118Z" fill="#ee8d10" fill-rule="nonzero" opacity="1" stroke="#0a0809" stroke-linecap="butt" stroke-linejoin="round" stroke-width="1.40207"/>
<path d="M197.439 69.4331L198.264 129.657L358.445 190.558L358.959 183.257L362.027 139.63L197.439 69.4331Z" fill="#49965e" fill-rule="nonzero" opacity="1" stroke="#0a0809" stroke-linecap="butt" stroke-linejoin="round" stroke-width="1.40207"/>
<path d="M198.06 125.177L175.974 134.081L337.61 200.116L356.796 190.344L198.06 125.177Z" fill="#b19a75" fill-rule="nonzero" opacity="1" stroke="#0a0809" stroke-linecap="butt" stroke-linejoin="round" stroke-width="1.40207"/>
<path d="M249.677 241.81L266.887 234.538L312.091 253.43L357.782 234.577L359.132 247.405L359.807 254.409L317.635 271.132L310.476 273.895L249.44 249.962L249.677 241.81Z" fill="#f9d69d" fill-rule="nonzero" opacity="1" stroke="#0a0809" stroke-linecap="butt" stroke-linejoin="round" stroke-width="1.40207"/>
<path d="M249.987 248.956L310.708 271.376L359.162 253.902L359.587 255.682L359.537 258.199L310.673 276.773L249.785 255.207L249.987 248.956Z" fill="#9b775e" fill-rule="nonzero" opacity="1" stroke="none"/>
<path d="M149.024 234.094L85.3379 260.353L309.6 349.223L483.563 264.49L448.854 226.584L361.572 278.981L309.909 299.51C309.909 299.51 267.995 282.413 249.476 275.972C244.096 274.1 240.632 272.877 240.649 272.837L198.539 255.861L149.024 234.094Z" fill="#d0ccce" fill-rule="nonzero" opacity="1" stroke="#0a0809" stroke-linecap="butt" stroke-linejoin="round" stroke-width="1.40207"/>
<path d="M149.073 234.814L139.115 238.947L313.52 312.32L389.289 274.403L361.871 279.52L309.944 300.264C309.944 300.264 296.747 294.735 281.405 288.96C273.061 285.819 264.496 282.118 255.618 278.921C249.932 276.873 243.839 274.864 238.205 272.622C193.755 254.934 149.073 234.814 149.073 234.814Z" fill="#8c7a6e" fill-opacity="0.691339" fill-rule="nonzero" opacity="1" stroke="none"/>
<path d="M445.608 107.563L449.42 262.452L361.453 278.904L360.117 255.839L355.763 191.327L359.043 189.213L362.182 140.487L445.608 107.563Z" fill="#3b754b" fill-rule="nonzero" opacity="1" stroke="#0a0809" stroke-linecap="butt" stroke-linejoin="round" stroke-width="1.40207"/>
<path d="M239.04 75.604L298.203 50.0268L421.373 101.164L356.816 125.567L239.04 75.604Z" fill="#fae7c7" fill-rule="nonzero" opacity="1" stroke="#0a0809" stroke-linecap="butt" stroke-linejoin="round" stroke-width="1.40207"/>
<path d="M221.319 68.2777L293.337 37.331L298.325 49.9755L237.976 75.7293L221.319 68.2777Z" fill="#54251a" fill-rule="nonzero" opacity="1" stroke="#0a0809" stroke-linecap="butt" stroke-linejoin="round" stroke-width="1.40207"/>
<path d="M277.615 47.8293L276.569 73.2557L311.984 88.4283L337.406 77.4612L337.24 51.5503L312.576 62.5624L280.209 48.9485L277.615 47.8293Z" fill="#948873" fill-rule="nonzero" opacity="1" stroke="none"/>
<path d="M278.313 44.9485L277.29 70.3748L311.938 85.5474L336.809 74.5803L336.647 48.6695L312.518 59.6816L280.851 46.0677L278.313 44.9485Z" fill="#01618b" fill-rule="nonzero" opacity="1" stroke="#0a0809" stroke-linecap="butt" stroke-linejoin="round" stroke-width="1.40207"/>
<path d="M280.536 68.554L299.774 76.7082L301.114 58.4242L281.468 50.062L280.536 68.554Z" fill="#8697d2" fill-rule="nonzero" opacity="1" stroke="#0a0809" stroke-linecap="butt" stroke-linejoin="round" stroke-width="1.40207"/>
<path d="M338.999 202.976L329.925 215.277L309.295 239.906L330.095 240.703C330.095 240.703 381.529 222.079 384.748 216.958C385.998 214.97 366.03 190.868 366.03 190.868L338.999 202.976Z" fill="#6d4209" fill-opacity="0.698198" fill-rule="nonzero" opacity="1" stroke="none"/>
<path d="M337.543 199.953L328.469 212.254L308.129 236.833L328.639 237.681C328.639 237.681 380.074 219.056 383.292 213.935C384.542 211.947 364.574 187.845 364.574 187.845L337.543 199.953Z" fill="#ee8d10" fill-rule="nonzero" opacity="1" stroke="#0a0809" stroke-linecap="butt" stroke-linejoin="round" stroke-width="1.40207"/>
<path d="M337.543 199.953L328.469 212.254L308.129 236.833L328.639 237.681C328.639 237.681 380.074 219.056 383.292 213.935C384.542 211.947 364.574 187.845 364.574 187.845L337.543 199.953Z" fill="#ee8d10" fill-rule="nonzero" opacity="1" stroke="#0a0809" stroke-linecap="butt" stroke-linejoin="round" stroke-width="1.40207"/>
<path d="M337.543 199.953L328.469 212.254L308.129 236.833L328.639 237.681C328.639 237.681 380.074 219.056 383.292 213.935C384.542 211.947 364.574 187.845 364.574 187.845L337.543 199.953Z" fill="#c37612" fill-rule="nonzero" opacity="1" stroke="#0a0809" stroke-linecap="butt" stroke-linejoin="round" stroke-width="1.40207"/>
<path d="M337.543 199.953L328.469 212.254" fill="#c37612" fill-rule="nonzero" opacity="1" stroke="#0a0809" stroke-linecap="butt" stroke-linejoin="round" stroke-width="1.40207"/>
<path d="M280.617 290.257L279.287 290.36C279.287 290.36 272.702 290.494 272.553 293.881C272.452 296.175 275.51 299.344 281.454 300.046C288.476 300.875 288.457 297.483 288.855 295.215C289.253 292.947 283.046 290.973 283.046 290.973L282.72 290.796L280.617 290.257Z" fill="#8f8a8d" fill-rule="nonzero" opacity="0.897287" stroke="none"/>
<path d="M343.777 289.687L342.447 289.791C342.447 289.791 335.862 289.925 335.713 293.311C335.612 295.606 338.67 298.775 344.613 299.477C351.636 300.306 351.617 296.914 352.015 294.646C352.413 292.377 346.206 290.403 346.206 290.403L345.88 290.226L343.777 289.687Z" fill="#8f8a8d" fill-rule="nonzero" opacity="0.897287" stroke="none"/>
<path d="M306.876 236.633L328.639 237.681C328.639 237.681 380.074 219.056 383.292 213.935C384.542 211.947 364.574 187.845 364.574 187.845L336.532 199.923" fill="#c37612" fill-rule="nonzero" opacity="1" stroke="#0a0809" stroke-linecap="butt" stroke-linejoin="round" stroke-width="1.40207"/>
<path d="M279.026 277.7L278.755 290.164C278.755 290.164 273.059 290.282 272.93 293.28C272.843 295.311 275.488 298.116 280.629 298.737C286.704 299.471 286.688 296.468 287.032 294.461C287.376 292.453 282.007 290.706 282.007 290.706L282.457 277.403L279.026 277.7Z" fill="#534b66" fill-rule="nonzero" opacity="1" stroke="#0a0809" stroke-linecap="butt" stroke-linejoin="round" stroke-width="1.40207"/>
<path d="M344.659 277.216L344.388 289.68C344.388 289.68 338.692 289.798 338.563 292.796C338.475 294.827 341.121 297.632 346.262 298.253C352.337 298.987 352.32 295.984 352.664 293.977C353.009 291.969 347.639 290.222 347.639 290.222L348.09 276.919L344.659 277.216Z" fill="#534b66" fill-rule="nonzero" opacity="1" stroke="#0a0809" stroke-linecap="butt" stroke-linejoin="round" stroke-width="1.40207"/>
<path d="M253.622 280.868L252.292 280.972C252.292 280.972 245.707 281.105 245.558 284.492C245.457 286.787 248.515 289.956 254.459 290.658C261.481 291.487 261.462 288.095 261.86 285.826C262.258 283.558 256.051 281.584 256.051 281.584L255.725 281.407L253.622 280.868Z" fill="#8f8a8d" fill-rule="nonzero" opacity="0.897287" stroke="none"/>
<path d="M251.615 268.1L251.344 280.563C251.344 280.563 245.648 280.682 245.519 283.679C245.432 285.71 248.077 288.515 253.218 289.136C259.293 289.87 259.277 286.868 259.621 284.86C259.965 282.852 254.596 281.105 254.596 281.105L255.046 267.803L251.615 268.1Z" fill="#534b66" fill-rule="nonzero" opacity="1" stroke="#0a0809" stroke-linecap="butt" stroke-linejoin="round" stroke-width="1.40207"/>
<path d="M280.735 276.932C297.647 277.795 290.535 265.892 283.654 265.318C266.612 263.896 270.035 276.386 280.735 276.932Z" fill="#ee8d10" fill-rule="nonzero" opacity="1" stroke="#0a0809" stroke-linecap="butt" stroke-linejoin="round" stroke-width="1.40207"/>
<path d="M346.367 276.448C363.28 277.311 356.167 265.408 349.287 264.834C332.245 263.413 335.668 275.902 346.367 276.448Z" fill="#ee8d10" fill-rule="nonzero" opacity="1" stroke="#0a0809" stroke-linecap="butt" stroke-linejoin="round" stroke-width="1.40207"/>
<path d="M253.324 267.331C270.236 268.194 263.124 256.291 256.243 255.717C239.201 254.296 242.624 266.785 253.324 267.331Z" fill="#ee8d10" fill-rule="nonzero" opacity="1" stroke="#0a0809" stroke-linecap="butt" stroke-linejoin="round" stroke-width="1.40207"/>
<path d="M280.401 272.672C276.177 272.686 272.826 270.646 272.574 269.525C272.185 267.79 276.067 265.462 281.03 265.478C285.077 265.49 289.373 267.987 289.294 270.075C289.246 271.347 287.539 272.65 280.401 272.672Z" fill="#f9d69d" fill-rule="nonzero" opacity="1" stroke="none"/>
<path d="M346.033 272.188C341.81 272.202 338.458 270.162 338.207 269.041C337.818 267.306 341.699 264.978 346.663 264.994C350.709 265.006 355.006 267.503 354.927 269.591C354.878 270.863 353.172 272.166 346.033 272.188Z" fill="#f9d69d" fill-rule="nonzero" opacity="1" stroke="none"/>
<path d="M252.99 263.072C248.766 263.085 245.415 261.045 245.163 259.924C244.774 258.189 248.656 255.861 253.619 255.877C257.666 255.89 261.962 258.387 261.883 260.475C261.835 261.746 260.128 263.049 252.99 263.072Z" fill="#f9d69d" fill-rule="nonzero" opacity="1" stroke="none"/>
<path d="M386.794 260.177L376.075 267.583L400.731 279.808L408.985 270.9L386.794 260.177Z" fill="#594538" fill-rule="nonzero" opacity="1" stroke="#0a0809" stroke-linecap="butt" stroke-linejoin="round" stroke-width="1.40207"/>
<path d="M401.007 249.611L391.355 256.23L412.314 266.019L420.449 258.574L401.007 249.611Z" fill="#594538" fill-rule="nonzero" opacity="1" stroke="#0a0809" stroke-linecap="butt" stroke-linejoin="round" stroke-width="1.40207"/>
<path d="M411.762 234.168L402.386 241.062L424.999 251.679L433.686 244.371L411.762 234.168Z" fill="#594538" fill-rule="nonzero" opacity="1" stroke="#0a0809" stroke-linecap="butt" stroke-linejoin="round" stroke-width="1.40207"/>
<path d="M422.957 222.559L412.552 228.525L441.408 242.855L451.009 235.633L422.957 222.559Z" fill="#594538" fill-rule="nonzero" opacity="1" stroke="#0a0809" stroke-linecap="butt" stroke-linejoin="round" stroke-width="1.40207"/>
<path d="M434.238 207.004L423.123 213.215L454.507 228.928L463.47 221.62L434.238 207.004Z" fill="#594538" fill-rule="nonzero" opacity="1" stroke="#0a0809" stroke-linecap="butt" stroke-linejoin="round" stroke-width="1.40207"/>
<path d="M434.339 207.654L429.585 210.335L432.672 212.126L457.913 225.123L462.233 221.742L434.339 207.654Z" fill="#2e251f" fill-opacity="0.891892" fill-rule="nonzero" opacity="1" stroke="none"/>
<path d="M422.988 222.959L419.162 225.601L445.571 238.746L450.079 235.943L422.988 222.959Z" fill="#2e251f" fill-opacity="0.891892" fill-rule="nonzero" opacity="1" stroke="none"/>
<path d="M411.932 234.807L408.182 237.686L428.903 247.611L432.464 244.277L411.932 234.807Z" fill="#2e251f" fill-opacity="0.891892" fill-rule="nonzero" opacity="1" stroke="none"/>
<path d="M400.939 250.387L397.188 253.266L417.91 263.191L421.471 259.858L400.939 250.387Z" fill="#2e251f" fill-opacity="0.891892" fill-rule="nonzero" opacity="1" stroke="none"/>
<path d="M386.593 261.167L382.481 264.173L404.23 274.929L408.264 270.974L386.593 261.167Z" fill="#2e251f" fill-opacity="0.891892" fill-rule="nonzero" opacity="1" stroke="none"/>
<path d="M435.699 197.905L447.337 190.871L447.613 184.253L466.089 174.049L472.019 182.46L504.973 194.732L470.915 215.002L435.699 197.905Z" fill="#594538" fill-rule="nonzero" opacity="1" stroke="#0a0809" stroke-linecap="butt" stroke-linejoin="round" stroke-width="1.40207"/>
<path d="M461.196 188.868L454.43 181.35L448.115 184.419L447.706 191.294L436.691 197.863L456.93 207.353L470.07 194.214L461.196 188.868Z" fill="#2e251f" fill-opacity="0.891892" fill-rule="nonzero" opacity="1" stroke="none"/>
<path d="M427.688 248.632L426.229 234.785L429.72 231.552L430.94 245.863L427.688 248.632Z" fill="#203d4a" fill-rule="nonzero" opacity="1" stroke="none"/>
<path d="M409.475 252.991L411.358 261.357L414.271 259.761L412.598 250.654L409.475 252.991Z" fill="#203d4a" fill-rule="nonzero" opacity="1" stroke="none"/>
<path d="M407.996 287.029L408.055 258.832L473.491 224.789C473.491 224.789 483.321 234.958 484.66 236.984C485.998 239.011 485.693 263.461 485.693 263.461L407.764 301.043L407.996 287.029Z" fill="#f9d69d" fill-rule="nonzero" opacity="1" stroke="#0a0809" stroke-linecap="butt" stroke-linejoin="round" stroke-width="1.40207"/>
<path d="M440.993 105.983L419.152 85.3791L309.528 38.2114L305.168 36.5779L311.882 34.7411C311.882 34.7411 412.864 77.5504 423.067 82.4945C429.407 85.5669 442.084 99.4375 445.319 104.129C449.44 110.104 475.175 153.132 475.175 153.132C475.175 153.132 503.189 166.418 503.189 168.307C503.189 173.17 472.76 187.189 472.76 187.189L401.268 263.802L405.063 275.223L401.649 278.131L396.506 262.873L408.28 249.95L467.815 184.621L496.526 168.862C496.526 168.862 471.951 156.195 471.693 155.848C471.436 155.501 445.937 113.607 445.937 113.607L445.327 108.149" fill="#203d4a" fill-rule="nonzero" opacity="1" stroke="none"/>
<path d="M442.216 218.206L445.4 239.033L447.905 237.363L444.721 216.223L442.216 218.206Z" fill="#203d4a" fill-rule="nonzero" opacity="1" stroke="none"/>
<path d="M457.301 225.827L460.224 223.844L457.666 202.286L454.378 206.2L457.301 225.827Z" fill="#203d4a" fill-rule="nonzero" opacity="1" stroke="none"/>
<path d="M454.653 127.462L455.581 159.261C455.581 159.261 458.622 162.464 459.178 160.911C459.733 159.358 459.582 133.845 459.582 133.845L454.653 127.462Z" fill="#203d4a" fill-rule="nonzero" opacity="1" stroke="none"/>
<path d="M466.771 145.931L467.414 175.363C467.414 175.363 469.77 179.938 470.326 178.384C470.881 176.831 470.875 151.926 470.875 151.926L466.771 145.931Z" fill="#203d4a" fill-rule="nonzero" opacity="1" stroke="none"/>
<path d="M300.108 33.7339L336.52 48.246L312.483 59.4499L278.3 44.377L300.108 33.7339Z" fill="#01618b" fill-rule="nonzero" opacity="1" stroke="#0a0809" stroke-linecap="butt" stroke-linejoin="round" stroke-width="1.40207"/>
<path d="M401.969 77.9943L398.756 91.6082L402.114 93.448L405.451 79.0878L401.969 77.9943Z" fill="#203d4a" fill-rule="nonzero" opacity="1" stroke="none"/>
<path d="M376.754 65.9829C376.513 66.0685 373.23 81.1198 373.23 81.1198L376.727 82.6418L380.216 67.3694" fill="#203d4a" fill-rule="nonzero" opacity="1" stroke="none"/>
<path d="M350.034 54.1422L347.359 70.659L350.068 71.7936L352.811 55.3736L350.034 54.1422Z" fill="#203d4a" fill-rule="nonzero" opacity="1" stroke="none"/>
<path d="M204.191 83.3566L202.239 111.482L208.22 112.858L208.947 101.941L214.332 103.04L214.504 97.2087L210.004 96.3081L209.975 90.3984L216.035 91.8987L216.448 86.05L204.191 83.3566Z" fill="#74401c" fill-rule="nonzero" opacity="0.72093" stroke="none"/>
<path d="M197.29 69.087L281.458 33.3414L293.53 36.7531L220.309 67.9835L356.253 126.77L433.936 96.327L443.646 99.7387L449.157 106.037L362.814 139.892L197.29 69.087Z" fill="#ee8d10" fill-rule="nonzero" opacity="1" stroke="#0a0809" stroke-linecap="butt" stroke-linejoin="round" stroke-width="1.40207"/>
<path d="M218.336 87.2182C218.336 87.2182 215.082 105.428 217.018 113.084C217.545 115.168 221.579 118.634 224.158 119.019C229.717 119.848 231.519 113.486 232.23 109.181C233.518 101.385 233.393 92.2599 233.251 91.972C233.004 91.4696 227.135 90.1413 227.135 90.1413C227.135 90.1413 226.386 106.593 225.111 111.706C224.571 113.869 223.339 112.638 223.251 111.231C222.835 104.569 224.758 88.689 224.758 88.689L218.336 87.2182Z" fill="#74401c" fill-rule="nonzero" opacity="0.72093" stroke="none"/>
<path d="M312.539 60.428L312.279 85.0254L336.238 74.1891L336.348 49.6107L312.539 60.428Z" fill="#203d4a" fill-rule="nonzero" opacity="1" stroke="none"/>
<path d="M234.522 92.3411L231.965 121.065L243.189 124.34L243.79 118.318L238.751 116.683L241.157 94.5631L234.522 92.3411Z" fill="#74401c" fill-rule="nonzero" opacity="0.72093" stroke="none"/>
<path d="M247.401 97.9293L244.846 125.808L255.654 129.343L256.624 123.746L251.395 122.02L253.395 99.6894L247.401 97.9293Z" fill="#74401c" fill-rule="nonzero" opacity="0.72093" stroke="none"/>
<path d="M200.751 81.9329L200.867 110.567L205.589 112.02L205.807 100.979L210.892 101.616L211.064 95.785L206.564 94.8845L206.535 88.9748L212.595 90.475L213.008 84.6263L200.751 81.9329Z" fill="#e9b143" fill-rule="nonzero" opacity="1" stroke="none"/>
<path d="M256.672 110.05L256.055 117.309L261.277 118.131L262.015 111.702L256.672 110.05Z" fill="#74401c" fill-rule="nonzero" opacity="0.72093" stroke="none"/>
<path d="M214.895 85.7945C214.895 85.7945 211.642 104.004 213.577 111.661C214.104 113.744 218.139 117.21 220.718 117.595C226.276 118.425 228.079 112.063 228.79 107.758C230.078 99.9618 230.282 90.88 230.14 90.5921C229.892 90.0897 224.329 88.6309 224.329 88.6309C224.329 88.6309 222.946 105.17 221.671 110.282C221.131 112.445 219.898 111.215 219.811 109.807C219.395 103.145 221.317 87.2654 221.317 87.2654L214.895 85.7945Z" fill="#e9b143" fill-rule="nonzero" opacity="1" stroke="none"/>
<path d="M268.387 106.131L264.392 132.311L269.046 135.972L271.917 117.094L272.183 137.017L275.739 139.423L281.123 119.848L278.772 140.626L282.956 143.763L285.659 113.487L279.81 110.932L276.621 120.943L275.488 108.851L268.387 106.131Z" fill="#74401c" fill-rule="nonzero" opacity="0.72093" stroke="none"/>
<path d="M232.028 91.2458L230.43 120.446L240.309 123.279L241.326 116.887L236.75 115.361L238.784 94.006L232.028 91.2458Z" fill="#e9b143" fill-rule="nonzero" opacity="1" stroke="none"/>
<path d="M285.255 143.83L289.917 145.902L291.73 137.527L295.788 138.822L295.27 147.283L300.432 150.242L301.142 119.136L290.867 116.718" fill="#74401c" fill-rule="nonzero" opacity="0.72093" stroke="none"/>
<path d="M244.231 96.6936L241.406 124.385L252.213 127.919L253.183 122.322L247.954 120.597L249.954 98.2657L244.231 96.6936Z" fill="#e9b143" fill-rule="nonzero" opacity="1" stroke="none"/>
<path d="M255.139 109.561L254.522 116.821L259.743 117.642L260.027 115.169L260.482 111.214L255.139 109.561Z" fill="#e9b143" fill-rule="nonzero" opacity="1" stroke="none"/>
<path d="M264.946 104.707L259.616 131.013L265.648 133.757L268.697 116.002C268.697 116.002 267.733 134.973 267.749 135.441C267.765 135.909 272.056 136.961 272.056 137.468C272.056 137.974 278.025 120.44 278.025 120.44L275.332 139.202L279.515 142.339L283.839 112.278L277.081 109.668L273.718 118.588L272.048 107.428L264.946 104.707Z" fill="#e9b143" fill-rule="nonzero" opacity="1" stroke="none"/>
<path d="M303.114 119.921L300.267 149.959L304.973 153.097L306.457 137.393L308.791 137.89L307.483 152.992L312.608 154.874C312.608 154.874 313.909 142.875 313.993 139.021C314.037 136.99 311.923 135.745 311.923 135.745C311.923 135.745 313.728 135.758 314.029 134.788C314.76 132.438 315.169 129.291 314.105 126C313.042 122.709 309.775 121.624 309.775 121.624L303.114 119.921Z" fill="#74401c" fill-rule="nonzero" opacity="0.72093" stroke="none"/>
<path d="M281.531 143.396L287.124 145.734L288.29 136.103L292.348 137.398L291.83 145.86L296.992 148.819L298.45 117.266L288.872 114.808" fill="#e9b143" fill-rule="nonzero" opacity="1" stroke="none"/>
<path d="M320.051 128.029L317.259 157.57L322.521 159.616L323.999 148.563C323.999 148.563 324.951 148.89 325.563 151.539C326.174 154.189 325.364 160.969 325.364 160.969L329.764 162.353L327.542 143.729L333.467 133.155L327.784 131.582L324.355 141.783L325.231 130.274L320.051 128.029Z" fill="#74401c" fill-rule="nonzero" opacity="0.72093" stroke="none"/>
<path d="M289.565 133.912L293.046 133.991L292.252 121.695L289.565 133.912Z" fill="#68582f" fill-rule="nonzero" opacity="1" stroke="none"/>
<path d="M336.197 135.109L333.046 164.523L344.054 166.969L344.14 162.393L338.614 160.321L339.65 153.586L344.313 155.313L345.53 150.534L340.082 148.06L340.773 142.966L346.126 144.866C346.126 144.866 347.18 139.649 346.826 139.667C346.471 139.685 336.197 135.109 336.197 135.109Z" fill="#74401c" fill-rule="nonzero" opacity="0.72093" stroke="none"/>
<path d="M302.055 119.679L299.209 149.717L303.915 152.854L305.398 137.151L307.733 137.647L306.425 152.75L311.55 154.632C311.55 154.632 312.851 142.633 312.934 138.778C312.978 136.747 310.864 135.503 310.864 135.503C310.864 135.503 312.669 135.516 312.971 134.546C313.701 132.195 314.111 129.049 313.047 125.758C311.984 122.467 308.717 121.381 308.717 121.381L302.055 119.679Z" fill="#e9b143" fill-rule="nonzero" opacity="1" stroke="none"/>
<path d="M347.45 139.808L346.404 146.478L350.588 147.447L348.141 167.61L354.099 169.251L356.367 149.309L359.625 150.428L360.283 144.145L347.45 139.808Z" fill="#74401c" fill-rule="nonzero" opacity="0.72093" stroke="none"/>
<path d="M306.34 126.839L305.84 132.273L308.368 132.421L309.094 127.441L306.34 126.839Z" fill="#68582f" fill-rule="nonzero" opacity="1" stroke="none"/>
<path d="M316.61 126.605L313.819 156.147L318.629 158.238L320.559 147.14C320.559 147.14 321.511 147.466 322.122 150.116C322.734 152.766 321.924 159.545 321.924 159.545L327.99 161.523L325.78 142.505L331.098 132.123L324.421 130.407L320.914 140.36L321.791 128.85L316.61 126.605Z" fill="#e9b143" fill-rule="nonzero" opacity="1" stroke="none"/>
<path d="M332.756 133.685L329.606 163.099L340.613 165.546L340.7 160.97L335.174 158.897L336.21 152.163L340.872 153.889L342.089 149.111L336.642 146.637L337.332 141.542L342.686 143.442C342.686 143.442 343.739 138.225 343.385 138.243C343.031 138.261 332.756 133.685 332.756 133.685Z" fill="#e9b143" fill-rule="nonzero" opacity="1" stroke="none"/>
<path d="M345.017 139.039L343.971 145.708L348.154 146.678L345.708 166.841L351.665 168.481L353.933 148.54L357.191 149.659L357.85 143.375L345.017 139.039Z" fill="#e9b143" fill-rule="nonzero" opacity="1" stroke="none"/>
<path d="M197.661 103.422L174.147 113.09L334.879 179.589C334.879 179.589 358.795 175.719 359.261 174.242C359.81 172.502 360.887 167.363 359.475 168.041C354.92 170.229 335.421 174.169 335.421 174.169L186.938 112.869L197.668 108.694C197.245 103.404 197.661 103.422 197.661 103.422Z" fill="#433328" fill-rule="nonzero" opacity="1" stroke="#0a0809" stroke-linecap="butt" stroke-linejoin="round" stroke-width="1.40207"/>
<path d="M201.854 206.759C201.854 206.759 199.273 207.144 198.572 204.901C197.871 202.659 199.164 198.826 199.164 198.826L244.532 216.892L242.039 272.513L199.899 255.974L201.854 206.759Z" fill="url(#LinearGradient)" fill-rule="nonzero" opacity="1" stroke="none"/>
<path d="M223.343 207.845L219.27 263.564" fill="none" opacity="1" stroke="#0a0809" stroke-linecap="butt" stroke-linejoin="round" stroke-width="1.72646"/>
<path d="M174.185 113.363L176.165 134.111L181.126 135.967L180.801 116.168L174.185 113.363Z" fill="#433328" fill-rule="nonzero" opacity="1" stroke="#0a0809" stroke-linecap="butt" stroke-linejoin="round" stroke-width="1.72646"/>
<path d="M222.75 133.826L221.814 152.594L228.908 155.418L229.367 136.591L222.75 133.826Z" fill="#433328" fill-rule="nonzero" opacity="1" stroke="#0a0809" stroke-linecap="butt" stroke-linejoin="round" stroke-width="1.72646"/>
<path d="M246.77 143.647L244.756 161.502L252.726 164.843L253.493 146.386L246.77 143.647Z" fill="#433328" fill-rule="nonzero" opacity="1" stroke="#0a0809" stroke-linecap="butt" stroke-linejoin="round" stroke-width="1.72646"/>
<path d="M268.711 152.675L267.329 170.904L274.492 174.023L275.415 155.504L268.711 152.675Z" fill="#433328" fill-rule="nonzero" opacity="1" stroke="#0a0809" stroke-linecap="butt" stroke-linejoin="round" stroke-width="1.72646"/>
<path d="M330.069 177.926L327.812 195.357L334.082 197.865L334.834 179.431L330.069 177.926Z" fill="#433328" fill-rule="nonzero" opacity="1" stroke="#0a0809" stroke-linecap="butt" stroke-linejoin="round" stroke-width="1.72646"/>
<path d="M282.673 291.553C284.678 292.277 285.802 292.94 286.248 293.792C286.865 294.971 286.477 296.415 285.619 297.298C285.183 297.746 284.479 297.913 284.023 298.107C283.589 298.292 281.659 298.316 280.191 298.108C279.16 297.963 278.37 297.614 278.424 297.508C278.608 297.15 280.802 296.487 280.87 294.431C280.96 291.691 280.846 290.893 282.673 291.553Z" fill="#201d28" fill-rule="nonzero" opacity="1" stroke="none"/>
<path d="M282.673 291.553C284.678 292.277 285.802 292.94 286.248 293.792C286.865 294.971 286.477 296.415 285.619 297.298C285.183 297.746 284.479 297.913 284.023 298.107C283.589 298.292 281.659 298.316 280.191 298.108C279.16 297.963 278.37 297.614 278.424 297.508C278.608 297.15 280.802 296.487 280.87 294.431C280.96 291.691 280.846 290.893 282.673 291.553Z" fill="#201d28" fill-rule="nonzero" opacity="1" stroke="none"/>
<path d="M348.306 291.069C350.31 291.793 351.435 292.456 351.881 293.308C352.498 294.487 352.11 295.931 351.252 296.814C350.815 297.262 350.112 297.429 349.656 297.623C349.222 297.808 347.292 297.832 345.823 297.624C344.792 297.479 344.003 297.13 344.057 297.024C344.24 296.666 346.435 296.003 346.503 293.947C346.593 291.207 346.479 290.409 348.306 291.069Z" fill="#201d28" fill-rule="nonzero" opacity="1" stroke="none"/>
<path d="M255.262 281.952C257.267 282.676 258.391 283.34 258.837 284.191C259.454 285.371 259.066 286.814 258.208 287.697C257.772 288.146 257.068 288.313 256.612 288.506C256.178 288.691 254.248 288.715 252.78 288.508C251.749 288.362 250.959 288.014 251.013 287.908C251.197 287.549 253.391 286.886 253.459 284.831C253.549 282.09 253.435 281.293 255.262 281.952Z" fill="#201d28" fill-rule="nonzero" opacity="1" stroke="none"/>
<path d="M157.877 188.476L155.496 231.341L187.404 244.564L191.08 200.667L157.877 188.476Z" fill="#2b5b38" fill-rule="nonzero" opacity="1" stroke="none"/>
<path d="M158.122 188.292L155.979 229.035L184.694 241.603L188.002 199.879L158.122 188.292Z" fill="url(#LinearGradient_2)" fill-rule="nonzero" opacity="1" stroke="#0a0809" stroke-linecap="butt" stroke-linejoin="round" stroke-width="1.40207"/>
<path d="M465.39 229.831C465.39 229.831 475.175 242.184 475.628 242.892C476.772 244.68 475.257 267.993 475.257 267.993L485.186 262.793C485.186 262.793 484.891 240.66 484.189 237.724C483.836 236.246 473.187 225.639 473.187 225.639L465.39 229.831Z" fill="#bfa477" fill-rule="nonzero" opacity="0.781008" stroke="none"/>
<path d="M473.545 224.752" fill="#bfa477" fill-rule="nonzero" opacity="0.781008" stroke="none"/>
<path d="M472.964 225.659" fill="#bfa477" fill-rule="nonzero" opacity="0.781008" stroke="none"/>
</g>
</svg>
