<?xml version="1.0" encoding="UTF-8" standalone="no"?>
<!DOCTYPE svg PUBLIC "-//W3C//DTD SVG 1.1//EN" "http://www.w3.org/Graphics/SVG/1.1/DTD/svg11.dtd">
<!-- Created with Vectornator (http://vectornator.io/) -->
<svg height="100%" stroke-miterlimit="10" style="fill-rule:nonzero;clip-rule:evenodd;stroke-linecap:round;stroke-linejoin:round;" version="1.1" viewBox="0 0 595.35 419.58" width="100%" xml:space="preserve" xmlns="http://www.w3.org/2000/svg" xmlns:vectornator="http://vectornator.io" xmlns:xlink="http://www.w3.org/1999/xlink">
<defs>
<linearGradient gradientTransform="matrix(1 0 0 1 -0.220079 12.2117)" gradientUnits="userSpaceOnUse" id="LinearGradient" x1="198.364" x2="244.971" y1="235.863" y2="235.863">
<stop offset="0" stop-color="#b0bbf1" stop-opacity="0.942898"/>
<stop offset="0.530992" stop-color="#6d84ef" stop-opacity="0.942898"/>
<stop offset="1" stop-color="#4e6cf6" stop-opacity="0.942898"/>
</linearGradient>
<linearGradient gradientTransform="matrix(1 0 0 1 -0.220079 12.2117)" gradientUnits="userSpaceOnUse" id="LinearGradient_2" x1="155.979" x2="192.36" y1="213.886" y2="213.886">
<stop offset="0" stop-color="#b0bbf1" stop-opacity="0.942898"/>
<stop offset="0.530992" stop-color="#6d84ef" stop-opacity="0.942898"/>
<stop offset="1" stop-color="#4e6cf6" stop-opacity="0.942898"/>
</linearGradient>
</defs>
<g id="Layer-1" vectornator:layerName="Layer 1">
<path d="M249.543 267.825L248.711 287.629L309.38 311.163L361.329 290.975L359.378 270.282L310.34 288.953L249.546 267.308" fill="#433328" fill-rule="nonzero" opacity="1" stroke="none"/>
<path d="M249.982 254.325L250.721 224.665L306.964 248.91L335.516 213.466L356.684 202.636L358.715 246.725L311.64 265.77L266.966 246.941L249.982 254.325Z" fill="#100d0b" fill-rule="nonzero" opacity="1" stroke="none"/>
<path d="M205.088 219.458C205.088 219.458 202.496 219.846 201.792 217.583C201.088 215.32 202.386 211.452 202.386 211.452L248.388 229.203L245.638 286.2L203.007 270.6L205.088 219.458Z" fill="#2b5b38" fill-rule="nonzero" opacity="1" stroke="none"/>
<path d="M150.015 181.144L148.98 246.473L198.927 269.179L201.456 219.551C201.456 219.551 198.146 219.403 197.857 217.444C197.567 215.486 198.511 210.143 198.511 210.143L245.014 228.39L244.722 238.439L242.536 285.609L248.17 287.523L250.329 224.795L150.015 181.144Z" fill="#49965e" fill-rule="nonzero" opacity="1" stroke="#0a0809" stroke-linecap="butt" stroke-linejoin="round" stroke-width="1.40207"/>
<path d="M179.284 154.061C179.284 154.061 154.735 174.566 150.768 182.2C150.286 183.127 150.556 184.259 150.746 184.734C152.12 188.148 305.185 251.949 308.576 252.218C311.215 252.426 337.937 217.072 337.937 217.072L179.284 154.061Z" fill="#6d4209" fill-opacity="0.75" fill-rule="nonzero" opacity="1" stroke="none"/>
<path d="M453.12 181.813C452.683 182.779 443.863 185.877 443.863 185.877L442.587 177.311L455.345 171.661L462.139 177.303C462.139 177.303 453.556 180.847 453.12 181.813Z" fill="#594538" fill-rule="nonzero" opacity="1" stroke="#0a0809" stroke-linecap="butt" stroke-linejoin="round" stroke-width="1.40207"/>
<path d="M175.475 146.33C175.475 146.33 143.498 173.505 145.294 178.085C146.694 181.655 303.764 248.664 307.219 248.944C309.909 249.162 337.138 212.203 337.138 212.203L175.475 146.33Z" fill="#ee8d10" fill-rule="nonzero" opacity="1" stroke="#0a0809" stroke-linecap="butt" stroke-linejoin="round" stroke-width="1.40207"/>
<path d="M197.218 81.6449L198.044 141.869L358.225 202.77L358.739 195.469L361.807 151.841L197.218 81.6449Z" fill="#49965e" fill-rule="nonzero" opacity="1" stroke="#0a0809" stroke-linecap="butt" stroke-linejoin="round" stroke-width="1.40207"/>
<path d="M197.84 137.389L175.754 146.293L337.39 212.328L356.576 202.556L197.84 137.389Z" fill="#b19a75" fill-rule="nonzero" opacity="1" stroke="#0a0809" stroke-linecap="butt" stroke-linejoin="round" stroke-width="1.40207"/>
<path d="M249.456 254.022L266.667 246.75L311.871 265.642L357.562 246.789L358.912 259.616L359.587 266.621L317.415 283.344L310.256 286.107L249.22 262.174L249.456 254.022Z" fill="#f9d69d" fill-rule="nonzero" opacity="1" stroke="#0a0809" stroke-linecap="butt" stroke-linejoin="round" stroke-width="1.40207"/>
<path d="M249.767 261.168L310.488 283.588L358.942 266.114L359.367 267.894L359.317 270.411L310.453 288.985L249.565 267.418L249.767 261.168Z" fill="#9b775e" fill-rule="nonzero" opacity="1" stroke="none"/>
<path d="M148.804 246.305L85.1178 272.565L309.38 361.435L483.343 276.701L448.634 238.796L361.352 291.192L309.689 311.722C309.689 311.722 267.775 294.625 249.256 288.183C243.876 286.312 240.412 285.089 240.429 285.049L198.319 268.073L148.804 246.305Z" fill="#d0ccce" fill-rule="nonzero" opacity="1" stroke="#0a0809" stroke-linecap="butt" stroke-linejoin="round" stroke-width="1.40207"/>
<path d="M148.853 247.025L138.895 251.158L313.3 324.532L389.069 286.615L361.651 291.731L309.723 312.476C309.723 312.476 296.526 306.946 281.185 301.171C272.841 298.031 264.276 294.33 255.398 291.133C249.712 289.085 243.619 287.075 237.985 284.833C193.535 267.145 148.853 247.025 148.853 247.025Z" fill="#8c7a6e" fill-opacity="0.691339" fill-rule="nonzero" opacity="1" stroke="none"/>
<path d="M445.388 119.775L449.199 274.663L361.233 291.116L359.897 268.051L355.543 203.539L358.823 201.425L361.962 152.698L445.388 119.775Z" fill="#3b754b" fill-rule="nonzero" opacity="1" stroke="#0a0809" stroke-linecap="butt" stroke-linejoin="round" stroke-width="1.40207"/>
<path d="M238.82 87.8158L297.983 62.2385L421.152 113.376L356.595 137.778L238.82 87.8158Z" fill="#fae7c7" fill-rule="nonzero" opacity="1" stroke="#0a0809" stroke-linecap="butt" stroke-linejoin="round" stroke-width="1.40207"/>
<path d="M221.099 80.4894L293.117 49.5428L298.105 62.1872L237.756 87.941L221.099 80.4894Z" fill="#54251a" fill-rule="nonzero" opacity="1" stroke="#0a0809" stroke-linecap="butt" stroke-linejoin="round" stroke-width="1.40207"/>
<path d="M277.395 60.0411L276.349 85.4674L311.764 100.64L337.185 89.6729L337.02 63.762L312.356 74.7742L279.989 61.1602L277.395 60.0411Z" fill="#948873" fill-rule="nonzero" opacity="1" stroke="none"/>
<path d="M278.093 57.1602L277.07 82.5866L311.718 97.7592L336.589 86.7921L336.427 60.8812L312.298 71.8933L280.631 58.2794L278.093 57.1602Z" fill="#01618b" fill-rule="nonzero" opacity="1" stroke="#0a0809" stroke-linecap="butt" stroke-linejoin="round" stroke-width="1.40207"/>
<path d="M280.316 80.7658L299.554 88.9199L300.894 70.6359L281.248 62.2737L280.316 80.7658Z" fill="#8697d2" fill-rule="nonzero" opacity="1" stroke="#0a0809" stroke-linecap="butt" stroke-linejoin="round" stroke-width="1.40207"/>
<path d="M338.779 215.188L329.705 227.489L309.075 252.118L329.875 252.915C329.875 252.915 381.309 234.291 384.528 229.17C385.777 227.182 365.81 203.08 365.81 203.08L338.779 215.188Z" fill="#6d4209" fill-opacity="0.698198" fill-rule="nonzero" opacity="1" stroke="none"/>
<path d="M337.323 212.165L328.249 224.466L307.908 249.045L328.419 249.892C328.419 249.892 379.854 231.268 383.072 226.147C384.322 224.159 364.354 200.057 364.354 200.057L337.323 212.165Z" fill="#ee8d10" fill-rule="nonzero" opacity="1" stroke="#0a0809" stroke-linecap="butt" stroke-linejoin="round" stroke-width="1.40207"/>
<path d="M337.323 212.165L328.249 224.466L307.908 249.045L328.419 249.892C328.419 249.892 379.854 231.268 383.072 226.147C384.322 224.159 364.354 200.057 364.354 200.057L337.323 212.165Z" fill="#ee8d10" fill-rule="nonzero" opacity="1" stroke="#0a0809" stroke-linecap="butt" stroke-linejoin="round" stroke-width="1.40207"/>
<path d="M337.323 212.165L328.249 224.466L307.908 249.045L328.419 249.892C328.419 249.892 379.854 231.268 383.072 226.147C384.322 224.159 364.354 200.057 364.354 200.057L337.323 212.165Z" fill="#c37612" fill-rule="nonzero" opacity="1" stroke="#0a0809" stroke-linecap="butt" stroke-linejoin="round" stroke-width="1.40207"/>
<path d="M337.323 212.165L328.249 224.466" fill="#c37612" fill-rule="nonzero" opacity="1" stroke="#0a0809" stroke-linecap="butt" stroke-linejoin="round" stroke-width="1.40207"/>
<path d="M280.397 302.468L279.067 302.572C279.067 302.572 272.482 302.706 272.333 306.093C272.232 308.387 275.29 311.556 281.234 312.258C288.256 313.087 288.237 309.695 288.635 307.427C289.033 305.158 282.826 303.184 282.826 303.184L282.5 303.007L280.397 302.468Z" fill="#8f8a8d" fill-rule="nonzero" opacity="0.897287" stroke="none"/>
<path d="M343.556 301.899L342.227 302.003C342.227 302.003 335.642 302.136 335.493 305.523C335.392 307.818 338.45 310.987 344.393 311.689C351.416 312.518 351.396 309.126 351.794 306.857C352.193 304.589 345.986 302.615 345.986 302.615L345.66 302.438L343.556 301.899Z" fill="#8f8a8d" fill-rule="nonzero" opacity="0.897287" stroke="none"/>
<path d="M306.656 248.845L328.419 249.892C328.419 249.892 379.854 231.268 383.072 226.147C384.322 224.159 364.354 200.057 364.354 200.057L336.312 212.135" fill="#c37612" fill-rule="nonzero" opacity="1" stroke="#0a0809" stroke-linecap="butt" stroke-linejoin="round" stroke-width="1.40207"/>
<path d="M278.806 289.912L278.535 302.376C278.535 302.376 272.839 302.494 272.71 305.492C272.622 307.522 275.268 310.327 280.409 310.948C286.484 311.682 286.467 308.68 286.812 306.672C287.156 304.665 281.787 302.918 281.787 302.918L282.237 289.615L278.806 289.912Z" fill="#534b66" fill-rule="nonzero" opacity="1" stroke="#0a0809" stroke-linecap="butt" stroke-linejoin="round" stroke-width="1.40207"/>
<path d="M344.439 289.428L344.168 301.892C344.168 301.892 338.471 302.01 338.342 305.008C338.255 307.039 340.9 309.843 346.042 310.465C352.117 311.198 352.1 308.196 352.444 306.189C352.789 304.181 347.419 302.434 347.419 302.434L347.87 289.131L344.439 289.428Z" fill="#534b66" fill-rule="nonzero" opacity="1" stroke="#0a0809" stroke-linecap="butt" stroke-linejoin="round" stroke-width="1.40207"/>
<path d="M253.402 293.08L252.072 293.184C252.072 293.184 245.487 293.317 245.338 296.704C245.237 298.999 248.295 302.168 254.239 302.869C261.261 303.699 261.242 300.307 261.64 298.038C262.038 295.77 255.831 293.796 255.831 293.796L255.505 293.619L253.402 293.08Z" fill="#8f8a8d" fill-rule="nonzero" opacity="0.897287" stroke="none"/>
<path d="M251.395 280.311L251.124 292.775C251.124 292.775 245.428 292.893 245.299 295.891C245.211 297.922 247.857 300.727 252.998 301.348C259.073 302.082 259.056 299.08 259.401 297.072C259.745 295.064 254.376 293.317 254.376 293.317L254.826 280.014L251.395 280.311Z" fill="#534b66" fill-rule="nonzero" opacity="1" stroke="#0a0809" stroke-linecap="butt" stroke-linejoin="round" stroke-width="1.40207"/>
<path d="M280.515 289.144C297.427 290.006 290.315 278.103 283.434 277.529C266.392 276.108 269.815 288.598 280.515 289.144Z" fill="#ee8d10" fill-rule="nonzero" opacity="1" stroke="#0a0809" stroke-linecap="butt" stroke-linejoin="round" stroke-width="1.40207"/>
<path d="M346.147 288.66C363.06 289.522 355.947 277.619 349.067 277.046C332.024 275.624 335.448 288.114 346.147 288.66Z" fill="#ee8d10" fill-rule="nonzero" opacity="1" stroke="#0a0809" stroke-linecap="butt" stroke-linejoin="round" stroke-width="1.40207"/>
<path d="M253.104 279.543C270.016 280.406 262.904 268.503 256.023 267.929C238.981 266.508 242.404 278.997 253.104 279.543Z" fill="#ee8d10" fill-rule="nonzero" opacity="1" stroke="#0a0809" stroke-linecap="butt" stroke-linejoin="round" stroke-width="1.40207"/>
<path d="M280.181 284.884C275.957 284.897 272.606 282.858 272.354 281.736C271.965 280.002 275.847 277.674 280.81 277.689C284.857 277.702 289.153 280.199 289.074 282.287C289.026 283.559 287.319 284.861 280.181 284.884Z" fill="#f9d69d" fill-rule="nonzero" opacity="1" stroke="none"/>
<path d="M345.813 284.4C341.589 284.413 338.238 282.374 337.987 281.252C337.598 279.518 341.479 277.19 346.443 277.206C350.489 277.218 354.786 279.715 354.707 281.803C354.658 283.075 352.952 284.377 345.813 284.4Z" fill="#f9d69d" fill-rule="nonzero" opacity="1" stroke="none"/>
<path d="M252.77 275.283C248.546 275.297 245.195 273.257 244.943 272.136C244.554 270.401 248.436 268.073 253.399 268.089C257.446 268.101 261.742 270.598 261.663 272.686C261.615 273.958 259.908 275.261 252.77 275.283Z" fill="#f9d69d" fill-rule="nonzero" opacity="1" stroke="none"/>
<path d="M386.574 272.389L375.855 279.795L400.511 292.02L408.764 283.112L386.574 272.389Z" fill="#594538" fill-rule="nonzero" opacity="1" stroke="#0a0809" stroke-linecap="butt" stroke-linejoin="round" stroke-width="1.40207"/>
<path d="M400.787 261.823L391.135 268.441L412.094 278.231L420.229 270.785L400.787 261.823Z" fill="#594538" fill-rule="nonzero" opacity="1" stroke="#0a0809" stroke-linecap="butt" stroke-linejoin="round" stroke-width="1.40207"/>
<path d="M411.542 246.379L402.166 253.274L424.779 263.891L433.466 256.583L411.542 246.379Z" fill="#594538" fill-rule="nonzero" opacity="1" stroke="#0a0809" stroke-linecap="butt" stroke-linejoin="round" stroke-width="1.40207"/>
<path d="M422.736 234.771L412.332 240.736L441.188 255.066L450.788 247.844L422.736 234.771Z" fill="#594538" fill-rule="nonzero" opacity="1" stroke="#0a0809" stroke-linecap="butt" stroke-linejoin="round" stroke-width="1.40207"/>
<path d="M434.018 219.216L422.903 225.427L454.287 241.14L463.249 233.832L434.018 219.216Z" fill="#594538" fill-rule="nonzero" opacity="1" stroke="#0a0809" stroke-linecap="butt" stroke-linejoin="round" stroke-width="1.40207"/>
<path d="M434.119 219.866L429.365 222.546L432.452 224.337L457.693 237.335L462.013 233.954L434.119 219.866Z" fill="#2e251f" fill-opacity="0.891892" fill-rule="nonzero" opacity="1" stroke="none"/>
<path d="M422.768 235.171L418.941 237.813L445.351 250.958L449.859 248.155L422.768 235.171Z" fill="#2e251f" fill-opacity="0.891892" fill-rule="nonzero" opacity="1" stroke="none"/>
<path d="M411.712 247.018L407.962 249.897L428.683 259.823L432.244 256.489L411.712 247.018Z" fill="#2e251f" fill-opacity="0.891892" fill-rule="nonzero" opacity="1" stroke="none"/>
<path d="M400.719 262.599L396.968 265.478L417.69 275.403L421.251 272.069L400.719 262.599Z" fill="#2e251f" fill-opacity="0.891892" fill-rule="nonzero" opacity="1" stroke="none"/>
<path d="M386.373 273.379L382.26 276.385L404.01 287.141L408.043 283.186L386.373 273.379Z" fill="#2e251f" fill-opacity="0.891892" fill-rule="nonzero" opacity="1" stroke="none"/>
<path d="M435.479 210.117L447.117 203.083L447.393 196.465L465.869 186.261L471.798 194.672L504.753 206.944L470.695 227.213L435.479 210.117Z" fill="#594538" fill-rule="nonzero" opacity="1" stroke="#0a0809" stroke-linecap="butt" stroke-linejoin="round" stroke-width="1.40207"/>
<path d="M460.976 201.08L454.21 193.562L447.895 196.631L447.486 203.506L436.471 210.075L456.71 219.565L469.849 206.425L460.976 201.08Z" fill="#2e251f" fill-opacity="0.891892" fill-rule="nonzero" opacity="1" stroke="none"/>
<path d="M427.468 260.844L426.009 246.996L429.5 243.764L430.72 258.074L427.468 260.844Z" fill="#203d4a" fill-rule="nonzero" opacity="1" stroke="none"/>
<path d="M409.255 265.203L411.138 273.569L414.051 271.972L412.378 262.865L409.255 265.203Z" fill="#203d4a" fill-rule="nonzero" opacity="1" stroke="none"/>
<path d="M407.776 299.241L407.835 271.044L473.271 237C473.271 237 483.101 247.17 484.44 249.196C485.778 251.222 485.473 275.673 485.473 275.673L407.543 313.254L407.776 299.241Z" fill="#f9d69d" fill-rule="nonzero" opacity="1" stroke="#0a0809" stroke-linecap="butt" stroke-linejoin="round" stroke-width="1.40207"/>
<path d="M440.772 118.195L418.932 97.5908L309.308 50.4231L304.948 48.7896L311.662 46.9528C311.662 46.9528 412.644 89.7621 422.847 94.7063C429.187 97.7786 441.864 111.649 445.099 116.341C449.22 122.316 474.955 165.344 474.955 165.344C474.955 165.344 502.969 178.63 502.969 180.518C502.969 185.381 472.54 199.401 472.54 199.401L401.048 276.013L404.843 287.434L401.429 290.343L396.286 275.085L408.06 262.162L467.595 196.833L496.306 181.074C496.306 181.074 471.731 168.407 471.473 168.06C471.216 167.713 445.717 125.818 445.717 125.818L445.107 120.361" fill="#203d4a" fill-rule="nonzero" opacity="1" stroke="none"/>
<path d="M441.996 230.418L445.18 251.245L447.685 249.575L444.501 228.434L441.996 230.418Z" fill="#203d4a" fill-rule="nonzero" opacity="1" stroke="none"/>
<path d="M457.081 238.039L460.004 236.055L457.446 214.497L454.158 218.412L457.081 238.039Z" fill="#203d4a" fill-rule="nonzero" opacity="1" stroke="none"/>
<path d="M454.433 139.674L455.361 171.473C455.361 171.473 458.402 174.676 458.958 173.123C459.513 171.57 459.362 146.056 459.362 146.056L454.433 139.674Z" fill="#203d4a" fill-rule="nonzero" opacity="1" stroke="none"/>
<path d="M466.551 158.143L467.194 187.575C467.194 187.575 469.55 192.149 470.105 190.596C470.661 189.043 470.655 164.137 470.655 164.137L466.551 158.143Z" fill="#203d4a" fill-rule="nonzero" opacity="1" stroke="none"/>
<path d="M299.888 45.9456L336.3 60.4577L312.263 71.6616L278.08 56.5887L299.888 45.9456Z" fill="#01618b" fill-rule="nonzero" opacity="1" stroke="#0a0809" stroke-linecap="butt" stroke-linejoin="round" stroke-width="1.40207"/>
<path d="M401.749 90.2061L398.536 103.82L401.894 105.66L405.231 91.2995L401.749 90.2061Z" fill="#203d4a" fill-rule="nonzero" opacity="1" stroke="none"/>
<path d="M376.534 78.1946C376.292 78.2802 373.01 93.3316 373.01 93.3316L376.507 94.8536L379.996 79.5811" fill="#203d4a" fill-rule="nonzero" opacity="1" stroke="none"/>
<path d="M349.814 66.3539L347.139 82.8707L349.847 84.0053L352.591 67.5853L349.814 66.3539Z" fill="#203d4a" fill-rule="nonzero" opacity="1" stroke="none"/>
<path d="M203.971 95.5683L202.019 123.694L207.999 125.07L208.727 114.153L214.112 115.251L214.284 109.42L209.784 108.52L209.755 102.61L215.815 104.11L216.228 98.2617L203.971 95.5683Z" fill="#74401c" fill-rule="nonzero" opacity="0.72093" stroke="none"/>
<path d="M197.07 81.2987L281.238 45.5532L293.31 48.9649L220.089 80.1952L356.033 138.982L433.716 108.539L443.426 111.95L448.937 118.249L362.594 152.104L197.07 81.2987Z" fill="#ee8d10" fill-rule="nonzero" opacity="1" stroke="#0a0809" stroke-linecap="butt" stroke-linejoin="round" stroke-width="1.40207"/>
<path d="M218.116 99.4299C218.116 99.4299 214.862 117.64 216.798 125.296C217.325 127.379 221.359 130.845 223.938 131.23C229.497 132.06 231.299 125.698 232.01 121.393C233.298 113.597 233.173 104.472 233.031 104.184C232.784 103.681 226.915 102.353 226.915 102.353C226.915 102.353 226.166 118.805 224.891 123.917C224.351 126.081 223.119 124.85 223.031 123.443C222.615 116.781 224.538 100.901 224.538 100.901L218.116 99.4299Z" fill="#74401c" fill-rule="nonzero" opacity="0.72093" stroke="none"/>
<path d="M312.319 72.6397L312.059 97.2371L336.018 86.4008L336.128 61.8224L312.319 72.6397Z" fill="#203d4a" fill-rule="nonzero" opacity="1" stroke="none"/>
<path d="M234.302 104.553L231.745 133.277L242.969 136.551L243.57 130.53L238.531 128.894L240.937 106.775L234.302 104.553Z" fill="#74401c" fill-rule="nonzero" opacity="0.72093" stroke="none"/>
<path d="M247.181 110.141L244.626 138.02L255.434 141.555L256.404 135.957L251.175 134.232L253.175 111.901L247.181 110.141Z" fill="#74401c" fill-rule="nonzero" opacity="0.72093" stroke="none"/>
<path d="M200.531 94.1447L200.647 122.779L205.369 124.232L205.586 113.191L210.672 113.828L210.844 107.997L206.344 107.096L206.315 101.187L212.375 102.687L212.788 96.8381L200.531 94.1447Z" fill="#d0654c" fill-rule="nonzero" opacity="1" stroke="none"/>
<path d="M256.452 122.261L255.835 129.521L261.057 130.342L261.795 123.914L256.452 122.261Z" fill="#74401c" fill-rule="nonzero" opacity="0.72093" stroke="none"/>
<path d="M214.675 98.0063C214.675 98.0063 211.422 116.216 213.357 123.872C213.884 125.956 217.919 129.422 220.498 129.807C226.056 130.636 227.859 124.274 228.57 119.969C229.858 112.174 230.062 103.092 229.92 102.804C229.672 102.301 224.109 100.843 224.109 100.843C224.109 100.843 222.726 117.381 221.451 122.494C220.911 124.657 219.678 123.426 219.59 122.019C219.175 115.357 221.097 99.4771 221.097 99.4771L214.675 98.0063Z" fill="#d0654c" fill-rule="nonzero" opacity="1" stroke="none"/>
<path d="M268.166 118.343L264.172 144.523L268.826 148.183L271.697 129.305L271.963 149.229L275.519 151.635L280.903 132.059L278.552 152.837L282.736 155.975L285.439 125.699L279.59 123.144L276.401 133.155L275.268 121.063L268.166 118.343Z" fill="#74401c" fill-rule="nonzero" opacity="0.72093" stroke="none"/>
<path d="M231.808 103.458L230.21 132.657L240.089 135.49L241.106 129.098L236.53 127.573L238.563 106.218L231.808 103.458Z" fill="#d0654c" fill-rule="nonzero" opacity="1" stroke="none"/>
<path d="M285.034 156.041L289.697 158.114L291.51 149.738L295.568 151.033L295.05 159.495L300.212 162.454L300.922 131.347L290.647 128.93" fill="#74401c" fill-rule="nonzero" opacity="0.72093" stroke="none"/>
<path d="M244.011 108.905L241.186 136.597L251.993 140.131L252.963 134.534L247.734 132.808L249.734 110.477L244.011 108.905Z" fill="#d0654c" fill-rule="nonzero" opacity="1" stroke="none"/>
<path d="M254.919 121.773L254.302 129.033L259.523 129.854L259.807 127.381L260.261 123.426L254.919 121.773Z" fill="#d0654c" fill-rule="nonzero" opacity="1" stroke="none"/>
<path d="M264.726 116.919L259.396 143.225L265.428 145.969L268.477 128.214C268.477 128.214 267.513 147.185 267.529 147.653C267.545 148.121 271.836 149.173 271.836 149.679C271.836 150.186 277.805 132.651 277.805 132.651L275.112 151.414L279.295 154.551L283.619 124.489L276.861 121.88L273.498 130.799L271.828 119.639L264.726 116.919Z" fill="#d0654c" fill-rule="nonzero" opacity="1" stroke="none"/>
<path d="M302.894 132.133L300.047 162.171L304.753 165.308L306.236 149.605L308.571 150.101L307.263 165.204L312.388 167.086C312.388 167.086 313.689 155.087 313.773 151.232C313.817 149.201 311.702 147.957 311.702 147.957C311.702 147.957 313.508 147.97 313.809 147C314.54 144.65 314.949 141.503 313.885 138.212C312.822 134.921 309.555 133.835 309.555 133.835L302.894 132.133Z" fill="#74401c" fill-rule="nonzero" opacity="0.72093" stroke="none"/>
<path d="M281.311 155.608L286.904 157.946L288.07 148.315L292.128 149.61L291.61 158.071L296.772 161.03L298.23 129.478L288.652 127.019" fill="#d0654c" fill-rule="nonzero" opacity="1" stroke="none"/>
<path d="M319.831 140.241L317.039 169.782L322.3 171.827L323.779 160.775C323.779 160.775 324.731 161.101 325.343 163.751C325.954 166.401 325.144 173.181 325.144 173.181L329.544 174.565L327.322 155.941L333.247 145.366L327.564 143.794L324.135 153.995L325.011 142.486L319.831 140.241Z" fill="#74401c" fill-rule="nonzero" opacity="0.72093" stroke="none"/>
<path d="M289.345 146.124L292.826 146.202L292.032 133.907L289.345 146.124Z" fill="#68582f" fill-rule="nonzero" opacity="1" stroke="none"/>
<path d="M335.977 147.321L332.826 176.734L343.834 179.181L343.92 174.605L338.394 172.533L339.43 165.798L344.093 167.525L345.31 162.746L339.862 160.272L340.553 155.178L345.906 157.077C345.906 157.077 346.96 151.861 346.606 151.879C346.251 151.897 335.977 147.321 335.977 147.321Z" fill="#74401c" fill-rule="nonzero" opacity="0.72093" stroke="none"/>
<path d="M301.835 131.891L298.989 161.928L303.695 165.066L305.178 149.363L307.513 149.859L306.205 164.961L311.329 166.844C311.329 166.844 312.631 154.844 312.714 150.99C312.758 148.959 310.644 147.715 310.644 147.715C310.644 147.715 312.449 147.728 312.751 146.757C313.481 144.407 313.891 141.261 312.827 137.97C311.763 134.679 308.497 133.593 308.497 133.593L301.835 131.891Z" fill="#d0654c" fill-rule="nonzero" opacity="1" stroke="none"/>
<path d="M347.23 152.02L346.184 158.689L350.368 159.659L347.921 179.822L353.879 181.463L356.147 161.521L359.405 162.64L360.063 156.356L347.23 152.02Z" fill="#74401c" fill-rule="nonzero" opacity="0.72093" stroke="none"/>
<path d="M306.12 139.051L305.62 144.485L308.148 144.633L308.874 139.653L306.12 139.051Z" fill="#68582f" fill-rule="nonzero" opacity="1" stroke="none"/>
<path d="M316.39 138.817L313.599 168.358L318.409 170.45L320.339 159.352C320.339 159.352 321.291 159.678 321.902 162.327C322.514 164.977 321.704 171.757 321.704 171.757L327.77 173.735L325.56 154.717L330.877 144.335L324.201 142.619L320.694 152.571L321.571 141.062L316.39 138.817Z" fill="#d0654c" fill-rule="nonzero" opacity="1" stroke="none"/>
<path d="M332.536 145.897L329.386 175.311L340.393 177.757L340.48 173.181L334.954 171.109L335.99 164.374L340.652 166.101L341.869 161.323L336.422 158.848L337.112 153.754L342.466 155.654C342.466 155.654 343.519 150.437 343.165 150.455C342.811 150.473 332.536 145.897 332.536 145.897Z" fill="#d0654c" fill-rule="nonzero" opacity="1" stroke="none"/>
<path d="M344.797 151.25L343.751 157.92L347.934 158.89L345.488 179.053L351.445 180.693L353.713 160.751L356.971 161.87L357.63 155.587L344.797 151.25Z" fill="#d0654c" fill-rule="nonzero" opacity="1" stroke="none"/>
<path d="M197.441 115.634L173.927 125.302L334.659 191.801C334.659 191.801 358.575 187.931 359.041 186.453C359.59 184.714 360.667 179.574 359.255 180.253C354.7 182.441 335.201 186.381 335.201 186.381L186.718 125.08L197.448 120.906C197.025 115.616 197.441 115.634 197.441 115.634Z" fill="#433328" fill-rule="nonzero" opacity="1" stroke="#0a0809" stroke-linecap="butt" stroke-linejoin="round" stroke-width="1.40207"/>
<path d="M201.634 218.971C201.634 218.971 199.053 219.356 198.352 217.113C197.651 214.87 198.944 211.038 198.944 211.038L244.311 229.104L241.819 284.725L199.679 268.186L201.634 218.971Z" fill="url(#LinearGradient)" fill-rule="nonzero" opacity="1" stroke="none"/>
<path d="M223.123 220.057L219.05 275.776" fill="none" opacity="1" stroke="#0a0809" stroke-linecap="butt" stroke-linejoin="round" stroke-width="1.72646"/>
<path d="M173.965 125.575L175.944 146.323L180.906 148.178L180.58 128.38L173.965 125.575Z" fill="#433328" fill-rule="nonzero" opacity="1" stroke="#0a0809" stroke-linecap="butt" stroke-linejoin="round" stroke-width="1.72646"/>
<path d="M222.53 146.038L221.593 164.806L228.688 167.629L229.147 148.803L222.53 146.038Z" fill="#433328" fill-rule="nonzero" opacity="1" stroke="#0a0809" stroke-linecap="butt" stroke-linejoin="round" stroke-width="1.72646"/>
<path d="M246.55 155.859L244.536 173.714L252.506 177.055L253.273 158.598L246.55 155.859Z" fill="#433328" fill-rule="nonzero" opacity="1" stroke="#0a0809" stroke-linecap="butt" stroke-linejoin="round" stroke-width="1.72646"/>
<path d="M268.491 164.887L267.109 183.115L274.272 186.234L275.195 167.716L268.491 164.887Z" fill="#433328" fill-rule="nonzero" opacity="1" stroke="#0a0809" stroke-linecap="butt" stroke-linejoin="round" stroke-width="1.72646"/>
<path d="M329.849 190.137L327.592 207.569L333.862 210.077L334.614 191.642L329.849 190.137Z" fill="#433328" fill-rule="nonzero" opacity="1" stroke="#0a0809" stroke-linecap="butt" stroke-linejoin="round" stroke-width="1.72646"/>
<path d="M282.453 303.765C284.458 304.489 285.582 305.152 286.028 306.004C286.645 307.183 286.257 308.627 285.399 309.509C284.963 309.958 284.259 310.125 283.803 310.319C283.369 310.503 281.439 310.528 279.971 310.32C278.94 310.175 278.15 309.826 278.204 309.72C278.388 309.362 280.582 308.698 280.65 306.643C280.74 303.902 280.626 303.105 282.453 303.765Z" fill="#201d28" fill-rule="nonzero" opacity="1" stroke="none"/>
<path d="M282.453 303.765C284.458 304.489 285.582 305.152 286.028 306.004C286.645 307.183 286.257 308.627 285.399 309.509C284.963 309.958 284.259 310.125 283.803 310.319C283.369 310.503 281.439 310.528 279.971 310.32C278.94 310.175 278.15 309.826 278.204 309.72C278.388 309.362 280.582 308.698 280.65 306.643C280.74 303.902 280.626 303.105 282.453 303.765Z" fill="#201d28" fill-rule="nonzero" opacity="1" stroke="none"/>
<path d="M348.085 303.281C350.09 304.005 351.215 304.668 351.661 305.52C352.278 306.699 351.89 308.143 351.031 309.026C350.595 309.474 349.892 309.641 349.436 309.835C349.002 310.019 347.072 310.044 345.603 309.836C344.572 309.691 343.783 309.342 343.837 309.236C344.02 308.878 346.215 308.215 346.282 306.159C346.373 303.419 346.259 302.621 348.085 303.281Z" fill="#201d28" fill-rule="nonzero" opacity="1" stroke="none"/>
<path d="M255.042 294.164C257.046 294.888 258.171 295.551 258.617 296.403C259.234 297.582 258.846 299.026 257.988 299.909C257.552 300.357 256.848 300.524 256.392 300.718C255.958 300.903 254.028 300.927 252.56 300.719C251.529 300.574 250.739 300.225 250.793 300.119C250.977 299.761 253.171 299.098 253.239 297.043C253.329 294.302 253.215 293.504 255.042 294.164Z" fill="#201d28" fill-rule="nonzero" opacity="1" stroke="none"/>
<path d="M157.657 200.688L155.276 243.553L187.184 256.776L190.86 212.879L157.657 200.688Z" fill="#2b5b38" fill-rule="nonzero" opacity="1" stroke="none"/>
<path d="M157.902 200.504L155.759 241.246L184.474 253.815L187.782 212.091L157.902 200.504Z" fill="url(#LinearGradient_2)" fill-rule="nonzero" opacity="1" stroke="#0a0809" stroke-linecap="butt" stroke-linejoin="round" stroke-width="1.40207"/>
<path d="M465.17 242.043C465.17 242.043 474.955 254.395 475.408 255.104C476.552 256.891 475.037 280.204 475.037 280.204L484.966 275.005C484.966 275.005 484.671 252.872 483.969 249.936C483.616 248.457 472.967 237.85 472.967 237.85L465.17 242.043Z" fill="#bfa477" fill-rule="nonzero" opacity="0.781008" stroke="none"/>
<path d="M473.325 236.964" fill="#bfa477" fill-rule="nonzero" opacity="0.781008" stroke="none"/>
<path d="M472.744 237.871" fill="#bfa477" fill-rule="nonzero" opacity="0.781008" stroke="none"/>
</g>
</svg>
