<?xml version="1.0" encoding="UTF-8" standalone="no"?>
<!-- Created with Vectornator (http://vectornator.io/) -->

<svg
   height="386.93961"
   stroke-miterlimit="10"
   style="clip-rule:evenodd;fill-rule:nonzero;stroke-linecap:round;stroke-linejoin:round"
   version="1.1"
   viewBox="0 0 432.69737 386.93962"
   width="432.69736"
   xml:space="preserve"
   id="svg6716"
   sodipodi:docname="магаз кривой.svg"
   inkscape:version="1.2.1 (9c6d41e410, 2022-07-14)"
   xmlns:inkscape="http://www.inkscape.org/namespaces/inkscape"
   xmlns:sodipodi="http://sodipodi.sourceforge.net/DTD/sodipodi-0.dtd"
   xmlns="http://www.w3.org/2000/svg"
   xmlns:svg="http://www.w3.org/2000/svg"
   xmlns:vectornator="http://vectornator.io"><sodipodi:namedview
   id="namedview6718"
   pagecolor="#ffffff"
   bordercolor="#000000"
   borderopacity="0.25"
   inkscape:showpageshadow="2"
   inkscape:pageopacity="0.0"
   inkscape:pagecheckerboard="0"
   inkscape:deskcolor="#d1d1d1"
   showgrid="false"
   inkscape:zoom="1.9162019"
   inkscape:cx="223.09757"
   inkscape:cy="177.1734"
   inkscape:window-width="1920"
   inkscape:window-height="991"
   inkscape:window-x="-9"
   inkscape:window-y="-9"
   inkscape:window-maximized="1"
   inkscape:current-layer="svg6716" />
<defs
   id="defs6504">
<linearGradient
   gradientUnits="userSpaceOnUse"
   id="LinearGradient"
   x1="198.364"
   x2="244.97099"
   y1="235.86301"
   y2="235.86301">
<stop
   offset="0"
   stop-color="#b0bbf1"
   stop-opacity="0.942898"
   id="stop6490" />
<stop
   offset="0.530992"
   stop-color="#6d84ef"
   stop-opacity="0.942898"
   id="stop6492" />
<stop
   offset="1"
   stop-color="#4e6cf6"
   stop-opacity="0.942898"
   id="stop6494" />
</linearGradient>
<linearGradient
   gradientUnits="userSpaceOnUse"
   id="LinearGradient_2"
   x1="155.979"
   x2="192.36"
   y1="213.886"
   y2="213.886">
<stop
   offset="0"
   stop-color="#b0bbf1"
   stop-opacity="0.942898"
   id="stop6497" />
<stop
   offset="0.530992"
   stop-color="#6d84ef"
   stop-opacity="0.942898"
   id="stop6499" />
<stop
   offset="1"
   stop-color="#4e6cf6"
   stop-opacity="0.942898"
   id="stop6501" />
</linearGradient>
</defs>
<clipPath
   id="ArtboardFrame">
<rect
   height="419.57999"
   width="595.34998"
   x="0"
   y="0"
   id="rect6506" />
</clipPath>
<g
   clip-path="url(#ArtboardFrame)"
   id="Layer-2"
   vectornator:layerName="Layer 2"
   transform="translate(-74.369633,-32.640369)">
<path
   d="m 249.763,255.613 -1.701,20.236 12.403,5.335 26.866,12.604 22.84,9.965 51.378,-24.99 -1.95,-20.693 -48.974,18.721 -60.859,-21.695"
   fill="#433328"
   fill-rule="nonzero"
   opacity="1"
   stroke="none"
   id="path6509" />
<path
   d="m 250.202,242.113 0.739,-29.66 56.243,24.245 28.552,-35.444 21.168,-10.83 2.031,44.089 -47.075,19.046 -44.674,-18.83 z"
   fill="#100d0b"
   fill-rule="nonzero"
   opacity="1"
   stroke="none"
   id="path6511" />
<path
   d="m 205.308,207.246 c 0,0 -2.592,0.388 -3.296,-1.875 -0.704,-2.263 0.594,-6.13 0.594,-6.13 l 46.002,17.75 -2.75,56.997 -42.63,-15.6 z"
   fill="#2b5b38"
   fill-rule="nonzero"
   opacity="1"
   stroke="none"
   id="path6513" />
<path
   d="m 150.235,168.932 -1.035,65.329 42.825,19.468 7.122,3.238 2.529,-49.628 c 0,0 -3.31,-0.148 -3.599,-2.107 -0.29,-1.958 0.654,-7.301 0.654,-7.301 l 46.503,18.247 -0.292,10.049 -2.186,47.17 5.729,2.452 2.064,-63.266 z"
   fill="#49965e"
   fill-rule="nonzero"
   opacity="1"
   stroke="#0a0809"
   stroke-linecap="butt"
   stroke-linejoin="round"
   stroke-width="1.40207"
   id="path6515" />
<path
   d="m 179.504,141.85 c 0,0 -24.549,20.504 -28.516,28.138 -0.482,0.927 -0.212,2.06 -0.022,2.534 1.374,3.415 154.439,67.216 157.83,67.484 2.639,0.209 29.361,-35.146 29.361,-35.146 z"
   fill="#6d4209"
   fill-opacity="0.75"
   fill-rule="nonzero"
   opacity="1"
   stroke="none"
   id="path6517" />
<path
   d="m 453.34,169.601 c -0.437,0.966 -9.257,4.064 -9.257,4.064 l -1.276,-8.566 12.758,-5.65 6.794,5.643 c 0,0 -8.583,3.543 -9.019,4.509 z"
   fill="#594538"
   fill-rule="nonzero"
   opacity="1"
   stroke="#0a0809"
   stroke-linecap="butt"
   stroke-linejoin="round"
   stroke-width="1.40207"
   id="path6519" />
<path
   d="m 175.695,134.118 c 0,0 -31.977,27.176 -30.181,31.756 1.4,3.569 158.47,70.578 161.926,70.858 2.689,0.219 29.918,-36.741 29.918,-36.741 z"
   fill="#ee8d10"
   fill-rule="nonzero"
   opacity="1"
   stroke="#0a0809"
   stroke-linecap="butt"
   stroke-linejoin="round"
   stroke-width="1.40207"
   id="path6521" />
<path
   d="m 197.439,69.4331 0.825,60.2239 160.181,60.901 0.514,-7.301 3.068,-43.627 z"
   fill="#49965e"
   fill-rule="nonzero"
   opacity="1"
   stroke="#0a0809"
   stroke-linecap="butt"
   stroke-linejoin="round"
   stroke-width="1.40207"
   id="path6523" />
<path
   d="m 198.06,125.177 -22.086,8.904 161.636,66.035 19.186,-9.772 z"
   fill="#b19a75"
   fill-rule="nonzero"
   opacity="1"
   stroke="#0a0809"
   stroke-linecap="butt"
   stroke-linejoin="round"
   stroke-width="1.40207"
   id="path6525" />
<path
   d="m 249.677,241.81 17.21,-7.272 45.204,18.892 45.691,-18.853 1.35,12.828 0.675,7.004 -42.172,16.723 -7.159,2.763 -61.036,-23.933 z"
   fill="#f9d69d"
   fill-rule="nonzero"
   opacity="1"
   stroke="#0a0809"
   stroke-linecap="butt"
   stroke-linejoin="round"
   stroke-width="1.40207"
   id="path6527" />
<path
   d="m 249.987,248.956 60.721,22.42 48.454,-17.474 0.425,1.78 -0.05,2.517 -48.864,18.574 -60.888,-21.566 z"
   fill="#9b775e"
   fill-rule="nonzero"
   opacity="1"
   stroke="none"
   id="path6529" />
<path
   d="M 149.024,234.094 75.0706,268.431 273.826,410.602 483.563,264.49 l -34.709,-37.906 -87.282,52.397 -51.091,24.738 c 0,0 -56.252,-25.212 -60.349,-26.637 -1.693,-0.589 -9.095,-3.825 -9.083,-3.853 l -42.51,-17.368 z"
   fill="#d0ccce"
   fill-rule="nonzero"
   opacity="1"
   stroke="#0a0809"
   stroke-linecap="butt"
   stroke-linejoin="round"
   stroke-width="1.40207"
   id="path6531" />
<path
   d="m 149.073,234.814 -9.958,4.133 171.7,82.903 78.474,-47.447 -27.418,5.117 -42.483,19.525 -9.467,4.974 c 0,0 -37.254,-17.08 -57.801,-25.634 -5.615,-2.337 -12.706,-5.282 -13.915,-5.763 -17.261,-6.869 -34.557,-14.104 -49.257,-20.385 -23.157,-9.895 -39.875,-17.423 -39.875,-17.423 z"
   fill="#8c7a6e"
   fill-opacity="0.691339"
   fill-rule="nonzero"
   opacity="1"
   stroke="none"
   id="path6533" />
<path
   d="m 445.608,107.563 3.812,154.889 -87.967,16.452 -1.336,-23.065 -4.354,-64.512 3.28,-2.114 3.139,-48.726 z"
   fill="#3b754b"
   fill-rule="nonzero"
   opacity="1"
   stroke="#0a0809"
   stroke-linecap="butt"
   stroke-linejoin="round"
   stroke-width="1.40207"
   id="path6535" />
<path
   d="m 239.04,75.604 59.163,-25.5772 123.17,51.1372 -64.557,24.403 z"
   fill="#fae7c7"
   fill-rule="nonzero"
   opacity="1"
   stroke="#0a0809"
   stroke-linecap="butt"
   stroke-linejoin="round"
   stroke-width="1.40207"
   id="path6537" />
<path
   d="m 221.319,68.2777 72.018,-30.9467 4.988,12.6445 -60.349,25.7538 z"
   fill="#54251a"
   fill-rule="nonzero"
   opacity="1"
   stroke="#0a0809"
   stroke-linecap="butt"
   stroke-linejoin="round"
   stroke-width="1.40207"
   id="path6539" />
<path
   d="M 277.615,47.8293 276.569,73.2557 311.984,88.4283 337.406,77.4612 337.24,51.5503 312.576,62.5624 280.209,48.9485 Z"
   fill="#948873"
   fill-rule="nonzero"
   opacity="1"
   stroke="none"
   id="path6541" />
<path
   d="M 278.313,44.9485 277.29,70.3748 311.938,85.5474 336.809,74.5803 336.647,48.6695 312.518,59.6816 280.851,46.0677 Z"
   fill="#01618b"
   fill-rule="nonzero"
   opacity="1"
   stroke="#0a0809"
   stroke-linecap="butt"
   stroke-linejoin="round"
   stroke-width="1.40207"
   id="path6543" />
<path
   d="m 280.536,68.554 19.238,8.1542 1.34,-18.284 -19.646,-8.3622 z"
   fill="#8697d2"
   fill-rule="nonzero"
   opacity="1"
   stroke="#0a0809"
   stroke-linecap="butt"
   stroke-linejoin="round"
   stroke-width="1.40207"
   id="path6545" />
<path
   d="m 338.999,202.976 -9.074,12.301 -20.63,24.629 20.8,0.797 c 0,0 51.434,-18.624 54.653,-23.745 1.25,-1.988 -18.718,-26.09 -18.718,-26.09 z"
   fill="#6d4209"
   fill-opacity="0.698198"
   fill-rule="nonzero"
   opacity="1"
   stroke="none"
   id="path6547" />
<path
   d="m 337.543,199.953 -9.074,12.301 -20.34,24.579 20.51,0.848 c 0,0 51.435,-18.625 54.653,-23.746 1.25,-1.988 -18.718,-26.09 -18.718,-26.09 z"
   fill="#ee8d10"
   fill-rule="nonzero"
   opacity="1"
   stroke="#0a0809"
   stroke-linecap="butt"
   stroke-linejoin="round"
   stroke-width="1.40207"
   id="path6549" />
<path
   d="m 337.543,199.953 -9.074,12.301 -20.34,24.579 20.51,0.848 c 0,0 51.435,-18.625 54.653,-23.746 1.25,-1.988 -18.718,-26.09 -18.718,-26.09 z"
   fill="#ee8d10"
   fill-rule="nonzero"
   opacity="1"
   stroke="#0a0809"
   stroke-linecap="butt"
   stroke-linejoin="round"
   stroke-width="1.40207"
   id="path6551" />
<path
   d="m 337.543,199.953 -9.074,12.301 -20.34,24.579 20.51,0.848 c 0,0 51.435,-18.625 54.653,-23.746 1.25,-1.988 -18.718,-26.09 -18.718,-26.09 z"
   fill="#c37612"
   fill-rule="nonzero"
   opacity="1"
   stroke="#0a0809"
   stroke-linecap="butt"
   stroke-linejoin="round"
   stroke-width="1.40207"
   id="path6553" />
<path
   d="m 337.543,199.953 -9.074,12.301"
   fill="#c37612"
   fill-rule="nonzero"
   opacity="1"
   stroke="#0a0809"
   stroke-linecap="butt"
   stroke-linejoin="round"
   stroke-width="1.40207"
   id="path6555" />
<path
   d="m 280.617,290.257 -1.33,0.103 c 0,0 -6.585,0.134 -6.734,3.521 -0.101,2.294 2.957,5.463 8.901,6.165 7.022,0.829 7.003,-2.563 7.401,-4.831 0.398,-2.268 -5.809,-4.242 -5.809,-4.242 l -0.326,-0.177 z"
   fill="#8f8a8d"
   fill-rule="nonzero"
   opacity="0.897287"
   stroke="none"
   id="path6557" />
<path
   d="m 343.777,289.687 -1.33,0.104 c 0,0 -6.585,0.134 -6.734,3.52 -0.101,2.295 2.957,5.464 8.9,6.166 7.023,0.829 7.004,-2.563 7.402,-4.831 0.398,-2.269 -5.809,-4.243 -5.809,-4.243 l -0.326,-0.177 z"
   fill="#8f8a8d"
   fill-rule="nonzero"
   opacity="0.897287"
   stroke="none"
   id="path6559" />
<path
   d="m 306.876,236.633 21.763,1.048 c 0,0 51.435,-18.625 54.653,-23.746 1.25,-1.988 -18.718,-26.09 -18.718,-26.09 l -28.042,12.078"
   fill="#c37612"
   fill-rule="nonzero"
   opacity="1"
   stroke="#0a0809"
   stroke-linecap="butt"
   stroke-linejoin="round"
   stroke-width="1.40207"
   id="path6561" />
<path
   d="m 279.026,277.7 -0.271,12.464 c 0,0 -5.696,0.118 -5.825,3.116 -0.087,2.031 2.558,4.836 7.699,5.457 6.075,0.734 6.059,-2.269 6.403,-4.276 0.344,-2.008 -5.025,-3.755 -5.025,-3.755 l 0.45,-13.303 z"
   fill="#534b66"
   fill-rule="nonzero"
   opacity="1"
   stroke="#0a0809"
   stroke-linecap="butt"
   stroke-linejoin="round"
   stroke-width="1.40207"
   id="path6563" />
<path
   d="m 344.659,277.216 -0.271,12.464 c 0,0 -5.696,0.118 -5.825,3.116 -0.088,2.031 2.558,4.836 7.699,5.457 6.075,0.734 6.058,-2.269 6.402,-4.276 0.345,-2.008 -5.025,-3.755 -5.025,-3.755 l 0.451,-13.303 z"
   fill="#534b66"
   fill-rule="nonzero"
   opacity="1"
   stroke="#0a0809"
   stroke-linecap="butt"
   stroke-linejoin="round"
   stroke-width="1.40207"
   id="path6565" />
<path
   d="m 253.622,280.868 -1.33,0.104 c 0,0 -6.585,0.133 -6.734,3.52 -0.101,2.295 2.957,5.464 8.901,6.166 7.022,0.829 7.003,-2.563 7.401,-4.832 0.398,-2.268 -5.809,-4.242 -5.809,-4.242 l -0.326,-0.177 z"
   fill="#8f8a8d"
   fill-rule="nonzero"
   opacity="0.897287"
   stroke="none"
   id="path6567" />
<path
   d="m 251.615,268.1 -0.271,12.463 c 0,0 -5.696,0.119 -5.825,3.116 -0.087,2.031 2.558,4.836 7.699,5.457 6.075,0.734 6.059,-2.268 6.403,-4.276 0.344,-2.008 -5.025,-3.755 -5.025,-3.755 l 0.45,-13.302 z"
   fill="#534b66"
   fill-rule="nonzero"
   opacity="1"
   stroke="#0a0809"
   stroke-linecap="butt"
   stroke-linejoin="round"
   stroke-width="1.40207"
   id="path6569" />
<path
   d="m 280.735,276.932 c 16.912,0.863 9.8,-11.04 2.919,-11.614 -17.042,-1.422 -13.619,11.068 -2.919,11.614 z"
   fill="#ee8d10"
   fill-rule="nonzero"
   opacity="1"
   stroke="#0a0809"
   stroke-linecap="butt"
   stroke-linejoin="round"
   stroke-width="1.40207"
   id="path6571" />
<path
   d="m 346.367,276.448 c 16.913,0.863 9.8,-11.04 2.92,-11.614 -17.042,-1.421 -13.619,11.068 -2.92,11.614 z"
   fill="#ee8d10"
   fill-rule="nonzero"
   opacity="1"
   stroke="#0a0809"
   stroke-linecap="butt"
   stroke-linejoin="round"
   stroke-width="1.40207"
   id="path6573" />
<path
   d="m 253.324,267.331 c 16.912,0.863 9.8,-11.04 2.919,-11.614 -17.042,-1.421 -13.619,11.068 -2.919,11.614 z"
   fill="#ee8d10"
   fill-rule="nonzero"
   opacity="1"
   stroke="#0a0809"
   stroke-linecap="butt"
   stroke-linejoin="round"
   stroke-width="1.40207"
   id="path6575" />
<path
   d="m 280.401,272.672 c -4.224,0.014 -7.575,-2.026 -7.827,-3.147 -0.389,-1.735 3.493,-4.063 8.456,-4.047 4.047,0.012 8.343,2.509 8.264,4.597 -0.048,1.272 -1.755,2.575 -8.893,2.597 z"
   fill="#f9d69d"
   fill-rule="nonzero"
   opacity="1"
   stroke="none"
   id="path6577" />
<path
   d="m 346.033,272.188 c -4.223,0.014 -7.575,-2.026 -7.826,-3.147 -0.389,-1.735 3.492,-4.063 8.456,-4.047 4.046,0.012 8.343,2.509 8.264,4.597 -0.049,1.272 -1.755,2.575 -8.894,2.597 z"
   fill="#f9d69d"
   fill-rule="nonzero"
   opacity="1"
   stroke="none"
   id="path6579" />
<path
   d="m 252.99,263.072 c -4.224,0.013 -7.575,-2.027 -7.827,-3.148 -0.389,-1.735 3.493,-4.063 8.456,-4.047 4.047,0.013 8.343,2.51 8.264,4.598 -0.048,1.271 -1.755,2.574 -8.893,2.597 z"
   fill="#f9d69d"
   fill-rule="nonzero"
   opacity="1"
   stroke="none"
   id="path6581" />
<path
   d="m 386.794,260.177 -10.719,7.406 24.656,12.225 8.254,-8.908 z"
   fill="#594538"
   fill-rule="nonzero"
   opacity="1"
   stroke="#0a0809"
   stroke-linecap="butt"
   stroke-linejoin="round"
   stroke-width="1.40207"
   id="path6583" />
<path
   d="m 401.007,249.611 -9.652,6.619 20.959,9.789 8.135,-7.445 z"
   fill="#594538"
   fill-rule="nonzero"
   opacity="1"
   stroke="#0a0809"
   stroke-linecap="butt"
   stroke-linejoin="round"
   stroke-width="1.40207"
   id="path6585" />
<path
   d="m 411.762,234.168 -9.376,6.894 22.613,10.617 8.687,-7.308 z"
   fill="#594538"
   fill-rule="nonzero"
   opacity="1"
   stroke="#0a0809"
   stroke-linecap="butt"
   stroke-linejoin="round"
   stroke-width="1.40207"
   id="path6587" />
<path
   d="m 422.957,222.559 -10.405,5.966 28.856,14.33 9.601,-7.222 z"
   fill="#594538"
   fill-rule="nonzero"
   opacity="1"
   stroke="#0a0809"
   stroke-linecap="butt"
   stroke-linejoin="round"
   stroke-width="1.40207"
   id="path6589" />
<path
   d="m 434.238,207.004 -11.115,6.211 31.384,15.713 8.963,-7.308 z"
   fill="#594538"
   fill-rule="nonzero"
   opacity="1"
   stroke="#0a0809"
   stroke-linecap="butt"
   stroke-linejoin="round"
   stroke-width="1.40207"
   id="path6591" />
<path
   d="m 434.339,207.654 -4.754,2.681 3.087,1.791 25.241,12.997 4.32,-3.381 z"
   fill="#2e251f"
   fill-opacity="0.891892"
   fill-rule="nonzero"
   opacity="1"
   stroke="none"
   id="path6593" />
<path
   d="m 422.988,222.959 -3.826,2.642 26.409,13.145 4.508,-2.803 z"
   fill="#2e251f"
   fill-opacity="0.891892"
   fill-rule="nonzero"
   opacity="1"
   stroke="none"
   id="path6595" />
<path
   d="m 411.932,234.807 -3.75,2.879 20.721,9.925 3.561,-3.334 z"
   fill="#2e251f"
   fill-opacity="0.891892"
   fill-rule="nonzero"
   opacity="1"
   stroke="none"
   id="path6597" />
<path
   d="m 400.939,250.387 -3.751,2.879 20.722,9.925 3.561,-3.333 z"
   fill="#2e251f"
   fill-opacity="0.891892"
   fill-rule="nonzero"
   opacity="1"
   stroke="none"
   id="path6599" />
<path
   d="m 386.593,261.167 -4.112,3.006 21.749,10.756 4.034,-3.955 z"
   fill="#2e251f"
   fill-opacity="0.891892"
   fill-rule="nonzero"
   opacity="1"
   stroke="none"
   id="path6601" />
<path
   d="m 435.699,197.905 11.638,-7.034 0.276,-6.618 18.476,-10.204 5.93,8.411 32.954,12.272 -34.058,20.27 z"
   fill="#594538"
   fill-rule="nonzero"
   opacity="1"
   stroke="#0a0809"
   stroke-linecap="butt"
   stroke-linejoin="round"
   stroke-width="1.40207"
   id="path6603" />
<path
   d="m 461.196,188.868 -6.766,-7.518 -6.315,3.069 -0.409,6.875 -11.015,6.569 20.239,9.49 13.14,-13.139 z"
   fill="#2e251f"
   fill-opacity="0.891892"
   fill-rule="nonzero"
   opacity="1"
   stroke="none"
   id="path6605" />
<path
   d="m 427.688,248.632 -1.459,-13.847 3.491,-3.233 1.22,14.311 z"
   fill="#203d4a"
   fill-rule="nonzero"
   opacity="1"
   stroke="none"
   id="path6607" />
<path
   d="m 409.475,252.991 1.883,8.366 2.913,-1.596 -1.673,-9.107 z"
   fill="#203d4a"
   fill-rule="nonzero"
   opacity="1"
   stroke="none"
   id="path6609" />
<path
   d="m 404.301,290.782 1.519,-23.873 66.845,-45.576 c 0,0 10.582,13.625 11.962,15.651 1.379,2.027 1.065,26.477 1.065,26.477 l -72.927,49.675 z"
   fill="#f9d69d"
   fill-rule="nonzero"
   opacity="1"
   stroke="#0a0809"
   stroke-linecap="butt"
   stroke-linejoin="round"
   stroke-width="1.40207"
   id="path6611" />
<path
   d="M 440.993,105.983 419.152,85.3791 309.528,38.2114 l -4.36,-1.6335 6.714,-1.8368 c 0,0 100.982,42.8093 111.185,47.7534 6.34,3.0724 19.017,16.943 22.252,21.6345 4.121,5.975 29.856,49.003 29.856,49.003 0,0 28.014,13.286 28.014,15.175 0,4.863 -30.429,18.882 -30.429,18.882 l -71.492,76.613 3.795,11.421 -3.414,2.908 -5.143,-15.258 11.774,-12.923 59.535,-65.329 28.711,-15.759 c 0,0 -24.575,-12.667 -24.833,-13.014 -0.257,-0.347 -25.756,-42.241 -25.756,-42.241 l -0.61,-5.458"
   fill="#203d4a"
   fill-rule="nonzero"
   opacity="1"
   stroke="none"
   id="path6613" />
<path
   d="m 442.216,218.206 3.184,20.827 2.505,-1.67 -3.184,-21.14 z"
   fill="#203d4a"
   fill-rule="nonzero"
   opacity="1"
   stroke="none"
   id="path6615" />
<path
   d="m 457.301,225.827 2.923,-1.983 -2.558,-21.558 -3.288,3.914 z"
   fill="#203d4a"
   fill-rule="nonzero"
   opacity="1"
   stroke="none"
   id="path6617" />
<path
   d="m 454.653,127.462 0.928,31.799 c 0,0 3.041,3.203 3.597,1.65 0.555,-1.553 0.404,-27.066 0.404,-27.066 z"
   fill="#203d4a"
   fill-rule="nonzero"
   opacity="1"
   stroke="none"
   id="path6619" />
<path
   d="m 466.771,145.931 0.643,29.432 c 0,0 2.356,4.575 2.912,3.021 0.555,-1.553 0.549,-26.458 0.549,-26.458 z"
   fill="#203d4a"
   fill-rule="nonzero"
   opacity="1"
   stroke="none"
   id="path6621" />
<path
   d="M 300.108,33.7339 336.52,48.246 312.483,59.4499 278.3,44.377 Z"
   fill="#01618b"
   fill-rule="nonzero"
   opacity="1"
   stroke="#0a0809"
   stroke-linecap="butt"
   stroke-linejoin="round"
   stroke-width="1.40207"
   id="path6623" />
<path
   d="m 401.969,77.9943 -3.213,13.6139 3.358,1.8398 3.337,-14.3602 z"
   fill="#203d4a"
   fill-rule="nonzero"
   opacity="1"
   stroke="none"
   id="path6625" />
<path
   d="m 376.754,65.9829 c -0.241,0.0856 -3.524,15.1369 -3.524,15.1369 l 3.497,1.522 3.489,-15.2724"
   fill="#203d4a"
   fill-rule="nonzero"
   opacity="1"
   stroke="none"
   id="path6627" />
<path
   d="m 350.034,54.1422 -2.675,16.5168 2.709,1.1346 2.743,-16.42 z"
   fill="#203d4a"
   fill-rule="nonzero"
   opacity="1"
   stroke="none"
   id="path6629" />
<path
   d="m 204.191,83.3566 -1.952,28.1254 5.981,1.376 0.727,-10.917 5.385,1.099 0.172,-5.8313 -4.5,-0.9006 -0.029,-5.9097 6.06,1.5003 0.413,-5.8487 z"
   fill="#74401c"
   fill-rule="nonzero"
   opacity="0.72093"
   stroke="none"
   id="path6631" />
<path
   d="m 197.29,69.087 84.168,-35.7456 12.072,3.4117 -73.221,31.2304 135.944,58.7865 77.683,-30.443 9.71,3.4117 5.511,6.2983 -86.343,33.855 z"
   fill="#ee8d10"
   fill-rule="nonzero"
   opacity="1"
   stroke="#0a0809"
   stroke-linecap="butt"
   stroke-linejoin="round"
   stroke-width="1.40207"
   id="path6633" />
<path
   d="m 218.336,87.2182 c 0,0 -3.254,18.2098 -1.318,25.8658 0.527,2.084 4.561,5.55 7.14,5.935 5.559,0.829 7.361,-5.533 8.072,-9.838 1.288,-7.796 1.163,-16.9211 1.021,-17.209 -0.247,-0.5024 -6.116,-1.8307 -6.116,-1.8307 0,0 -0.749,16.4517 -2.024,21.5647 -0.54,2.163 -1.772,0.932 -1.86,-0.475 -0.416,-6.662 1.507,-22.542 1.507,-22.542 z"
   fill="#74401c"
   fill-rule="nonzero"
   opacity="0.72093"
   stroke="none"
   id="path6635" />
<path
   d="m 312.539,60.428 -0.26,24.5974 23.959,-10.8363 0.11,-24.5784 z"
   fill="#203d4a"
   fill-rule="nonzero"
   opacity="1"
   stroke="none"
   id="path6637" />
<path
   d="m 234.522,92.3411 -2.557,28.7239 11.224,3.275 0.601,-6.022 -5.039,-1.635 2.406,-22.1199 z"
   fill="#74401c"
   fill-rule="nonzero"
   opacity="0.72093"
   stroke="none"
   id="path6639" />
<path
   d="m 247.401,97.9293 -2.555,27.8787 10.808,3.535 0.97,-5.597 -5.229,-1.726 2,-22.3306 z"
   fill="#74401c"
   fill-rule="nonzero"
   opacity="0.72093"
   stroke="none"
   id="path6641" />
<path
   d="m 200.751,81.9329 0.116,28.6341 4.722,1.453 0.218,-11.041 5.085,0.637 0.172,-5.831 -4.5,-0.9005 -0.029,-5.9097 6.06,1.5002 0.413,-5.8487 z"
   fill="#e9b143"
   fill-rule="nonzero"
   opacity="1"
   stroke="none"
   id="path6643" />
<path
   d="m 256.672,110.05 -0.617,7.259 5.222,0.822 0.738,-6.429 z"
   fill="#74401c"
   fill-rule="nonzero"
   opacity="0.72093"
   stroke="none"
   id="path6645" />
<path
   d="m 214.895,85.7945 c 0,0 -3.253,18.2095 -1.318,25.8665 0.527,2.083 4.562,5.549 7.141,5.934 5.558,0.83 7.361,-5.532 8.072,-9.837 1.288,-7.7962 1.492,-16.878 1.35,-17.1659 -0.248,-0.5024 -5.811,-1.9612 -5.811,-1.9612 0,0 -1.383,16.5391 -2.658,21.6511 -0.54,2.163 -1.773,0.933 -1.86,-0.475 -0.416,-6.662 1.506,-22.5416 1.506,-22.5416 z"
   fill="#e9b143"
   fill-rule="nonzero"
   opacity="1"
   stroke="none"
   id="path6647" />
<path
   d="m 268.387,106.131 -3.995,26.18 4.654,3.661 2.871,-18.878 0.266,19.923 3.556,2.406 5.384,-19.575 -2.351,20.778 4.184,3.137 2.703,-30.276 -5.849,-2.555 -3.189,10.011 -1.133,-12.092 z"
   fill="#74401c"
   fill-rule="nonzero"
   opacity="0.72093"
   stroke="none"
   id="path6649" />
<path
   d="m 232.028,91.2458 -1.598,29.2002 9.879,2.833 1.017,-6.392 -4.576,-1.526 2.034,-21.355 z"
   fill="#e9b143"
   fill-rule="nonzero"
   opacity="1"
   stroke="none"
   id="path6651" />
<path
   d="m 285.255,143.83 4.662,2.072 1.813,-8.375 4.058,1.295 -0.518,8.461 5.162,2.959 0.71,-31.106 -10.275,-2.418"
   fill="#74401c"
   fill-rule="nonzero"
   opacity="0.72093"
   stroke="none"
   id="path6653" />
<path
   d="m 244.231,96.6936 -2.825,27.6914 10.807,3.534 0.97,-5.597 -5.229,-1.725 2,-22.3313 z"
   fill="#e9b143"
   fill-rule="nonzero"
   opacity="1"
   stroke="none"
   id="path6655" />
<path
   d="m 255.139,109.561 -0.617,7.26 5.221,0.821 0.284,-2.473 0.455,-3.955 z"
   fill="#e9b143"
   fill-rule="nonzero"
   opacity="1"
   stroke="none"
   id="path6657" />
<path
   d="m 264.946,104.707 -5.33,26.306 6.032,2.744 3.049,-17.755 c 0,0 -0.964,18.971 -0.948,19.439 0.016,0.468 4.307,1.52 4.307,2.027 0,0.506 5.969,-17.028 5.969,-17.028 l -2.693,18.762 4.183,3.137 4.324,-30.061 -6.758,-2.61 -3.363,8.92 -1.67,-11.16 z"
   fill="#e9b143"
   fill-rule="nonzero"
   opacity="1"
   stroke="none"
   id="path6659" />
<path
   d="m 303.114,119.921 -2.847,30.038 4.706,3.138 1.484,-15.704 2.334,0.497 -1.308,15.102 5.125,1.882 c 0,0 1.301,-11.999 1.385,-15.853 0.044,-2.031 -2.07,-3.276 -2.07,-3.276 0,0 1.805,0.013 2.106,-0.957 0.731,-2.35 1.14,-5.497 0.076,-8.788 -1.063,-3.291 -4.33,-4.376 -4.33,-4.376 z"
   fill="#74401c"
   fill-rule="nonzero"
   opacity="0.72093"
   stroke="none"
   id="path6661" />
<path
   d="m 281.531,143.396 5.593,2.338 1.166,-9.631 4.058,1.295 -0.518,8.462 5.162,2.959 1.458,-31.553 -9.578,-2.458"
   fill="#e9b143"
   fill-rule="nonzero"
   opacity="1"
   stroke="none"
   id="path6663" />
<path
   d="m 320.051,128.029 -2.792,29.541 5.262,2.046 1.478,-11.053 c 0,0 0.952,0.327 1.564,2.976 0.611,2.65 -0.199,9.43 -0.199,9.43 l 4.4,1.384 -2.222,-18.624 5.925,-10.574 -5.683,-1.573 -3.429,10.201 0.876,-11.509 z"
   fill="#74401c"
   fill-rule="nonzero"
   opacity="0.72093"
   stroke="none"
   id="path6665" />
<path
   d="m 289.565,133.912 3.481,0.079 -0.794,-12.296 z"
   fill="#68582f"
   fill-rule="nonzero"
   opacity="1"
   stroke="none"
   id="path6667" />
<path
   d="m 336.197,135.109 -3.151,29.414 11.008,2.446 0.086,-4.576 -5.526,-2.072 1.036,-6.735 4.663,1.727 1.217,-4.779 -5.448,-2.474 0.691,-5.094 5.353,1.9 c 0,0 1.054,-5.217 0.7,-5.199 -0.355,0.018 -10.629,-4.558 -10.629,-4.558 z"
   fill="#74401c"
   fill-rule="nonzero"
   opacity="0.72093"
   stroke="none"
   id="path6669" />
<path
   d="m 302.055,119.679 -2.846,30.038 4.706,3.137 1.483,-15.703 2.335,0.496 -1.308,15.103 5.125,1.882 c 0,0 1.301,-11.999 1.384,-15.854 0.044,-2.031 -2.07,-3.275 -2.07,-3.275 0,0 1.805,0.013 2.107,-0.957 0.73,-2.351 1.14,-5.497 0.076,-8.788 -1.063,-3.291 -4.33,-4.377 -4.33,-4.377 z"
   fill="#e9b143"
   fill-rule="nonzero"
   opacity="1"
   stroke="none"
   id="path6671" />
<path
   d="m 347.45,139.808 -1.046,6.67 4.184,0.969 -2.447,20.163 5.958,1.641 2.268,-19.942 3.258,1.119 0.658,-6.283 z"
   fill="#74401c"
   fill-rule="nonzero"
   opacity="0.72093"
   stroke="none"
   id="path6673" />
<path
   d="m 306.34,126.839 -0.5,5.434 2.528,0.148 0.726,-4.98 z"
   fill="#68582f"
   fill-rule="nonzero"
   opacity="1"
   stroke="none"
   id="path6675" />
<path
   d="m 316.61,126.605 -2.791,29.542 4.81,2.091 1.93,-11.098 c 0,0 0.952,0.326 1.563,2.976 0.612,2.65 -0.198,9.429 -0.198,9.429 l 6.066,1.978 -2.21,-19.018 5.318,-10.382 -6.677,-1.716 -3.507,9.953 0.877,-11.51 z"
   fill="#e9b143"
   fill-rule="nonzero"
   opacity="1"
   stroke="none"
   id="path6677" />
<path
   d="m 332.756,133.685 -3.15,29.414 11.007,2.447 0.087,-4.576 -5.526,-2.073 1.036,-6.734 4.662,1.726 1.217,-4.778 -5.447,-2.474 0.69,-5.095 5.354,1.9 c 0,0 1.053,-5.217 0.699,-5.199 -0.354,0.018 -10.629,-4.558 -10.629,-4.558 z"
   fill="#e9b143"
   fill-rule="nonzero"
   opacity="1"
   stroke="none"
   id="path6679" />
<path
   d="m 345.017,139.039 -1.046,6.669 4.183,0.97 -2.446,20.163 5.957,1.64 2.268,-19.941 3.258,1.119 0.659,-6.284 z"
   fill="#e9b143"
   fill-rule="nonzero"
   opacity="1"
   stroke="none"
   id="path6681" />
<path
   d="m 197.661,103.422 -23.514,9.668 160.732,66.499 c 0,0 23.916,-3.87 24.382,-5.347 0.549,-1.74 1.626,-6.879 0.214,-6.201 -4.555,2.188 -24.054,6.128 -24.054,6.128 l -148.483,-61.3 10.73,-4.175 c -0.423,-5.29 -0.007,-5.272 -0.007,-5.272 z"
   fill="#433328"
   fill-rule="nonzero"
   opacity="1"
   stroke="#0a0809"
   stroke-linecap="butt"
   stroke-linejoin="round"
   stroke-width="1.40207"
   id="path6683" />
<path
   d="m 201.854,206.759 c 0,0 -2.581,0.385 -3.282,-1.858 -0.701,-2.242 0.592,-6.075 0.592,-6.075 l 45.368,18.066 -2.386,56.034 -42.247,-16.952 z"
   fill="url(#LinearGradient)"
   fill-rule="nonzero"
   opacity="1"
   stroke="none"
   id="path6685"
   style="fill:url(#LinearGradient)" />
<path
   d="m 223.343,207.845 -4.073,55.719"
   fill="none"
   opacity="1"
   stroke="#0a0809"
   stroke-linecap="butt"
   stroke-linejoin="round"
   stroke-width="1.72646"
   id="path6687" />
<path
   d="m 174.185,113.363 1.98,20.748 4.961,1.856 -0.325,-19.799 z"
   fill="#433328"
   fill-rule="nonzero"
   opacity="1"
   stroke="#0a0809"
   stroke-linecap="butt"
   stroke-linejoin="round"
   stroke-width="1.72646"
   id="path6689" />
<path
   d="m 222.75,133.826 -0.936,18.768 7.094,2.824 0.459,-18.827 z"
   fill="#433328"
   fill-rule="nonzero"
   opacity="1"
   stroke="#0a0809"
   stroke-linecap="butt"
   stroke-linejoin="round"
   stroke-width="1.72646"
   id="path6691" />
<path
   d="m 246.77,143.647 -2.014,17.855 7.97,3.341 0.767,-18.457 z"
   fill="#433328"
   fill-rule="nonzero"
   opacity="1"
   stroke="#0a0809"
   stroke-linecap="butt"
   stroke-linejoin="round"
   stroke-width="1.72646"
   id="path6693" />
<path
   d="m 268.711,152.675 -1.382,18.229 7.163,3.119 0.923,-18.519 z"
   fill="#433328"
   fill-rule="nonzero"
   opacity="1"
   stroke="#0a0809"
   stroke-linecap="butt"
   stroke-linejoin="round"
   stroke-width="1.72646"
   id="path6695" />
<path
   d="m 330.069,177.926 -2.257,17.431 6.27,2.508 0.752,-18.434 z"
   fill="#433328"
   fill-rule="nonzero"
   opacity="1"
   stroke="#0a0809"
   stroke-linecap="butt"
   stroke-linejoin="round"
   stroke-width="1.72646"
   id="path6697" />
<path
   d="m 282.673,291.553 c 2.005,0.724 3.129,1.387 3.575,2.239 0.617,1.179 0.229,2.623 -0.629,3.506 -0.436,0.448 -1.14,0.615 -1.596,0.809 -0.434,0.185 -2.364,0.209 -3.832,10e-4 -1.031,-0.145 -1.821,-0.494 -1.767,-0.6 0.184,-0.358 2.378,-1.021 2.446,-3.077 0.09,-2.74 -0.024,-3.538 1.803,-2.878 z"
   fill="#201d28"
   fill-rule="nonzero"
   opacity="1"
   stroke="none"
   id="path6699" />
<path
   d="m 282.673,291.553 c 2.005,0.724 3.129,1.387 3.575,2.239 0.617,1.179 0.229,2.623 -0.629,3.506 -0.436,0.448 -1.14,0.615 -1.596,0.809 -0.434,0.185 -2.364,0.209 -3.832,10e-4 -1.031,-0.145 -1.821,-0.494 -1.767,-0.6 0.184,-0.358 2.378,-1.021 2.446,-3.077 0.09,-2.74 -0.024,-3.538 1.803,-2.878 z"
   fill="#201d28"
   fill-rule="nonzero"
   opacity="1"
   stroke="none"
   id="path6701" />
<path
   d="m 348.306,291.069 c 2.004,0.724 3.129,1.387 3.575,2.239 0.617,1.179 0.229,2.623 -0.629,3.506 -0.437,0.448 -1.14,0.615 -1.596,0.809 -0.434,0.185 -2.364,0.209 -3.833,0.001 -1.031,-0.145 -1.82,-0.494 -1.766,-0.6 0.183,-0.358 2.378,-1.021 2.446,-3.077 0.09,-2.74 -0.024,-3.538 1.803,-2.878 z"
   fill="#201d28"
   fill-rule="nonzero"
   opacity="1"
   stroke="none"
   id="path6703" />
<path
   d="m 255.262,281.952 c 2.005,0.724 3.129,1.388 3.575,2.239 0.617,1.18 0.229,2.623 -0.629,3.506 -0.436,0.449 -1.14,0.616 -1.596,0.809 -0.434,0.185 -2.364,0.209 -3.832,0.002 -1.031,-0.146 -1.821,-0.494 -1.767,-0.6 0.184,-0.359 2.378,-1.022 2.446,-3.077 0.09,-2.741 -0.024,-3.538 1.803,-2.879 z"
   fill="#201d28"
   fill-rule="nonzero"
   opacity="1"
   stroke="none"
   id="path6705" />
<path
   d="m 157.877,188.476 -2.381,42.865 31.908,13.223 3.676,-43.897 z"
   fill="#2b5b38"
   fill-rule="nonzero"
   opacity="1"
   stroke="none"
   id="path6707" />
<path
   d="m 158.122,188.292 -2.143,40.743 28.715,12.568 3.308,-41.724 z"
   fill="url(#LinearGradient_2)"
   fill-rule="nonzero"
   opacity="1"
   stroke="#0a0809"
   stroke-linecap="butt"
   stroke-linejoin="round"
   stroke-width="1.40207"
   id="path6709"
   style="fill:url(#LinearGradient_2)" />
<path
   d="m 464.417,227.843 c 0,0 10.399,12.965 10.852,13.673 1.144,1.788 0.434,27.129 0.434,27.129 l 9.483,-5.852 c 0,0 -0.295,-22.133 -0.997,-25.069 -0.353,-1.478 -11.307,-15.74 -11.307,-15.74 z"
   fill="#bfa477"
   fill-rule="nonzero"
   opacity="0.781008"
   stroke="none"
   id="path6711" />
<path
   d="m 501.179,395.203 5.888,49.482"
   fill="#e4e7f4"
   fill-rule="nonzero"
   opacity="1"
   stroke="none"
   id="path6713" />
</g>
</svg>
