<?xml version="1.0" encoding="UTF-8" standalone="no"?>
<!DOCTYPE svg PUBLIC "-//W3C//DTD SVG 1.1//EN" "http://www.w3.org/Graphics/SVG/1.1/DTD/svg11.dtd">
<!-- Created with Vectornator (http://vectornator.io/) -->
<svg height="100%" stroke-miterlimit="10" style="fill-rule:nonzero;clip-rule:evenodd;stroke-linecap:round;stroke-linejoin:round;" version="1.1" viewBox="0 0 419.58 297.675" width="100%" xml:space="preserve" xmlns="http://www.w3.org/2000/svg" xmlns:vectornator="http://vectornator.io" xmlns:xlink="http://www.w3.org/1999/xlink">
<defs/>
<g id="Layer-1" vectornator:layerName="Layer 1">
<path d="M327.653 111.208L362.781 135.786L199.023 250.632L35.1722 135.873L198.922 21.1403L327.653 111.208" fill="#32b055" fill-rule="nonzero" opacity="1" stroke="none"/>
<path d="M59.7468 153.124L84.3214 135.916L59.7468 118.709L166.237 44.1442L174.428 38.4084L199.003 55.6157L223.577 38.4084L338.258 118.709L313.684 135.916L338.258 153.124L223.577 233.424L199.003 216.217L174.428 233.424L59.7468 153.124Z" fill="#a3a4a8" fill-rule="nonzero" opacity="1" stroke="none"/>
<path d="M174.428 233.424L166.237 227.689L199.003 204.746L231.769 227.689L223.577 233.424L199.003 216.217L174.428 233.424Z" fill="#fffaf4" fill-rule="nonzero" opacity="1" stroke="none"/>
<path d="M330.067 112.973L297.301 135.916L330.067 158.859L338.258 153.124L313.684 135.916L330.067 124.445L338.258 118.709" fill="#fffaf4" fill-rule="nonzero" opacity="1" stroke="none"/>
<path d="M174.428 38.4084L166.237 44.1442L190.811 61.3515L199.003 67.0873L231.769 44.1442L223.577 38.4084L199.003 55.6157L174.428 38.4084Z" fill="#fffaf4" fill-rule="nonzero" opacity="1" stroke="none"/>
<path d="M67.9383 112.973L59.7468 118.709L84.3214 135.916L59.7468 153.124L67.9383 158.859L100.704 135.916L67.9383 112.973Z" fill="#fffaf4" fill-rule="nonzero" opacity="1" stroke="none"/>
<path d="M305.492 141.652L313.684 135.916L330.067 147.388L321.875 153.124L305.492 141.652Z" fill="#30343a" fill-rule="nonzero" opacity="1" stroke="none"/>
<path d="M305.492 130.181L313.684 135.916L330.067 124.445L321.875 118.709L305.492 130.181Z" fill="#30343a" fill-rule="nonzero" opacity="1" stroke="none"/>
<path d="M215.386 227.689L223.577 221.953L207.194 210.481L199.003 216.217L215.386 227.689Z" fill="#30343a" fill-rule="nonzero" opacity="1" stroke="none"/>
<path d="M199.003 216.217L190.811 210.481L174.428 221.953L182.62 227.689L199.003 216.217Z" fill="#30343a" fill-rule="nonzero" opacity="1" stroke="none"/>
<path d="M67.9383 147.388L76.1298 153.124L92.5129 141.652L84.3214 135.916L67.9383 147.388Z" fill="#30343a" fill-rule="nonzero" opacity="1" stroke="none"/>
<path d="M67.9383 124.445L76.1298 118.709L92.5129 130.181L84.3214 135.916L67.9383 124.445Z" fill="#30343a" fill-rule="nonzero" opacity="1" stroke="none"/>
<path d="M174.428 49.88L182.62 44.1442L199.003 55.6157L190.811 61.3515L174.428 49.88Z" fill="#30343a" fill-rule="nonzero" opacity="1" stroke="none"/>
<path d="M199.003 55.6157L215.386 44.1442L223.577 49.88L207.194 61.3515" fill="#30343a" fill-rule="nonzero" opacity="1" stroke="none"/>
<path d="M264.535 193.274L280.918 181.803L248.152 158.859L231.769 170.331L264.535 193.274Z" fill="#f7f0e7" fill-rule="nonzero" opacity="1" stroke="none"/>
<path d="M117.087 181.803L149.854 158.859L166.237 170.331L133.47 193.274L117.087 181.803Z" fill="#f7f0e7" fill-rule="nonzero" opacity="1" stroke="none"/>
<path d="M223.577 107.238L256.343 84.2946L272.726 95.7661L239.96 118.709L223.577 107.238Z" fill="#f7f0e7" fill-rule="nonzero" opacity="1" stroke="none"/>
<path d="M207.194 118.709L215.386 112.973" fill="#f7f0e7" fill-rule="nonzero" opacity="1" stroke="none"/>
<path d="M117.087 90.0303L133.47 78.5588L166.237 101.502L149.854 112.973L117.087 90.0303Z" fill="#f7f0e7" fill-rule="nonzero" opacity="1" stroke="none"/>
<path d="M182.62 135.916L199.003 147.388L215.386 135.916L199.003 124.445L182.62 135.916Z" fill="#f7f0e7" fill-rule="nonzero" opacity="1" stroke="none"/>
</g>
</svg>
