<?xml version="1.0" encoding="UTF-8" standalone="no"?>
<!DOCTYPE svg PUBLIC "-//W3C//DTD SVG 1.1//EN" "http://www.w3.org/Graphics/SVG/1.1/DTD/svg11.dtd">
<!-- Created with Vectornator (http://vectornator.io/) -->
<svg height="100%" stroke-miterlimit="10" style="fill-rule:nonzero;clip-rule:evenodd;stroke-linecap:round;stroke-linejoin:round;" version="1.1" viewBox="0 0 419.58 297.675" width="100%" xml:space="preserve" xmlns="http://www.w3.org/2000/svg" xmlns:vectornator="http://vectornator.io" xmlns:xlink="http://www.w3.org/1999/xlink">
<defs/>
<g id="Layer-1" vectornator:layerName="Layer 1">
<path d="M348.557 121.001L383.685 145.579L219.927 260.425L56.0767 145.666L219.826 30.9333L348.557 121.001" fill="#32b055" fill-rule="nonzero" opacity="1" stroke="none"/>
<path d="M244.429 48.2015L121.557 134.238L228.046 208.803L236.238 214.539L359.111 128.502L244.429 48.2015Z" fill="#a3a4a8" fill-rule="nonzero" opacity="1" stroke="none"/>
<path d="M244.429 48.2015L121.557 134.238L236.238 214.539L359.111 128.502L350.919 122.766L236.238 203.067L137.94 134.238L252.621 53.9372L244.429 48.2015Z" fill="#fffaf4" fill-rule="nonzero" opacity="1" stroke="none"/>
<path d="M342.728 128.502L350.919 134.238L334.536 145.709L326.345 139.974L342.728 128.502Z" fill="#30343a" fill-rule="nonzero" opacity="1" stroke="none"/>
<path d="M309.961 151.445L318.153 157.181L301.77 168.653L293.578 162.917L309.961 151.445Z" fill="#30343a" fill-rule="nonzero" opacity="1" stroke="none"/>
<path d="M277.195 174.388L285.387 180.124L269.004 191.596L260.812 185.86L277.195 174.388Z" fill="#30343a" fill-rule="nonzero" opacity="1" stroke="none"/>
<path d="M244.429 197.331L252.621 203.067L236.238 214.539L228.046 208.803L244.429 197.331Z" fill="#30343a" fill-rule="nonzero" opacity="1" stroke="none"/>
<path d="M236.238 53.9372L244.429 59.673L228.046 71.1445L219.855 65.4088L236.238 53.9372Z" fill="#30343a" fill-rule="nonzero" opacity="1" stroke="none"/>
<path d="M203.472 76.8803L211.663 82.6161L195.28 94.0876L187.089 88.3518L203.472 76.8803Z" fill="#30343a" fill-rule="nonzero" opacity="1" stroke="none"/>
<path d="M170.706 99.8233L178.897 105.559L162.514 117.031L154.323 111.295L170.706 99.8233Z" fill="#30343a" fill-rule="nonzero" opacity="1" stroke="none"/>
<path d="M137.94 122.766L146.131 128.502L129.748 139.974L121.557 134.238L137.94 122.766Z" fill="#30343a" fill-rule="nonzero" opacity="1" stroke="none"/>
<path d="M137.94 145.709L146.131 139.974L162.514 151.445L154.323 157.181L137.94 145.709Z" fill="#30343a" fill-rule="nonzero" opacity="1" stroke="none"/>
<path d="M219.855 203.067L228.046 197.331L211.663 185.86L203.472 191.596L219.855 203.067Z" fill="#30343a" fill-rule="nonzero" opacity="1" stroke="none"/>
<path d="M187.089 180.124L195.28 174.388L178.897 162.917L170.706 168.653L187.089 180.124Z" fill="#30343a" fill-rule="nonzero" opacity="1" stroke="none"/>
</g>
</svg>
