<?xml version="1.0" encoding="UTF-8" standalone="no"?>
<!DOCTYPE svg PUBLIC "-//W3C//DTD SVG 1.1//EN" "http://www.w3.org/Graphics/SVG/1.1/DTD/svg11.dtd">
<!-- Created with Vectornator (http://vectornator.io/) -->
<svg height="100%" stroke-miterlimit="10" style="fill-rule:nonzero;clip-rule:evenodd;stroke-linecap:round;stroke-linejoin:round;" version="1.1" viewBox="0 0 419.58 297.675" width="100%" xml:space="preserve" xmlns="http://www.w3.org/2000/svg" xmlns:vectornator="http://vectornator.io" xmlns:xlink="http://www.w3.org/1999/xlink">
<defs/>
<g id="Layer-1" vectornator:layerName="Layer 1">
<path d="M348.268 115.047L383.395 139.624L219.638 254.47L55.787 139.711L219.536 24.9786L348.268 115.047" fill="#32b055" fill-rule="nonzero" opacity="1" stroke="none"/>
<path d="M186.851 231.527L350.682 116.812L252.383 47.9825L219.617 70.9256L186.851 47.9825L88.5531 116.812L121.319 139.755L88.5531 162.698L186.851 231.527Z" fill="#a3a4a8" fill-rule="nonzero" opacity="1" stroke="none"/>
<path d="M186.851 231.527L350.682 116.812L358.873 122.547L195.043 237.263L186.851 231.527Z" fill="#ffffff" fill-rule="nonzero" opacity="1" stroke="none"/>
<path d="M80.3616 156.962L104.936 139.755L80.3616 122.547L88.5531 116.812L121.319 139.755L88.5531 162.698L80.3616 156.962Z" fill="#ffffff" fill-rule="nonzero" opacity="1" stroke="none"/>
<path d="M186.851 47.9825L195.043 42.2467L219.617 59.454L244.192 42.2467L252.383 47.9825L219.617 70.9256L186.851 47.9825Z" fill="#ffffff" fill-rule="nonzero" opacity="1" stroke="none"/>
<path d="M195.043 225.791L211.426 214.32L219.617 220.055L203.234 231.527L195.043 225.791Z" fill="#30343a" fill-rule="nonzero" opacity="1" stroke="none"/>
<path d="M227.809 202.848L236 208.584L252.383 197.112L244.192 191.377L227.809 202.848Z" fill="#30343a" fill-rule="nonzero" opacity="1" stroke="none"/>
<path d="M260.575 179.905L268.767 185.641L285.15 174.169L276.958 168.434L260.575 179.905Z" fill="#30343a" fill-rule="nonzero" opacity="1" stroke="none"/>
<path d="M293.341 156.962L301.533 162.698L317.916 151.226L309.724 145.491L293.341 156.962Z" fill="#30343a" fill-rule="nonzero" opacity="1" stroke="none"/>
<path d="M326.107 134.019L334.299 139.755L350.682 128.283L342.49 122.547L326.107 134.019Z" fill="#30343a" fill-rule="nonzero" opacity="1" stroke="none"/>
<path d="M88.5531 151.226L104.936 139.755L113.128 145.491L96.7446 156.962L88.5531 151.226Z" fill="#30343a" fill-rule="nonzero" opacity="1" stroke="none"/>
<path d="M88.5531 128.283L96.7446 122.547L113.128 134.019L104.936 139.755L88.5531 128.283Z" fill="#30343a" fill-rule="nonzero" opacity="1" stroke="none"/>
<path d="M195.043 53.7183L203.234 47.9825L219.617 59.454L211.426 65.1898L195.043 53.7183Z" fill="#30343a" fill-rule="nonzero" opacity="1" stroke="none"/>
<path d="M219.617 59.454L236 47.9825L244.192 53.7183L227.809 65.1898L219.617 59.454Z" fill="#30343a" fill-rule="nonzero" opacity="1" stroke="none"/>
<path d="M276.958 88.1329L293.341 99.6044L260.575 122.547L244.192 111.076L276.958 88.1329Z" fill="#f7f0e7" fill-rule="nonzero" opacity="1" stroke="none"/>
<path d="M145.894 99.6044L162.277 88.1329L195.043 111.076L178.66 122.547L145.894 99.6044Z" fill="#f7f0e7" fill-rule="nonzero" opacity="1" stroke="none"/>
<path d="M145.894 179.905L178.66 156.962L195.043 168.434L162.277 191.377L145.894 179.905Z" fill="#f7f0e7" fill-rule="nonzero" opacity="1" stroke="none"/>
<path d="M195.043 145.491L227.809 122.547L244.192 134.019L211.426 156.962L195.043 145.491Z" fill="#f7f0e7" fill-rule="nonzero" opacity="1" stroke="none"/>
</g>
</svg>
