<?xml version="1.0" encoding="UTF-8" standalone="no"?>
<!DOCTYPE svg PUBLIC "-//W3C//DTD SVG 1.1//EN" "http://www.w3.org/Graphics/SVG/1.1/DTD/svg11.dtd">
<!-- Created with Vectornator (http://vectornator.io/) -->
<svg height="100%" stroke-miterlimit="10" style="fill-rule:nonzero;clip-rule:evenodd;stroke-linecap:round;stroke-linejoin:round;" version="1.1" viewBox="0 0 419.58 297.675" width="100%" xml:space="preserve" xmlns="http://www.w3.org/2000/svg" xmlns:vectornator="http://vectornator.io" xmlns:xlink="http://www.w3.org/1999/xlink">
<defs/>
<g id="Layer-1" vectornator:layerName="Layer 1">
<path d="M337.245 128.974L372.373 153.551L208.616 268.397L44.7647 153.638L208.514 38.9057L337.245 128.974" fill="#32b055" fill-rule="nonzero" opacity="1" stroke="none"/>
<path d="M77.5308 176.564L241.361 61.8488L339.659 130.678L175.829 245.393L77.5308 176.564Z" fill="#a3a4a8" fill-rule="nonzero" opacity="1" stroke="none"/>
<path d="M69.3393 170.828L233.17 56.113L241.361 61.8488L77.5308 176.564L69.3393 170.828Z" fill="#ffffff" fill-rule="nonzero" opacity="1" stroke="none"/>
<path d="M175.829 245.393L339.659 130.678L347.851 136.414L184.021 251.129L175.829 245.393Z" fill="#ffffff" fill-rule="nonzero" opacity="1" stroke="none"/>
<path d="M184.021 239.657L192.212 245.393L208.595 233.922L200.404 228.186L184.021 239.657Z" fill="#30343a" fill-rule="nonzero" opacity="1" stroke="none"/>
<path d="M216.787 216.714L233.17 205.243L241.361 210.979L224.978 222.45L216.787 216.714Z" fill="#30343a" fill-rule="nonzero" opacity="1" stroke="none"/>
<path d="M249.553 193.771L265.936 182.3L274.127 188.036L257.744 199.507L249.553 193.771Z" fill="#30343a" fill-rule="nonzero" opacity="1" stroke="none"/>
<path d="M282.319 170.828L298.702 159.357L306.893 165.093L290.51 176.564L282.319 170.828Z" fill="#30343a" fill-rule="nonzero" opacity="1" stroke="none"/>
<path d="M315.085 147.885L331.468 136.414L339.659 142.149L323.276 153.621L315.085 147.885Z" fill="#30343a" fill-rule="nonzero" opacity="1" stroke="none"/>
<path d="M77.5308 165.093L93.9139 153.621L102.105 159.357L85.7223 170.828L77.5308 165.093Z" fill="#30343a" fill-rule="nonzero" opacity="1" stroke="none"/>
<path d="M110.297 142.149L126.68 130.678L134.871 136.414L118.488 147.885L110.297 142.149Z" fill="#30343a" fill-rule="nonzero" opacity="1" stroke="none"/>
<path d="M143.063 119.206L159.446 107.735L167.638 113.471L151.254 124.942L143.063 119.206Z" fill="#30343a" fill-rule="nonzero" opacity="1" stroke="none"/>
<path d="M175.829 96.2634L192.212 84.7918L200.404 90.5276L184.021 101.999L175.829 96.2634Z" fill="#30343a" fill-rule="nonzero" opacity="1" stroke="none"/>
<path d="M208.595 73.3203L224.978 61.8488L233.17 67.5845L216.787 79.0561L208.595 73.3203Z" fill="#30343a" fill-rule="nonzero" opacity="1" stroke="none"/>
<path d="M134.871 193.771L167.638 170.828L184.021 182.3L151.254 205.243L134.871 193.771Z" fill="#fef6ed" fill-rule="nonzero" opacity="1" stroke="none"/>
<path d="M184.021 159.357L216.787 136.414L233.17 147.885L200.404 170.828L184.021 159.357Z" fill="#fef6ed" fill-rule="nonzero" opacity="1" stroke="none"/>
<path d="M233.17 124.942L257.744 107.735L265.936 101.999L282.319 113.471L249.553 136.414L233.17 124.942Z" fill="#fef6ed" fill-rule="nonzero" opacity="1" stroke="none"/>
<path d="M192.16 153.621L208.543 142.149" fill="#f7f0e7" fill-rule="nonzero" opacity="1" stroke="none"/>
<path d="M192.16 153.621L208.543 142.149" fill="#f7f0e7" fill-rule="nonzero" opacity="1" stroke="none"/>
<path d="M192.16 153.621L208.543 142.149" fill="#f7f0e7" fill-rule="nonzero" opacity="1" stroke="none"/>
<path d="M192.16 153.621L208.543 142.149" fill="#f7f0e7" fill-rule="nonzero" opacity="1" stroke="none"/>
<path d="M192.16 153.621L208.543 142.149" fill="#f7f0e7" fill-rule="nonzero" opacity="1" stroke="none"/>
<path d="M192.16 153.621L208.543 142.149" fill="#f7f0e7" fill-rule="nonzero" opacity="1" stroke="none"/>
</g>
</svg>
