<?xml version="1.0" encoding="UTF-8" standalone="no"?>
<!DOCTYPE svg PUBLIC "-//W3C//DTD SVG 1.1//EN" "http://www.w3.org/Graphics/SVG/1.1/DTD/svg11.dtd">
<!-- Created with Vectornator (http://vectornator.io/) -->
<svg height="100%" stroke-miterlimit="10" style="fill-rule:nonzero;clip-rule:evenodd;stroke-linecap:round;stroke-linejoin:round;" version="1.1" viewBox="0 0 419.58 297.675" width="100%" xml:space="preserve" xmlns="http://www.w3.org/2000/svg" xmlns:vectornator="http://vectornator.io" xmlns:xlink="http://www.w3.org/1999/xlink">
<defs/>
<g id="Layer-1" vectornator:layerName="Layer 1">
<path d="M334.174 116.177L369.302 140.755L205.544 255.6L41.6934 140.841L205.443 26.1091L334.174 116.177L230.046 238.332" fill="#32b055" fill-rule="nonzero" opacity="1" stroke="none"/>
<path d="M66.2156 123.617L230.046 238.332L344.727 158.032L320.153 140.824L344.727 123.617L230.046 43.3164L205.471 60.5237L180.897 43.3164L66.2156 123.617Z" fill="#a3a4a8" fill-rule="nonzero" opacity="1" stroke="none"/>
<path d="M230.046 43.3164L205.471 60.5237L180.897 43.3164L172.705 49.0521L205.471 71.9952L238.238 49.0521L230.046 43.3164Z" fill="#ffffff" fill-rule="nonzero" opacity="1" stroke="none"/>
<path d="M336.536 117.881L303.77 140.824L336.536 163.767L344.727 158.032L320.153 140.824L344.727 123.617L336.536 117.881Z" fill="#ffffff" fill-rule="nonzero" opacity="1" stroke="none"/>
<path d="M66.2156 123.617L230.046 238.332L238.238 232.597C238.238 232.597 74.4072 117.881 74.4072 117.881C74.4072 117.881 66.2156 123.617 66.2156 123.617Z" fill="#ffffff" fill-rule="nonzero" opacity="1" stroke="none"/>
<path d="M205.471 60.5237L213.663 66.2594L230.046 54.7879L221.855 49.0521L205.471 60.5237Z" fill="#30343a" fill-rule="nonzero" opacity="1" stroke="none"/>
<path d="M311.961 135.089L320.153 140.824L336.536 129.353L328.344 123.617L311.961 135.089Z" fill="#30343a" fill-rule="nonzero" opacity="1" stroke="none"/>
<path d="M74.4072 129.353L82.5987 123.617L98.9817 135.089L90.7902 140.824L74.4072 129.353Z" fill="#30343a" fill-rule="nonzero" opacity="1" stroke="none"/>
<path d="M107.173 152.296L115.365 146.56L131.748 158.032L123.556 163.767L107.173 152.296Z" fill="#30343a" fill-rule="nonzero" opacity="1" stroke="none"/>
<path d="M139.939 175.239L148.131 169.503L164.514 180.975L156.322 186.71L139.939 175.239Z" fill="#30343a" fill-rule="nonzero" opacity="1" stroke="none"/>
<path d="M172.705 198.182L180.897 192.446L197.28 203.918L189.088 209.654L172.705 198.182Z" fill="#30343a" fill-rule="nonzero" opacity="1" stroke="none"/>
<path d="M205.471 221.125L213.663 215.389L230.046 226.861L221.855 232.597L205.471 221.125Z" fill="#30343a" fill-rule="nonzero" opacity="1" stroke="none"/>
<path d="M180.897 54.7879L189.088 49.0521L205.471 60.5237L197.28 66.2594L180.897 54.7879Z" fill="#30343a" fill-rule="nonzero" opacity="1" stroke="none"/>
<path d="M311.961 146.56L320.153 140.824L336.536 152.296L328.344 158.032L311.961 146.56Z" fill="#30343a" fill-rule="nonzero" opacity="1" stroke="none"/>
<path d="M164.514 123.617L131.748 100.674L148.131 89.2025L180.897 112.146L164.514 123.617Z" fill="#f7f0e7" fill-rule="nonzero" opacity="1" stroke="none"/>
<path d="M213.663 158.032L180.897 135.089L197.28 123.617L230.046 146.56L213.663 158.032Z" fill="#f7f0e7" fill-rule="nonzero" opacity="1" stroke="none"/>
<path d="M262.812 192.446L230.046 169.503L246.429 158.032L279.195 180.975L262.812 192.446Z" fill="#f7f0e7" fill-rule="nonzero" opacity="1" stroke="none"/>
<path d="M221.855 106.41L238.238 117.881L271.004 94.9382L254.621 83.4667L221.855 106.41Z" fill="#f7f0e7" fill-rule="nonzero" opacity="1" stroke="none"/>
</g>
</svg>
