<?xml version="1.0" encoding="UTF-8" standalone="no"?>
<!DOCTYPE svg PUBLIC "-//W3C//DTD SVG 1.1//EN" "http://www.w3.org/Graphics/SVG/1.1/DTD/svg11.dtd">
<!-- Created with Vectornator (http://vectornator.io/) -->
<svg height="100%" stroke-miterlimit="10" style="fill-rule:nonzero;clip-rule:evenodd;stroke-linecap:round;stroke-linejoin:round;" version="1.1" viewBox="0 0 419.58 297.675" width="100%" xml:space="preserve" xmlns="http://www.w3.org/2000/svg" xmlns:vectornator="http://vectornator.io" xmlns:xlink="http://www.w3.org/1999/xlink">
<defs/>
<g id="Layer-1" vectornator:layerName="Layer 1">
<path d="M339.137 109.852L374.265 134.43L210.507 249.276L46.6565 134.516L210.406 19.7841L339.137 109.852" fill="#32b055" fill-rule="nonzero" opacity="1" stroke="none"/>
<path d="M95.7532 168.975L259.584 54.2595L325.116 100.146L161.285 214.861L95.7532 168.975Z" fill="#a3a4a8" fill-rule="nonzero" opacity="1" stroke="none"/>
<path d="M95.7532 168.975L259.584 54.2595L325.116 100.146L161.285 214.861L95.7532 168.975Z" fill="#a3a4a8" fill-rule="nonzero" opacity="1" stroke="none"/>
<path d="M87.5617 163.239L251.392 48.5238L259.584 54.2595L95.7532 168.975L87.5617 163.239Z" fill="#ffffff" fill-rule="nonzero" opacity="1" stroke="none"/>
<path d="M87.5617 163.239L251.392 48.5238L259.584 54.2595L95.7532 168.975L87.5617 163.239Z" fill="#ffffff" fill-rule="nonzero" opacity="1" stroke="none"/>
<path d="M161.285 214.861L325.116 100.146L333.307 105.881L169.477 220.597L161.285 214.861Z" fill="#ffffff" fill-rule="nonzero" opacity="1" stroke="none"/>
<path d="M161.285 214.861L325.116 100.146L333.307 105.881L169.477 220.597L161.285 214.861Z" fill="#ffffff" fill-rule="nonzero" opacity="1" stroke="none"/>
<path d="M202.243 186.182L210.435 191.918L226.818 180.446L218.626 174.711L202.243 186.182Z" fill="#cb5135" fill-rule="nonzero" opacity="1" stroke="none"/>
<path d="M202.243 186.182L210.435 191.918L226.818 180.446L218.626 174.711L202.243 186.182Z" fill="#cb5135" fill-rule="nonzero" opacity="1" stroke="none"/>
<path d="M235.009 163.239L243.201 168.975L259.584 157.503L251.392 151.768L235.009 163.239Z" fill="#cb5135" fill-rule="nonzero" opacity="1" stroke="none"/>
<path d="M235.009 163.239L243.201 168.975L259.584 157.503L251.392 151.768L235.009 163.239Z" fill="#cb5135" fill-rule="nonzero" opacity="1" stroke="none"/>
<path d="M194.051 88.6741L202.243 94.4099L218.626 82.9384L210.435 77.2026L194.051 88.6741Z" fill="#cb5135" fill-rule="nonzero" opacity="1" stroke="none"/>
<path d="M194.051 88.6741L202.243 94.4099L218.626 82.9384L210.435 77.2026L194.051 88.6741Z" fill="#cb5135" fill-rule="nonzero" opacity="1" stroke="none"/>
<path d="M267.775 140.296L275.967 146.032L292.35 134.56L284.158 128.824L267.775 140.296Z" fill="#cb5135" fill-rule="nonzero" opacity="1" stroke="none"/>
<path d="M267.775 140.296L275.967 146.032L292.35 134.56L284.158 128.824L267.775 140.296Z" fill="#cb5135" fill-rule="nonzero" opacity="1" stroke="none"/>
<path d="M226.818 65.7311L235.009 71.4668L251.392 59.9953L243.201 54.2595L226.818 65.7311Z" fill="#cb5135" fill-rule="nonzero" opacity="1" stroke="none"/>
<path d="M226.818 65.7311L235.009 71.4668L251.392 59.9953L243.201 54.2595L226.818 65.7311Z" fill="#cb5135" fill-rule="nonzero" opacity="1" stroke="none"/>
<path d="M300.541 117.353L308.733 123.089L325.116 111.617L316.924 105.881L300.541 117.353Z" fill="#cb5135" fill-rule="nonzero" opacity="1" stroke="none"/>
<path d="M300.541 117.353L308.733 123.089L325.116 111.617L316.924 105.881L300.541 117.353Z" fill="#cb5135" fill-rule="nonzero" opacity="1" stroke="none"/>
<path d="M95.7532 168.975L259.584 54.2595L325.116 100.146L161.285 214.861L95.7532 168.975Z" fill="#a3a4a8" fill-rule="nonzero" opacity="1" stroke="none"/>
<path d="M87.5617 163.239L251.392 48.5238L259.584 54.2595L95.7532 168.975L87.5617 163.239Z" fill="#ffffff" fill-rule="nonzero" opacity="1" stroke="none"/>
<path d="M161.285 214.861L325.116 100.146L333.307 105.881L169.477 220.597L161.285 214.861Z" fill="#ffffff" fill-rule="nonzero" opacity="1" stroke="none"/>
<path d="M95.7532 157.503L103.945 163.239L120.328 151.768L112.136 146.032L95.7532 157.503Z" fill="#cb5135" fill-rule="nonzero" opacity="1" stroke="none"/>
<path d="M169.477 209.125L177.668 214.861L194.051 203.389L185.86 197.654L169.477 209.125Z" fill="#cb5135" fill-rule="nonzero" opacity="1" stroke="none"/>
<path d="M128.519 134.56L136.711 140.296L153.094 128.824L144.902 123.089L128.519 134.56Z" fill="#cb5135" fill-rule="nonzero" opacity="1" stroke="none"/>
<path d="M202.243 186.182L210.435 191.918L226.818 180.446L218.626 174.711L202.243 186.182Z" fill="#cb5135" fill-rule="nonzero" opacity="1" stroke="none"/>
<path d="M161.285 111.617L169.477 117.353L185.86 105.881L177.668 100.146L161.285 111.617Z" fill="#cb5135" fill-rule="nonzero" opacity="1" stroke="none"/>
<path d="M235.009 163.239L243.201 168.975L259.584 157.503L251.392 151.768L235.009 163.239Z" fill="#cb5135" fill-rule="nonzero" opacity="1" stroke="none"/>
<path d="M194.051 88.6741L202.243 94.4099L218.626 82.9384L210.435 77.2026L194.051 88.6741Z" fill="#cb5135" fill-rule="nonzero" opacity="1" stroke="none"/>
<path d="M267.775 140.296L275.967 146.032L292.35 134.56L284.158 128.824L267.775 140.296Z" fill="#cb5135" fill-rule="nonzero" opacity="1" stroke="none"/>
<path d="M226.818 65.7311L235.009 71.4668L251.392 59.9953L243.201 54.2595L226.818 65.7311Z" fill="#cb5135" fill-rule="nonzero" opacity="1" stroke="none"/>
<path d="M300.541 117.353L308.733 123.089L325.116 111.617L316.924 105.881L300.541 117.353Z" fill="#cb5135" fill-rule="nonzero" opacity="1" stroke="none"/>
</g>
</svg>
