<?xml version="1.0" encoding="UTF-8" standalone="no"?>
<!DOCTYPE svg PUBLIC "-//W3C//DTD SVG 1.1//EN" "http://www.w3.org/Graphics/SVG/1.1/DTD/svg11.dtd">
<!-- Created with Vectornator (http://vectornator.io/) -->
<svg height="100%" stroke-miterlimit="10" style="fill-rule:nonzero;clip-rule:evenodd;stroke-linecap:round;stroke-linejoin:round;" version="1.1" viewBox="0 0 419.58 297.675" width="100%" xml:space="preserve" xmlns="http://www.w3.org/2000/svg" xmlns:vectornator="http://vectornator.io" xmlns:xlink="http://www.w3.org/1999/xlink">
<defs/>
<g id="Layer-1" vectornator:layerName="Layer 1">
<path d="M47.5181 136.854L80.6159 113.664L211.268 22.1223L375.127 136.768L211.369 251.614L47.5181 136.854Z" fill="#32b055" fill-rule="nonzero" opacity="1" stroke="none"/>
<path d="M342.32 159.789L178.36 45.094L80.0786 113.932L244.109 228.683" fill="#a3a4a8" fill-rule="nonzero" opacity="1" stroke="none"/>
<path d="M282.849 201.481L342.45 159.673" fill="#e4e7f4" fill-rule="nonzero" opacity="1" stroke="none"/>
<path d="M137.47 96.6376L153.853 85.166L186.619 108.109L170.236 119.581L137.47 96.6376Z" fill="#fffaf4" fill-rule="nonzero" opacity="1" stroke="none"/>
<path d="M186.619 131.052L203.002 119.581L235.729 142.721L219.385 153.995L186.619 131.052Z" fill="#fffaf4" fill-rule="nonzero" opacity="1" stroke="none"/>
<path d="M235.768 165.467L252.361 153.931L284.917 176.938L268.534 188.41L235.768 165.467Z" fill="#fffaf4" fill-rule="nonzero" opacity="1" stroke="none"/>
<g opacity="1">
<path d="M72.0497 119.671L80.2183 113.915L244.092 228.676L235.94 234.401L72.0497 119.671Z" fill="#ffffff" fill-rule="nonzero" opacity="1" stroke="none"/>
<path d="M80.2105 125.345L88.348 119.59L104.749 131.078L96.5819 136.797L80.2105 125.345Z" fill="#30343a" fill-rule="nonzero" opacity="1" stroke="none"/>
<path d="M112.905 148.243L121.042 142.488L137.443 153.976L129.276 159.695L112.905 148.243Z" fill="#30343a" fill-rule="nonzero" opacity="1" stroke="none"/>
<path d="M145.723 171.277L153.86 165.522L159.808 169.688L170.262 177.011L162.094 182.729L145.723 171.277Z" fill="#30343a" fill-rule="nonzero" opacity="1" stroke="none"/>
<path d="M178.55 194.182L186.687 188.427L203.089 199.915L194.921 205.634L178.55 194.182Z" fill="#30343a" fill-rule="nonzero" opacity="1" stroke="none"/>
<path d="M211.339 217.102L219.477 211.346L235.878 222.835L227.711 228.554L211.339 217.102Z" fill="#30343a" fill-rule="nonzero" opacity="1" stroke="none"/>
</g>
<g opacity="1">
<path d="M178.455 45.0628L186.624 39.3062L350.498 154.067L342.346 159.793L178.455 45.0628Z" fill="#ffffff" fill-rule="nonzero" opacity="1" stroke="none"/>
<path d="M186.663 50.7973L194.801 45.0418L211.202 56.5303L203.035 62.2493L186.663 50.7973Z" fill="#30343a" fill-rule="nonzero" opacity="1" stroke="none"/>
<path d="M219.512 73.7691L227.65 68.0136L244.051 79.5021L235.883 85.2211L219.512 73.7691Z" fill="#30343a" fill-rule="nonzero" opacity="1" stroke="none"/>
<path d="M252.197 96.7277L260.334 90.9722L266.282 95.1381L276.736 102.461L268.568 108.18L252.197 96.7277Z" fill="#30343a" fill-rule="nonzero" opacity="1" stroke="none"/>
<path d="M284.916 119.593L293.053 113.838L309.455 125.326L301.287 131.045L284.916 119.593Z" fill="#30343a" fill-rule="nonzero" opacity="1" stroke="none"/>
<path d="M317.947 142.627L326.084 136.872L342.486 148.36L334.318 154.079L317.947 142.627Z" fill="#30343a" fill-rule="nonzero" opacity="1" stroke="none"/>
</g>
</g>
</svg>
