<?xml version="1.0" encoding="UTF-8" standalone="no"?>
<!DOCTYPE svg PUBLIC "-//W3C//DTD SVG 1.1//EN" "http://www.w3.org/Graphics/SVG/1.1/DTD/svg11.dtd">
<!-- Created with Vectornator (http://vectornator.io/) -->
<svg height="100%" stroke-miterlimit="10" style="fill-rule:nonzero;clip-rule:evenodd;stroke-linecap:round;stroke-linejoin:round;" version="1.1" viewBox="0 0 419.58 297.675" width="100%" xml:space="preserve" xmlns="http://www.w3.org/2000/svg" xmlns:vectornator="http://vectornator.io" xmlns:xlink="http://www.w3.org/1999/xlink">
<defs/>
<g id="Layer-1" vectornator:layerName="Layer 1">
<path d="M347.629 118.264L382.757 142.841L218.999 257.687L55.1481 142.928L218.898 28.1956L347.629 118.264" fill="#32b055" fill-rule="nonzero" opacity="1" stroke="none"/>
<path d="M79.6703 125.704L243.501 240.419L358.182 160.118L194.352 45.4029L79.6703 125.704Z" fill="#a3a4a8" fill-rule="nonzero" opacity="1" stroke="none"/>
<path d="M79.6703 125.704L243.501 240.419L251.692 234.683L87.8618 119.968L79.6703 125.704Z" fill="#ffffff" fill-rule="nonzero" opacity="1" stroke="none"/>
<path d="M194.352 45.4029L186.16 51.1387L349.99 165.854L358.182 160.118L194.352 45.4029Z" fill="#ffffff" fill-rule="nonzero" opacity="1" stroke="none"/>
<path d="M87.8618 131.439L96.0533 125.704L112.436 137.175L104.245 142.911L87.8618 131.439Z" fill="#30343a" fill-rule="nonzero" opacity="1" stroke="none"/>
<path d="M120.628 154.382L128.819 148.647L145.202 160.118L137.011 165.854L120.628 154.382Z" fill="#30343a" fill-rule="nonzero" opacity="1" stroke="none"/>
<path d="M153.394 177.326L161.585 171.59L177.969 183.061L169.777 188.797L153.394 177.326Z" fill="#30343a" fill-rule="nonzero" opacity="1" stroke="none"/>
<path d="M186.16 200.269L194.352 194.533L210.735 206.004L202.543 211.74L186.16 200.269Z" fill="#30343a" fill-rule="nonzero" opacity="1" stroke="none"/>
<path d="M218.926 223.212L227.118 217.476L243.501 228.947L235.309 234.683L218.926 223.212Z" fill="#30343a" fill-rule="nonzero" opacity="1" stroke="none"/>
<path d="M194.352 56.8745L202.543 51.1387L218.926 62.6102L210.735 68.346L194.352 56.8745Z" fill="#30343a" fill-rule="nonzero" opacity="1" stroke="none"/>
<path d="M227.118 79.8175L235.309 74.0817L251.692 85.5533L243.501 91.289L227.118 79.8175Z" fill="#30343a" fill-rule="nonzero" opacity="1" stroke="none"/>
<path d="M259.884 102.761L268.075 97.0248L284.458 108.496L276.267 114.232L259.884 102.761Z" fill="#30343a" fill-rule="nonzero" opacity="1" stroke="none"/>
<path d="M292.65 125.704L300.841 119.968L317.224 131.439L309.033 137.175L292.65 125.704Z" fill="#30343a" fill-rule="nonzero" opacity="1" stroke="none"/>
<path d="M325.416 148.647L333.607 142.911L349.99 154.382L341.799 160.118L325.416 148.647Z" fill="#30343a" fill-rule="nonzero" opacity="1" stroke="none"/>
<path d="M210.735 194.533L145.202 148.647L153.394 142.911L218.926 188.797L210.735 194.533Z" fill="#fffaf4" fill-rule="nonzero" opacity="1" stroke="none"/>
<path d="M161.585 137.175L227.118 183.061L235.309 177.326L169.777 131.439L161.585 137.175Z" fill="#fffaf4" fill-rule="nonzero" opacity="1" stroke="none"/>
<path d="M227.118 91.289L284.458 131.439L292.65 137.175L284.458 142.911L218.926 97.0248L227.118 91.289Z" fill="#fffaf4" fill-rule="nonzero" opacity="1" stroke="none"/>
<path d="M210.735 102.761L276.267 148.647L268.075 154.382L202.543 108.496L210.735 102.761Z" fill="#fffaf4" fill-rule="nonzero" opacity="1" stroke="none"/>
<path d="M276.267 194.533L292.65 183.061L259.884 160.118L243.501 171.59L276.267 194.533Z" fill="#fffaf4" fill-rule="nonzero" opacity="1" stroke="none"/>
<path d="M227.118 160.118L243.501 148.647L210.735 125.704L202.543 131.439L194.352 137.175L227.118 160.118Z" fill="#fffaf4" fill-rule="nonzero" opacity="1" stroke="none"/>
<path d="M177.969 125.704L194.352 114.232L161.585 91.289L145.202 102.761L177.969 125.704Z" fill="#fffaf4" fill-rule="nonzero" opacity="1" stroke="none"/>
</g>
</svg>
