<?xml version="1.0" encoding="UTF-8" standalone="no"?>
<!DOCTYPE svg PUBLIC "-//W3C//DTD SVG 1.1//EN" "http://www.w3.org/Graphics/SVG/1.1/DTD/svg11.dtd">
<!-- Created with Vectornator (http://vectornator.io/) -->
<svg height="100%" stroke-miterlimit="10" style="fill-rule:nonzero;clip-rule:evenodd;stroke-linecap:round;stroke-linejoin:round;" version="1.1" viewBox="0 0 419.58 297.675" width="100%" xml:space="preserve" xmlns="http://www.w3.org/2000/svg" xmlns:vectornator="http://vectornator.io" xmlns:xlink="http://www.w3.org/1999/xlink">
<defs/>
<g id="Layer-1" vectornator:layerName="Layer 1">
<path d="M331.087 129.018L366.215 153.596L202.457 268.442L38.6065 153.683L202.356 38.9503L331.087 129.018" fill="#32b055" fill-rule="nonzero" opacity="1" stroke="none"/>
<path d="M71.3726 176.67L235.203 61.9542L333.501 130.783L300.735 153.726L333.501 176.67L235.203 245.499L202.437 222.556L169.671 245.499L71.3726 176.67Z" fill="#a3a4a8" fill-rule="nonzero" opacity="1" stroke="none"/>
<path d="M63.1811 170.934L227.011 56.2185L235.203 61.9542L71.3726 176.67L63.1811 170.934Z" fill="#ffffff" fill-rule="nonzero" opacity="1" stroke="none"/>
<path d="M169.671 245.499L202.437 222.556L235.203 245.499L227.011 251.234L202.437 234.027L177.862 251.234L169.671 245.499Z" fill="#ffffff" fill-rule="nonzero" opacity="1" stroke="none"/>
<path d="M300.735 153.726L325.31 136.519L333.501 130.783L341.693 136.519L317.118 153.726L341.693 170.934L333.501 176.67L300.735 153.726Z" fill="#ffffff" fill-rule="nonzero" opacity="1" stroke="none"/>
<path d="M71.3726 165.198L79.5641 170.934L95.9471 159.462L87.7556 153.726L71.3726 165.198Z" fill="#30343a" fill-rule="nonzero" opacity="1" stroke="none"/>
<path d="M104.139 142.255L112.33 147.991L128.713 136.519L120.522 130.783L104.139 142.255Z" fill="#30343a" fill-rule="nonzero" opacity="1" stroke="none"/>
<path d="M136.905 119.312L145.096 125.048L161.479 113.576L153.288 107.84L136.905 119.312Z" fill="#30343a" fill-rule="nonzero" opacity="1" stroke="none"/>
<path d="M169.671 96.3688L177.862 102.105L194.245 90.6331L186.054 84.8973L169.671 96.3688Z" fill="#30343a" fill-rule="nonzero" opacity="1" stroke="none"/>
<path d="M202.437 73.4258L210.628 79.1615L227.011 67.69L218.82 61.9542L202.437 73.4258Z" fill="#30343a" fill-rule="nonzero" opacity="1" stroke="none"/>
<path d="M177.862 239.763L194.245 228.291L202.437 234.027L186.054 245.499L177.862 239.763Z" fill="#30343a" fill-rule="nonzero" opacity="1" stroke="none"/>
<path d="M202.437 234.027L210.628 228.291L227.011 239.763L218.82 245.499L202.437 234.027Z" fill="#30343a" fill-rule="nonzero" opacity="1" stroke="none"/>
<path d="M333.501 165.198L325.31 170.934" fill="#cb5135" fill-rule="nonzero" opacity="1" stroke="none"/>
<path d="M308.927 159.462L317.118 153.726L333.501 165.198L325.31 170.934L308.927 159.462Z" fill="#30343a" fill-rule="nonzero" opacity="1" stroke="none"/>
<path d="M308.927 147.991L317.118 153.726L333.501 142.255L325.31 136.519L308.927 147.991Z" fill="#30343a" fill-rule="nonzero" opacity="1" stroke="none"/>
<path d="M259.778 205.348L276.161 193.877L243.395 170.934L227.011 182.405L259.778 205.348Z" fill="#fef6ed" fill-rule="nonzero" opacity="1" stroke="none"/>
<path d="M128.713 193.877L161.479 170.934L177.862 182.405L145.096 205.348L128.713 193.877Z" fill="#fef6ed" fill-rule="nonzero" opacity="1" stroke="none"/>
<path d="M177.862 159.462L194.245 170.934L227.011 147.991L210.628 136.519L177.862 159.462Z" fill="#fef6ed" fill-rule="nonzero" opacity="1" stroke="none"/>
<path d="M227.011 125.048L243.395 136.519L276.161 113.576L259.778 102.105L227.011 125.048Z" fill="#fef6ed" fill-rule="nonzero" opacity="1" stroke="none"/>
</g>
</svg>
