<?xml version="1.0" encoding="UTF-8" standalone="no"?>
<!DOCTYPE svg PUBLIC "-//W3C//DTD SVG 1.1//EN" "http://www.w3.org/Graphics/SVG/1.1/DTD/svg11.dtd">
<!-- Created with Vectornator (http://vectornator.io/) -->
<svg height="100%" stroke-miterlimit="10" style="fill-rule:nonzero;clip-rule:evenodd;stroke-linecap:round;stroke-linejoin:round;" version="1.1" viewBox="0 0 419.58 297.675" width="100%" xml:space="preserve" xmlns="http://www.w3.org/2000/svg" xmlns:vectornator="http://vectornator.io" xmlns:xlink="http://www.w3.org/1999/xlink">
<defs/>
<g id="Layer-1" vectornator:layerName="Layer 1">
<path d="M29.47 142.373L193.3 27.6572L332.556 125.165L357.131 142.373L192.36 257.187L29.47 142.373Z" fill="#32b055" fill-rule="nonzero" opacity="1" stroke="none"/>
<path d="M54.0446 125.165L193.3 222.673L332.556 125.165L324.365 119.429L193.3 211.202L62.2361 119.429L54.0446 125.165Z" fill="#ffffff" fill-rule="nonzero" opacity="1" stroke="none"/>
<path d="M62.2864 130.973L70.4238 125.217L86.8252 136.706L78.6578 142.425L62.2864 130.973Z" fill="#30343a" fill-rule="nonzero" opacity="1" stroke="none"/>
<path d="M95.0022 153.844L103.33 148.224L119.731 159.712L111.385 165.316L95.0022 153.844Z" fill="#30343a" fill-rule="nonzero" opacity="1" stroke="none"/>
<path d="M127.806 176.871L135.943 171.115L141.891 175.281L152.344 182.604L144.177 188.323L127.806 176.871Z" fill="#30343a" fill-rule="nonzero" opacity="1" stroke="none"/>
<path d="M160.36 199.844L168.497 194.088L184.898 205.577L176.731 211.296L160.36 199.844Z" fill="#30343a" fill-rule="nonzero" opacity="1" stroke="none"/>
<path d="M201.406 205.608L209.489 200.007L217.961 194.039L226.067 199.73L209.683 211.202L201.406 205.608Z" fill="#30343a" fill-rule="nonzero" opacity="1" stroke="none"/>
<path d="M234.435 182.523L250.641 171.051L258.833 176.787L242.627 188.259L234.435 182.523Z" fill="#30343a" fill-rule="nonzero" opacity="1" stroke="none"/>
<path d="M266.939 159.722L275.021 154.12L283.494 148.153L291.599 153.844L275.216 165.316L266.939 159.722Z" fill="#30343a" fill-rule="nonzero" opacity="1" stroke="none"/>
<path d="M299.79 136.637L316.173 125.165L324.365 130.901L307.982 142.373L299.79 136.637Z" fill="#30343a" fill-rule="nonzero" opacity="1" stroke="none"/>
<path d="M62.2361 119.429L193.444 211.544L324.365 119.429L226.067 50.6003L193.679 73.5065L160.534 50.6003" fill="#a3a4a8" fill-rule="nonzero" opacity="1" stroke="none"/>
<path d="M111.385 96.4864L127.768 85.0149L160.534 107.958L144.151 119.429L111.385 96.4864Z" fill="#fffaf4" fill-rule="nonzero" opacity="1" stroke="none"/>
<path d="M258.448 85.2673L274.763 96.7299L242.151 119.581L225.767 108.094L258.448 85.2673Z" fill="#fffaf4" fill-rule="nonzero" opacity="1" stroke="none"/>
<path d="M160.529 130.884L176.818 119.508L193.288 131.106L209.577 119.508L226.12 130.997L193.434 153.975L160.529 130.884Z" fill="#fffaf4" fill-rule="nonzero" opacity="1" stroke="none"/>
<path d="M160.534 50.6003L193.3 73.5434L226.067 50.6003L217.875 44.8645L193.3 62.0718L168.726 44.8645L160.534 50.6003Z" fill="#fffaf4" fill-rule="nonzero" opacity="1" stroke="none"/>
<path d="M168.726 56.3361L176.917 50.6003L193.3 62.0718L185.109 67.8076L168.726 56.3361Z" fill="#30343a" fill-rule="nonzero" opacity="1" stroke="none"/>
<path d="M193.3 62.0718L209.683 50.6003L217.875 56.3361L201.492 67.8076" fill="#30343a" fill-rule="nonzero" opacity="1" stroke="none"/>
</g>
</svg>
