<?xml version="1.0" encoding="UTF-8" standalone="no"?>
<!DOCTYPE svg PUBLIC "-//W3C//DTD SVG 1.1//EN" "http://www.w3.org/Graphics/SVG/1.1/DTD/svg11.dtd">
<!-- Created with Vectornator (http://vectornator.io/) -->
<svg height="100%" stroke-miterlimit="10" style="fill-rule:nonzero;clip-rule:evenodd;stroke-linecap:round;stroke-linejoin:round;" version="1.1" viewBox="0 0 419.58 297.675" width="100%" xml:space="preserve" xmlns="http://www.w3.org/2000/svg" xmlns:vectornator="http://vectornator.io" xmlns:xlink="http://www.w3.org/1999/xlink">
<defs/>
<g id="Layer-1" vectornator:layerName="Layer 1">
<path d="M335.174 128.685L370.302 153.263L206.544 268.109L42.6932 153.349L206.443 38.6172L335.174 128.685" fill="#32b055" fill-rule="nonzero" opacity="1" stroke="none"/>
<path d="M132.8 204.954L165.566 182.011L181.949 193.483L149.183 216.426L132.8 204.954Z" fill="#fef6ed" fill-rule="nonzero" opacity="1" stroke="none"/>
<path d="M75.4593 176.276L239.29 61.5603L337.588 130.389L181.949 250.841L75.4593 176.276Z" fill="#a3a4a8" fill-rule="nonzero" opacity="1" stroke="none"/>
<path d="M67.2677 170.54L231.098 55.8245L239.29 61.5603L75.4593 176.276L67.2677 170.54Z" fill="#ffffff" fill-rule="nonzero" opacity="1" stroke="none"/>
<path d="M181.949 250.841L345.779 136.125L337.588 130.389L173.757 245.105L181.949 250.841Z" fill="#ffffff" fill-rule="nonzero" opacity="1" stroke="none"/>
<path d="M181.949 239.369L190.141 245.105L206.524 233.633L198.332 227.897L181.949 239.369Z" fill="#30343a" fill-rule="nonzero" opacity="1" stroke="none"/>
<path d="M214.715 216.426L222.907 222.162L239.29 210.69L231.098 204.954L214.715 216.426Z" fill="#30343a" fill-rule="nonzero" opacity="1" stroke="none"/>
<path d="M247.481 193.483L255.673 199.219L272.056 187.747L263.864 182.011L247.481 193.483Z" fill="#30343a" fill-rule="nonzero" opacity="1" stroke="none"/>
<path d="M280.247 170.54L288.439 176.276L304.822 164.804L296.63 159.068L280.247 170.54Z" fill="#30343a" fill-rule="nonzero" opacity="1" stroke="none"/>
<path d="M313.013 147.597L321.205 153.333L337.588 141.861L329.396 136.125L313.013 147.597Z" fill="#30343a" fill-rule="nonzero" opacity="1" stroke="none"/>
<path d="M75.4593 164.804L83.6508 170.54L100.034 159.068L91.8423 153.333L75.4593 164.804Z" fill="#30343a" fill-rule="nonzero" opacity="1" stroke="none"/>
<path d="M108.225 141.861L116.417 147.597L132.8 136.125L124.608 130.389L108.225 141.861Z" fill="#30343a" fill-rule="nonzero" opacity="1" stroke="none"/>
<path d="M140.991 118.918L149.183 124.654L165.566 113.182L157.374 107.446L140.991 118.918Z" fill="#30343a" fill-rule="nonzero" opacity="1" stroke="none"/>
<path d="M173.757 95.9749L181.949 101.711L198.332 90.2391L190.141 84.5034L173.757 95.9749Z" fill="#30343a" fill-rule="nonzero" opacity="1" stroke="none"/>
<path d="M206.524 73.0318L214.715 78.7676L231.098 67.2961L222.907 61.5603L206.524 73.0318Z" fill="#30343a" fill-rule="nonzero" opacity="1" stroke="none"/>
<path d="M132.8 159.068L214.715 101.711" fill="#30343a" fill-rule="nonzero" opacity="1" stroke="none"/>
<path d="M149.183 159.068L214.715 113.182L222.907 118.918L157.374 164.804L149.183 159.068Z" fill="#fffaf4" fill-rule="nonzero" opacity="1" stroke="none"/>
<path d="M206.524 199.219L214.715 204.954L280.247 159.068L272.056 153.333L206.524 199.219Z" fill="#fffaf4" fill-rule="nonzero" opacity="1" stroke="none"/>
<path d="M190.141 187.747L198.332 193.483L263.864 147.597L255.673 141.861L190.141 187.747Z" fill="#fffaf4" fill-rule="nonzero" opacity="1" stroke="none"/>
<path d="M132.8 147.597L140.991 153.333L206.524 107.446L198.332 101.711L132.8 147.597Z" fill="#fffaf4" fill-rule="nonzero" opacity="1" stroke="none"/>
<path d="M132.8 193.483L149.183 204.954L181.949 182.011L165.566 170.54L132.8 193.483Z" fill="#fef6ed" fill-rule="nonzero" opacity="1" stroke="none"/>
<path d="M181.949 159.068L198.332 170.54L231.098 147.597L214.715 136.125L181.949 159.068Z" fill="#fef6ed" fill-rule="nonzero" opacity="1" stroke="none"/>
<path d="M231.098 124.654L247.481 136.125L280.247 113.182L263.864 101.711L231.098 124.654Z" fill="#fef6ed" fill-rule="nonzero" opacity="1" stroke="none"/>
</g>
</svg>
