<?xml version="1.0" encoding="UTF-8" standalone="no"?>
<!DOCTYPE svg PUBLIC "-//W3C//DTD SVG 1.1//EN" "http://www.w3.org/Graphics/SVG/1.1/DTD/svg11.dtd">
<!-- Created with Vectornator (http://vectornator.io/) -->
<svg height="100%" stroke-miterlimit="10" style="fill-rule:nonzero;clip-rule:evenodd;stroke-linecap:round;stroke-linejoin:round;" version="1.1" viewBox="0 0 419.58 297.675" width="100%" xml:space="preserve" xmlns="http://www.w3.org/2000/svg" xmlns:vectornator="http://vectornator.io" xmlns:xlink="http://www.w3.org/1999/xlink">
<defs/>
<g id="Layer-1" vectornator:layerName="Layer 1">
<path d="M338.414 109.679L373.541 134.257L209.784 249.102L45.933 134.343L209.683 19.6109L338.414 109.679" fill="#32b055" fill-rule="nonzero" opacity="1" stroke="none"/>
<path d="M70.4552 117.18L95.0298 134.387L70.4552 151.594L185.136 231.895L324.392 134.387L185.136 36.8791L70.4552 117.18Z" fill="#a3a4a8" fill-rule="nonzero" opacity="1" stroke="none"/>
<path d="M70.4552 151.594L95.0298 134.387L70.4552 117.18L78.6467 111.444L103.221 128.651L111.413 134.387L78.6467 157.33L70.4552 151.594Z" fill="#ffffff" fill-rule="nonzero" opacity="1" stroke="none"/>
<path d="M185.136 36.8791L176.945 42.6148L308.009 134.387L176.945 226.159L185.136 231.895L324.392 134.387L185.136 36.8791Z" fill="#ffffff" fill-rule="nonzero" opacity="1" stroke="none"/>
<path d="M78.6467 145.859L86.8382 151.594L103.221 140.123L95.0298 134.387L78.6467 145.859Z" fill="#30343a" fill-rule="nonzero" opacity="1" stroke="none"/>
<path d="M185.136 220.424L201.52 208.952L209.711 214.688L193.328 226.159L185.136 220.424Z" fill="#30343a" fill-rule="nonzero" opacity="1" stroke="none"/>
<path d="M217.903 197.48L226.094 203.216L242.477 191.745L234.286 186.009L217.903 197.48Z" fill="#30343a" fill-rule="nonzero" opacity="1" stroke="none"/>
<path d="M250.669 174.537L258.86 180.273L275.243 168.802L267.052 163.066L250.669 174.537Z" fill="#30343a" fill-rule="nonzero" opacity="1" stroke="none"/>
<path d="M283.435 151.594L291.626 157.33L308.009 145.859L299.818 140.123L283.435 151.594Z" fill="#30343a" fill-rule="nonzero" opacity="1" stroke="none"/>
<path d="M299.818 128.651L308.009 122.916L291.626 111.444L283.435 117.18L299.818 128.651Z" fill="#30343a" fill-rule="nonzero" opacity="1" stroke="none"/>
<path d="M267.052 105.708L275.243 99.9725L258.86 88.501L250.669 94.2367L267.052 105.708Z" fill="#30343a" fill-rule="nonzero" opacity="1" stroke="none"/>
<path d="M234.286 82.7652L242.477 77.0294" fill="#30343a" fill-rule="nonzero" opacity="1" stroke="none"/>
<path d="M234.286 82.7652L242.477 77.0294L226.094 65.5579L217.903 71.2937L234.286 82.7652Z" fill="#30343a" fill-rule="nonzero" opacity="1" stroke="none"/>
<path d="M201.52 59.8221L209.711 54.0864L193.328 42.6148L185.136 48.3506L201.52 59.8221Z" fill="#30343a" fill-rule="nonzero" opacity="1" stroke="none"/>
<path d="M127.796 88.501L144.179 77.0294L176.945 99.9725L160.562 111.444L127.796 88.501Z" fill="#fffaf4" fill-rule="nonzero" opacity="1" stroke="none"/>
<path d="M193.328 111.444L176.945 122.916L193.328 134.387L176.945 145.859L193.328 157.33L226.094 134.387L193.328 111.444Z" fill="#fffaf4" fill-rule="nonzero" opacity="1" stroke="none"/>
<path d="M160.562 157.33L176.945 168.802L144.179 191.745L127.796 180.273L160.562 157.33Z" fill="#fffaf4" fill-rule="nonzero" opacity="1" stroke="none"/>
<path d="M78.6467 122.916L86.8382 117.18L103.221 128.651L95.0298 134.387L78.6467 122.916Z" fill="#30343a" fill-rule="nonzero" opacity="1" stroke="none"/>
<path d="M185.136 231.895L316.201 140.123" fill="#a3a4a8" fill-rule="nonzero" opacity="1" stroke="none"/>
<path d="M185.136 231.895L316.201 140.123" fill="#a3a4a8" fill-rule="nonzero" opacity="1" stroke="none"/>
<path d="M185.136 231.895L316.201 140.123" fill="#a3a4a8" fill-rule="nonzero" opacity="1" stroke="none"/>
</g>
</svg>
