<?xml version="1.0" encoding="UTF-8" standalone="no"?>
<!DOCTYPE svg PUBLIC "-//W3C//DTD SVG 1.1//EN" "http://www.w3.org/Graphics/SVG/1.1/DTD/svg11.dtd">
<!-- Created with Vectornator (http://vectornator.io/) -->
<svg height="100%" stroke-miterlimit="10" style="fill-rule:nonzero;clip-rule:evenodd;stroke-linecap:round;stroke-linejoin:round;" version="1.1" viewBox="0 0 419.58 297.675" width="100%" xml:space="preserve" xmlns="http://www.w3.org/2000/svg" xmlns:vectornator="http://vectornator.io" xmlns:xlink="http://www.w3.org/1999/xlink">
<defs/>
<g id="Layer-1" vectornator:layerName="Layer 1">
<path d="M339.818 126.647L374.946 151.225L211.188 266.07L47.3377 151.311L211.087 36.579L339.818 126.647L235.69 248.802" fill="#32b055" fill-rule="nonzero" opacity="1" stroke="none"/>
<path d="M71.8599 134.087L194.733 220.123L309.414 139.823L186.541 53.7863L71.8599 134.087Z" fill="#a3a4a8" fill-rule="nonzero" opacity="1" stroke="none"/>
<path d="M71.8599 134.087C71.8599 134.087 194.733 220.123 194.733 220.123L309.414 139.823L186.541 53.7863L178.35 59.5221L293.031 139.823L194.733 208.652L80.0514 128.351C80.0514 128.351 71.8599 134.087 71.8599 134.087Z" fill="#fffaf4" fill-rule="nonzero" opacity="1" stroke="none"/>
<path d="M80.0514 139.823L88.2429 134.087L104.626 145.559L96.4345 151.294L80.0514 139.823Z" fill="#30343a" fill-rule="nonzero" opacity="1" stroke="none"/>
<path d="M112.817 162.766L121.009 157.03L137.392 168.502L129.201 174.237L112.817 162.766Z" fill="#30343a" fill-rule="nonzero" opacity="1" stroke="none"/>
<path d="M145.584 185.709L153.775 179.973L170.158 191.445L161.967 197.18L145.584 185.709Z" fill="#30343a" fill-rule="nonzero" opacity="1" stroke="none"/>
<path d="M178.35 208.652L186.541 202.916L202.924 214.388L194.733 220.123L178.35 208.652Z" fill="#30343a" fill-rule="nonzero" opacity="1" stroke="none"/>
<path d="M202.924 202.916L211.116 208.652L227.499 197.18L219.307 191.445L202.924 202.916Z" fill="#30343a" fill-rule="nonzero" opacity="1" stroke="none"/>
<path d="M235.69 179.973L243.882 185.709L260.265 174.237L252.073 168.502L235.69 179.973Z" fill="#30343a" fill-rule="nonzero" opacity="1" stroke="none"/>
<path d="M186.541 65.2578L194.733 59.5221L211.116 70.9936L202.924 76.7293L186.541 65.2578Z" fill="#30343a" fill-rule="nonzero" opacity="1" stroke="none"/>
<path d="M219.307 88.2009L227.499 82.4651L243.882 93.9366L235.69 99.6724L219.307 88.2009Z" fill="#30343a" fill-rule="nonzero" opacity="1" stroke="none"/>
<path d="M252.073 111.144L260.265 105.408L276.648 116.88L268.456 122.615L252.073 111.144Z" fill="#30343a" fill-rule="nonzero" opacity="1" stroke="none"/>
<path d="M284.839 134.087L293.031 128.351L309.414 139.823L301.222 145.559L293.031 139.823L284.839 134.087Z" fill="#30343a" fill-rule="nonzero" opacity="1" stroke="none"/>
<path d="M284.839 145.559L293.031 151.294L276.648 162.766L268.456 157.03L284.839 145.559Z" fill="#30343a" fill-rule="nonzero" opacity="1" stroke="none"/>
</g>
</svg>
