<?xml version="1.0" encoding="UTF-8" standalone="no"?>
<!DOCTYPE svg PUBLIC "-//W3C//DTD SVG 1.1//EN" "http://www.w3.org/Graphics/SVG/1.1/DTD/svg11.dtd">
<!-- Created with Vectornator (http://vectornator.io/) -->
<svg height="100%" stroke-miterlimit="10" style="fill-rule:nonzero;clip-rule:evenodd;stroke-linecap:round;stroke-linejoin:round;" version="1.1" viewBox="0 0 419.58 297.675" width="100%" xml:space="preserve" xmlns="http://www.w3.org/2000/svg" xmlns:vectornator="http://vectornator.io" xmlns:xlink="http://www.w3.org/1999/xlink">
<defs/>
<g id="Layer-1" vectornator:layerName="Layer 1">
<path d="M348.925 112.749L384.052 137.326L220.295 252.172L56.4439 137.413L220.193 22.6807L348.925 112.749" fill="#32b055" fill-rule="nonzero" opacity="1" stroke="none"/>
<path d="M348.925 112.749L384.052 137.326L220.295 252.172L56.4439 137.413L220.193 22.6807L348.925 112.749" fill="#32b055" fill-rule="nonzero" opacity="1" stroke="none"/>
<path d="M81.0185 154.664L203.891 68.6277L318.573 148.928L195.7 234.965L81.0185 154.664Z" fill="#a3a4a8" fill-rule="nonzero" opacity="1" stroke="none"/>
<path d="M81.0185 154.664L203.891 68.6277L318.573 148.928L195.7 234.965L187.508 229.229L302.19 148.928L203.891 80.0992L89.21 160.4L81.0185 154.664Z" fill="#ffffff" fill-rule="nonzero" opacity="1" stroke="none"/>
<path d="M195.7 223.493L212.083 212.022L220.274 217.758L203.891 229.229L195.7 223.493Z" fill="#30343a" fill-rule="nonzero" opacity="1" stroke="none"/>
<path d="M228.466 200.55L236.657 206.286L253.04 194.814L244.849 189.079L228.466 200.55Z" fill="#30343a" fill-rule="nonzero" opacity="1" stroke="none"/>
<path d="M261.232 177.607L269.423 183.343L285.807 171.871L277.615 166.136L261.232 177.607Z" fill="#30343a" fill-rule="nonzero" opacity="1" stroke="none"/>
<path d="M293.998 154.664L310.381 143.193L318.573 148.928L302.19 160.4L293.998 154.664Z" fill="#30343a" fill-rule="nonzero" opacity="1" stroke="none"/>
<path d="M293.998 143.193L302.19 137.457L285.807 125.985L277.615 131.721L293.998 143.193Z" fill="#30343a" fill-rule="nonzero" opacity="1" stroke="none"/>
<path d="M89.21 148.928L97.4015 154.664L113.785 143.193L105.593 137.457L89.21 148.928Z" fill="#30343a" fill-rule="nonzero" opacity="1" stroke="none"/>
<path d="M121.976 125.985L130.168 131.721L146.551 120.25L138.359 114.514L121.976 125.985Z" fill="#30343a" fill-rule="nonzero" opacity="1" stroke="none"/>
<path d="M154.742 103.042L162.934 108.778L179.317 97.3065L171.125 91.5707" fill="#30343a" fill-rule="nonzero" opacity="1" stroke="none"/>
<path d="M187.508 80.0992L195.7 85.8349" fill="#30343a" fill-rule="nonzero" opacity="1" stroke="none"/>
<path d="M212.083 74.3634L203.891 68.6277L187.508 80.0992L195.7 85.8349L212.083 74.3634Z" fill="#30343a" fill-rule="nonzero" opacity="1" stroke="none"/>
<path d="M212.083 85.8349L220.274 80.0992L236.657 91.5707L228.466 97.3065L212.083 85.8349Z" fill="#30343a" fill-rule="nonzero" opacity="1" stroke="none"/>
<path d="M244.849 108.778L253.04 103.042L269.423 114.514L261.232 120.25L244.849 108.778Z" fill="#30343a" fill-rule="nonzero" opacity="1" stroke="none"/>
</g>
</svg>
