<?xml version="1.0" encoding="UTF-8" standalone="no"?>
<!DOCTYPE svg PUBLIC "-//W3C//DTD SVG 1.1//EN" "http://www.w3.org/Graphics/SVG/1.1/DTD/svg11.dtd">
<!-- Created with Vectornator (http://vectornator.io/) -->
<svg height="100%" stroke-miterlimit="10" style="fill-rule:nonzero;clip-rule:evenodd;stroke-linecap:round;stroke-linejoin:round;" version="1.1" viewBox="0 0 419.58 297.675" width="100%" xml:space="preserve" xmlns="http://www.w3.org/2000/svg" xmlns:vectornator="http://vectornator.io" xmlns:xlink="http://www.w3.org/1999/xlink">
<defs/>
<g id="Layer-1" vectornator:layerName="Layer 1">
<path d="M328.552 118.653L363.68 143.23L199.923 258.076L36.0718 143.317L199.821 28.5846L328.552 118.653L224.424 240.808" fill="#32b055" fill-rule="nonzero" opacity="1" stroke="none"/>
<path d="M224.424 240.808L109.743 160.507L224.424 80.2065L339.106 160.507L224.424 240.808Z" fill="#a3a4a8" fill-rule="nonzero" opacity="1" stroke="none"/>
<path d="M224.424 240.808L101.552 154.771L216.233 74.4707L339.106 160.507L330.914 166.243L216.233 85.9422C216.233 85.9422 117.935 154.771 117.935 154.771C117.935 154.771 232.616 235.072 232.616 235.072L224.424 240.808Z" fill="#fffaf4" fill-rule="nonzero" opacity="1" stroke="none"/>
<path d="M322.723 160.507L330.914 154.771L314.531 143.3L306.34 149.036L322.723 160.507Z" fill="#30343a" fill-rule="nonzero" opacity="1" stroke="none"/>
<path d="M289.957 137.564L298.148 131.828L281.765 120.357L273.574 126.093L289.957 137.564Z" fill="#30343a" fill-rule="nonzero" opacity="1" stroke="none"/>
<path d="M257.19 114.621L265.382 108.885L248.999 97.4137L240.807 103.15L257.19 114.621Z" fill="#30343a" fill-rule="nonzero" opacity="1" stroke="none"/>
<path d="M224.424 91.678L232.616 85.9422L216.233 74.4707L208.041 80.2065L224.424 91.678Z" fill="#30343a" fill-rule="nonzero" opacity="1" stroke="none"/>
<path d="M216.233 235.072L224.424 229.336L208.041 217.865L199.85 223.601L216.233 235.072Z" fill="#30343a" fill-rule="nonzero" opacity="1" stroke="none"/>
<path d="M183.467 212.129L191.658 206.393L175.275 194.922L167.084 200.658L183.467 212.129Z" fill="#30343a" fill-rule="nonzero" opacity="1" stroke="none"/>
<path d="M150.701 189.186L158.892 183.45L142.509 171.979L134.318 177.714L150.701 189.186Z" fill="#30343a" fill-rule="nonzero" opacity="1" stroke="none"/>
<path d="M117.935 166.243L126.126 160.507L109.743 149.036L101.552 154.771L117.935 166.243Z" fill="#30343a" fill-rule="nonzero" opacity="1" stroke="none"/>
<path d="M117.935 143.3L126.126 149.036L142.509 137.564L134.318 131.828L117.935 143.3Z" fill="#30343a" fill-rule="nonzero" opacity="1" stroke="none"/>
<path d="M150.701 120.357L158.892 126.093L175.275 114.621L167.084 108.885L150.701 120.357Z" fill="#30343a" fill-rule="nonzero" opacity="1" stroke="none"/>
<path d="M183.467 97.4137L191.658 103.15L208.041 91.678L199.85 85.9422L183.467 97.4137Z" fill="#30343a" fill-rule="nonzero" opacity="1" stroke="none"/>
</g>
</svg>
