<?xml version="1.0" encoding="UTF-8" standalone="no"?>
<!DOCTYPE svg PUBLIC "-//W3C//DTD SVG 1.1//EN" "http://www.w3.org/Graphics/SVG/1.1/DTD/svg11.dtd">
<!-- Created with Vectornator (http://vectornator.io/) -->
<svg height="100%" stroke-miterlimit="10" style="fill-rule:nonzero;clip-rule:evenodd;stroke-linecap:round;stroke-linejoin:round;" version="1.1" viewBox="0 0 419.58 297.675" width="100%" xml:space="preserve" xmlns="http://www.w3.org/2000/svg" xmlns:vectornator="http://vectornator.io" xmlns:xlink="http://www.w3.org/1999/xlink">
<defs/>
<g id="Layer-1" vectornator:layerName="Layer 1">
<path d="M338.255 119.823L373.383 144.401L209.625 259.247L45.7741 144.487L209.524 29.7552L338.255 119.823" fill="#32b055" fill-rule="nonzero" opacity="1" stroke="none"/>
<path d="M94.9232 110.056L258.754 224.771L324.286 178.885L160.455 64.1698L94.9232 110.056Z" fill="#a3a4a8" fill-rule="nonzero" opacity="1" stroke="none"/>
<path d="M160.455 64.1698L324.286 178.885L316.094 184.621L152.264 69.9055L160.455 64.1698Z" fill="#ffffff" fill-rule="nonzero" opacity="1" stroke="none"/>
<path d="M94.9232 110.056L103.115 104.32L266.945 219.035L258.754 224.771L94.9232 110.056Z" fill="#ffffff" fill-rule="nonzero" opacity="1" stroke="none"/>
<path d="M94.9232 110.056L103.115 115.792L111.306 110.056L127.689 121.527L119.498 127.263L103.115 115.792" fill="#cb5135" fill-rule="nonzero" opacity="1" stroke="none"/>
<path d="M127.689 132.999L135.881 138.735L144.072 132.999L160.455 144.47L152.264 150.206L135.881 138.735" fill="#cb5135" fill-rule="nonzero" opacity="1" stroke="none"/>
<path d="M160.455 155.942L168.647 161.678L176.838 155.942L193.221 167.414L185.03 173.149L168.647 161.678" fill="#cb5135" fill-rule="nonzero" opacity="1" stroke="none"/>
<path d="M193.221 178.885L201.413 184.621L209.605 178.885L225.988 190.357L217.796 196.092L201.413 184.621" fill="#cb5135" fill-rule="nonzero" opacity="1" stroke="none"/>
<path d="M225.988 201.828L234.179 207.564L242.371 201.828L258.754 213.3L250.562 219.035L234.179 207.564" fill="#cb5135" fill-rule="nonzero" opacity="1" stroke="none"/>
<path d="M152.264 69.9055L160.455 75.6413L168.647 69.9055L185.03 81.377L176.838 87.1128L160.455 75.6413" fill="#cb5135" fill-rule="nonzero" opacity="1" stroke="none"/>
<path d="M185.03 92.8486L193.221 98.5843L201.413 92.8486L217.796 104.32L209.605 110.056L193.221 98.5843" fill="#cb5135" fill-rule="nonzero" opacity="1" stroke="none"/>
<path d="M217.796 115.792L225.988 121.527L234.179 115.792L250.562 127.263L242.371 132.999L225.988 121.527" fill="#cb5135" fill-rule="nonzero" opacity="1" stroke="none"/>
<path d="M250.562 138.735L258.754 144.47L266.945 138.735L283.328 150.206L275.137 155.942L258.754 144.47" fill="#cb5135" fill-rule="nonzero" opacity="1" stroke="none"/>
<path d="M283.328 161.678L291.52 167.414L299.711 161.678L316.094 173.149L307.903 178.885L291.52 167.414" fill="#cb5135" fill-rule="nonzero" opacity="1" stroke="none"/>
</g>
</svg>
