<?xml version="1.0" encoding="UTF-8" standalone="no"?>
<!DOCTYPE svg PUBLIC "-//W3C//DTD SVG 1.1//EN" "http://www.w3.org/Graphics/SVG/1.1/DTD/svg11.dtd">
<!-- Created with Vectornator (http://vectornator.io/) -->
<svg height="100%" stroke-miterlimit="10" style="fill-rule:nonzero;clip-rule:evenodd;stroke-linecap:round;stroke-linejoin:round;" version="1.1" viewBox="0 0 419.58 297.675" width="100%" xml:space="preserve" xmlns="http://www.w3.org/2000/svg" xmlns:vectornator="http://vectornator.io" xmlns:xlink="http://www.w3.org/1999/xlink">
<defs/>
<g id="Layer-1" vectornator:layerName="Layer 1">
<path d="M336.133 125.975L371.261 150.553L207.503 265.399L43.6523 150.639L207.402 35.9072L336.133 125.975L232.005 248.13" fill="#32b055" fill-rule="nonzero" opacity="1" stroke="none"/>
<path d="M182.908 53.1145L346.739 167.83L232.057 248.13L207.483 230.923L182.908 248.13L68.2268 167.83L92.8014 150.622L68.2268 133.415L182.908 53.1145Z" fill="#a3a4a8" fill-rule="nonzero" opacity="1" stroke="none"/>
<path d="M68.2268 167.83L92.8014 150.622L68.2268 133.415L76.4183 127.679L109.184 150.622L76.4183 173.566L68.2268 167.83Z" fill="#ffffff" fill-rule="nonzero" opacity="1" stroke="none"/>
<path d="M174.717 242.395L207.483 219.452L240.249 242.395L232.057 248.13L207.483 230.923L182.908 248.13L174.717 242.395Z" fill="#ffffff" fill-rule="nonzero" opacity="1" stroke="none"/>
<path d="M174.717 58.8502L182.908 53.1145L346.739 167.83L338.547 173.566L174.717 58.8502Z" fill="#ffffff" fill-rule="nonzero" opacity="1" stroke="none"/>
<path d="M76.4183 162.094L84.6099 167.83L100.993 156.358L92.8014 150.622L76.4183 162.094Z" fill="#30343a" fill-rule="nonzero" opacity="1" stroke="none"/>
<path d="M76.4183 139.151L92.8014 150.622L100.993 144.887L84.6099 133.415C84.6099 133.415 76.4183 139.151 76.4183 139.151Z" fill="#30343a" fill-rule="nonzero" opacity="1" stroke="none"/>
<path d="M182.908 236.659L191.1 242.395L207.483 230.923L199.291 225.187L182.908 236.659Z" fill="#30343a" fill-rule="nonzero" opacity="1" stroke="none"/>
<path d="M207.483 230.923L223.866 242.395L232.057 236.659L215.674 225.187L207.483 230.923Z" fill="#30343a" fill-rule="nonzero" opacity="1" stroke="none"/>
<path d="M182.908 64.586L191.1 58.8502L207.483 70.3218L199.291 76.0575L182.908 64.586Z" fill="#30343a" fill-rule="nonzero" opacity="1" stroke="none"/>
<path d="M215.674 87.529L223.866 81.7933L240.249 93.2648L232.057 99.0006L215.674 87.529Z" fill="#30343a" fill-rule="nonzero" opacity="1" stroke="none"/>
<path d="M248.44 110.472L256.632 104.736L273.015 116.208L264.823 121.944L248.44 110.472Z" fill="#30343a" fill-rule="nonzero" opacity="1" stroke="none"/>
<path d="M281.206 133.415L289.398 127.679L305.781 139.151L297.589 144.887L281.206 133.415Z" fill="#30343a" fill-rule="nonzero" opacity="1" stroke="none"/>
<path d="M313.972 156.358L322.164 150.622L338.547 162.094L330.355 167.83L313.972 156.358Z" fill="#30343a" fill-rule="nonzero" opacity="1" stroke="none"/>
<path d="M133.759 110.472L150.142 99.0006L182.908 121.944L166.525 133.415L133.759 110.472Z" fill="#f7f0e7" fill-rule="nonzero" opacity="1" stroke="none"/>
<path d="M264.823 202.244L232.057 179.301L248.44 167.83L281.206 190.773L264.823 202.244Z" fill="#f7f0e7" fill-rule="nonzero" opacity="1" stroke="none"/>
<path d="M182.908 144.887L215.674 167.83L232.057 156.358L199.291 133.415L182.908 144.887Z" fill="#f7f0e7" fill-rule="nonzero" opacity="1" stroke="none"/>
<path d="M133.759 190.773L150.142 202.244L182.908 179.301L166.525 167.83L133.759 190.773Z" fill="#f7f0e7" fill-rule="nonzero" opacity="1" stroke="none"/>
</g>
</svg>
