<?xml version="1.0" encoding="UTF-8" standalone="no"?>
<!DOCTYPE svg PUBLIC "-//W3C//DTD SVG 1.1//EN" "http://www.w3.org/Graphics/SVG/1.1/DTD/svg11.dtd">
<!-- Created with Vectornator (http://vectornator.io/) -->
<svg height="100%" stroke-miterlimit="10" style="fill-rule:nonzero;clip-rule:evenodd;stroke-linecap:round;stroke-linejoin:round;" version="1.1" viewBox="0 0 419.58 297.675" width="100%" xml:space="preserve" xmlns="http://www.w3.org/2000/svg" xmlns:vectornator="http://vectornator.io" xmlns:xlink="http://www.w3.org/1999/xlink">
<defs/>
<g id="Layer-1" vectornator:layerName="Layer 1">
<path d="M333.827 117.766L368.955 142.343L205.197 257.189L41.3462 142.43L205.096 27.6977L333.827 117.766" fill="#32b055" fill-rule="nonzero" opacity="1" stroke="none"/>
<path d="M65.8684 159.62L205.124 62.1123L344.38 159.62L229.699 239.921L205.124 222.714L180.55 239.921L65.8684 159.62Z" fill="#a3a4a8" fill-rule="nonzero" opacity="1" stroke="none"/>
<path d="M65.8684 159.62L205.124 62.1123L344.38 159.62L336.189 165.356L205.124 73.5838L74.0599 165.356L65.8684 159.62Z" fill="#ffffff" fill-rule="nonzero" opacity="1" stroke="none"/>
<path d="M172.358 234.185L205.124 211.242L237.89 234.185L229.699 239.921L205.124 222.714L180.55 239.921L172.358 234.185Z" fill="#ffffff" fill-rule="nonzero" opacity="1" stroke="none"/>
<path d="M74.0599 153.885L90.4429 142.413L98.6345 148.149L82.2514 159.62" fill="#30343a" fill-rule="nonzero" opacity="1" stroke="none"/>
<path d="M180.55 228.449L196.933 216.978L205.124 222.714L188.741 234.185" fill="#30343a" fill-rule="nonzero" opacity="1" stroke="none"/>
<path d="M172.358 85.0553L188.741 73.5838L196.933 79.3196L180.55 90.7911" fill="#30343a" fill-rule="nonzero" opacity="1" stroke="none"/>
<path d="M139.592 107.998L155.975 96.5269L164.167 102.263L147.784 113.734" fill="#30343a" fill-rule="nonzero" opacity="1" stroke="none"/>
<path d="M106.826 130.941L123.209 119.47L131.401 125.206L115.017 136.677" fill="#30343a" fill-rule="nonzero" opacity="1" stroke="none"/>
<path d="M213.316 79.3196L221.507 73.5838L237.89 85.0553L229.699 90.7911L213.316 79.3196Z" fill="#30343a" fill-rule="nonzero" opacity="1" stroke="none"/>
<path d="M246.082 102.263L254.273 96.5269L270.656 107.998L262.465 113.734L246.082 102.263Z" fill="#30343a" fill-rule="nonzero" opacity="1" stroke="none"/>
<path d="M278.848 125.206L287.039 119.47L303.422 130.941L295.231 136.677L278.848 125.206Z" fill="#30343a" fill-rule="nonzero" opacity="1" stroke="none"/>
<path d="M311.614 148.149L319.806 142.413L336.189 153.885L327.997 159.62L311.614 148.149Z" fill="#30343a" fill-rule="nonzero" opacity="1" stroke="none"/>
<path d="M205.124 222.714L213.316 216.978L229.699 228.449L221.507 234.185L205.124 222.714Z" fill="#30343a" fill-rule="nonzero" opacity="1" stroke="none"/>
<path d="M123.209 188.299L139.592 199.771L172.358 176.828L155.975 165.356L123.209 188.299Z" fill="#f7f0e7" fill-rule="nonzero" opacity="1" stroke="none"/>
<path d="M270.656 199.771L287.039 188.299L254.273 165.356L237.89 176.828L258.36 191.161L270.656 199.771Z" fill="#f7f0e7" fill-rule="nonzero" opacity="1" stroke="none"/>
<path d="M172.358 153.885L205.124 130.941L237.89 153.885L221.507 165.356L205.124 153.885L188.741 165.356L172.358 153.885Z" fill="#fef6ed" fill-rule="nonzero" opacity="1" stroke="none"/>
</g>
</svg>
