<?xml version="1.0" encoding="UTF-8" standalone="no"?>
<!DOCTYPE svg PUBLIC "-//W3C//DTD SVG 1.1//EN" "http://www.w3.org/Graphics/SVG/1.1/DTD/svg11.dtd">
<!-- Created with Vectornator (http://vectornator.io/) -->
<svg height="100%" stroke-miterlimit="10" style="fill-rule:nonzero;clip-rule:evenodd;stroke-linecap:round;stroke-linejoin:round;" version="1.1" viewBox="0 0 419.58 297.675" width="100%" xml:space="preserve" xmlns="http://www.w3.org/2000/svg" xmlns:vectornator="http://vectornator.io" xmlns:xlink="http://www.w3.org/1999/xlink">
<defs/>
<g id="Layer-1" vectornator:layerName="Layer 1">
<path d="M341.901 108.45L377.029 133.027L213.271 247.873L49.4206 133.114L213.17 18.3816L341.901 108.45" fill="#32b055" fill-rule="nonzero" opacity="1" stroke="none"/>
<path d="M245.965 224.93L114.9 133.158L245.965 41.3855L344.263 110.215L319.688 127.422L311.497 133.158L344.263 156.101L245.965 224.93Z" fill="#a3a4a8" fill-rule="nonzero" opacity="1" stroke="none"/>
<path d="M352.455 115.95L344.263 110.215L311.497 133.158L344.263 156.101L352.455 150.365L327.88 133.158L352.455 115.95Z" fill="#fffaf4" fill-rule="nonzero" opacity="1" stroke="none"/>
<path d="M237.773 35.6497L98.5174 133.158L237.773 230.666L245.965 224.93L114.9 133.158L245.965 41.3855L237.773 35.6497Z" fill="#fffaf4" fill-rule="nonzero" opacity="1" stroke="none"/>
<path d="M229.582 224.93L237.773 219.194L221.39 207.723L213.199 213.458L229.582 224.93Z" fill="#30343a" fill-rule="nonzero" opacity="1" stroke="none"/>
<path d="M196.816 201.987L205.007 196.251L188.624 184.78L180.433 190.515L196.816 201.987Z" fill="#30343a" fill-rule="nonzero" opacity="1" stroke="none"/>
<path d="M164.05 179.044L172.241 173.308L155.858 161.837L147.667 167.572L164.05 179.044Z" fill="#30343a" fill-rule="nonzero" opacity="1" stroke="none"/>
<path d="M131.283 156.101L139.475 150.365L123.092 138.893L114.9 144.629L131.283 156.101Z" fill="#30343a" fill-rule="nonzero" opacity="1" stroke="none"/>
<path d="M114.9 121.686L123.092 127.422L139.475 115.95L131.283 110.215L114.9 121.686Z" fill="#30343a" fill-rule="nonzero" opacity="1" stroke="none"/>
<path d="M147.667 98.7431L155.858 104.479L172.241 93.0073L164.05 87.2716L147.667 98.7431Z" fill="#30343a" fill-rule="nonzero" opacity="1" stroke="none"/>
<path d="M180.433 75.8L188.624 81.5358L205.007 70.0643L196.816 64.3285L180.433 75.8Z" fill="#30343a" fill-rule="nonzero" opacity="1" stroke="none"/>
<path d="M213.199 52.857L221.39 58.5927L237.773 47.1212L229.582 41.3855L213.199 52.857Z" fill="#30343a" fill-rule="nonzero" opacity="1" stroke="none"/>
<path d="M278.731 75.8L295.114 87.2716L262.348 110.215L245.965 98.7431L278.731 75.8Z" fill="#f7f0e7" fill-rule="nonzero" opacity="1" stroke="none"/>
<path d="M295.114 179.044L278.731 190.515L245.965 167.572L262.348 156.101L295.114 179.044Z" fill="#f7f0e7" fill-rule="nonzero" opacity="1" stroke="none"/>
<path d="M229.582 156.101L245.965 144.629L229.582 133.158L245.965 121.686L229.582 110.215L196.816 133.158L229.582 156.101Z" fill="#f7f0e7" fill-rule="nonzero" opacity="1" stroke="none"/>
<path d="M336.071 115.95L319.688 127.422L327.88 133.158L344.263 121.686" fill="#30343a" fill-rule="nonzero" opacity="1" stroke="none"/>
<path d="M319.688 138.893L327.88 133.158L344.263 144.629L336.071 150.365L319.688 138.893Z" fill="#30343a" fill-rule="nonzero" opacity="1" stroke="none"/>
</g>
</svg>
