<?xml version="1.0" encoding="UTF-8" standalone="no"?>
<!-- Created with Vectornator (http://vectornator.io/) -->

<svg
   height="65.982468"
   stroke-miterlimit="10"
   style="clip-rule:evenodd;fill-rule:nonzero;stroke-linecap:round;stroke-linejoin:round"
   version="1.1"
   viewBox="0 0 335.98249 65.98247"
   width="335.98248"
   xml:space="preserve"
   id="svg1898"
   sodipodi:docname="hp_inner.svg"
   inkscape:version="1.2.1 (9c6d41e410, 2022-07-14)"
   xmlns:inkscape="http://www.inkscape.org/namespaces/inkscape"
   xmlns:sodipodi="http://sodipodi.sourceforge.net/DTD/sodipodi-0.dtd"
   xmlns="http://www.w3.org/2000/svg"
   xmlns:svg="http://www.w3.org/2000/svg"
   xmlns:vectornator="http://vectornator.io"><sodipodi:namedview
   id="namedview1900"
   pagecolor="#ffffff"
   bordercolor="#000000"
   borderopacity="0.25"
   inkscape:showpageshadow="2"
   inkscape:pageopacity="0.0"
   inkscape:pagecheckerboard="0"
   inkscape:deskcolor="#d1d1d1"
   showgrid="false"
   inkscape:zoom="2.7009322"
   inkscape:cx="168.27523"
   inkscape:cy="32.025979"
   inkscape:window-width="1920"
   inkscape:window-height="991"
   inkscape:window-x="-9"
   inkscape:window-y="-9"
   inkscape:window-maximized="1"
   inkscape:current-layer="svg1898" />
<defs
   id="defs1891">
<linearGradient
   gradientUnits="userSpaceOnUse"
   id="LinearGradient"
   x1="45"
   x2="375"
   y1="150"
   y2="150">
<stop
   offset="0"
   stop-color="#11afa4"
   id="stop1886" />
<stop
   offset="1"
   stop-color="#baebe8"
   id="stop1888" />
</linearGradient>
</defs>
<g
   id="Layer-1"
   vectornator:layerName="Layer 1"
   transform="translate(-42.008765,-117.00876)">
<path
   d="m 60,120 c 20,0 223.515,0 300,0 20,0 20,60 0,60 -76.485,0 -223.515,0 -300,0 -20,0 -20,-60 0,-60 z"
   fill="#ebe7df"
   fill-rule="nonzero"
   opacity="1"
   stroke="#0a0809"
   stroke-linecap="butt"
   stroke-linejoin="round"
   stroke-width="5.98247"
   id="path1893"
   style="display:none" />
<path
   d="m 60,120 c 20,0 223.515,0 300,0 20,0 20,60 0,60 -76.485,0 -223.515,0 -300,0 -20,0 -20,-60 0,-60 z"
   fill="url(#LinearGradient)"
   fill-rule="nonzero"
   opacity="1"
   stroke="none"
   id="path1895"
   style="display:inline;fill:url(#LinearGradient)" />
</g>
</svg>
