<?xml version="1.0" encoding="UTF-8" standalone="no"?>
<!-- Created with Vectornator (http://vectornator.io/) -->

<svg
   height="6.0110297"
   stroke-miterlimit="10"
   style="clip-rule:evenodd;fill-rule:nonzero;stroke-linecap:round;stroke-linejoin:round"
   version="1.1"
   viewBox="0 0 15.066876 6.0110298"
   width="15.066875"
   xml:space="preserve"
   id="svg35"
   sodipodi:docname="Капли.svg"
   inkscape:version="1.2.1 (9c6d41e410, 2022-07-14)"
   xmlns:inkscape="http://www.inkscape.org/namespaces/inkscape"
   xmlns:sodipodi="http://sodipodi.sourceforge.net/DTD/sodipodi-0.dtd"
   xmlns="http://www.w3.org/2000/svg"
   xmlns:svg="http://www.w3.org/2000/svg"
   xmlns:vectornator="http://vectornator.io"><sodipodi:namedview
   id="namedview37"
   pagecolor="#ffffff"
   bordercolor="#000000"
   borderopacity="0.25"
   inkscape:showpageshadow="2"
   inkscape:pageopacity="0.0"
   inkscape:pagecheckerboard="0"
   inkscape:deskcolor="#d1d1d1"
   showgrid="false"
   inkscape:zoom="44.030309"
   inkscape:cx="6.8929791"
   inkscape:cy="5.1214721"
   inkscape:window-width="1920"
   inkscape:window-height="991"
   inkscape:window-x="-9"
   inkscape:window-y="-9"
   inkscape:window-maximized="1"
   inkscape:current-layer="svg35" />
<defs
   id="defs2" />
<g
   id="Layer-1"
   vectornator:layerName="Layer 1">
<g
   opacity="1"
   id="g12"
   transform="translate(-4.6519359,-29.031193)">
<g
   opacity="1"
   id="g8">
<path
   d="m 19.6412,29.1264 c 0,0 -3.0906,2.6958 -2.8873,4.2018 0.134,0.9922 1.4278,2.1431 2.2773,1.3103 0.4531,-0.4442 0.61,-5.5121 0.61,-5.5121 z"
   fill="#a92929"
   fill-rule="nonzero"
   stroke="none"
   id="path4" />
<path
   d="m 19.6562,29.0312 c -0.016,-5e-4 -0.018,0.0242 -0.0312,0.0313 -0.0263,0.0142 -0.0614,0.0305 -0.0625,0.0625 -1.1938,1.1848 -1.1513,1.1022 -1.3125,1.2812 -0.6934,0.7703 -1.6706,1.82 -1.5938,2.9376 0.0198,0.2877 0.3165,0.4887 0.5,0.75 -0.2395,-0.3461 -0.3774,-0.7707 -0.3124,-1.1563 0.1658,-0.984 0.0989,-0.1787 2.7187,-3.5937 -0.0276,0.6755 -0.0429,0.7346 -0.0625,1.0937 -0.0231,0.4223 -0.0664,0.8592 -0.0938,1.2813 -0.051,0.7876 0.0985,3.4433 -1.2812,3.0937 -0.374,-0.0948 -0.7292,-0.3727 -0.9688,-0.7187 0.4871,0.6934 1.2619,1.2109 1.9376,0.5937 0.3019,-0.2759 0.2971,-1.0088 0.3437,-1.375 0.0675,-0.5311 -0.0058,0.0047 0.2813,-4.1875 6e-4,-0.0185 -0.022,-0.0168 -0.0313,-0.0312 -0.0056,-0.0087 0.0082,-0.0251 0,-0.0313 -0.0137,-0.0103 -0.0128,-0.0306 -0.0313,-0.0313 z"
   fill="#0a0809"
   stroke="none"
   id="path6" />
</g>
<path
   d="m 19.3186,29.7942 c 0,0 -0.675,0.4942 -0.7374,0.8077 -0.0263,0.1321 -0.0617,0.4048 0.1375,0.4332 0.1176,0.0167 0.1982,-0.18 0.2368,-0.261 0.149,-0.313 0.3631,-0.9799 0.3631,-0.9799 z"
   fill="#d38e8e"
   fill-rule="nonzero"
   opacity="1"
   stroke="none"
   id="path10" />
</g>
<g
   opacity="1"
   id="g22"
   transform="translate(-13.55649,-20.87345)">
<g
   opacity="1"
   id="g18">
<path
   d="m 20.4883,20.9582 c -0.6401,-0.0995 -0.5719,1.1986 -0.7117,1.8976 -0.1384,0.6919 -0.2634,1.656 0.0814,2.3042 0.4321,0.8125 1.8769,2.0522 2.6432,1.5361 1.342,-0.9036 1.2752,-2.2576 0.61,-3.2078 -0.305,-0.4357 -1.8884,-2.416 -2.6229,-2.5301 z"
   fill="#a92929"
   fill-rule="nonzero"
   stroke="none"
   id="path14" />
<path
   d="m 20.5,20.875 c -0.0107,0.0267 0.0104,0.0055 0,0.0312 -0.0314,0.0019 -0.0801,6e-4 -0.0938,0.0313 -0.0195,0.0439 -0.0126,0.0742 0.0313,0.0937 -0.6073,1.4656 -0.6665,1.3045 -0.75,1.8126 -0.1073,0.6529 -0.216,1.3456 -0.0313,2 0.237,0.8393 1.0812,1.6247 1.875,1.9374 0.4608,0.1815 0.5358,0.1203 0.4688,-0.1562 -0.1344,10e-5 -0.2608,0.0573 -0.4062,0 -0.7457,-0.294 -1.5577,-1.0536 -1.7813,-1.8438 -0.1752,-0.6192 0.0261,-0.135 0.6875,-3.6874 0.0707,0.082 0.0579,0.0483 0.125,0.125 -0.024,-0.1293 -0.0388,-0.115 -0.0625,-0.25 -10e-5,-0.0105 0.0037,-0.0221 0,-0.0313 -0.0063,-0.036 -0.025,-0.0261 -0.0313,-0.0625 -0.0087,-0.0039 -0.0221,9e-4 -0.0312,0 z m 0.125,0.3438 c 0.6304,3.402 1.2602,4.9325 1.375,5.4062 0.9409,-4e-4 1.607,-1.189 1.4688,-2.0625 -0.1874,-1.1838 -0.1612,-0.2753 -2.8438,-3.3437 z"
   fill="#0a0809"
   stroke="none"
   id="path16" />
</g>
<path
   d="m 20.4644,21.5244 c -0.5321,0.1214 -0.4435,1.1819 -0.4178,1.7537 0.0066,0.147 0.0762,0.5047 0.2971,0.4127 0.2211,-0.0921 0.376,-2.2247 0.1207,-2.1664 z"
   fill="#d38e8e"
   fill-rule="nonzero"
   opacity="1"
   stroke="none"
   id="path20" />
</g>
<g
   opacity="1"
   id="g32"
   transform="translate(-25.686144,-28.967133)">
<g
   opacity="1"
   id="g28">
<path
   d="m 25.7817,29.036 c 0,0 -0.0413,2.3526 0.3253,3.2079 0.365,0.8516 1.3424,1.7739 2.1959,1.8976 0.8938,0.1295 2.0164,-1.0707 1.6673,-2.1235 -0.1572,-0.4741 -0.595,-1.1521 -0.8946,-1.5362 -0.422,-0.5409 -3.2939,-1.4458 -3.2939,-1.4458 z"
   fill="#a92929"
   fill-rule="nonzero"
   stroke="none"
   id="path24" />
<path
   d="m 25.75,28.9688 c -0.0215,0.0097 -0.0547,0.007 -0.0625,0.0312 -0.003,0.0091 -10e-5,0.0221 0,0.0312 0.0253,1.2897 0.0162,1.0407 0.0313,1.2813 0.015,0.2391 0.0373,0.4805 0.0624,0.7187 0.1064,1.0088 0.6333,1.8725 1.4063,2.5 -0.5872,-0.4909 -1.0325,-1.2404 -1.1563,-1.8437 -0.1099,-0.5358 -0.0179,-0.2746 -0.1562,-2.5313 0.7972,0.2774 0.8839,0.3019 1,0.3438 -0.4245,-0.2174 -0.4094,-0.1541 -1.0625,-0.5312 -0.0092,-0.0038 -0.0208,10e-5 -0.0313,0 -0.0104,-2e-4 -0.0219,-0.0035 -0.0312,0 z M 26.875,29.5 C 27.8146,29.9812 28.7462,30.495 29,30.5938 28.9667,30.56 28.9721,30.5007 28.9375,30.4688 28.4874,30.053 27.8046,29.8325 27.25,29.625 27.1422,29.5847 26.9184,29.5157 26.875,29.5 Z M 29,30.5938 c 0.888,0.9 1.3477,2.3983 0.1562,3.2187 -0.6549,0.4509 -1.3815,0.2097 -1.9687,-0.2813 0.2262,0.1837 0.3659,0.4436 0.6563,0.5626 0.2138,0.0876 0.4513,0.1437 0.6874,0.125 0.8946,-0.071 1.6939,-1.0608 1.5938,-1.9376 -0.0452,-0.3955 -0.2684,-0.7907 -0.4688,-1.125 C 29.3884,30.7094 29.306,30.7128 29,30.5938 Z"
   fill="#0a0809"
   stroke="none"
   id="path26" />
</g>
<path
   d="m 26.0061,29.4949 c 0,0 -0.1864,1.5187 0.1671,1.6094 0.2211,0.0566 0.13,-0.4591 0.13,-0.5365 0,-0.404 -0.2971,-1.0729 -0.2971,-1.0729 z"
   fill="#d38e8e"
   fill-rule="nonzero"
   opacity="1"
   stroke="none"
   id="path30" />
</g>
</g>
</svg>
