<?xml version="1.0" encoding="UTF-8" standalone="no"?>
<!-- Created with Vectornator (http://vectornator.io/) -->

<svg
   height="67.914238"
   stroke-miterlimit="10"
   style="clip-rule:evenodd;fill-rule:nonzero;stroke-linecap:round;stroke-linejoin:round"
   version="1.1"
   viewBox="0 0 620.84372 67.914247"
   width="620.84375"
   xml:space="preserve"
   id="svg1585"
   sodipodi:docname="лужи крови.svg"
   inkscape:version="1.2.1 (9c6d41e410, 2022-07-14)"
   xmlns:inkscape="http://www.inkscape.org/namespaces/inkscape"
   xmlns:sodipodi="http://sodipodi.sourceforge.net/DTD/sodipodi-0.dtd"
   xmlns="http://www.w3.org/2000/svg"
   xmlns:svg="http://www.w3.org/2000/svg"><sodipodi:namedview
   id="namedview1587"
   pagecolor="#ffffff"
   bordercolor="#000000"
   borderopacity="0.25"
   inkscape:showpageshadow="2"
   inkscape:pageopacity="0.0"
   inkscape:pagecheckerboard="0"
   inkscape:deskcolor="#d1d1d1"
   showgrid="false"
   inkscape:zoom="1.9425639"
   inkscape:cx="259.70832"
   inkscape:cy="65.634907"
   inkscape:window-width="1920"
   inkscape:window-height="991"
   inkscape:window-x="-9"
   inkscape:window-y="-9"
   inkscape:window-maximized="1"
   inkscape:current-layer="layer1" />
<defs
   id="defs1481" />
<clipPath
   id="ArtboardFrame">
<rect
   height="206.94299"
   width="304.94601"
   x="0"
   y="0"
   id="rect1483" />
</clipPath>

<g
   inkscape:groupmode="layer"
   id="layer1"
   inkscape:label="LayerMain"><g
     opacity="1"
     id="g1498"
     transform="matrix(0.93856536,0,0,1,-25.967059,-32.495262)"
     style="clip-rule:evenodd;fill-rule:nonzero;stroke-linecap:round;stroke-linejoin:round">
<g
   opacity="1"
   id="g1490">
<path
   d="m 56.7449,92.5763 c -6.7567,1.222 -10.7172,9.5187 -18.1884,7.4807 -1.7547,-0.4785 -4.29,-2.3119 -5.5739,-3.5203 C 23.8905,87.9794 32.303,81.479 31.8091,71.6009 31.5876,67.1708 26.3543,62.348 29.7556,57.813 c 0.948,-1.2641 5.0457,-3.47 6.1606,-4.1071 1.7434,-0.9963 3.8511,-2.2896 5.8672,-2.6403 7.0807,-1.2314 14.9511,3.3927 21.7088,-0.2933 5.2482,-2.8627 8.4354,-8.9314 12.9079,-12.6146 1.7809,-1.4666 5.8939,-2.6311 7.6274,-3.2269 1.4622,-0.5027 2.8606,-1.6068 4.4004,-1.4668 2.3406,0.2127 3.4165,6.0177 2.9336,7.6273 -1.5643,5.2145 -7.02,4.9211 -3.8137,11.7345 2.2216,4.7209 7.8146,2.5503 9.9743,5.5739 0.2506,0.3508 0.4327,5.489 0.2934,5.8672 -2.7935,7.5824 -13.2725,5.9299 -18.7752,8.8008 -5.3305,2.7812 -0.1363,7.378 -0.2933,11.1478 -0.1383,3.3189 -1.5914,4.657 -4.1071,6.4539 -3.0079,2.1485 -6.9427,2.5278 -10.561,2.3469 -2.948,-0.1474 -4.3171,-0.9857 -7.334,-0.44 z"
   fill="#a72b2b"
   fill-rule="nonzero"
   stroke="none"
   id="path1486" />
<path
   d="m 87.5312,32.5312 c -1.391,0.1903 -2.513,1.0256 -3.8124,1.4688 -2.474,0.8437 -5.1673,1.5364 -7.375,3 -1.0406,0.6898 -1.9223,1.6048 -2.7813,2.5 -3.5385,3.6876 -6.4652,8.657 -11.3125,10.8125 -5.5264,2.4575 -11.998,-0.406 -17.7812,-0.4063 -1.3367,0 -2.6837,0.1097 -3.9688,0.5 -2.4554,0.7458 -4.7354,2.2759 -6.9375,3.5626 -1.4054,0.8211 -3.5693,1.9178 -4.5625,3.3124 -0.4384,0.6156 -0.8011,1.2455 -1.0312,1.9688 -1.237,3.8873 1.6609,7.3643 2.6562,10.9375 0.2434,0.874 0.2666,1.7144 0.25,2.625 -0.0956,5.256 -3.0628,9.9551 -3.0625,15.1563 10e-5,2.1155 0.6226,4.1517 1.75,5.9374 0.7713,1.2217 1.7193,2.335 2.7813,3.3126 1.1575,1.0654 2.4416,2.0379 3.8124,2.8122 1.1221,0.634 1.2939,0.508 4.125,-0.656 -1.4717,-0.1549 -2.9002,-0.741 -4.1562,-1.5938 -1.2713,-0.8631 -2.4619,-1.8014 -3.5,-2.9374 -1.0098,-1.1051 -1.8812,-2.3402 -2.4062,-3.75 -1.1346,-3.0466 -0.2175,-6.267 0.6874,-9.25 0.8935,-2.9451 1.8162,-5.8941 1.875,-9 0.0618,-3.2609 -1.3231,-5.4747 -2.4687,-8.4376 -0.8233,-2.1292 -1.1323,-4.1373 0.2187,-6.0624 0.3563,-0.5077 1.038,-0.9129 1.5313,-1.25 1.1441,-0.782 2.3575,-1.4433 3.5625,-2.125 2.5624,-1.4498 4.9801,-3.0095 8,-3.1563 6.4778,-0.3148 13.1171,3.0325 19.4062,0.25 5.591,-2.4736 8.6403,-8.2234 12.9376,-12.25 2.3601,-2.2115 5.3613,-2.9376 8.375,-3.9687 1.1499,-0.3935 2.2512,-1.2436 3.4687,-1.4063 1.7839,-0.2384 2.3726,2.9426 2.5625,4.1563 0.0392,0.2505 0.0669,0.4978 0.0938,0.75 0.0466,0.4383 0.0744,0.9072 0,1.3437 -0.391,2.2929 -2.6218,3.6965 -3.875,5.4687 -1.8299,2.5878 -0.8315,6.5956 1.2187,8.8126 1.7105,1.8495 4.1058,2.0425 6.4063,2.625 0.6189,0.1567 1.2729,0.3639 1.8124,0.7187 0.1833,0.1205 0.9203,1.041 0.5938,0.4687 -0.0194,-0.034 0.025,0.0863 0.0312,0.125 0.0202,0.1252 0.0175,0.2168 0.0313,0.3438 0.0289,0.2662 0.0436,0.5454 0.0625,0.8125 0.0618,0.8713 0.1083,1.752 0.125,2.625 0.0087,0.4544 0.1062,0.9018 0,1.3437 -0.3208,1.3353 -1.7738,2.8531 -2.9062,3.5626 -3.6076,2.26 -8.0455,2.3569 -12.0626,3.4062 -1.7506,0.4573 -3.9048,1.0816 -5.1562,2.5312 -2.8061,3.2508 0.4734,6.5442 0.9688,9.875 0.1167,0.7851 0.0099,1.6399 -0.1876,2.4063 -0.4696,1.8228 -1.9501,3.0096 -3.4374,4.0313 -3.0656,2.1056 -7.0071,2.4484 -10.625,2.125 -1.3636,-0.1219 -0.0081,0.0127 -6.8438,-0.375 -0.0403,0.0049 -0.0554,0.0529 -0.0938,0.0624 -0.0238,0.006 -0.0394,0.0237 -0.0624,0.0313 -4.7098,1.9886 -3.3265,1.0776 -4.875,2.0625 -1.4328,0.9113 -2.7744,1.9618 -4.1563,2.9375 2.5257,-0.8973 5.2393,-1.8561 9.375,-3.1563 0.0236,-0.0012 0.0387,0.0343 0.0625,0.0313 2.411,-0.1589 1.6167,-0.2036 2.4062,-0.1563 1.5958,0.0958 3.149,0.5115 4.75,0.5938 4.6204,0.2374 8.7213,-0.4941 12.4063,-3.4375 1.1018,-0.88 2.0874,-1.9079 2.6563,-3.2187 1.0164,-2.3424 0.6479,-4.6041 -0.2813,-6.9376 -0.767,-1.9261 -2.197,-4.4325 -0.0625,-6 1.5374,-1.1289 3.5556,-1.5146 5.375,-1.9062 0.9076,-0.1954 1.8069,-0.3261 2.7188,-0.5 4.0205,-0.7669 8.5611,-1.8307 10.9374,-5.5 0.386,-0.5959 0.8402,-1.3021 1,-2 0.2291,-1.0001 0.0356,-2.2133 0,-3.2188 -0.0308,-0.8736 0.0283,-2.3159 -0.3124,-3.125 -0.2636,-0.6259 -0.8202,-1.1328 -1.375,-1.5 -2.3645,-1.5645 -5.8243,-0.8514 -7.8438,-3.0312 -0.4385,-0.4733 -0.7433,-1.0066 -1,-1.5938 -0.2304,-0.527 -0.4406,-1.0921 -0.5625,-1.6562 -0.2809,-1.3003 -0.0903,-2.3658 0.75,-3.4062 1.5249,-1.888 3.0873,-3.1458 3.8437,-5.5938 0.2981,-0.9645 0.1854,-2.121 0.0313,-3.0938 -0.3954,-2.4956 -1.5645,-6.1898 -4.7813,-5.75 z M 47.4375,96.6875 c -3.3403,1.1867 -5.7504,2.1093 -7.1563,2.6875 0.9911,0.1043 1.9997,0.0296 3,-0.3438 1.5251,-0.5691 2.8508,-1.422 4.1563,-2.3437 z"
   fill="#0a0809"
   stroke="none"
   id="path1488" />
</g>
<path
   d="m 45.2325,58.6911 c -0.3335,-1.8791 -2.6353,-5.4558 -5.4847,-4.306 -2.3716,0.957 -6.2286,4.4366 -7.9875,6.4349 -0.5568,0.6325 -1.5626,1.3673 -1.284,2.124 0.3236,0.8791 2.2531,-0.3203 2.9833,-0.7068 1.7754,-0.9396 3.1882,-2.6994 4.8399,-3.5971 2.0467,-1.1124 3.3893,0.5332 5.032,0.4166 0.6087,-0.0432 1.9953,0.1656 1.901,-0.3656 z"
   fill="#ecd8d8"
   fill-rule="nonzero"
   opacity="1"
   stroke="none"
   id="path1492" />
<path
   d="m 39.1741,94.4699 c -1.2004,1.8624 -3.8798,-0.3026 -4.7554,-1.9095 -1.4658,-2.6903 -2.4565,-7.0308 -1.2689,-9.9654 0.3847,-0.9505 1.7658,-2.0892 1.9319,-1.9867 0.3278,0.2022 -0.4137,6.0478 0.4012,7.5936 1.3138,2.4917 5.809,2.9822 3.6912,6.268 z"
   fill="#ecd8d8"
   fill-rule="nonzero"
   opacity="1"
   stroke="none"
   id="path1494" />
<path
   d="m 88.6647,55.5274 c -1.6318,-1.1612 0.2105,0.3841 0.9337,1.8633 0.6221,1.2726 0.7071,3.4739 -0.0345,4.7372 -1.584,2.6983 -6.3407,2.5686 -8.8857,3.0662 -3.4445,0.6733 -6.5693,2.7953 -8.4576,5.689 -2.7072,4.1486 1.4857,8.9085 0.0493,13.2634 -1.0231,3.102 -3.6786,6.0466 -5.7978,7.8029 -0.9168,0.7599 4.4237,0.0269 5.6139,-0.5162 4.0395,-1.8431 4.8977,-2.2001 6.1301,-6.8399 0.2927,-1.1022 -2.2523,-5.5934 -2.2585,-6.7753 -0.01,-1.9288 0.3117,-4.0953 2.0004,-5.0331 3.0057,-1.6692 8.4403,-2.5543 10.0619,-2.9597 2.906,-0.7264 5.3586,-1.5744 7.651,-3.514 1.9071,-1.6136 2.2947,-5.8313 1.0645,-8.174 -0.4366,-0.8312 -6.6394,-1.5913 -8.0707,-2.6098 z"
   fill="#641919"
   fill-rule="nonzero"
   opacity="1"
   stroke="none"
   id="path1496" />
</g><g
     opacity="1"
     id="g1504"
     transform="translate(-68.965852,-111.37495)"
     style="clip-rule:evenodd;fill-rule:nonzero;stroke-linecap:round;stroke-linejoin:round">
<path
   d="m 168.352,131.388 c -2.996,2.378 -4.412,5.802 -7.347,8.046 -3.101,2.372 -12.127,2.994 -12.127,-2.798 0,-2.008 2.401,-7.328 3.731,-8.863 2.276,-2.626 6.103,-2.273 8.163,-5.364 1.897,-2.846 -0.318,-7.058 2.799,-8.862 1.732,-1.003 6.017,-1.656 7.929,-0.7 2.103,1.051 2.92,3.636 5.364,4.665 2.278,0.959 7.94,-0.519 6.297,3.498 -2.686,6.566 -9.905,6.486 -14.809,10.378 z"
   fill="#a12424"
   fill-rule="nonzero"
   stroke="none"
   id="path1500" />
<path
   d="m 168.844,111.375 c -1.317,0.004 -2.638,0.253 -3.813,0.563 -0.836,0.22 -1.707,0.542 -2.406,1.062 -1.983,1.477 -1.79,3.974 -1.937,6.188 -0.053,0.78 -0.12,1.977 -0.657,2.624 -0.336,0.406 -0.634,0.841 -1.031,1.188 -1.562,1.365 -3.917,1.701 -5.656,2.875 -1.725,1.165 -2.703,3.033 -3.563,4.875 -0.662,1.419 -1.259,2.88 -1.625,4.406 -0.771,3.214 0.844,5.789 4.094,6.625 1.59,0.409 1.746,0.143 4.312,-1.75 -2.794,0.403 -6.747,0.032 -6.75,-3.406 0,-0.461 0.129,-0.934 0.25,-1.375 0.508,-1.834 1.299,-3.62 2.219,-5.281 0.485,-0.875 1.008,-1.672 1.813,-2.281 1.374,-1.042 3.133,-1.427 4.625,-2.25 1.08,-0.597 1.997,-1.454 2.781,-2.407 1.19,-1.445 1.1,-3.674 1.188,-5.406 0.055,-1.091 0.13,-2.362 1.093,-3.063 1.39,-1.011 3.551,-1.235 5.188,-1.218 0.869,0.009 1.762,0.099 2.5,0.594 1.086,0.728 1.772,1.937 2.687,2.843 0.655,0.649 1.431,1.171 2.25,1.594 1.433,0.74 3.401,0.491 4.938,0.719 0.544,0.08 1.236,0.203 1.125,0.875 -0.12,0.722 -0.53,1.418 -0.907,2.031 -1.819,2.96 -5.148,4.221 -8.187,5.531 -0.924,0.399 0.01,0 -5.594,3.063 -0.059,0.042 -0.078,0.104 -0.125,0.156 -1.821,1.765 -1.367,1.244 -2,1.969 -0.813,0.932 -1.582,1.891 -2.344,2.843 1.65,-1.036 3.017,-1.922 5.407,-3.312 0.071,-0.029 0.153,-0.016 0.219,-0.062 3.846,-2.25 2.478,-1.621 3.843,-2.25 4.148,-1.912 8.703,-3.315 10.907,-7.688 0.309,-0.614 0.613,-1.281 0.718,-1.969 0.49,-3.186 -3.181,-3.228 -5.312,-3.375 -0.538,-0.037 -1.29,0.009 -1.782,-0.25 -0.334,-0.176 -0.69,-0.344 -1,-0.562 -1.464,-1.035 -2.27,-2.782 -3.781,-3.782 -1.074,-0.71 -2.37,-0.941 -3.687,-0.937 z m -5.532,24.187 c -3.181,2.001 -5.481,3.533 -6.75,4.469 0.341,-0.049 0.737,-0.056 1.032,-0.125 0.94,-0.22 2.057,-0.549 2.812,-1.187 1.117,-0.944 2.015,-2.043 2.906,-3.157 z"
   fill="#0a0809"
   stroke="none"
   id="path1502" />
</g><g
     opacity="1"
     id="g1510"
     transform="matrix(2.7712932,0,0,3.1281965,-354.57226,-457.96052)"
     style="clip-rule:evenodd;fill-rule:nonzero;stroke-linecap:round;stroke-linejoin:round">
<path
   d="m 187.324,147.83 c -0.868,0.179 -1.861,0.162 -2.565,0.7 -2.501,1.912 -3.26,7.229 1.166,6.297 4.387,-0.924 2.399,-2.766 4.897,-4.431 0.812,-0.541 3.783,0.401 4.198,-1.4 0.165,-0.714 -0.609,-1.388 -1.166,-1.865 -2.099,-1.8 -4.207,0.22 -6.53,0.699 z"
   fill="#761919"
   fill-rule="nonzero"
   stroke="none"
   id="path1506" />
<path
   d="m 187.156,147.125 c -0.026,0.007 -0.006,0.053 -0.031,0.063 -1.536,0.27 -1.217,0.139 -1.781,0.312 -1.118,0.343 -1.945,1.255 -2.5,2.25 -1.1,1.971 -1.376,5.395 1.562,5.844 0.747,0.114 1.496,-0.035 2.219,-0.219 1.097,-0.279 2.204,-0.735 2.844,-1.719 0.486,-0.748 0.588,-1.695 1.281,-2.312 1.266,-1.129 3.617,0.311 4.75,-1.594 0.356,-0.598 0.036,-0.641 -1.344,-0.875 -0.013,0.096 0.105,0.194 0,0.281 -0.929,0.771 -2.712,-0.088 -3.75,0.656 -0.58,0.416 -1.051,0.878 -1.406,1.5 -0.336,0.59 -0.43,1.339 -0.906,1.844 -0.567,0.601 -1.537,0.844 -2.313,1 -0.393,0.079 -0.787,0.12 -1.187,0.063 -1.656,-0.237 0.005,-0.011 2.844,-5.719 0.026,-0.004 0.036,0.038 0.062,0.031 2.232,-0.784 1.612,-0.533 2.219,-0.781 -0.98,-0.252 -1.129,-0.165 -2.5,-0.594 -0.037,-0.011 -0.026,-0.019 -0.063,-0.031 z m 2.563,0.625 c 1.746,0.45 3.677,0.996 4.437,1.125 0.022,-0.149 0.118,-0.294 0,-0.437 -0.487,-0.594 -1.169,-1.229 -1.968,-1.313 -0.807,-0.085 -1.621,0.297 -2.344,0.594 -0.041,0.016 -0.092,0.017 -0.125,0.031 z"
   fill="#0a0809"
   stroke="none"
   id="path1508" />
</g><g
     opacity="1"
     id="g1522"
     transform="translate(65.813697,-57.128876)"
     style="clip-rule:evenodd;fill-rule:nonzero;stroke-linecap:round;stroke-linejoin:round">
<g
   opacity="1"
   id="g1516">
<path
   d="m 179.045,88.7087 c -2.612,2.6636 -6.925,7.1133 -11.078,7.1133 -6.047,0 -8.453,-8.0387 -7.697,-12.8272 0.437,-2.7671 3.071,-4.4921 4.198,-6.9967 0.299,-0.6635 1.182,-3.9457 1.633,-4.4312 3.031,-3.2648 9.322,0.7379 12.827,0 4.936,-1.0392 4.977,-8.6347 8.629,-11.4278 3.279,-2.5071 13.111,-3.7241 12.827,2.7986 -0.159,3.6673 -6.032,4.5622 -5.83,8.396 0.202,3.8487 8.4,4.9594 3.965,10.0285 -2.356,2.6919 -6.022,2.0086 -9.096,2.3322 -4.235,0.4458 -7.442,2.0203 -10.378,5.0143 z"
   fill="#761919"
   fill-rule="nonzero"
   stroke="none"
   id="path1512" />
<path
   d="m 192.375,57.2812 c -1.528,0.2332 -3.018,0.7218 -4.313,1.4063 -2.865,1.5154 -3.963,4.6515 -5.218,7.4375 -0.707,1.5691 -1.563,3.3843 -3.188,4.1875 -1.476,0.73 -3.204,0.2807 -4.718,-0.0625 -2.791,-0.6323 -6.521,-1.8762 -9.032,0.2188 -0.918,0.7662 -1.198,1.8419 -1.562,2.9374 -0.236,0.7103 -0.494,1.4427 -0.719,2.1563 -0.197,0.6251 -0.999,1.6578 -1.406,2.1875 -1.04,1.3516 -2.191,2.6433 -2.688,4.3125 -0.412,1.3845 -0.398,2.9209 -0.25,4.3437 0.243,2.3364 0.478,2.4665 2.344,2.2813 -0.306,-1.0793 -0.478,-2.1565 -0.531,-3.125 -0.059,-1.0638 -0.059,-2.236 0.312,-3.25 0.481,-1.3113 1.479,-2.3501 2.313,-3.4375 0.588,-0.7665 1.101,-1.5887 1.562,-2.4375 0.549,-1.0102 0.771,-2.2736 1.157,-3.3437 0.116,-0.3224 0.188,-0.6726 0.406,-0.9376 1.071,-1.3071 3.292,-0.9816 4.718,-0.7187 3.086,0.5686 6.604,2.1425 9.532,0.25 2.794,-1.8061 3.698,-5.504 5.125,-8.2813 0.546,-1.0635 1.253,-2.104 2.281,-2.75 2.204,-1.3857 5.433,-1.9573 7.969,-1.375 1.907,0.4381 3.25,1.9181 2.906,3.9376 -0.238,1.3978 -1.662,2.2583 -2.656,3.0937 -0.497,0.4171 -1.057,0.8081 -1.5,1.2813 -0.468,0.4993 -0.937,1.0015 -1.219,1.625 -0.28,0.6174 -0.327,1.3267 -0.406,2 -0.048,0.4073 0.096,1.021 0.25,1.4062 0.7,1.7519 2.451,2.7778 3.781,4 0.953,0.8758 1.606,1.8096 0.906,3.0625 -2.073,3.712 -0.025,0.0057 -20.187,8.3125 -0.045,0.0431 -0.028,0.1075 -0.063,0.1562 -1.036,0.9548 -0.592,0.5188 -1.093,1 0.424,0.0498 0.647,0.0361 1.093,0.0938 0.033,0.0475 0.021,0.1137 0.063,0.1562 0.38,0.3907 0.984,0.3808 1.375,0 8.801,-4.6137 5.212,-4.0339 8.812,-4.5937 4.331,-0.6733 8.746,0.5034 11.5,-3.8125 0.323,-0.5066 0.6,-1.0945 0.719,-1.6875 0.468,-2.3379 -1.471,-3.8931 -3.062,-5.2187 -0.681,-0.567 -1.425,-1.1267 -1.876,-1.9063 -0.084,-0.1469 -0.305,-0.5645 -0.281,-0.75 0.062,-0.4787 0.055,-0.9648 0.25,-1.4063 0.187,-0.4218 0.519,-0.7664 0.844,-1.0937 0.407,-0.4101 0.9,-0.7549 1.344,-1.125 1.41,-1.176 3.001,-2.3135 3.343,-4.25 0.544,-3.0783 -1.446,-5.4774 -4.406,-6.1563 -1.435,-0.3292 -3.003,-0.3581 -4.531,-0.125 z m -15.187,31.875 c -8.974,-1.052 -13.542,-0.6693 -15.563,-0.4687 0.892,3.1482 2.925,6.2307 6.344,6.1875 0.62,-0.0078 1.221,-0.0957 1.812,-0.2812 1.372,-0.4304 2.608,-1.2379 3.75,-2.0938 1.313,-0.9835 1.981,-1.7348 3.657,-3.3438 z"
   fill="#0a0809"
   stroke="none"
   id="path1514" />
</g>
<path
   d="m 172.165,73.8582 c 0.655,-1.1179 -1.169,-0.6893 -1.5,-0.5499 -0.917,0.386 -3.586,3.8223 -1.7,4.1995 1.428,0.2856 1.695,-2.4409 2.3,-2.9997 0.272,-0.2509 0.713,-0.3306 0.9,-0.6499 z"
   fill="#d38e8e"
   fill-rule="nonzero"
   opacity="1"
   stroke="none"
   id="path1518" />
<path
   d="m 189.313,63.9594 c -0.649,-2.2025 1.692,-2.1148 3.649,-2.3497 0.392,-0.047 1.5,-0.3514 1.7,0.3999 0.587,2.2005 -5.061,2.9284 -5.349,1.9498 z"
   fill="#d38e8e"
   fill-rule="nonzero"
   opacity="1"
   stroke="none"
   id="path1520" />
</g><path
     d="m 82.482515,27.766881 c -3.914,3.241 -2.682,-7.399 -0.5,-7.399 1.654,0 -1.225,4.037 -0.3,5.299 0.186,0.253 0.688,0.206 0.8,0.5 0.19,0.498 0.411,1.26 0,1.6 z"
     fill="#d38e8e"
     fill-rule="nonzero"
     opacity="1"
     stroke="none"
     id="path1524"
     style="clip-rule:evenodd;fill-rule:nonzero;stroke-linecap:round;stroke-linejoin:round" /><g
     opacity="1"
     id="g1534"
     transform="translate(101.73755,-117)"
     style="clip-rule:evenodd;fill-rule:nonzero;stroke-linecap:round;stroke-linejoin:round">
<g
   opacity="1"
   id="g1530">
<path
   d="m 207.26176,118.35907 c -5.25507,3.19858 -7.09094,10.24874 -7.6102,16.09378 -0.79166,8.88171 9.33256,12.3192 17.20665,9.28784 4.04629,-1.5608 5.29195,-6.60421 8.60049,-9.28784 2.40336,-1.94569 10.74564,-1.68821 9.92844,-7.42708 -0.28943,-2.02533 -2.98223,-2.99685 -4.63366,-4.33468 -9.66171,-7.83321 -7.74072,0.67688 -17.20381,-1.23696 -2.3154,-0.46984 -4.30449,-4.30548 -6.28791,-3.09506 z"
   fill="#761919"
   fill-rule="nonzero"
   stroke="none"
   id="path1526"
   style="stroke-width:2.74444" />
<path
   d="m 206.91558,117 c -0.14755,0.0372 -0.0511,0.26013 -0.17592,0.3318 -0.12485,0.0451 -0.24119,-0.16192 -0.35469,-0.0823 -7.80031,13.97024 -6.8611,8.43842 -7.80315,14.01802 -1.09811,6.49804 0.4313,12.10949 7.80315,14.26754 1.4074,0.41144 2.87156,0.63707 4.34422,0.66361 1.90113,0.0345 3.7824,-0.2681 5.58705,-0.82818 4.64501,-1.44932 5.93323,-5.25046 8.77925,-8.5446 3.10991,-3.60206 10.24908,-2.3996 11.70472,-7.54919 1.19176,-4.22054 -2.15366,-5.51324 -5.05643,-7.71376 -2.16502,-1.64309 -4.72162,-3.70293 -7.71235,-3.64984 -1.79331,0.0292 -3.06451,0.96356 -4.61095,1.65902 -1.45281,0.65033 -2.92831,0.87065 -4.52299,0.66361 -2.16218,-0.28403 -2.75522,-0.9848 -6.47235,-2.65443 -0.0199,-0.0265 -0.0681,0.0239 -0.0908,0 -0.83991,-0.37693 0.009,-0.003 -1.41876,-0.58132 z m 1.15487,2.98623 c 1.42159,0.76978 1.73088,0.84411 2.21609,1.24493 1.26837,1.04053 2.47998,1.60592 4.1683,1.82359 2.18488,0.28402 4.30166,-0.0239 6.29643,-0.91047 1.12933,-0.50434 2.35229,-1.58469 3.72281,-1.41216 2.45728,0.31323 4.40665,2.45269 6.29643,3.73213 1.59468,1.08035 3.70579,1.89791 3.1014,4.06658 -0.43414,1.56346 -2.45729,2.25892 -3.89874,2.73671 -2.97655,0.98479 -5.10184,1.39358 -7.18457,3.81441 -2.35229,2.73937 -3.50716,6.51396 -7.3605,7.71642 -1.48685,0.46452 -3.12977,0.6875 -4.69891,0.66361 -1.19459,-0.0186 -2.31257,-0.16723 -3.45608,-0.49904 -6.60288,-1.90853 -0.21565,-0.29464 0.79734,-22.97671 z"
   fill="#0a0809"
   stroke="none"
   id="path1528"
   style="stroke-width:2.74444" />
</g>
<path
   d="m 207.33837,126.82934 c -1.39038,-0.40613 -4.22789,10.81679 -1.7025,11.67682 4.62797,1.57408 3.82779,-11.05834 1.7025,-11.67682 z"
   fill="#d38e8e"
   fill-rule="nonzero"
   opacity="1"
   stroke="none"
   id="path1532"
   style="stroke-width:2.74444" />
</g><g
     opacity="1"
     id="g1544"
     style="clip-rule:evenodd;fill-rule:nonzero;stroke-linecap:round;stroke-linejoin:round"
     transform="translate(159,-70)">
<g
   opacity="1"
   id="g1540"
   transform="translate(-4.4571315,-18.99597)">
<path
   d="m 244.48189,104.98195 c -3.46882,3.38146 -8.48816,5.59655 -12.9598,8.16973 -7.54886,4.34324 -11.39869,-0.23694 -9.25549,-6.24763 2.26228,-6.34178 9.59417,-5.06971 15.42846,-7.207749 4.74946,-1.740592 5.22573,-10.264709 11.10765,-9.610339 1.87597,0.208714 3.59053,1.889349 3.70166,3.363536 0.26989,3.572457 -5.03786,8.621982 -8.02248,11.532452 z"
   fill="#a31f1f"
   fill-rule="nonzero"
   stroke="none"
   id="path1536"
   style="stroke-width:2.33486" />
<path
   d="m 247.19398,89.068556 c -5.38448,0.816109 -5.64908,6.818141 -9.26078,9.271616 -1.3362,0.909855 -3.45824,1.170078 -5.12518,1.480986 -3.42914,0.639332 -7.07524,1.171722 -9.5095,3.348082 -3.62493,3.24115 -4.99553,13.21308 3.38945,12.68357 3.03489,-0.19161 0.0159,-0.0144 18.77027,-10.23689 0.0212,-0.0179 0.0635,0.0192 0.0847,0 8.31618,-11.692952 8.11509,-7.502387 8.26591,-11.654011 0.10319,-2.736775 -2.95816,-5.447177 -6.61484,-4.893353 z m 0.82818,1.996076 c 0.21432,0.439063 -1.92889,3.525275 -4.54837,13.263558 -10.4541,6.73408 -6.69687,4.72317 -10.41705,6.76066 -1.81776,0.99557 -3.76782,2.34098 -6.03539,2.7036 -2.18554,0.35026 -3.49263,-0.7953 -3.88688,-2.38177 -0.52919,-2.11702 0.12436,-4.74068 1.73574,-6.50291 3.16983,-3.46779 9.91961,-2.49592 14.13988,-4.63581 3.00579,-1.524661 4.02977,-4.596244 5.70464,-6.889424 0.55036,-0.754091 1.23036,-1.612231 2.23318,-2.060359 0.67206,-0.301224 1.00281,-0.40383 1.07425,-0.257545 z"
   fill="#0a0809"
   stroke="none"
   id="path1538"
   style="stroke-width:2.33486" />
</g>
<path
   d="m 221.51239,92.489847 c -2.30726,-1.640046 0.89168,-3.758301 2.38134,-6.592325 2.10617,-4.011313 4.15147,1.455232 3.43972,2.678261 -0.52125,0.888427 -4.89499,4.573173 -5.82106,3.914064 z"
   fill="#d38e8e"
   fill-rule="nonzero"
   opacity="1"
   stroke="none"
   id="path1542"
   style="stroke-width:2.33486" />
</g><g
     opacity="1"
     id="g1556"
     transform="translate(336.81205,-81.43059)"
     style="clip-rule:evenodd;fill-rule:nonzero;stroke-linecap:round;stroke-linejoin:round">
<g
   opacity="1"
   id="g1550">
<path
   d="m 128.708,104.529 c -0.152,0.475 -2.21,2.807 -3.188,3.887 -2.06,2.278 -4.495,3.371 -7.463,3.965 -0.69,0.138 -1.531,0.649 -2.099,0.233 -1.885,-1.382 -2.208,-5.776 -1.399,-7.696 0.862,-2.047 3.74,-2.943 4.431,-5.1313 1.633,-5.1699 -5.557,-12.7745 1.633,-16.5587 0.718,-0.378 1.529,-0.5793 2.332,-0.6997 8.383,-1.2575 3.417,5.9064 7.463,7.9296 3.221,1.6103 8.665,-4.1389 11.428,0.4664 0.36,0.6 0.201,1.4288 0,2.099 -2.134,7.1117 -7.903,5.737 -7.903,5.737 0,0 -2.064,1.0037 -3.489,2.5637 -0.841,0.921 -1.594,2.73 -1.746,3.205 z"
   fill="#8c1e1e"
   fill-rule="nonzero"
   stroke="none"
   id="path1546" />
<path
   d="m 124.344,81.4375 c -2.699,0.1047 -5.538,1.0637 -7.032,3.4687 -2.654,4.2736 1.228,9.0782 0.969,13.5 -0.138,2.3688 -2.238,3.1568 -3.656,4.7188 -1.089,1.199 -1.433,2.749 -1.437,4.344 -0.003,0.963 0.123,1.912 0.374,2.843 0.335,1.236 1.074,3.002 2.469,3.344 0.783,0.192 1.513,-0.205 2.25,-0.375 0.495,-0.114 0.98,-0.206 1.469,-0.343 1.951,-0.547 3.776,-1.449 5.312,-2.782 0.781,-0.677 0.949,-1.058 4.032,-4.718 0.242,-0.104 0.434,-0.296 0.531,-0.563 2.579,-3.829 1.266,-2.784 2.594,-3.844 0.432,-0.345 0.871,-0.65 1.343,-0.937 0.166,-0.1012 0.33,-0.2196 0.5,-0.3128 0.008,-0.0042 0.024,0.0043 0.032,0 0.152,0.0212 0.282,0.0519 0.437,0.0626 0.347,0.024 0.716,0.0232 1.063,0 0.977,-0.0656 1.935,-0.3111 2.812,-0.75 2.13,-1.0654 3.477,-3.1062 4.219,-5.3126 0.245,-0.7285 0.483,-1.5042 0.406,-2.2812 -0.064,-0.651 -0.377,-1.2085 -0.781,-1.7188 -2.243,-2.8344 -5.523,-1.3368 -8.344,-0.4374 -0.901,0.2872 -2.146,0.7167 -3.062,0.25 -1.432,-0.7293 -1.323,-2.5997 -1.5,-3.9688 -0.105,-0.8106 -0.245,-1.6259 -0.656,-2.3438 -0.885,-1.5438 -2.692,-1.9078 -4.344,-1.8437 z M 124,83.375 c 0.463,-0.0361 0.945,-0.0545 1.406,0 1.981,0.2337 1.937,1.7708 2.125,3.4688 0.173,1.5529 0.497,3.1494 1.844,4.125 3.091,2.2389 6.634,-1.1034 9.875,-0.8438 0.426,0.0341 0.884,0.2751 1.188,0.5625 0.948,0.8982 0.649,1.703 0.218,2.8437 -0.244,0.6476 -0.551,1.2682 -0.937,1.8438 -0.212,0.3154 -0.456,0.6019 -0.719,0.875 -0.941,0.977 -2.213,1.5355 -3.562,1.625 -0.673,0.0446 -1.285,-0.1589 -1.938,0 -0.638,0.1551 -0.004,0.0029 -5.719,6.313 -0.011,0.031 0.008,0.061 0,0.093 -0.066,0.102 -0.138,0.195 -0.156,0.219 -0.104,0.141 -0.212,0.311 -0.313,0.438 -0.164,0.206 -0.424,0.488 -0.593,0.687 -0.615,0.723 -1.231,1.459 -1.875,2.156 -1.925,2.083 -4.289,3.057 -7,3.688 -0.267,0.062 -1.103,0.434 -1.344,0.375 -0.329,-0.081 -0.831,-1.124 -0.938,-1.406 -0.599,-1.584 -0.73,-3.598 -0.124,-5.188 0.344,-0.905 1.304,-1.533 2,-2.125 1.25,-1.064 2.361,-2.166 2.656,-3.8438 0.595,-3.3875 -1.27,-6.6115 -1.688,-9.9062 -0.353,-2.7859 0.873,-4.8691 3.625,-5.6562 0.645,-0.1845 1.301,-0.2918 1.969,-0.3438 z"
   fill="#0a0809"
   stroke="none"
   id="path1548" />
</g>
<path
   d="m 120.671,88.2065 c -0.868,0.3386 -0.581,-0.9828 0,-2.0997 2.546,-4.8973 5.826,1.3504 3.2,2.4997 -2.339,1.0231 -0.702,-1.3749 -3.2,-0.4 z"
   fill="#d38e8e"
   fill-rule="nonzero"
   opacity="1"
   stroke="none"
   id="path1552" />
<path
   d="m 116.342,111.876 c 0,0 2.913,-0.008 5.667,-1.751 2.754,-1.743 5.571,-5.412 5.571,-5.412 l 2.897,-4.648 c 0,0 -5.193,3.236 -5.539,4.203 -1.656,4.616 -8.596,7.608 -8.596,7.608 z"
   fill="#491414"
   fill-rule="nonzero"
   opacity="1"
   stroke="none"
   id="path1554" />
</g><g
     opacity="1"
     id="g1570"
     transform="translate(299.99063,-134.60779)"
     style="clip-rule:evenodd;fill-rule:nonzero;stroke-linecap:round;stroke-linejoin:round">
<path
   d="m 235.17,150.424 c -4.14,-0.602 -6.014,5.528 -10.586,5.337 -4.397,-0.183 -4.2,-6.432 -2.491,-9.073 1.215,-1.877 4.519,-3.22 6.583,-3.736 1.754,-0.439 3.404,0.293 4.982,-0.89 1.908,-1.432 2.3,-5.781 3.202,-6.405 0.3,-0.207 3.275,0.15 3.558,0.178 2.985,0.298 7.942,2.606 9.786,5.16 0.963,1.334 0.711,4.023 0.711,5.515 0,8.037 -10.039,4.744 -15.745,3.914 z"
   fill="#a12424"
   fill-rule="nonzero"
   stroke="none"
   id="path1566" />
<path
   d="m 237.906,134.625 c -0.578,-0.026 -1.236,-0.075 -1.718,0.313 -0.596,0.478 -0.8,1.34 -1.032,2.031 -0.358,1.066 -0.69,2.143 -1.187,3.156 -0.182,0.37 -0.45,0.897 -0.813,1.125 -1.179,0.742 -2.374,0.516 -3.687,0.625 -0.759,0.063 -1.499,0.262 -2.219,0.5 -1.986,0.657 -4.142,1.625 -5.531,3.25 -2.175,2.544 -2.56,8.363 0.531,10.375 1.127,0.734 2.246,0.721 3.531,0.5 0.407,-0.07 0.832,-0.076 1.219,-0.219 0.38,-0.14 0.715,-0.385 1.062,-0.593 1.105,-0.665 0.21,-0.155 6.938,-4.282 10.198,1.379 6.809,1.463 10.219,1.375 1.494,-0.038 3.044,-0.31 4.312,-1.156 2.631,-1.755 2.497,-5.169 2.375,-7.969 -0.048,-1.105 -0.234,-2.336 -0.906,-3.25 -0.997,-1.354 -2.43,-2.359 -3.875,-3.187 -1.892,-1.085 -4.014,-1.964 -6.187,-2.281 -1.006,-0.147 -2.017,-0.268 -3.032,-0.313 z m -0.562,1.937 c 0.002,-0.004 0.029,0.005 0.031,0 0.138,0 0.316,-0.005 0.437,0 0.514,0.025 1.02,0.075 1.532,0.126 0.978,0.096 1.93,0.219 2.875,0.5 2.213,0.656 4.448,1.745 6.187,3.281 0.414,0.365 0.907,0.807 1.156,1.312 0.289,0.586 0.349,1.326 0.376,1.969 0.059,1.463 0.224,3.17 -0.25,4.594 -1.015,3.044 -5.332,2.576 -7.782,2.25 -0.509,-0.068 -1.181,-0.192 -1.687,-0.282 -0.572,-0.1 0.002,-0.003 -4.875,-0.874 -0.376,-0.063 -0.692,0.153 -0.906,0.437 -4.863,2.427 -3.882,1.363 -5.813,3.063 -0.482,0.424 -1.017,0.786 -1.563,1.124 -0.241,0.151 -0.451,0.371 -0.718,0.469 -0.277,0.102 -0.584,0.079 -0.875,0.125 -0.323,0.051 -0.644,0.126 -0.969,0.156 -0.299,0.029 -0.705,-0.126 -0.969,-0.25 -1.121,-0.525 -1.498,-1.828 -1.593,-2.968 -0.119,-1.421 0.117,-3.17 0.937,-4.375 1.196,-1.757 4.324,-3.087 6.375,-3.407 0.976,-0.152 1.993,0.015 2.969,-0.156 0.913,-0.159 1.154,-0.286 1.937,-0.781 1.506,-0.951 2.116,-3.127 2.625,-4.687 0.168,-0.516 0.307,-1.037 0.531,-1.532 0.014,-0.028 0.018,-0.065 0.032,-0.094 z"
   fill="#0a0809"
   stroke="none"
   id="path1568" />
</g><g
     opacity="1"
     id="g1580"
     transform="translate(-205.97057,-93.168899)"
     style="clip-rule:evenodd;fill-rule:nonzero;stroke-linecap:round;stroke-linejoin:round">
<g
   opacity="1"
   id="g1576"
   transform="translate(600,-70)">
<path
   d="m 207.256,171.685 c 0.334,-1.371 -0.12,-3.425 0.444,-4.715 2.843,-6.497 12.752,-0.368 15.657,2.669 2.732,2.856 2.806,7.517 2.135,11.208 -0.781,4.296 -11.291,7.97 -14.767,5.516 -0.668,-0.472 -1.568,-2.388 -1.957,-3.025 -2.322,-3.799 -2.579,-7.287 -1.512,-11.653 z"
   fill="#a12424"
   fill-rule="nonzero"
   stroke="none"
   id="path1572" />
<path
   d="m 212.719,163.188 c -1.664,-0.11 -3.294,0.239 -4.563,1.468 -1.016,0.985 -0.089,0.177 -1.781,6.656 -0.025,0.058 -0.08,0.093 -0.094,0.157 0.184,9.392 -0.915,6.34 0.188,9.406 0.429,1.195 1.045,2.238 1.656,3.344 0.537,0.972 1.097,2.319 2.063,2.969 1.467,0.987 3.358,1.054 5.062,0.874 3.066,-0.323 6.263,-1.509 8.688,-3.437 1.055,-0.84 2.074,-1.916 2.437,-3.25 0.384,-1.408 0.454,-2.985 0.437,-4.437 -0.023,-2.126 -0.411,-4.318 -1.468,-6.188 -1.579,-2.794 -5.008,-4.954 -7.844,-6.25 -1.414,-0.647 -3.118,-1.203 -4.781,-1.312 z m -1.031,1.874 c 0.923,-0.081 1.922,0.072 2.781,0.313 2.301,0.645 4.442,1.884 6.343,3.313 0.873,0.654 1.759,1.362 2.407,2.25 2.004,2.745 1.866,6.574 1.312,9.75 -0.253,1.45 -1.786,2.526 -2.937,3.218 -2.151,1.295 -4.734,2.141 -7.25,2.25 -1.063,0.047 -2.145,-0.046 -3.063,-0.625 -0.253,-0.159 -0.476,-0.568 -0.625,-0.812 -0.369,-0.606 -0.679,-1.26 -1.031,-1.875 -0.645,-1.129 -0.004,0.012 -1.406,-10.938 0.01,-0.045 -0.035,-0.08 -0.031,-0.125 1.02,-5.44 -0.277,-4.019 1.062,-5.562 0.647,-0.746 1.514,-1.075 2.438,-1.157 z"
   fill="#0a0809"
   stroke="none"
   id="path1574" />
</g>
<path
   d="m 811.88649,111.54267 c 0.02,1.701 1.14,3.675 3.284,3.382 1.67,-0.228 3.182,-0.889 4.4,-2.036 0.207,-0.194 1.807,-1.169 0.789,-1.576 -0.837,-0.335 -1.964,0.933 -2.628,1.248 -1.057,0.5 -3.548,1.032 -4.597,0.262 -0.464,-0.34 -1.255,-1.876 -1.248,-1.28 z"
   fill="#d38e8e"
   fill-rule="nonzero"
   opacity="1"
   stroke="none"
   id="path1578" />
</g><path
     d="m 544.62646,5.7350863 c -1.62,-1.109 2.541,4.017 1.346,6.0089997 -0.505,0.842 -3.218,2.561 -3.415,3.35 -0.058,0.229 0.4,-0.254 0.591,-0.394 0.313,-0.232 0.601,-0.497 0.919,-0.723 0.987,-0.7 2.122,-1.287 2.759,-2.364 2.038,-3.4499997 0.232,-4.2139997 -2.2,-5.8779997 z"
     fill="#d38e8e"
     fill-rule="nonzero"
     opacity="1"
     stroke="none"
     id="path1582"
     style="clip-rule:evenodd;fill-rule:nonzero;stroke-linecap:round;stroke-linejoin:round" /></g></svg>
