<?xml version="1.0" encoding="UTF-8" standalone="no"?>
<!-- Created with Inkscape (http://www.inkscape.org/) -->

<svg
   width="202.22533mm"
   height="112.05795mm"
   viewBox="0 0 202.22533 112.05795"
   version="1.1"
   id="svg23157"
   inkscape:version="1.2.1 (9c6d41e410, 2022-07-14)"
   sodipodi:docname="chainsaw.svg"
   xmlns:inkscape="http://www.inkscape.org/namespaces/inkscape"
   xmlns:sodipodi="http://sodipodi.sourceforge.net/DTD/sodipodi-0.dtd"
   xmlns="http://www.w3.org/2000/svg"
   xmlns:svg="http://www.w3.org/2000/svg">
  <sodipodi:namedview
     id="namedview23159"
     pagecolor="#ffffff"
     bordercolor="#000000"
     borderopacity="0.25"
     inkscape:showpageshadow="2"
     inkscape:pageopacity="0.0"
     inkscape:pagecheckerboard="0"
     inkscape:deskcolor="#d1d1d1"
     inkscape:document-units="mm"
     showgrid="false"
     inkscape:zoom="0.50646226"
     inkscape:cx="365.27895"
     inkscape:cy="447.2199"
     inkscape:window-width="1920"
     inkscape:window-height="991"
     inkscape:window-x="-9"
     inkscape:window-y="-9"
     inkscape:window-maximized="1"
     inkscape:current-layer="layer1" />
  <defs
     id="defs23154" />
  <g
     inkscape:label="Слой 1"
     inkscape:groupmode="layer"
     id="layer1"
     transform="translate(98.928301,-46.729852)">
    <path
       d="m -84.147232,61.500782 c -4.729427,5.320771 19.489473,14.258396 20.099867,16.7005 20.656912,8.945444 12.31514,-57.739566 -20.099867,-16.7005 z"
       fill="#ca2042"
       fill-rule="nonzero"
       opacity="1"
       stroke="#000000"
       stroke-linecap="round"
       stroke-linejoin="round"
       stroke-width="2.604"
       id="path813"
       style="clip-rule:evenodd;fill-rule:nonzero;stroke-linecap:round;stroke-linejoin:round"
       sodipodi:nodetypes="ccc" />
    <path
       d="m -80.729873,68.062449 c 0,0 -6.075363,23.021395 -1.407584,33.160231 6.692636,14.53885 21.181483,15.26646 26.800439,16.59466 10.445221,2.46857 22.356233,-0.13229 30.608323,-3.47398 2.266421,-0.9181 -0.524669,-0.92868 2.271183,-1.96585 4.953,-1.83621 -8.923073,-11.70781 -14.354968,-12.472458 -5.917142,-0.830791 -27.401573,-9.855729 -27.401573,-9.855729 l -0.206639,-11.469687 z"
       fill="#ffdec9"
       fill-rule="nonzero"
       opacity="1"
       stroke="#000000"
       stroke-linecap="round"
       stroke-linejoin="round"
       stroke-width="2.604"
       id="path1443"
       style="clip-rule:evenodd;fill-rule:nonzero;stroke-linecap:round;stroke-linejoin:round" />
    <path
       d="m -69.810519,108.47491 c 0,-2.33363 2.310341,-2.91836 5.065183,-2.91836 2.755106,0 4.604808,1.35202 4.604808,3.68565 0,2.33098 -1.542521,5.67796 -4.297627,5.67796 -2.755106,0 -5.372364,-4.11427 -5.372364,-6.44525 z"
       fill="#f29a7f"
       fill-rule="nonzero"
       opacity="0.366279"
       stroke="none"
       id="path2659"
       style="clip-rule:evenodd;fill-rule:nonzero;stroke-width:0.264583;stroke-linecap:round;stroke-linejoin:round" />
    <g
       opacity="1"
       id="g6651"
       style="clip-rule:evenodd;fill-rule:nonzero;stroke-linecap:round;stroke-linejoin:round"
       transform="matrix(0.26458333,0,0,0.26458333,-158.82376,-2032.2794)">
<path
   d="m 485.6039,8156.8325 c 130.69199,7.866 400.53829,17.1412 467.3541,10.1775 17.18429,121.2709 -373.53865,61.3841 -458.279,78.02 -25.058,-1.55 -18.8481,-87.0175 -9.0751,-88.1975 z"
   fill="#fffdfa"
   fill-rule="nonzero"
   opacity="1"
   stroke="#000000"
   stroke-linecap="butt"
   stroke-linejoin="round"
   stroke-width="9.84188"
   id="path6639"
   sodipodi:nodetypes="cccc" />

<path
   d="m 488.571,8140.61 c 9.162,-17.11 -163.54,0.45 -252.001,-3.88 -10.004,-0.49 -2.692,91.78 -2.692,91.78 0,0 8.478,29 53.675,46.11 5.716,2.16 203.222,1.59 203.222,1.59 0,0 -26.707,-89.84 -2.204,-135.6 z"
   fill="#ee8d10"
   fill-rule="nonzero"
   opacity="1"
   stroke="#000000"
   stroke-linecap="butt"
   stroke-linejoin="round"
   stroke-width="9.84188"
   id="path6641" />

<path
   d="m 241.207,8129.99 c -36.341,-22.86 87.952,-74.92 131.317,-87.89 50.166,-15.02 63.368,8.25 105.664,28.9 42.296,20.65 71.46,54.86 56.802,60.76 -22.005,8.86 -66.556,2.22 -114.148,3.86 -74.552,2.57 -157.453,8.33 -179.635,-5.63 z"
   fill="#132f53"
   fill-rule="nonzero"
   opacity="1"
   stroke="#000000"
   stroke-linecap="butt"
   stroke-linejoin="round"
   stroke-width="9.84188"
   id="path6643" />

<path
   d="m 473.912,8066.28 c 0,0 77.782,-29.13 98.567,-3.13 6.977,8.73 21.756,64.48 21.756,64.48 l 34.814,0.59 -15.079,-103.88 c 0,0 -29.009,-23.52 -75.58,-21.16 -46.572,2.36 -112.118,33.02 -112.118,33.02 l 46.178,30.61 z"
   fill="#b9bed5"
   fill-rule="nonzero"
   opacity="1"
   stroke="#000000"
   stroke-linecap="butt"
   stroke-linejoin="round"
   stroke-width="9.84188"
   id="path6645" />

<path
   d="m 952.423,8165.89 -467.905,-1.07 7.816,-25.12 c 152.33392,0.4663 389.59374,-37.2901 460.089,26.19 z"
   fill="#91efe8"
   fill-opacity="0.945947"
   fill-rule="nonzero"
   opacity="1"
   stroke="#000000"
   stroke-linecap="butt"
   stroke-linejoin="round"
   stroke-width="9.84188"
   id="path6647"
   sodipodi:nodetypes="cccc" />

<path
   d="m 298.317,8145.19 c 0,0 -7.003,60.82 12.788,73.61 8.692,5.61 163.827,10.33 163.827,10.33 l 6.899,41.39 c 0,0 -148.2,14.82 -187.002,-1.03 -41.182,-16.83 -45.7,-27.72 -52.083,-39.94 -16.065,-30.76 -1.511,-85.7 -1.511,-85.7 z"
   fill="#cb5135"
   fill-opacity="0.543863"
   fill-rule="nonzero"
   opacity="0.97093"
   stroke="none"
   id="path6649" />

</g>
    <path
       d="m -27.111003,106.14922 c 1.664229,1.11654 6.949545,5.28637 6.949545,5.28637 0,0 18.0882398,-20.595163 13.8493502,-26.394829 -11.2900352,-15.443729 -29.0967582,14.40127 -29.0967582,14.40127 0,0 6.633634,5.587999 8.297863,6.707189 z"
       fill="#ffdec9"
       fill-rule="nonzero"
       opacity="1"
       stroke="#000000"
       stroke-linecap="butt"
       stroke-linejoin="round"
       stroke-width="2.604"
       id="path6757"
       style="clip-rule:evenodd;fill-rule:nonzero;stroke-linecap:round;stroke-linejoin:round" />
  </g>
</svg>
