<?xml version="1.0" encoding="UTF-8" standalone="no"?>
<!-- Created with Inkscape (http://www.inkscape.org/) -->

<svg
   width="500mm"
   height="119.28448mm"
   viewBox="0 0 500 119.28448"
   version="1.1"
   id="svg23651"
   sodipodi:docname="chainsaw.svg"
   inkscape:version="1.2.1 (9c6d41e410, 2022-07-14)"
   xmlns:inkscape="http://www.inkscape.org/namespaces/inkscape"
   xmlns:sodipodi="http://sodipodi.sourceforge.net/DTD/sodipodi-0.dtd"
   xmlns="http://www.w3.org/2000/svg"
   xmlns:svg="http://www.w3.org/2000/svg">
  <sodipodi:namedview
     id="namedview23653"
     pagecolor="#ffffff"
     bordercolor="#000000"
     borderopacity="0.25"
     inkscape:showpageshadow="2"
     inkscape:pageopacity="0.0"
     inkscape:pagecheckerboard="0"
     inkscape:deskcolor="#d1d1d1"
     inkscape:document-units="mm"
     showgrid="false"
     inkscape:zoom="1.0129245"
     inkscape:cx="544.9567"
     inkscape:cy="390.45358"
     inkscape:window-width="1920"
     inkscape:window-height="991"
     inkscape:window-x="-9"
     inkscape:window-y="-9"
     inkscape:window-maximized="1"
     inkscape:current-layer="layer1" />
  <defs
     id="defs23648" />
  <g
     inkscape:label="Слой 1"
     inkscape:groupmode="layer"
     id="layer1"
     transform="translate(207.89873,-72.428091)">
    <path
       d="m -189.7003,98.737749 c 0,0 -6.07537,23.021391 -1.40759,33.160231 6.69264,14.53885 21.18149,15.26646 26.80044,16.59466 10.44522,2.46857 22.35624,-0.13229 30.60832,-3.47398 2.26643,-0.9181 -0.52466,-0.92868 2.27119,-1.96585 4.953,-1.83621 -8.92307,-11.70781 -14.35497,-12.47246 -5.91714,-0.83079 -27.40157,-9.85573 -27.40157,-9.85573 l -0.20664,-11.46968 z"
       fill="#ffdec9"
       fill-rule="nonzero"
       opacity="1"
       stroke="#000000"
       stroke-linecap="round"
       stroke-linejoin="round"
       stroke-width="2.604"
       id="path1443"
       style="clip-rule:evenodd;fill-rule:nonzero;stroke-linecap:round;stroke-linejoin:round" />
    <path
       d="m 60.299577,96.912974 c 0,0 -6.07483,23.018746 -1.40758,33.157586 6.69396,14.53885 21.18254,15.2691 26.79964,16.59731 10.44575,2.46856 22.357303,-0.13494 30.609653,-3.47663 2.26483,-0.91545 -0.52387,-0.92868 2.27013,-1.9632 4.953,-1.83621 -8.92175,-11.71046 -14.35365,-12.47511 -5.918733,-0.83079 -27.402903,-9.85308 -27.402903,-9.85308 l -0.20637,-11.46969 z"
       fill="#ffdec9"
       fill-rule="nonzero"
       opacity="1"
       stroke="#000000"
       stroke-linecap="round"
       stroke-linejoin="round"
       stroke-width="2.604"
       id="path1455"
       style="clip-rule:evenodd;fill-rule:nonzero;stroke-linecap:round;stroke-linejoin:round" />
    <path
       d="m -178.78095,139.15021 c 0,-2.33363 2.31034,-2.91836 5.06518,-2.91836 2.75511,0 4.60481,1.35202 4.60481,3.68565 0,2.33098 -1.54252,5.67796 -4.29762,5.67796 -2.75511,0 -5.37237,-4.11427 -5.37237,-6.44525 z"
       fill="#f29a7f"
       fill-rule="nonzero"
       opacity="0.366279"
       stroke="none"
       id="path2659"
       style="clip-rule:evenodd;fill-rule:nonzero;stroke-width:0.264583;stroke-linecap:round;stroke-linejoin:round" />
    <g
       opacity="1"
       id="g6651"
       style="clip-rule:evenodd;fill-rule:nonzero;stroke-linecap:round;stroke-linejoin:round"
       transform="matrix(0.26458333,0,0,0.26458333,-267.79419,-2001.6041)">
<path
   d="m 494.679,8135.89 c 9.262,-1.12 33.495,-1.94 66.063,-2.47 7.205,-0.12 28.848,-34.34 36.379,-31.88 9.395,3.06 5.441,31.38 15.542,31.32 12.872,-0.08 26.304,-0.13 40.058,-0.14 0,0 2.95,-10.16 10.973,-18.16 8.024,-8.01 21.119,-13.85 21.119,-13.85 l 7.037,32.05 c 13.861,0.05 27.819,0.13 41.648,0.24 0,0 17.957,-31.92 23.736,-29.45 5.778,2.46 8.786,29.77 8.786,29.77 15.477,0.18 30.552,0.41 44.887,0.67 5.857,0.11 23.616,-34.01 31.182,-30.71 7.565,3.3 -1.702,31.35 4.143,31.51 20.237,0.54 37.894,1.19 51.635,1.94 4.134,0.23 4.957,-9.87 14.195,-14.75 10.908,-5.77 28.928,-4.16 28.49,0.02 -1.046,9.98 -7.731,23.01 -6.139,23.38 4.477,1.05 13.901,12.53 18.545,21.63 1.261,2.48 -1.003,-2.35 1.719,3.94 1.775,4.11 10.712,-0.42 21.544,9.5 11.627,10.65 10.827,27.89 7.009,28.37 -9.029,1.14 -27.948,-0.43 -30.494,4.9 -4.83,10.11 -2.129,9.85 -4.986,19.67 -2.856,9.81 -4.624,15.61 -6.44,19.58 -5.273,11.51 -28.59,18.87 -28.59,18.87 0,0 2.245,-23.76 -7.442,-23.36 -8.305,0.35 -23.028,-1.99 -36.388,-1.74 -2.3,0.05 -4.385,12.11 -12.465,19.48 -8.08,7.37 -19.855,10 -19.855,10 0,0 2.221,-28.85 -2.501,-29 -6.774,-0.21 -11.659,0.13 -11.659,0.13 0,0 -0.159,0 -0.469,0 -0.484,0 -1.339,0 -2.536,0 -4.828,0 -15.236,0 -29.495,-0.01 0,0 -3.365,13.26 -13.409,20.77 -10.044,7.51 -27.475,6.16 -27.475,6.16 l 1.873,-26.98 c -19.628,-0.03 -41.898,-0.08 -64.955,-0.16 0,0 -2.025,13.22 -12.024,21.94 -9.999,8.73 -32.501,6.23 -32.501,6.23 l 2.866,-32.38 c -15.779,-0.08 -24.314,0.98 -40.305,1.25 -3,0.05 -8.355,8.59 -16.446,16.83 -9.442,9.62 -29.995,10.74 -29.995,10.74 0,0 5.597,-27.8 -0.899,-27.64 -29.81,0.73 -53.699,1.44 -61.961,0.93 -25.058,-1.55 -9.773,-107.96 0,-109.14 z"
   fill="#fffdfa"
   fill-rule="nonzero"
   opacity="1"
   stroke="#000000"
   stroke-linecap="butt"
   stroke-linejoin="round"
   stroke-width="9.84188"
   id="path6639" />

<path
   d="m 488.571,8140.61 c 9.162,-17.11 -163.54,0.45 -252.001,-3.88 -10.004,-0.49 -2.692,91.78 -2.692,91.78 0,0 8.478,29 53.675,46.11 5.716,2.16 203.222,1.59 203.222,1.59 0,0 -26.707,-89.84 -2.204,-135.6 z"
   fill="#ee8d10"
   fill-rule="nonzero"
   opacity="1"
   stroke="#000000"
   stroke-linecap="butt"
   stroke-linejoin="round"
   stroke-width="9.84188"
   id="path6641" />

<path
   d="m 241.207,8129.99 c -36.341,-22.86 87.952,-74.92 131.317,-87.89 50.166,-15.02 63.368,8.25 105.664,28.9 42.296,20.65 71.46,54.86 56.802,60.76 -22.005,8.86 -66.556,2.22 -114.148,3.86 -74.552,2.57 -157.453,8.33 -179.635,-5.63 z"
   fill="#132f53"
   fill-rule="nonzero"
   opacity="1"
   stroke="#000000"
   stroke-linecap="butt"
   stroke-linejoin="round"
   stroke-width="9.84188"
   id="path6643" />

<path
   d="m 473.912,8066.28 c 0,0 77.782,-29.13 98.567,-3.13 6.977,8.73 21.756,64.48 21.756,64.48 l 34.814,0.59 -15.079,-103.88 c 0,0 -29.009,-23.52 -75.58,-21.16 -46.572,2.36 -112.118,33.02 -112.118,33.02 l 46.178,30.61 z"
   fill="#b9bed5"
   fill-rule="nonzero"
   opacity="1"
   stroke="#000000"
   stroke-linecap="butt"
   stroke-linejoin="round"
   stroke-width="9.84188"
   id="path6645" />

<path
   d="m 952.423,8165.89 -467.905,-1.07 7.816,-25.12 69.961,-7.73 25.931,-25.76 14.22,24.32 46.48,-0.34 c 0,0 3.259,-13.07 12.223,-19.88 8.964,-6.81 28.3,-10.13 28.3,-10.13 l 5.131,29.21 37.036,3.61 c 0,0 -1.256,-12.36 5.068,-19.4 6.324,-7.05 27.589,-12.42 27.589,-12.42 l 6.149,27.99 40.381,-0.65 c 0,0 -2.311,-11.64 6.599,-19.05 8.91,-7.42 29.042,-10.61 29.042,-10.61 l 5.812,31.14 45.74,2.47 c 0,0 6.386,-14.06 18.123,-17.67 11.736,-3.61 31.574,1.92 31.574,1.92 0,0 -17.638,18.7 -9.537,27.66 8.772,9.69 14.267,21.51 14.267,21.51 z"
   fill="#91efe8"
   fill-opacity="0.945947"
   fill-rule="nonzero"
   opacity="1"
   stroke="#000000"
   stroke-linecap="butt"
   stroke-linejoin="round"
   stroke-width="9.84188"
   id="path6647" />

<path
   d="m 298.317,8145.19 c 0,0 -7.003,60.82 12.788,73.61 8.692,5.61 163.827,10.33 163.827,10.33 l 6.899,41.39 c 0,0 -148.2,14.82 -187.002,-1.03 -41.182,-16.83 -45.7,-27.72 -52.083,-39.94 -16.065,-30.76 -1.511,-85.7 -1.511,-85.7 z"
   fill="#cb5135"
   fill-opacity="0.543863"
   fill-rule="nonzero"
   opacity="0.97093"
   stroke="none"
   id="path6649" />

</g>
    <path
       d="m 111.47264,150.44083 c 2.42623,-4.52702 -43.269953,0.11641 -66.674993,-1.02659 -2.64584,-0.12964 -0.71173,24.28346 -0.71173,24.28346 0,0 2.24366,7.67292 14.20283,12.19994 1.51077,0.5715 53.768623,0.41804 53.768623,0.41804 0,0 -7.06702,-23.77016 -0.58473,-35.87485 z"
       fill="#ee8d10"
       fill-rule="nonzero"
       opacity="1"
       stroke="#000000"
       stroke-linecap="butt"
       stroke-linejoin="round"
       stroke-width="2.604"
       id="path6695"
       style="clip-rule:evenodd;fill-rule:nonzero;stroke-linecap:round;stroke-linejoin:round" />
    <path
       d="m 46.025307,147.63095 c -9.61496,-6.04837 23.27011,-19.82258 34.74509,-23.25687 13.27149,-3.9714 16.76399,2.18546 27.955873,7.6491 11.19187,5.461 18.90712,14.51504 15.02833,16.07609 -5.82083,2.34156 -17.60802,0.58472 -30.199543,1.02129 -19.72733,0.67998 -41.66129,2.20133 -47.52975,-1.48961 z"
       fill="#132f53"
       fill-rule="nonzero"
       opacity="1"
       stroke="#000000"
       stroke-linecap="butt"
       stroke-linejoin="round"
       stroke-width="2.604"
       id="path6697"
       style="clip-rule:evenodd;fill-rule:nonzero;stroke-linecap:round;stroke-linejoin:round" />
    <path
       d="m 107.5965,130.77435 c 0,0 20.57929,-7.70996 26.07733,-0.82815 1.84679,2.30982 5.75734,17.06034 5.75734,17.06034 l 9.21014,0.1561 -3.98992,-27.48756 c 0,0 -7.67556,-6.223 -19.9972,-5.59859 -12.32165,0.62442 -29.665093,8.73655 -29.665093,8.73655 l 12.218463,8.10154 z"
       fill="#b9bed5"
       fill-rule="nonzero"
       opacity="1"
       stroke="#000000"
       stroke-linecap="butt"
       stroke-linejoin="round"
       stroke-width="2.604"
       id="path6699"
       style="clip-rule:evenodd;fill-rule:nonzero;stroke-linecap:round;stroke-linejoin:round" />
    <path
       d="m 113.08925,149.19199 c 1.54781,-0.18785 8.21531,-10.7262 12.47246,-10.85056 2.49237,-0.0741 1.51077,10.46427 4.69106,10.41136 1.90765,-0.0317 11.37973,-0.34661 14.05467,-0.36248 0,0 -0.32809,-4.82071 2.42358,-7.41892 2.75167,-2.59821 10.98285,-2.86015 10.98285,-2.86015 l -2.80987,10.23938 10.35314,0.0132 c 0,0 0.60855,-5.31548 2.64055,-8.07773 2.03464,-2.76225 9.61231,-2.6326 9.61231,-2.6326 l -1.23296,10.77118 7.29721,-0.24341 c 1.19591,0.0132 1.52929,-4.29419 3.88937,-6.75217 2.36273,-2.45533 9.04082,-2.28865 9.04082,-2.28865 0,0 -2.07698,9.35302 -0.45773,9.38477 1.54781,0.0291 7.95073,-0.50006 9.49589,-0.45772 1.07156,0.0264 1.16946,-3.77032 3.66184,-6.29444 2.49237,-2.52413 8.92439,-2.74638 8.92439,-2.74638 0,0 -0.42598,10.27377 1.63777,10.38754 1.09273,0.0582 6.40821,0.72761 6.8289,0.8255 0.28839,0.0688 3.05064,-2.47385 5.14879,-3.08768 2.413,-0.70644 10.75796,2.05846 10.75796,2.05846 0,0 -8.74448,7.06702 -8.15975,8.21531 0.33337,0.65352 -0.26459,-0.62442 0.45508,1.04246 0.47096,1.08479 -0.23283,8.52752 -0.90487,9.93775 -0.65882,1.37583 3.84968,1.51341 4.94241,6.17537 1.09273,4.6646 -3.59039,7.44008 -3.59039,7.44008 0,0 -7.04321,-5.37897 -7.15698,-5.8367 -0.11642,-0.45773 -4.64079,2.11137 -5.72559,2.77547 -1.08214,0.66411 -0.65616,5.66473 -2.05845,7.55121 -1.4023,1.88913 -7.45861,3.96611 -8.46667,3.89202 -1.42346,-0.10848 1.70392,-11.90889 0.26194,-11.88243 -0.60854,0.0106 -6.33677,0.2487 -7.58561,0.20902 -1.79123,-0.0529 -4.71223,-0.0476 -4.71223,-0.0476 0,0 -0.0423,0 -0.12435,0 -0.0582,0 -1.22767,5.31284 -2.14313,7.02734 -0.91545,1.71714 -9.03816,4.11956 -9.03816,4.11956 0,0 3.54277,-11.89567 -0.23019,-11.89831 l -7.38452,0.73554 c 0,0 -0.12435,5.28373 -2.5691,7.84489 -2.44475,2.56382 -7.89517,1.37319 -7.89517,1.37319 l 0.91546,-9.72608 -11.557,-0.11377 c -0.84402,-0.005 -1.17211,4.80483 -3.31788,7.43743 -2.14577,2.63261 -9.26835,2.51619 -9.26835,2.51619 0,0 1.24354,-9.76577 -1.14565,-9.72608 -0.79375,0.0132 -7.89252,-0.38365 -9.60966,-0.34131 0,0 -0.92075,0.0106 -2.39713,0.0291 0,0 -0.34925,0.003 -0.96044,0.0106 0,0 -0.16668,-0.14023 -0.30427,0.003 -0.93662,0.96573 -1.62983,3.39989 -4.00579,5.45042 -2.37331,2.04787 -6.40821,2.86014 -6.40821,2.86014 0,0 0.98954,-5.70706 -1.143,-7.78139 -1.9685,-1.91294 -8.20208,-0.09 -8.58043,-0.11378 -6.63046,-0.4101 -2.1299,-28.88456 0.45508,-29.19677 z"
       fill="#fffdfa"
       fill-rule="nonzero"
       opacity="1"
       stroke="#000000"
       stroke-linecap="butt"
       stroke-linejoin="round"
       stroke-width="2.604"
       id="path6711"
       style="clip-rule:evenodd;fill-rule:nonzero;stroke-linecap:round;stroke-linejoin:round" />
    <path
       d="m -136.08143,136.82452 c 1.66423,1.11654 6.94954,5.28637 6.94954,5.28637 0,0 18.08824,-20.59516 13.84935,-26.39483 -11.29003,-15.44373 -29.09676,14.40127 -29.09676,14.40127 0,0 6.63364,5.588 8.29787,6.70719 z"
       fill="#ffdec9"
       fill-rule="nonzero"
       opacity="1"
       stroke="#000000"
       stroke-linecap="butt"
       stroke-linejoin="round"
       stroke-width="2.604"
       id="path6757"
       style="clip-rule:evenodd;fill-rule:nonzero;stroke-linecap:round;stroke-linejoin:round" />
    <path
       d="m 112.29021,150.12597 c 0,0 3.57452,-4.74927 6.97971,-7.5512 3.40254,-2.80459 7.32366,-4.46353 7.32366,-4.46353 l 2.40242,9.83986 h 15.3326 c 0,0 0.65617,-5.23346 4.00315,-7.77875 3.34698,-2.54794 9.38212,-2.40506 9.38212,-2.40506 l -3.65918,10.18381 11.09662,0.23019 c 0,0 0.45773,-5.1488 3.32052,-7.7814 2.86015,-2.6326 8.9244,-3.43165 8.9244,-3.43165 l -1.03188,10.75532 h 7.66763 c 0,0 0.31485,-4.06136 3.54806,-6.29444 3.23056,-2.23044 9.38212,-2.62996 9.38212,-2.62996 l -2.17487,8.9244 11.21304,0.34396 3.39196,-6.52198 c 0,0 8.00894,-5.03502 8.69421,-3.09034 0.68791,1.94469 -0.22754,9.72609 -0.22754,9.72609 0,0 1.06097,0.51329 7.24958,0.68527 2.39183,0.0661 2.60085,-2.54529 6.70983,-2.74638 4.10898,-0.19844 8.85825,1.28852 9.72609,2.06111 2.08491,1.85473 -7.55121,8.1227 -7.55121,8.1227 H 111.03079 Z"
       fill="#91efe8"
       fill-opacity="0.945947"
       fill-rule="nonzero"
       opacity="1"
       stroke="#000000"
       stroke-linecap="butt"
       stroke-linejoin="round"
       stroke-width="2.604"
       id="path6775"
       style="clip-rule:evenodd;fill-rule:nonzero;stroke-linecap:round;stroke-linejoin:round" />
    <path
       d="m 113.91739,134.9971 c 1.66423,1.11919 6.95061,5.28637 6.95061,5.28637 0,0 18.08956,-20.59516 13.84829,-26.39483 -11.28977,-15.44373 -29.09623,14.40392 -29.09623,14.40392 0,0 6.63311,5.58535 8.29733,6.70454 z"
       fill="#ffdec9"
       fill-rule="nonzero"
       opacity="1"
       stroke="#000000"
       stroke-linecap="butt"
       stroke-linejoin="round"
       stroke-width="2.604"
       id="path6777"
       style="clip-rule:evenodd;fill-rule:nonzero;stroke-linecap:round;stroke-linejoin:round" />
    <path
       d="m 113.91739,134.9971 c 1.66423,1.11919 6.95061,5.28637 6.95061,5.28637 0,0 18.08956,-20.59516 13.84829,-26.39483 -11.28977,-15.44373 -29.09623,14.40392 -29.09623,14.40392 0,0 6.63311,5.58535 8.29733,6.70454 z"
       fill="#ffdec9"
       fill-rule="nonzero"
       opacity="1"
       stroke="#000000"
       stroke-linecap="butt"
       stroke-linejoin="round"
       stroke-width="2.604"
       id="path6779"
       style="clip-rule:evenodd;fill-rule:nonzero;stroke-linecap:round;stroke-linejoin:round" />
    <path
       d="m 54.855156,92.176083 c -4.72943,5.320767 19.48947,14.258397 20.09986,16.700497 21.42522,31.25324 9.07036,-76.605356 -20.09986,-16.700497 z"
       fill="#ca2042"
       fill-rule="nonzero"
       opacity="1"
       stroke="#000000"
       stroke-linecap="round"
       stroke-linejoin="round"
       stroke-width="2.604"
       id="path813-3"
       style="clip-rule:evenodd;fill-rule:nonzero;stroke-linecap:round;stroke-linejoin:round"
       sodipodi:nodetypes="ccc" />
    <path
       d="m -193.11766,92.176082 c -4.72943,5.320771 19.48947,14.258398 20.09986,16.700498 21.42522,31.25324 9.07036,-76.605355 -20.09986,-16.700498 z"
       fill="#ca2042"
       fill-rule="nonzero"
       opacity="1"
       stroke="#000000"
       stroke-linecap="round"
       stroke-linejoin="round"
       stroke-width="2.604"
       id="path813"
       style="clip-rule:evenodd;fill-rule:nonzero;stroke-linecap:round;stroke-linejoin:round"
       sodipodi:nodetypes="ccc" />
    <path
       d="m 61.369912,151.62035 c 0,0 -1.884593,16.206 3.441374,19.61397 2.339138,1.49482 44.087324,2.75246 44.087324,2.75246 l 1.85662,11.02869 c 0,0 -39.881999,3.94887 -50.323902,-0.27444 -11.082476,-4.48444 -12.298323,-7.38615 -14.01601,-10.64236 -4.323305,-8.19616 -0.406638,-22.83534 -0.406638,-22.83534 z"
       fill="#cb5135"
       fill-opacity="0.543863"
       fill-rule="nonzero"
       opacity="0.97093"
       stroke="none"
       id="path6649-9"
       style="clip-rule:evenodd;fill-rule:nonzero;stroke-width:0.26778;stroke-linecap:round;stroke-linejoin:round" />
  </g>
</svg>
