<?xml version="1.0" encoding="UTF-8" standalone="no"?>
<!-- Created with Inkscape (http://www.inkscape.org/) -->

<svg
   width="750mm"
   height="119.9443mm"
   viewBox="0 0 749.99999 119.9443"
   version="1.1"
   id="svg15261"
   inkscape:version="1.2.1 (9c6d41e410, 2022-07-14)"
   sodipodi:docname="knofe.svg"
   xmlns:inkscape="http://www.inkscape.org/namespaces/inkscape"
   xmlns:sodipodi="http://sodipodi.sourceforge.net/DTD/sodipodi-0.dtd"
   xmlns="http://www.w3.org/2000/svg"
   xmlns:svg="http://www.w3.org/2000/svg">
  <sodipodi:namedview
     id="namedview15263"
     pagecolor="#ffffff"
     bordercolor="#000000"
     borderopacity="0.25"
     inkscape:showpageshadow="2"
     inkscape:pageopacity="0.0"
     inkscape:pagecheckerboard="0"
     inkscape:deskcolor="#d1d1d1"
     inkscape:document-units="mm"
     showgrid="false"
     inkscape:zoom="0.17906145"
     inkscape:cx="1965.8056"
     inkscape:cy="-321.11882"
     inkscape:window-width="1920"
     inkscape:window-height="991"
     inkscape:window-x="-9"
     inkscape:window-y="-9"
     inkscape:window-maximized="1"
     inkscape:current-layer="layer1"
     showguides="false"
     inkscape:lockguides="false">
    <sodipodi:guide
       position="0,119.94429"
       orientation="0,4820.1775"
       id="guide16120"
       inkscape:locked="false" />
    <sodipodi:guide
       position="1275.3386,119.94429"
       orientation="453.33278,0"
       id="guide16122"
       inkscape:locked="false" />
    <sodipodi:guide
       position="1275.3386,0"
       orientation="0,-4820.1775"
       id="guide16124"
       inkscape:locked="false" />
    <sodipodi:guide
       position="0,0"
       orientation="-453.33278,0"
       id="guide16126"
       inkscape:locked="false" />
  </sodipodi:namedview>
  <defs
     id="defs15258" />
  <g
     inkscape:label="Слой 1"
     inkscape:groupmode="layer"
     id="layer1"
     transform="translate(518.35217,-47.200889)">
    <path
       d="m -511.59715,76.030132 c -4.72943,5.32077 19.48947,14.258395 20.09987,16.700499 29.45599,15.035119 5.34031,-92.96513428 -20.09987,-16.700499 z"
       fill="#ca2042"
       fill-rule="nonzero"
       opacity="1"
       stroke="#000000"
       stroke-linecap="round"
       stroke-linejoin="round"
       stroke-width="2.604"
       id="path847"
       style="clip-rule:evenodd;fill-rule:nonzero;stroke-linecap:round;stroke-linejoin:round"
       sodipodi:nodetypes="ccc" />
    <path
       d="m 82.726647,111.59013 c 0.43921,-1.63777 1.99232,-2.80194 4.24392,-2.19869 2.2516,0.60325 4.34975,2.74902 3.91054,4.3868 -0.43921,1.63777 -8.59366,-0.55034 -8.15446,-2.18811 z"
       fill="#f29a7f"
       fill-rule="nonzero"
       opacity="0.366279"
       stroke="none"
       id="path1087"
       style="clip-rule:evenodd;fill-rule:nonzero;stroke-width:0.264583;stroke-linecap:round;stroke-linejoin:round" />
    <path
       d="m -445.46164,115.31017 c -0.32199,-0.20902 -21.33732,-3.32846 -24.30436,-1.97643 -6.00974,2.74108 -2.89771,11.10456 -0.762,10.94052 6.46033,-0.50271 23.06902,2.29129 24.06915,1.85473 1.37001,-0.59796 1.76477,-10.31611 0.99721,-10.81882 z"
       fill="#9b775e"
       fill-rule="nonzero"
       opacity="1"
       stroke="#0a0809"
       stroke-linecap="butt"
       stroke-linejoin="round"
       stroke-width="2.604"
       id="path1219"
       style="clip-rule:evenodd;fill-rule:nonzero;stroke-linecap:round;stroke-linejoin:round" />
    <path
       d="m -171.13066,125.02038 c -0.29633,-0.24342 -20.84123,-5.6515 -23.9395,-4.63285 -6.27327,2.06375 -4.0984,10.72091 -1.95792,10.7897 6.477,0.21167 22.67744,4.81013 23.7199,4.48469 1.4261,-0.44185 2.8866,-10.05681 2.17752,-10.64154 z"
       fill="#9b775e"
       fill-rule="nonzero"
       opacity="1"
       stroke="#0a0809"
       stroke-linecap="butt"
       stroke-linejoin="round"
       stroke-width="2.604"
       id="path1221"
       style="clip-rule:evenodd;fill-rule:nonzero;stroke-linecap:round;stroke-linejoin:round" />
    <path
       d="m 109.01301,111.41021 c -0.32544,-0.20637 -21.378343,-3.05329 -24.328443,-1.66158 -5.97165,2.81781 -2.75167,11.13896 -0.61912,10.94581 6.45318,-0.58208 23.095473,1.99232 24.090313,1.54517 1.3626,-0.61648 1.63248,-10.33727 0.85725,-10.8294 z"
       fill="#9b775e"
       fill-rule="nonzero"
       opacity="1"
       stroke="#0a0809"
       stroke-linecap="butt"
       stroke-linejoin="round"
       stroke-width="2.604"
       id="path1225"
       style="clip-rule:evenodd;fill-rule:nonzero;stroke-linecap:round;stroke-linejoin:round" />
    <path
       d="m -445.46164,115.31017 c -0.32199,-0.20902 -21.33732,-3.32846 -24.30436,-1.97643 -6.00974,2.74108 -2.89771,11.10456 -0.762,10.94052 6.46033,-0.50271 23.06902,2.29129 24.06915,1.85473 1.37001,-0.59796 1.76477,-10.31611 0.99721,-10.81882 z"
       fill="#9b775e"
       fill-rule="nonzero"
       opacity="1"
       stroke="#0a0809"
       stroke-linecap="butt"
       stroke-linejoin="round"
       stroke-width="2.604"
       id="path1237"
       style="clip-rule:evenodd;fill-rule:nonzero;stroke-linecap:round;stroke-linejoin:round" />
    <path
       d="m -444.57422,115.94517 c 0.62415,-0.39952 19.34845,-3.79412 19.34845,-3.79412 l 2.38865,-4.21481 2.97286,3.56658 2.48629,-3.00038 3.13955,3.9714 2.63604,-3.22527 6.90986,3.46339 14.31369,0.71703 c 0,0 -4.76514,14.52827 -15.15427,18.93358 -12.41531,5.26521 -31.46663,-6.8289 -32.64191,-7.78933 -2.15874,-1.76213 -8.6995,2.83633 -7.93988,1.45785 0.83793,-1.51871 1.21391,-3.87085 1.1467,-5.83142 -0.0691,-2.01612 -0.58023,-3.63273 0.39397,-4.2545 z"
       fill="#f4ece2"
       fill-rule="nonzero"
       opacity="1"
       stroke="#000000"
       stroke-linecap="butt"
       stroke-linejoin="round"
       stroke-width="2.604"
       id="path1295"
       style="clip-rule:evenodd;fill-rule:nonzero;stroke-linecap:round;stroke-linejoin:round" />
    <path
       d="m -170.31574,125.74799 c 0.6641,-0.32809 19.64795,-1.64836 19.64795,-1.64836 l 2.83634,-3.92642 2.56381,3.8735 2.79929,-2.71197 2.68552,4.29418 2.97392,-2.91835 6.48758,4.20423 14.14727,2.28071 c 0,0 -6.32883,13.91708 -17.13971,17.15558 -12.9196,3.87085 -30.52762,-10.23938 -31.59124,-11.32417 -1.94998,-1.98966 -8.95615,1.86267 -8.05128,0.57679 1.00013,-1.41816 1.63248,-3.7121 1.78065,-5.67002 0.15346,-2.01083 -0.17727,-3.67241 0.8599,-4.1857 z"
       fill="#f4ece2"
       fill-rule="nonzero"
       opacity="1"
       stroke="#000000"
       stroke-linecap="butt"
       stroke-linejoin="round"
       stroke-width="2.604"
       id="path1297"
       style="clip-rule:evenodd;fill-rule:nonzero;stroke-linecap:round;stroke-linejoin:round" />
    <path
       d="m 109.90994,112.03199 c 0.61913,-0.40746 19.29607,-4.04548 19.29607,-4.04548 l 2.33362,-4.24392 3.0189,3.5269 2.44739,-3.03213 3.19088,3.93171 2.59556,-3.25967 6.95325,3.37609 14.3219,0.52916 c 0,0 -4.57729,14.58913 -14.90927,19.12673 -12.34546,5.4266 -31.55157,-6.41879 -32.73955,-7.36335 -2.18016,-1.73567 -8.66245,2.94746 -7.91897,1.55839 0.81756,-1.52929 1.16416,-3.88408 1.07156,-5.84464 -0.0952,-2.01613 -0.62706,-3.62479 0.33866,-4.25979 z"
       fill="#f4ece2"
       fill-rule="nonzero"
       opacity="1"
       stroke="#000000"
       stroke-linecap="butt"
       stroke-linejoin="round"
       stroke-width="2.604"
       id="path1301"
       style="clip-rule:evenodd;fill-rule:nonzero;stroke-linecap:round;stroke-linejoin:round" />
    <path
       d="m -444.57422,115.94517 c 0.62415,-0.39952 19.34845,-3.79412 19.34845,-3.79412 l 2.38865,-4.21481 2.97286,3.56658 2.48629,-3.00038 3.13955,3.9714 2.63604,-3.22527 6.90986,3.46339 14.31369,0.71703 c 0,0 -4.76514,14.52827 -15.15427,18.93358 -12.41531,5.26521 -31.46663,-6.8289 -32.64191,-7.78933 -2.15874,-1.76213 -8.6995,2.83633 -7.93988,1.45785 0.83793,-1.51871 1.21391,-3.87085 1.1467,-5.83142 -0.0691,-2.01612 -0.58023,-3.63273 0.39397,-4.2545 z"
       fill="#f4ece2"
       fill-rule="nonzero"
       opacity="1"
       stroke="#000000"
       stroke-linecap="butt"
       stroke-linejoin="round"
       stroke-width="2.604"
       id="path1313"
       style="clip-rule:evenodd;fill-rule:nonzero;stroke-linecap:round;stroke-linejoin:round" />
    <path
       d="m -443.61802,119.39005 49.81231,-1.20121 1.55469,-3.59569 -13.26647,-0.71173 -5.81581,-3.11679 -3.09589,3.57188 -2.91121,-3.63009 -2.56354,2.26484 -2.63367,-2.42359 -1.77244,2.86279 -19.13493,3.45282 z"
       fill="#5ae0d7"
       fill-rule="nonzero"
       opacity="0.818957"
       stroke="none"
       id="path1365"
       style="clip-rule:evenodd;fill-rule:nonzero;stroke-width:0.264583;stroke-linecap:round;stroke-linejoin:round" />
    <path
       d="m -443.61802,119.39005 49.81231,-1.20121 1.55469,-3.59569 -13.26647,-0.71173 -5.81581,-3.11679 -3.09589,3.57188 -2.91121,-3.63009 -2.56354,2.26484 -2.63367,-2.42359 -1.77244,2.86279 -19.13493,3.45282 z"
       fill="#5ae0d7"
       fill-rule="nonzero"
       opacity="0.818957"
       stroke="none"
       id="path1375"
       style="clip-rule:evenodd;fill-rule:nonzero;stroke-width:0.264583;stroke-linecap:round;stroke-linejoin:round" />
    <path
       d="m -169.74424,129.27753 49.64377,4.27302 1.93939,-3.40254 -13.1101,-2.1643 -5.43719,-3.73591 -3.46869,3.21204 -2.49502,-3.92906 -2.79664,1.97114 -2.35215,-2.70139 -2.07698,2.65377 -19.3966,1.33085 z"
       fill="#5ae0d7"
       fill-rule="nonzero"
       opacity="0.818957"
       stroke="none"
       id="path1377"
       style="clip-rule:evenodd;fill-rule:nonzero;stroke-width:0.264583;stroke-linecap:round;stroke-linejoin:round" />
    <path
       d="m 110.91007,115.46628 49.79194,-1.84944 1.50812,-3.61421 -13.27414,-0.53975 -5.85523,-3.04006 -3.05065,3.61156 -2.95804,-3.59304 -2.53206,2.29923 -2.667,-2.39183 -1.73567,2.8866 -19.08704,3.69887 z"
       fill="#5ae0d7"
       fill-rule="nonzero"
       opacity="0.818957"
       stroke="none"
       id="path1381"
       style="clip-rule:evenodd;fill-rule:nonzero;stroke-width:0.264583;stroke-linecap:round;stroke-linejoin:round" />
    <path
       d="m -443.61802,119.39005 49.81231,-1.20121 1.55469,-3.59569 -13.26647,-0.71173 -5.81581,-3.11679 -3.09589,3.57188 -2.91121,-3.63009 -2.56354,2.26484 -2.63367,-2.42359 -1.77244,2.86279 -19.13493,3.45282 z"
       fill="#5ae0d7"
       fill-rule="nonzero"
       opacity="0.818957"
       stroke="none"
       id="path1393"
       style="clip-rule:evenodd;fill-rule:nonzero;stroke-width:0.264583;stroke-linecap:round;stroke-linejoin:round" />
    <path
       d="m -12.843493,89.69586 c 0,0 0.70908,18.63196 5.2017099,21.99481 C 6.6430669,122.37455 94.746667,130.9153 94.595857,112.60349 94.460917,96.493006 9.7148769,94.77586 9.7148769,94.77586 c 0,0 -4.61433,-3.458104 -10.2526,-4.728104 -5.64092,-1.27 -12.3057699,-0.351896 -12.3057699,-0.351896 z"
       fill="#ffdec9"
       fill-rule="nonzero"
       opacity="1"
       stroke="#000000"
       stroke-linecap="round"
       stroke-linejoin="round"
       stroke-width="2.604"
       id="path1425"
       style="clip-rule:evenodd;fill-rule:nonzero;stroke-linecap:round;stroke-linejoin:round" />
    <path
       d="m -508.17979,82.591798 c 0,0 -17.31037,27.347332 -3.56526,37.629042 14.28485,10.68387 61.08118,15.63952 62.45278,0.10054 1.10252,-12.49362 -43.40358,-15.88558 -43.40358,-15.88558 l 0.8255,-11.326815 z"
       fill="#ffdec9"
       fill-rule="nonzero"
       opacity="1"
       stroke="#000000"
       stroke-linecap="round"
       stroke-linejoin="round"
       stroke-width="2.604"
       id="path1477"
       style="clip-rule:evenodd;fill-rule:nonzero;stroke-linecap:round;stroke-linejoin:round" />
    <path
       d="m -259.96451,84.335402 c 0,0 -6.11452,12.816417 -7.0485,24.053268 -0.45509,5.45571 3.68564,12.08882 8.17827,15.44902 14.28485,10.68388 66.11143,16.51 67.48198,0.96838 1.10331,-12.49098 -53.12834,-18.62667 -53.12834,-18.62667 l 0.8255,-11.32681 z"
       fill="#ffdec9"
       fill-rule="nonzero"
       opacity="1"
       stroke="#000000"
       stroke-linecap="round"
       stroke-linejoin="round"
       stroke-width="2.604"
       id="path1479"
       style="clip-rule:evenodd;fill-rule:nonzero;stroke-linecap:round;stroke-linejoin:round" />
    <path
       d="m -508.17979,82.591798 c 0,0 -17.31037,27.347332 -3.56526,37.629042 14.28485,10.68387 61.08118,15.63952 62.45278,0.10054 1.10252,-12.49362 -43.40358,-15.88558 -43.40358,-15.88558 l 0.8255,-11.326815 z"
       fill="#ffdec9"
       fill-rule="nonzero"
       opacity="1"
       stroke="#000000"
       stroke-linecap="round"
       stroke-linejoin="round"
       stroke-width="2.604"
       id="path1491"
       style="clip-rule:evenodd;fill-rule:nonzero;stroke-linecap:round;stroke-linejoin:round" />
    <path
       d="m -513.97575,113.16969 c 0,-2.33098 2.31007,-2.9157 5.06518,-2.9157 2.75511,0 4.60481,1.35202 4.60481,3.683 0,2.33097 -1.54252,5.6806 -4.29763,5.6806 -2.75511,0 -5.37236,-4.11692 -5.37236,-6.4479 z"
       fill="#f29a7f"
       fill-rule="nonzero"
       opacity="0.366279"
       stroke="none"
       id="path2647"
       style="clip-rule:evenodd;fill-rule:nonzero;stroke-width:0.264583;stroke-linecap:round;stroke-linejoin:round" />
    <path
       d="m -262.92785,114.43969 c 0,-2.33098 2.30982,-2.9157 5.06413,-2.9157 2.75696,0 4.6064,1.35202 4.6064,3.683 0,2.33097 -1.54253,5.67795 -4.29948,5.67795 -2.75432,0 -5.37105,-4.11427 -5.37105,-6.44525 z"
       fill="#f29a7f"
       fill-rule="nonzero"
       opacity="0.366279"
       stroke="none"
       id="path2649"
       style="clip-rule:evenodd;fill-rule:nonzero;stroke-width:0.264583;stroke-linecap:round;stroke-linejoin:round" />
    <path
       d="m -265.59557,83.18739 c -4.72943,5.32077 19.48947,14.2584 20.09987,16.7005 29.45599,15.03512 5.34031,-92.9651331 -20.09987,-16.7005 z"
       fill="#ca2042"
       fill-rule="nonzero"
       opacity="1"
       stroke="#000000"
       stroke-linecap="round"
       stroke-linejoin="round"
       stroke-width="2.604"
       id="path847-2"
       style="clip-rule:evenodd;fill-rule:nonzero;stroke-linecap:round;stroke-linejoin:round"
       sodipodi:nodetypes="ccc" />
    <path
       d="M -16.807623,87.354693 C -19.977353,93.728931 5.7373469,96.007194 6.9664069,98.203985 39.333117,104.99416 -12.243093,7.0885014 -16.807623,87.354693 Z"
       fill="#ca2042"
       fill-rule="nonzero"
       opacity="1"
       stroke="#000000"
       stroke-linecap="round"
       stroke-linejoin="round"
       stroke-width="2.604"
       id="path847-2-0"
       style="clip-rule:evenodd;fill-rule:nonzero;stroke-linecap:round;stroke-linejoin:round"
       sodipodi:nodetypes="ccc" />
    <path
       d="m -5.9960731,105.39094 c 0,-2.33098 2.88395,-2.91835 6.32354,-2.91835 3.43958,0 1.59014,0.56092 1.59014,2.8919 0,2.33097 2.23309,6.4717 -1.2065,6.4717 -3.43958,0 -6.70718,-4.11427 -6.70718,-6.44525 z"
       fill="#f29a7f"
       fill-rule="nonzero"
       opacity="0.366279"
       stroke="none"
       id="path2653"
       style="clip-rule:evenodd;fill-rule:nonzero;stroke-width:0.264583;stroke-linecap:round;stroke-linejoin:round" />
    <path
       d="m -513.97575,113.16969 c 0,-2.33098 2.31007,-2.9157 5.06518,-2.9157 2.75511,0 4.60481,1.35202 4.60481,3.683 0,2.33097 -1.54252,5.6806 -4.29763,5.6806 -2.75511,0 -5.37236,-4.11692 -5.37236,-6.4479 z"
       fill="#f29a7f"
       fill-rule="nonzero"
       opacity="0.366279"
       stroke="none"
       id="path2677"
       style="clip-rule:evenodd;fill-rule:nonzero;stroke-width:0.264583;stroke-linecap:round;stroke-linejoin:round" />
    <path
       d="m -513.97575,113.16969 c 0,-2.33098 2.31007,-2.9157 5.06518,-2.9157 2.75511,0 4.60481,1.35202 4.60481,3.683 0,2.33097 -1.54252,5.6806 -4.29763,5.6806 -2.75511,0 -5.37236,-4.11692 -5.37236,-6.4479 z"
       fill="#f29a7f"
       fill-rule="nonzero"
       opacity="0.366279"
       stroke="none"
       id="path2687"
       style="clip-rule:evenodd;fill-rule:nonzero;stroke-width:0.264583;stroke-linecap:round;stroke-linejoin:round" />
    <path
       d="m -137.47566,152.51588 c 5.11439,0.80698 9.89012,-0.46037 12.573,-2.12196 0.63235,-0.39158 0.1561,3.95023 0.49742,4.72281 0.34395,0.77259 1.78593,2.81517 1.66158,3.36815 -0.31486,1.39435 -3.83646,0.82021 -3.83646,0.82021 l -2.9554,2.89454 c 0,0 -0.98425,-0.66146 -2.286,-1.74096 -1.30175,-1.08214 -3.44222,2.7014 -3.44222,2.7014 0,0 -4.57994,0.79639 -3.45017,-0.59267 0.58737,-0.72231 -2.74902,-0.75406 -2.67758,-1.97644 0.10054,-1.69068 2.12725,-4.88685 2.12725,-4.88685 0.77787,-1.49754 1.2647,-3.27025 1.78858,-3.18823 z"
       fill="#d426a1"
       fill-opacity="0.589576"
       fill-rule="nonzero"
       opacity="1"
       stroke="#000000"
       stroke-linecap="butt"
       stroke-linejoin="round"
       stroke-width="2.604"
       id="path5111"
       style="clip-rule:evenodd;fill-rule:nonzero;stroke-linecap:round;stroke-linejoin:round" />
    <path
       d="m 139.11201,134.92373 c 13.16831,2.84163 16.0946,-3.37079 23.00552,-9.2366 1.62454,-1.37583 7.0485,20.73275 7.0485,20.73275 l 0.48418,11.65754 -9.66258,-8.7286 -3.18558,15.37758 -7.38717,-9.35567 -7.15433,8.91646 -5.49275,-6.86593 -9.34773,4.78366 c 0,0 10.34256,-27.57223 11.69194,-27.28119 z"
       fill="#d426a1"
       fill-opacity="0.589576"
       fill-rule="nonzero"
       opacity="1"
       stroke="#000000"
       stroke-linecap="butt"
       stroke-linejoin="round"
       stroke-width="2.604"
       id="path5115"
       style="clip-rule:evenodd;fill-rule:nonzero;stroke-linecap:round;stroke-linejoin:round" />
    <path
       d="m 139.83697,148.65032 -2.25955,5.1091 3.57982,-1.4261 2.11137,3.73062 3.40783,-3.94229 4.61169,0.62971 3.11944,-5.57213 4.69371,-0.003 -2.16429,-9.48267 -13.78215,3.07975 z"
       fill="#853079"
       fill-opacity="0.560429"
       fill-rule="nonzero"
       opacity="1"
       stroke="none"
       id="path5119"
       style="clip-rule:evenodd;fill-rule:nonzero;stroke-width:0.264583;stroke-linecap:round;stroke-linejoin:round" />
  </g>
</svg>
