<?xml version="1.0" encoding="UTF-8" standalone="no"?>
<!-- Created with Inkscape (http://www.inkscape.org/) -->

<svg
   width="201.86911mm"
   height="99.370888mm"
   viewBox="0 0 201.86911 99.370888"
   version="1.1"
   id="svg14728"
   inkscape:version="1.2.1 (9c6d41e410, 2022-07-14)"
   sodipodi:docname="minigun.svg"
   xmlns:inkscape="http://www.inkscape.org/namespaces/inkscape"
   xmlns:sodipodi="http://sodipodi.sourceforge.net/DTD/sodipodi-0.dtd"
   xmlns="http://www.w3.org/2000/svg"
   xmlns:svg="http://www.w3.org/2000/svg">
  <sodipodi:namedview
     id="namedview14730"
     pagecolor="#ffffff"
     bordercolor="#000000"
     borderopacity="0.25"
     inkscape:showpageshadow="2"
     inkscape:pageopacity="0.0"
     inkscape:pagecheckerboard="0"
     inkscape:deskcolor="#d1d1d1"
     inkscape:document-units="mm"
     showgrid="false"
     inkscape:zoom="0.50646226"
     inkscape:cx="254.70802"
     inkscape:cy="273.46559"
     inkscape:window-width="1920"
     inkscape:window-height="991"
     inkscape:window-x="-9"
     inkscape:window-y="-9"
     inkscape:window-maximized="1"
     inkscape:current-layer="layer1" />
  <defs
     id="defs14725" />
  <g
     inkscape:label="Слой 1"
     inkscape:groupmode="layer"
     id="layer1"
     transform="translate(-44.820384,-8.599588)">
    <path
       d="m 78.267144,66.15724 4.433623,11.824229 c 0,0 14.375077,-3.468687 24.199053,-2.8575 5.09112,0.3175 14.92435,2.876021 17.37307,5.6515 2.47333,2.801938 2.85988,15.157979 -3.71184,15.946437 -47.968425,5.754684 -45.74275,2.323042 -60.078933,-5.360458 -13.576829,-7.278687 4.631267,-16.33802 4.631267,-16.33802 z"
       fill="#ffdec9"
       fill-rule="nonzero"
       opacity="1"
       stroke="#000000"
       stroke-linecap="round"
       stroke-linejoin="round"
       stroke-width="2.604"
       id="path495"
       style="clip-rule:evenodd;fill-rule:nonzero;stroke-linecap:round;stroke-linejoin:round" />
    <path
       d="m 65.704463,77.240636 c 0,-1.624542 12.369006,-4.013729 13.597202,-12.856104 C 5.2098329,38.495075 80.501183,134.40513 65.704463,77.240636 Z"
       fill="#ca2042"
       fill-rule="nonzero"
       opacity="1"
       stroke="#000000"
       stroke-linecap="round"
       stroke-linejoin="round"
       stroke-width="2.604"
       id="path813"
       style="clip-rule:evenodd;fill-rule:nonzero;stroke-linecap:round;stroke-linejoin:round"
       sodipodi:nodetypes="ccc" />
    <path
       d="m 69.543302,94.28774 c 0.439209,-1.637771 1.993107,-2.804583 4.244711,-2.201333 2.251604,0.605895 4.348427,2.74902 3.909218,4.386791 -0.439208,1.637771 -8.593137,-0.550333 -8.153929,-2.185458 z"
       fill="#f29a7f"
       fill-rule="nonzero"
       opacity="0.366279"
       stroke="none"
       id="path1047"
       style="clip-rule:evenodd;fill-rule:nonzero;stroke-width:0.264583;stroke-linecap:round;stroke-linejoin:round" />
    <path
       d="m 114.49654,66.273657 39.25438,-1.050396 35.51555,-0.391583 c 0,0 45.00827,0.455083 52.82406,-0.907521 2.20398,-0.386292 5.06941,-20.587229 -0.0609,-23.754291 C 239.13245,38.383928 115.8718,39.505761 115.8718,39.505761 Z"
       fill="#b9bed5"
       fill-rule="nonzero"
       opacity="1"
       stroke="#000000"
       stroke-linecap="butt"
       stroke-linejoin="round"
       stroke-width="2.604"
       id="path5819"
       style="clip-rule:evenodd;fill-rule:nonzero;stroke-linecap:round;stroke-linejoin:round" />
    <path
       d="m 117.81203,43.479803 c 5.11572,1.169458 93.25081,-1.688042 124.02185,0.949854 6.08806,0.521229 2.79136,4.241271 1.62719,3.823229 -1.34408,-0.484187 -117.06146,1.090084 -126.50867,1.180042 -2.56937,0.02381 -1.2946,-6.44525 0.85963,-5.953125 z"
       fill="#132f53"
       fill-rule="nonzero"
       opacity="1"
       stroke="#000000"
       stroke-linecap="butt"
       stroke-linejoin="round"
       stroke-width="2.604"
       id="path5855"
       style="clip-rule:evenodd;fill-rule:nonzero;stroke-linecap:round;stroke-linejoin:round" />
    <path
       d="m 115.80358,54.015511 c 0,0 94.24061,-1.748896 125.74455,-0.301625 4.73869,0.216959 4.02167,5.098521 0.3175,5.066771 -30.52233,-0.264583 -121.39903,1.27 -125.57654,-0.518583 -1.70153,-0.727605 -0.48551,-4.246563 -0.48551,-4.246563 z"
       fill="#132f53"
       fill-rule="nonzero"
       opacity="1"
       stroke="#000000"
       stroke-linecap="butt"
       stroke-linejoin="round"
       stroke-width="2.604"
       id="path5891"
       style="clip-rule:evenodd;fill-rule:nonzero;stroke-linecap:round;stroke-linejoin:round" />
    <path
       d="m 109.25409,36.113803 0.12752,29.490458 5.14165,1.576917 0.76041,-17.920229 0.51594,-12.154958 z"
       fill="none"
       opacity="1"
       stroke="#000000"
       stroke-linecap="butt"
       stroke-linejoin="round"
       stroke-width="2.604"
       id="path5927"
       style="clip-rule:evenodd;fill-rule:nonzero;stroke-linecap:round;stroke-linejoin:round" />
    <path
       d="m 110.38068,34.259074 c -2.60535,1.240896 -0.14922,8.114771 -0.16378,12.808479 -0.0272,8.818562 -0.38285,17.211146 -0.38285,17.211146 l 5.14165,1.57427 0.32332,-18.732499 0.95303,-11.340042 c 0,0 -2.5736,-3.090333 -5.87137,-1.521354 z"
       fill="#01618b"
       fill-rule="nonzero"
       opacity="1"
       stroke="#000000"
       stroke-linecap="butt"
       stroke-linejoin="round"
       stroke-width="2.604"
       id="path5963"
       style="clip-rule:evenodd;fill-rule:nonzero;stroke-linecap:round;stroke-linejoin:round" />
    <path
       d="m 152.76772,37.349407 c -1.33323,7.815792 -0.38523,26.937229 1.21418,28.918958 1.32529,1.640417 10.07507,3.386667 12.46954,0.351896 0.90223,-1.143 1.84415,-17.5895 0.14817,-29.945541 -0.25135,-1.836209 -13.36807,-2.045229 -13.83189,0.674687 z"
       fill="#b9bed5"
       fill-rule="nonzero"
       opacity="1"
       stroke="#000000"
       stroke-linecap="butt"
       stroke-linejoin="round"
       stroke-width="2.604"
       id="path5999"
       style="clip-rule:evenodd;fill-rule:nonzero;stroke-linecap:round;stroke-linejoin:round" />
    <path
       d="m 189.71626,37.127157 c -1.62984,8.059208 0.55033,22.373167 0.64558,27.929417 0.0503,2.778125 5.03767,3.725333 5.58271,0.341312 0.29633,-1.833562 1.52929,-14.306021 0.0688,-28.294541 -0.18521,-1.772709 -6.18331,-0.537104 -6.29708,0.02381 z"
       fill="#b9bed5"
       fill-rule="nonzero"
       opacity="1"
       stroke="#000000"
       stroke-linecap="butt"
       stroke-linejoin="round"
       stroke-width="2.604"
       id="path6035"
       style="clip-rule:evenodd;fill-rule:nonzero;stroke-linecap:round;stroke-linejoin:round" />
    <path
       d="m 211.84601,37.410261 c -1.62984,8.059209 0.55033,22.373167 0.64823,27.926771 0.0476,2.780771 5.03502,3.727979 5.58006,0.341312 0.29633,-1.830916 1.52929,-14.30602 0.0688,-28.291895 -0.18521,-1.772708 -6.18331,-0.537104 -6.29708,0.02381 z"
       fill="#b9bed5"
       fill-rule="nonzero"
       opacity="1"
       stroke="#000000"
       stroke-linecap="butt"
       stroke-linejoin="round"
       stroke-width="2.604"
       id="path6071"
       style="clip-rule:evenodd;fill-rule:nonzero;stroke-linecap:round;stroke-linejoin:round" />
    <path
       d="m 232.24009,37.510803 c -1.62983,8.059208 0.55033,22.373166 0.64823,27.929416 0.0476,2.778125 5.03502,3.725334 5.58271,0.341313 0.29368,-1.833563 1.52664,-14.306021 0.0661,-28.294541 -0.18521,-1.772709 -6.18331,-0.537105 -6.29708,0.02381 z"
       fill="#b9bed5"
       fill-rule="nonzero"
       opacity="1"
       stroke="#000000"
       stroke-linecap="butt"
       stroke-linejoin="round"
       stroke-width="2.604"
       id="path6107"
       style="clip-rule:evenodd;fill-rule:nonzero;stroke-linecap:round;stroke-linejoin:round" />
    <path
       d="m 97.973839,66.278949 c 0,0 2.677321,2.841625 2.742671,4.52702 0.43154,11.133667 0.48075,34.144481 0.48075,34.144481 l 18.59703,0.78052 -0.62124,-35.861626 -7.22683,-0.600604 c 0,0 2.31458,-2.182812 -1.3118,-3.325812 -3.62665,-1.143 -10.11741,-3.024188 -12.56877,-0.796396"
       fill="none"
       opacity="1"
       stroke="#000000"
       stroke-linecap="butt"
       stroke-linejoin="round"
       stroke-width="2.604"
       id="path6143"
       style="clip-rule:evenodd;fill-rule:nonzero;stroke-linecap:round;stroke-linejoin:round" />
    <path
       d="m 97.973839,66.278949 c 0,0 2.715421,4.317999 2.684731,4.775729 -0.71332,10.665354 -0.0286,33.154932 0.53869,33.895772 1.48696,1.94469 14.37296,2.27277 18.59703,0.78052 1.23005,-0.43392 -0.0741,-24.825855 -0.62124,-35.861626 -0.041,-0.8255 -5.09217,0.381 -7.22683,-0.600604 -2.13466,-0.981604 -1.3118,-3.325812 -1.3118,-3.325812 0,0 -10.08883,-3.817938 -12.475108,-0.706438"
       fill="#b9bed5"
       fill-rule="nonzero"
       opacity="1"
       stroke="#000000"
       stroke-linecap="butt"
       stroke-linejoin="round"
       stroke-width="2.604"
       id="path6179"
       style="clip-rule:evenodd;fill-rule:nonzero;stroke-linecap:round;stroke-linejoin:round" />
    <path
       d="m 112.93947,34.89672 c 1.80842,-0.92075 18.38245,-7.696729 19.56884,-7.114646 1.18666,0.584729 1.53432,2.743729 1.25704,3.889375 -0.27728,1.145646 -16.755,5.262562 -16.755,5.262562 0,0 -8.02535,-0.01852 -4.07088,-2.037291 z"
       fill="#b9bed5"
       fill-rule="nonzero"
       opacity="1"
       stroke="#000000"
       stroke-linecap="butt"
       stroke-linejoin="round"
       stroke-width="2.604"
       id="path6215"
       style="clip-rule:evenodd;fill-rule:nonzero;stroke-linecap:round;stroke-linejoin:round" />
    <path
       d="m 126.7232,11.832991 c -0.24792,2.161646 -0.93477,12.017375 0.12091,15.962312 0.32465,1.211792 5.57292,-0.314854 5.65389,-0.685271 0.72257,-3.325812 2.04681,-14.515041 0.9009,-16.549687 -1.11972,-1.1615207 -6.43625,-0.8122707 -6.6757,1.272646 z"
       fill="#b9bed5"
       fill-rule="nonzero"
       opacity="1"
       stroke="#000000"
       stroke-linecap="butt"
       stroke-linejoin="round"
       stroke-width="2.604"
       id="path6251"
       style="clip-rule:evenodd;fill-rule:nonzero;stroke-linecap:round;stroke-linejoin:round" />
    <path
       d="m 107.40332,39.069199 -2.89401,-0.298979 -3.04006,9.16252 -6.651625,1.185334 -2.260071,4.47675 2.416704,3.145895 4.104217,-4.55877 5.079475,0.02381 2.28335,-7.061729 z"
       fill="#01618b"
       fill-rule="nonzero"
       opacity="1"
       stroke="#000000"
       stroke-linecap="butt"
       stroke-linejoin="round"
       stroke-width="2.604"
       id="path6287"
       style="clip-rule:evenodd;fill-rule:nonzero;stroke-linecap:round;stroke-linejoin:round" />
    <path
       d="m 93.308706,56.867719 -4.520935,3.966105 19.845869,0.06085 -0.0376,-7.847542 -0.48975,-13.001625 -4.01875,11.369146 -5.648858,1.36525 -3.230562,3.447521"
       fill="#132f53"
       fill-rule="nonzero"
       opacity="1"
       stroke="#000000"
       stroke-linecap="butt"
       stroke-linejoin="round"
       stroke-width="2.604"
       id="path6323"
       style="clip-rule:evenodd;fill-rule:nonzero;stroke-linecap:round;stroke-linejoin:round" />
    <path
       d="m 103.1602,39.65922 c -0.59452,-0.574146 1.18428,-3.772959 -3.540123,-2.196042 -4.7244,1.576917 -10.265304,4.045479 -16.519789,8.609542 -6.254486,4.564062 -13.795375,9.466791 -16.867717,13.086291 -3.072342,3.6195 -5.503598,7.617354 -3.919802,11.041062 1.583531,3.421063 14.174523,4.937125 17.277556,4.15925 3.103033,-0.777875 3.423708,-1.127125 5.746485,-3.156479 2.323042,-2.032 2.315634,-6.834187 2.274094,-8.236479 -0.0418,-1.402291 -0.445294,-0.751416 1.104371,-2.338916 1.549665,-1.590146 4.12115,-2.2225 5.094552,-4.019021 0.973402,-1.793875 -1.369219,-1.164167 -1.200944,-3.164417 0.16854,-2.00025 -0.0844,-3.489854 1.874573,-4.839229 1.95924,-1.349375 6.576214,-0.875771 6.576214,-0.875771 l 1.90157,-8.061854"
       fill="#8697d2"
       fill-rule="nonzero"
       opacity="1"
       stroke="#000000"
       stroke-linecap="butt"
       stroke-linejoin="round"
       stroke-width="2.604"
       id="path6359"
       style="clip-rule:evenodd;fill-rule:nonzero;stroke-linecap:round;stroke-linejoin:round" />
    <path
       d="m 82.922223,44.665136 c -0.707231,0.179917 -1.564481,-1.087437 -2.3114,-4.93977 -0.229394,-1.182688 9.024673,-9.178396 12.459229,-7.035271 1.956594,1.222375 3.443023,5.603875 3.106473,5.900208 -4.692121,4.130146 -9.33159,5.074708 -13.254302,6.074833 z"
       fill="#b9bed5"
       fill-rule="nonzero"
       opacity="1"
       stroke="#000000"
       stroke-linecap="butt"
       stroke-linejoin="round"
       stroke-width="2.604"
       id="path6395"
       style="clip-rule:evenodd;fill-rule:nonzero;stroke-linecap:round;stroke-linejoin:round" />
    <path
       d="m 70.656003,43.225803 c 0,0 5.059098,-2.524125 7.840927,-2.193396 1.546489,0.182563 3.362854,2.405063 3.362854,2.405063 l 0.751152,2.823104 c 0,0 -2.321983,-0.780521 -5.409142,-1.005417 -3.086893,-0.224896 -6.43546,1.100667 -6.43546,1.100667 z"
       fill="#132f53"
       fill-rule="nonzero"
       opacity="1"
       stroke="#000000"
       stroke-linecap="butt"
       stroke-linejoin="round"
       stroke-width="2.604"
       id="path6431"
       style="clip-rule:evenodd;fill-rule:nonzero;stroke-linecap:round;stroke-linejoin:round" />
    <path
       d="m 91.970973,50.208157 -5.418402,-0.799042 -4.862513,6.074834 c 0,0 -4.499768,0.918104 -5.642504,2.172229 -2.908564,3.190875 -7.745147,7.019396 -7.690379,8.805333 0.0979,3.182937 11.854656,3.151187 14.65289,1.262063 2.797968,-1.891771 3.897048,-4.894792 3.897048,-4.894792 0,0 3.759993,-2.592917 5.215995,-5.093229 1.456002,-2.497667 0.646113,-3.024188 0.608013,-4.905375 -0.0381,-1.883833 -0.760148,-2.622021 -0.760148,-2.622021 z"
       fill="none"
       opacity="1"
       stroke="#000000"
       stroke-linecap="butt"
       stroke-linejoin="round"
       stroke-width="2.604"
       id="path6467"
       style="clip-rule:evenodd;fill-rule:nonzero;stroke-linecap:round;stroke-linejoin:round" />
    <path
       d="m 104.35241,73.054928 c 0,0 -0.0474,14.448895 0.35931,16.621124 0.48419,2.58498 6.16294,2.4765 7.51549,3.593042 3.12208,2.579687 0.68395,10.376956 0.68395,10.376956 l -11.3247,1.31763 -0.0336,-33.927523 z"
       fill="#132f53"
       fill-rule="nonzero"
       opacity="1"
       stroke="#000000"
       stroke-linecap="butt"
       stroke-linejoin="round"
       stroke-width="2.604"
       id="path6503"
       style="clip-rule:evenodd;fill-rule:nonzero;stroke-linecap:round;stroke-linejoin:round" />
    <path
       d="m 104.02698,70.178907 c 0,0 3.08795,0.500062 5.11863,-0.439209 2.03041,-0.93927 1.93833,-2.680229 0.99695,-3.381374 -2.74453,-2.042584 -10.798708,-4.688417 -12.624068,-1.039813 -0.9398,1.881188 6.508488,4.860396 6.508488,4.860396 z"
       fill="none"
       opacity="1"
       stroke="#000000"
       stroke-linecap="butt"
       stroke-linejoin="round"
       stroke-width="2.604"
       id="path6539"
       style="clip-rule:evenodd;fill-rule:nonzero;stroke-linecap:round;stroke-linejoin:round" />
    <path
       d="m 80.284592,56.576678 c 0,0 4.033837,3.413125 4.752446,2.061104 0.718872,-1.352021 6.703218,-8.231187 6.703218,-8.231187 l -4.553743,-0.505355 -5.169165,4.99798 z"
       fill="#01618b"
       fill-rule="nonzero"
       opacity="1"
       stroke="#000000"
       stroke-linecap="butt"
       stroke-linejoin="round"
       stroke-width="2.604"
       id="path6575"
       style="clip-rule:evenodd;fill-rule:nonzero;stroke-linecap:round;stroke-linejoin:round" />
    <path
       d="m 126.06015,80.362719 c -2.56116,0.497417 -8.49603,2.661708 -10.72276,-0.629708 -2.22647,-3.291417 3.61923,-7.5565 7.42341,-7.62 3.80391,-0.0635 5.63668,0.687917 5.63668,0.687917 0,0 1.34012,6.84477 -2.33733,7.561791 z"
       fill="#ffdec9"
       fill-rule="nonzero"
       opacity="1"
       stroke="#000000"
       stroke-linecap="butt"
       stroke-linejoin="round"
       stroke-width="2.604"
       id="path6603"
       style="clip-rule:evenodd;fill-rule:nonzero;stroke-linecap:round;stroke-linejoin:round" />
  </g>
</svg>
