<?xml version="1.0" encoding="UTF-8" standalone="no"?>
<!-- Created with Inkscape (http://www.inkscape.org/) -->

<svg
   width="114.01652mm"
   height="49.186089mm"
   viewBox="0 0 114.01652 49.186089"
   version="1.1"
   id="svg7348"
   inkscape:version="1.2.1 (9c6d41e410, 2022-07-14)"
   sodipodi:docname="pistol.svg"
   xmlns:inkscape="http://www.inkscape.org/namespaces/inkscape"
   xmlns:sodipodi="http://sodipodi.sourceforge.net/DTD/sodipodi-0.dtd"
   xmlns="http://www.w3.org/2000/svg"
   xmlns:svg="http://www.w3.org/2000/svg">
  <sodipodi:namedview
     id="namedview7350"
     pagecolor="#ffffff"
     bordercolor="#000000"
     borderopacity="0.25"
     inkscape:showpageshadow="2"
     inkscape:pageopacity="0.0"
     inkscape:pagecheckerboard="0"
     inkscape:deskcolor="#d1d1d1"
     inkscape:document-units="mm"
     showgrid="false"
     inkscape:zoom="0.71624579"
     inkscape:cx="-104.71266"
     inkscape:cy="200.35022"
     inkscape:window-width="1920"
     inkscape:window-height="991"
     inkscape:window-x="-9"
     inkscape:window-y="-9"
     inkscape:window-maximized="1"
     inkscape:current-layer="layer1" />
  <defs
     id="defs7345" />
  <g
     inkscape:label="Слой 1"
     inkscape:groupmode="layer"
     id="layer1"
     transform="translate(-86.104919,-101.98991)">
    <path
       d="m 117.80461,116.42419 4.43441,11.82423 c 0,0 14.37482,-3.46604 24.19879,-2.8575 5.09059,0.3175 14.9225,2.87867 17.37254,5.6515 2.47386,2.80194 2.86015,15.16063 -3.7121,15.94909 -47.96896,5.75204 -45.74381,2.32304 -60.07894,-5.36311 -13.575765,-7.27869 4.63021,-16.33538 4.63021,-16.33538 z"
       fill="#ffdec9"
       fill-rule="nonzero"
       opacity="1"
       stroke="#000000"
       stroke-linecap="round"
       stroke-linejoin="round"
       stroke-width="2.604"
       id="path569"
       style="clip-rule:evenodd;fill-rule:nonzero;stroke-linecap:round;stroke-linejoin:round" />
    <path
       d="m 106.03594,130.4815 c 0,-1.62454 12.36927,-4.01637 13.59694,-12.85875 C 68.056597,67.712878 90.065011,171.2823 106.03594,130.4815 Z"
       fill="#ca2042"
       fill-rule="nonzero"
       opacity="1"
       stroke="#000000"
       stroke-linecap="round"
       stroke-linejoin="round"
       stroke-width="2.604"
       id="path867"
       style="clip-rule:evenodd;fill-rule:nonzero;stroke-linecap:round;stroke-linejoin:round"
       sodipodi:nodetypes="ccc" />
    <path
       d="m 109.08129,144.55469 c 0.43921,-1.63777 1.99232,-2.80193 4.24392,-2.19868 2.2516,0.60325 4.34975,2.74902 3.91054,4.38679 -0.43921,1.63512 -8.59366,-0.55034 -8.15446,-2.18811 z"
       fill="#f29a7f"
       fill-rule="nonzero"
       opacity="0.366279"
       stroke="none"
       id="path1107"
       style="clip-rule:evenodd;fill-rule:nonzero;stroke-width:0.264583;stroke-linecap:round;stroke-linejoin:round" />
    <path
       d="m 135.59519,119.0859 c 2.83898,2.99508 8.49312,-0.89165 8.36877,0.48419 -0.60854,6.6675 -9.3054,18.85685 -8.30792,25.52435 0.39159,2.62467 14.55209,2.72257 16.09196,0.34396 0.70644,-1.09008 4.953,-9.69698 4.75456,-12.7926 -0.19844,-3.09298 7.96131,0.6006 9.69433,-1.8759 2.6035,-3.72004 1.9394,-7.86077 1.9394,-7.86077 0,0 22.39698,-0.508 28.90044,-0.44979 1.88383,0.0159 -0.17727,-8.24177 -0.17727,-8.24177 0,0 3.21998,-6.77069 1.39964,-7.12788 -5.02179,-0.99219 -42.48414,-0.67204 -57.80087,-0.14023 -2.20398,0.0741 -5.52714,11.43529 -4.86304,12.13644 z"
       fill="#132f53"
       fill-rule="nonzero"
       opacity="1"
       stroke="#000000"
       stroke-linecap="butt"
       stroke-linejoin="round"
       stroke-width="2.604"
       id="path4499"
       style="clip-rule:evenodd;fill-rule:nonzero;stroke-linecap:round;stroke-linejoin:round" />
    <path
       d="m 135.59519,119.0859 c 2.83898,2.99508 8.49312,-0.89165 8.36877,0.48419 -0.60854,6.6675 -9.3054,18.85685 -8.30792,25.52435 0.39159,2.62467 14.55209,2.72257 16.09196,0.34396 0.70644,-1.09008 4.953,-9.69698 4.75456,-12.7926 -0.19844,-3.09298 7.96131,0.6006 9.69433,-1.8759 2.6035,-3.72004 1.9394,-7.86077 1.9394,-7.86077 0,0 22.39698,-0.508 28.90044,-0.44979 1.88383,0.0159 -0.17727,-8.24177 -0.17727,-8.24177 0,0 3.21998,-6.77069 1.39964,-7.12788 -5.02179,-0.99219 -42.48414,-0.67204 -57.80087,-0.14023 -2.20398,0.0741 -5.52714,11.43529 -4.86304,12.13644 z"
       fill="#132f53"
       fill-rule="nonzero"
       opacity="1"
       stroke="#000000"
       stroke-linecap="butt"
       stroke-linejoin="round"
       stroke-width="2.604"
       id="path4501"
       style="clip-rule:evenodd;fill-rule:nonzero;stroke-linecap:round;stroke-linejoin:round" />
    <path
       d="m 135.59519,119.0859 c 2.83898,2.99508 8.49312,-0.89165 8.36877,0.48419 -0.60854,6.6675 -9.3054,18.85685 -8.30792,25.52435 0.39159,2.62467 14.55209,2.72257 16.09196,0.34396 0.70644,-1.09008 4.953,-9.69698 4.75456,-12.7926 -0.19844,-3.09298 7.96131,0.6006 9.69433,-1.8759 2.6035,-3.72004 1.9394,-7.86077 1.9394,-7.86077 0,0 22.39698,-0.508 28.90044,-0.44979 1.88383,0.0159 -0.17727,-8.24177 -0.17727,-8.24177 0,0 3.21998,-6.77069 1.39964,-7.12788 -5.02179,-0.99219 -42.48414,-0.67204 -57.80087,-0.14023 -2.20398,0.0741 -5.52714,11.43529 -4.86304,12.13644 z"
       fill="#132f53"
       fill-rule="nonzero"
       opacity="1"
       stroke="#000000"
       stroke-linecap="butt"
       stroke-linejoin="round"
       stroke-width="2.604"
       id="path4503"
       style="clip-rule:evenodd;fill-rule:nonzero;stroke-linecap:round;stroke-linejoin:round" />
    <path
       d="m 139.93436,142.05967 c 1.76477,2.43681 7.92427,2.11667 9.3001,0.40746 0.37835,-0.46831 1.45785,-3.75973 2.07963,-6.85271 0.47625,-2.3786 0.54239,-4.69635 0.65352,-5.1726 0.35983,-1.56369 -5.60388,-3.9714 -7.27075,-1.40759 -2.26484,3.48986 -5.63827,11.8163 -4.7625,13.02544 z"
       fill="#01618b"
       fill-rule="nonzero"
       opacity="1"
       stroke="#000000"
       stroke-linecap="butt"
       stroke-linejoin="round"
       stroke-width="2.604"
       id="path4613"
       style="clip-rule:evenodd;fill-rule:nonzero;stroke-linecap:round;stroke-linejoin:round" />
    <path
       d="m 139.93436,142.05967 c 1.76477,2.43681 7.92427,2.11667 9.3001,0.40746 0.37835,-0.46831 1.45785,-3.75973 2.07963,-6.85271 0.47625,-2.3786 0.54239,-4.69635 0.65352,-5.1726 0.35983,-1.56369 -5.60388,-3.9714 -7.27075,-1.40759 -2.26484,3.48986 -5.63827,11.8163 -4.7625,13.02544 z"
       fill="#01618b"
       fill-rule="nonzero"
       opacity="1"
       stroke="#000000"
       stroke-linecap="butt"
       stroke-linejoin="round"
       stroke-width="2.604"
       id="path4615"
       style="clip-rule:evenodd;fill-rule:nonzero;stroke-linecap:round;stroke-linejoin:round" />
    <path
       d="m 139.93436,142.05967 c 1.76477,2.43681 7.92427,2.11667 9.3001,0.40746 0.37835,-0.46831 1.45785,-3.75973 2.07963,-6.85271 0.47625,-2.3786 0.54239,-4.69635 0.65352,-5.1726 0.35983,-1.56369 -5.60388,-3.9714 -7.27075,-1.40759 -2.26484,3.48986 -5.63827,11.8163 -4.7625,13.02544 z"
       fill="#01618b"
       fill-rule="nonzero"
       opacity="1"
       stroke="#000000"
       stroke-linecap="butt"
       stroke-linejoin="round"
       stroke-width="2.604"
       id="path4617"
       style="clip-rule:evenodd;fill-rule:nonzero;stroke-linecap:round;stroke-linejoin:round" />
    <path
       d="m 136.83609,114.60121 c 14.24516,1.81769 60.1636,-0.5715 60.1636,-0.5715 0,0 2.47914,-3.16971 1.61131,-7.08025 -0.4445,-2.01083 -58.63166,0.11113 -58.63166,0.11113 0,0 -4.42913,7.37658 -3.14325,7.54062 z"
       fill="#01618b"
       fill-rule="nonzero"
       opacity="1"
       stroke="#000000"
       stroke-linecap="butt"
       stroke-linejoin="round"
       stroke-width="2.604"
       id="path4727"
       style="clip-rule:evenodd;fill-rule:nonzero;stroke-linecap:round;stroke-linejoin:round" />
    <path
       d="m 136.83609,114.60121 c 14.24516,1.81769 60.1636,-0.5715 60.1636,-0.5715 0,0 2.47914,-3.16971 1.61131,-7.08025 -0.4445,-2.01083 -58.63166,0.11113 -58.63166,0.11113 0,0 -4.42913,7.37658 -3.14325,7.54062 z"
       fill="#01618b"
       fill-rule="nonzero"
       opacity="1"
       stroke="#000000"
       stroke-linecap="butt"
       stroke-linejoin="round"
       stroke-width="2.604"
       id="path4729"
       style="clip-rule:evenodd;fill-rule:nonzero;stroke-linecap:round;stroke-linejoin:round" />
    <path
       d="m 136.83609,114.60121 c 14.24516,1.81769 60.1636,-0.5715 60.1636,-0.5715 0,0 2.47914,-3.16971 1.61131,-7.08025 -0.4445,-2.01083 -58.63166,0.11113 -58.63166,0.11113 0,0 -4.42913,7.37658 -3.14325,7.54062 z"
       fill="#01618b"
       fill-rule="nonzero"
       opacity="1"
       stroke="#000000"
       stroke-linecap="butt"
       stroke-linejoin="round"
       stroke-width="2.604"
       id="path4731"
       style="clip-rule:evenodd;fill-rule:nonzero;stroke-linecap:round;stroke-linejoin:round" />
    <path
       d="m 144.22854,103.50723 c -5.73087,0.09 -4.25714,3.4925 -4.25714,3.4925 l 7.95866,-0.28839 c 0,0 0.48948,-3.24379 -4.01902,-3.17236"
       fill="#01618b"
       fill-rule="nonzero"
       opacity="1"
       stroke="#000000"
       stroke-linecap="butt"
       stroke-linejoin="round"
       stroke-width="2.604"
       id="path4841"
       style="clip-rule:evenodd;fill-rule:nonzero;stroke-linecap:round;stroke-linejoin:round" />
    <path
       d="m 144.22854,103.50723 c -5.73087,0.09 -4.25714,3.4925 -4.25714,3.4925 l 7.95866,-0.28839 c 0,0 0.48948,-3.24379 -4.01902,-3.17236"
       fill="#01618b"
       fill-rule="nonzero"
       opacity="1"
       stroke="#000000"
       stroke-linecap="butt"
       stroke-linejoin="round"
       stroke-width="2.604"
       id="path4843"
       style="clip-rule:evenodd;fill-rule:nonzero;stroke-linecap:round;stroke-linejoin:round" />
    <path
       d="m 144.22854,103.50723 c -5.73087,0.09 -4.25714,3.4925 -4.25714,3.4925 l 7.95866,-0.28839 c 0,0 0.48948,-3.24379 -4.01902,-3.17236"
       fill="#01618b"
       fill-rule="nonzero"
       opacity="1"
       stroke="#000000"
       stroke-linecap="butt"
       stroke-linejoin="round"
       stroke-width="2.604"
       id="path4845"
       style="clip-rule:evenodd;fill-rule:nonzero;stroke-linecap:round;stroke-linejoin:round" />
    <path
       d="m 195.40425,103.44109 c 2.21456,-1.11125 2.70933,3.175 2.70933,3.175 l -6.38439,-0.38365 c 0,0 1.46314,-1.6801 3.67506,-2.79135"
       fill="#01618b"
       fill-rule="nonzero"
       opacity="1"
       stroke="#000000"
       stroke-linecap="butt"
       stroke-linejoin="round"
       stroke-width="2.604"
       id="path4919"
       style="clip-rule:evenodd;fill-rule:nonzero;stroke-linecap:round;stroke-linejoin:round" />
    <path
       d="m 195.40425,103.44109 c 2.21456,-1.11125 2.70933,3.175 2.70933,3.175 l -6.38439,-0.38365 c 0,0 1.46314,-1.6801 3.67506,-2.79135"
       fill="#01618b"
       fill-rule="nonzero"
       opacity="1"
       stroke="#000000"
       stroke-linecap="butt"
       stroke-linejoin="round"
       stroke-width="2.604"
       id="path4921"
       style="clip-rule:evenodd;fill-rule:nonzero;stroke-linecap:round;stroke-linejoin:round" />
    <path
       d="m 195.40425,103.44109 c 2.21456,-1.11125 2.70933,3.175 2.70933,3.175 l -6.38439,-0.38365 c 0,0 1.46314,-1.6801 3.67506,-2.79135"
       fill="#01618b"
       fill-rule="nonzero"
       opacity="1"
       stroke="#000000"
       stroke-linecap="butt"
       stroke-linejoin="round"
       stroke-width="2.604"
       id="path4923"
       style="clip-rule:evenodd;fill-rule:nonzero;stroke-linecap:round;stroke-linejoin:round" />
    <path
       d="m 165.59629,130.62967 c -2.56117,0.50006 -8.49577,2.66436 -10.72092,-0.62706 -2.22779,-3.29407 3.6195,-7.5565 7.42157,-7.62 3.8047,-0.0661 5.63827,0.68527 5.63827,0.68527 0,0 1.33879,6.84741 -2.33892,7.56179 z"
       fill="#ffdec9"
       fill-rule="nonzero"
       opacity="1"
       stroke="#000000"
       stroke-linecap="butt"
       stroke-linejoin="round"
       stroke-width="2.604"
       id="path5033"
       style="clip-rule:evenodd;fill-rule:nonzero;stroke-linecap:round;stroke-linejoin:round" />
    <path
       d="m 165.59629,130.62967 c -2.56117,0.50006 -8.49577,2.66436 -10.72092,-0.62706 -2.22779,-3.29407 3.6195,-7.5565 7.42157,-7.62 3.8047,-0.0661 5.63827,0.68527 5.63827,0.68527 0,0 1.33879,6.84741 -2.33892,7.56179 z"
       fill="#ffdec9"
       fill-rule="nonzero"
       opacity="1"
       stroke="#000000"
       stroke-linecap="butt"
       stroke-linejoin="round"
       stroke-width="2.604"
       id="path5035"
       style="clip-rule:evenodd;fill-rule:nonzero;stroke-linecap:round;stroke-linejoin:round" />
    <path
       d="m 165.59629,130.62967 c -2.56117,0.50006 -8.49577,2.66436 -10.72092,-0.62706 -2.22779,-3.29407 3.6195,-7.5565 7.42157,-7.62 3.8047,-0.0661 5.63827,0.68527 5.63827,0.68527 0,0 1.33879,6.84741 -2.33892,7.56179 z"
       fill="#ffdec9"
       fill-rule="nonzero"
       opacity="1"
       stroke="#000000"
       stroke-linecap="butt"
       stroke-linejoin="round"
       stroke-width="2.604"
       id="path5037"
       style="clip-rule:evenodd;fill-rule:nonzero;stroke-linecap:round;stroke-linejoin:round" />
  </g>
</svg>
