<?xml version="1.0" encoding="UTF-8" standalone="no"?>
<!-- Created with Inkscape (http://www.inkscape.org/) -->

<svg
   width="261.75882mm"
   height="124.42442mm"
   viewBox="0 0 261.75882 124.42442"
   version="1.1"
   id="svg18390"
   inkscape:version="1.2.1 (9c6d41e410, 2022-07-14)"
   sodipodi:docname="Rifle.svg"
   xmlns:inkscape="http://www.inkscape.org/namespaces/inkscape"
   xmlns:sodipodi="http://sodipodi.sourceforge.net/DTD/sodipodi-0.dtd"
   xmlns="http://www.w3.org/2000/svg"
   xmlns:svg="http://www.w3.org/2000/svg">
  <sodipodi:namedview
     id="namedview18392"
     pagecolor="#ffffff"
     bordercolor="#000000"
     borderopacity="0.25"
     inkscape:showpageshadow="2"
     inkscape:pageopacity="0.0"
     inkscape:pagecheckerboard="0"
     inkscape:deskcolor="#d1d1d1"
     inkscape:document-units="mm"
     showgrid="false"
     inkscape:zoom="0.71624579"
     inkscape:cx="602.44682"
     inkscape:cy="348.34411"
     inkscape:window-width="1920"
     inkscape:window-height="991"
     inkscape:window-x="-9"
     inkscape:window-y="-9"
     inkscape:window-maximized="1"
     inkscape:current-layer="layer1" />
  <defs
     id="defs18387" />
  <g
     inkscape:label="Слой 1"
     inkscape:groupmode="layer"
     id="layer1"
     transform="translate(54.412976,-56.366111)">
    <path
       d="m 19.493531,91.233745 5.675313,11.297705 c 0,0 7.283979,-2.619372 15.033624,-4.23333 2.965979,-0.608542 5.998104,-1.084792 8.720667,-1.217084 5.095875,-0.211666 15.14475,1.27 17.877895,3.757084 2.759605,2.54 4.466167,14.76375 -1.984374,16.27187 -47.074667,10.84792 -45.230521,7.19667 -60.3064789,1.0848 -14.2769165,-5.76792 2.8548541,-16.72167 2.8548541,-16.72167 z"
       fill="#ffdec9"
       fill-rule="nonzero"
       opacity="1"
       stroke="#000000"
       stroke-linecap="round"
       stroke-linejoin="round"
       stroke-width="2.604"
       id="path512"
       style="clip-rule:evenodd;fill-rule:nonzero;stroke-linecap:round;stroke-linejoin:round" />
    <path
       d="m -19.043031,94.32937 c 0.740833,2.963333 8.162396,29.07771 16.7031457,22.96583 C 1.4595313,114.56999 19.689323,102.45208 20.916989,93.614995 21.655177,88.29687 4.4916563,73.53312 -16.64326,63.928745 -34.526447,55.806037 -19.651573,91.895203 -19.043031,94.32937 Z"
       fill="#ca2042"
       fill-rule="nonzero"
       opacity="1"
       stroke="#000000"
       stroke-linecap="round"
       stroke-linejoin="round"
       stroke-width="2.604"
       id="path828"
       style="clip-rule:evenodd;fill-rule:nonzero;stroke-linecap:round;stroke-linejoin:round" />
    <path
       d="m 11.034802,117.50687 c 0.298979,-1.69333 1.74625,-2.96333 4.042833,-2.56646 2.293938,0.42333 4.566709,2.38125 4.267729,4.04813 -0.298979,1.66687 -8.609541,0.1852 -8.310562,-1.48167 z"
       fill="#f29a7f"
       fill-rule="nonzero"
       opacity="0.366279"
       stroke="none"
       id="path1074"
       style="clip-rule:evenodd;fill-rule:nonzero;stroke-width:0.264583;stroke-linecap:round;stroke-linejoin:round" />
    <path
       d="m -48.835114,68.373745 c -6.752166,4.974167 -3.897312,36.697705 -2.225146,43.656245 1.418167,5.87375 9.411229,-0.66145 8.196792,0.79375 -1.341438,1.61396 12.885208,-26.564162 12.885208,-26.564162 l 58.475562,1.217083 c 0,0 8.210021,4.153959 7.913687,7.593542 -0.944562,10.953747 -15.92527,32.067497 -14.554729,35.851037 1.277938,3.51896 22.812375,8.73125 22.812375,8.73125 0,0 -3.153833,-23.86541 5.590646,-32.14687 3.476625,-3.30729 6.11452,4.20687 13.462,3.96875 7.347479,-0.26458 13.213291,-2.51354 16.314208,-6.42938 3.09827,-3.91583 0,-9.392704 0,-9.392704 L 107.06797,89.24937 c 0,0 8.86618,4.524375 14.41185,3.704166 5.54831,-0.79375 7.77346,-6.932083 7.77346,-6.932083 0,0 47.89487,2.301875 51.28948,-1.005417 1.69069,-1.666875 3.1115,-19.473333 -1.86796,-25.611666 -2.89454,-3.571875 -110.958311,-0.687917 -149.145623,0.3175 -4.214813,0.105833 -3.653896,6.111875 -3.653896,6.111875 0,0 -63.288333,-5.900208 -74.710395,2.54 z"
       fill="#d2d4dd"
       fill-rule="nonzero"
       opacity="1"
       stroke="#0a0809"
       stroke-linecap="butt"
       stroke-linejoin="round"
       stroke-width="2.6035"
       id="path6522"
       style="clip-rule:evenodd;fill-rule:nonzero;stroke-linecap:round;stroke-linejoin:round" />
    <path
       d="m 67.851426,103.80145 c -2.492375,0.76729 -8.162395,3.54542 -10.726208,0.52917 -2.566458,-3.04271 2.788708,-7.911042 6.564313,-8.387292 3.772958,-0.47625 5.677958,0.07938 5.677958,0.07938 0,0 2.06375,6.667492 -1.516063,7.778742 z"
       fill="#ffdec9"
       fill-rule="nonzero"
       opacity="1"
       stroke="#000000"
       stroke-linecap="butt"
       stroke-linejoin="round"
       stroke-width="2.604"
       id="path6782"
       style="clip-rule:evenodd;fill-rule:nonzero;stroke-linecap:round;stroke-linejoin:round" />
    <path
       d="m 80.538197,95.44062 c 0,0 24.505713,68.73875 39.102773,81.49167 14.59706,12.75291 17.96256,-26.32605 17.96256,-26.32605 l -17.67417,-28.7602 c -4.20158,-6.21771 -13.64191,-36.221462 -13.64191,-36.221462 z"
       fill="#252629"
       fill-rule="nonzero"
       opacity="1"
       stroke="#0a0809"
       stroke-linecap="butt"
       stroke-linejoin="round"
       stroke-width="2.6035"
       id="path6950"
       style="clip-rule:evenodd;fill-rule:nonzero;stroke-linecap:round;stroke-linejoin:round" />
    <path
       d="m 175.74322,76.311245 c 2.14841,-0.47625 24.43691,-1.031875 29.38991,-0.846667 1.47902,0.07937 0.83079,6.111875 0.30957,6.588125 -1.5584,1.402292 -28.00086,1.878542 -30.34507,0.185208 -0.91281,-0.661458 -1.34937,-5.476874 0.64559,-5.926666 z"
       fill="#252629"
       fill-rule="nonzero"
       opacity="1"
       stroke="#0a0809"
       stroke-linecap="butt"
       stroke-linejoin="round"
       stroke-width="2.6035"
       id="path6952"
       style="clip-rule:evenodd;fill-rule:nonzero;stroke-linecap:round;stroke-linejoin:round" />
    <path
       d="m -48.835114,68.373745 c -6.752166,4.974167 -3.897312,36.697705 -2.225146,43.656245 1.418167,5.87375 9.411229,-0.66145 8.196792,0.79375 -1.341438,1.61396 12.885208,-26.564162 12.885208,-26.564162 l 58.475562,1.217083 c 0,0 8.210021,4.153959 7.913687,7.593542 -0.944562,10.953747 -15.92527,32.067497 -14.554729,35.851037 1.277938,3.51896 22.812375,8.73125 22.812375,8.73125 0,0 -3.153833,-23.86541 5.590646,-32.14687 3.476625,-3.30729 6.11452,4.20687 13.462,3.96875 7.347479,-0.26458 13.213291,-2.51354 16.314208,-6.42938 3.09827,-3.91583 0,-9.392704 0,-9.392704 L 107.06797,89.24937 c 0,0 8.86618,4.524375 14.41185,3.704166 5.54831,-0.79375 7.77346,-6.932083 7.77346,-6.932083 0,0 47.89487,2.301875 51.28948,-1.005417 1.69069,-1.666875 3.1115,-19.473333 -1.86796,-25.611666 -2.89454,-3.571875 -110.958311,-0.687917 -149.145623,0.3175 -4.214813,0.105833 -3.653896,6.111875 -3.653896,6.111875 0,0 -63.288333,-5.900208 -74.710395,2.54 z"
       fill="#d2d4dd"
       fill-rule="nonzero"
       opacity="1"
       stroke="#0a0809"
       stroke-linecap="butt"
       stroke-linejoin="round"
       stroke-width="2.6035"
       id="path6972"
       style="clip-rule:evenodd;fill-rule:nonzero;stroke-linecap:round;stroke-linejoin:round" />
    <path
       d="m 59.943031,94.567495 c -2.754313,0.291041 -4.815417,0.714375 -4.815417,0.714375 0,0 -1.852083,4.048125 3.103562,6.40292 4.953,2.35479 8.093604,2.91041 12.551834,1.11125 4.458229,-1.77271 3.807354,-5.476879 1.12977,-7.117295 -2.794,-1.666875 -8.075083,-1.534584 -11.969749,-1.11125"
       fill="#ffffff"
       fill-rule="nonzero"
       opacity="1"
       stroke="#0a0809"
       stroke-linecap="butt"
       stroke-linejoin="round"
       stroke-width="2.6035"
       id="path6974"
       style="clip-rule:evenodd;fill-rule:nonzero;stroke-linecap:round;stroke-linejoin:round" />
    <path
       d="m 132.9204,74.670828 7.23371,-0.185208"
       fill="none"
       opacity="1"
       stroke="#0a0809"
       stroke-linecap="butt"
       stroke-linejoin="round"
       stroke-width="2.6035"
       id="path6976"
       style="clip-rule:evenodd;fill-rule:nonzero;stroke-linecap:round;stroke-linejoin:round" />
    <path
       d="m 144.00909,74.115203 7.23371,-0.185208"
       fill="none"
       opacity="1"
       stroke="#0a0809"
       stroke-linecap="butt"
       stroke-linejoin="round"
       stroke-width="2.6035"
       id="path6978"
       style="clip-rule:evenodd;fill-rule:nonzero;stroke-linecap:round;stroke-linejoin:round" />
    <path
       d="m 154.72736,74.088745 7.23371,-0.185208"
       fill="none"
       opacity="1"
       stroke="#0a0809"
       stroke-linecap="butt"
       stroke-linejoin="round"
       stroke-width="2.6035"
       id="path6980"
       style="clip-rule:evenodd;fill-rule:nonzero;stroke-linecap:round;stroke-linejoin:round" />
    <path
       d="m 133.27495,80.068328 7.2337,-0.15875"
       fill="none"
       opacity="1"
       stroke="#0a0809"
       stroke-linecap="butt"
       stroke-linejoin="round"
       stroke-width="2.6035"
       id="path6982"
       style="clip-rule:evenodd;fill-rule:nonzero;stroke-linecap:round;stroke-linejoin:round" />
    <path
       d="M 143.75509,79.274578 150.9888,79.08937"
       fill="none"
       opacity="1"
       stroke="#0a0809"
       stroke-linecap="butt"
       stroke-linejoin="round"
       stroke-width="2.6035"
       id="path6984"
       style="clip-rule:evenodd;fill-rule:nonzero;stroke-linecap:round;stroke-linejoin:round" />
    <path
       d="m 154.19026,79.301036 7.23371,-0.15875"
       fill="none"
       opacity="1"
       stroke="#0a0809"
       stroke-linecap="butt"
       stroke-linejoin="round"
       stroke-width="2.6035"
       id="path6986"
       style="clip-rule:evenodd;fill-rule:nonzero;stroke-linecap:round;stroke-linejoin:round" />
    <path
       d="m 163.71261,78.983536 7.23636,-0.185208"
       fill="none"
       opacity="1"
       stroke="#0a0809"
       stroke-linecap="butt"
       stroke-linejoin="round"
       stroke-width="2.6035"
       id="path6988"
       style="clip-rule:evenodd;fill-rule:nonzero;stroke-linecap:round;stroke-linejoin:round" />
    <path
       d="m 163.59884,74.379787 7.23371,-0.185209"
       fill="none"
       opacity="1"
       stroke="#0a0809"
       stroke-linecap="butt"
       stroke-linejoin="round"
       stroke-width="2.6035"
       id="path6990"
       style="clip-rule:evenodd;fill-rule:nonzero;stroke-linecap:round;stroke-linejoin:round" />
    <path
       d="m -20.889823,72.130828 6.701896,-0.132291"
       fill="none"
       opacity="1"
       stroke="#0a0809"
       stroke-linecap="butt"
       stroke-linejoin="round"
       stroke-width="2.6035"
       id="path6992"
       style="clip-rule:evenodd;fill-rule:nonzero;stroke-linecap:round;stroke-linejoin:round" />
    <path
       d="m -13.103135,72.130828 6.7045414,-0.132291"
       fill="none"
       opacity="1"
       stroke="#0a0809"
       stroke-linecap="butt"
       stroke-linejoin="round"
       stroke-width="2.6035"
       id="path6994"
       style="clip-rule:evenodd;fill-rule:nonzero;stroke-linecap:round;stroke-linejoin:round" />
    <path
       d="m 70.439051,103.11354 c -2.286,1.08479 -7.344833,4.55083 -10.2235,1.98437 -2.881312,-2.56646 1.590146,-7.990415 5.148792,-8.942915 3.558646,-0.978959 5.461,-0.714375 5.461,-0.714375 0,0 2.897187,6.13833 -0.386292,7.67292 z"
       fill="#ffdec9"
       fill-rule="nonzero"
       opacity="1"
       stroke="#000000"
       stroke-linecap="butt"
       stroke-linejoin="round"
       stroke-width="2.604"
       id="path6996"
       style="clip-rule:evenodd;fill-rule:nonzero;stroke-linecap:round;stroke-linejoin:round" />
    <path
       d="m 82.133634,96.578328 19.491856,-4.683125 c 0,0 5.99016,21.193127 14.20812,37.279787 8.55398,16.77459 19.35163,28.44271 19.49186,28.04584 0.1561,-0.47625 -0.65088,5.60916 -2.94482,11.72104 -1.65893,4.41854 -3.92112,9.57792 -7.97189,9.02229 C 109.51007,175.87395 82.133634,96.578328 82.133634,96.578328 Z"
       fill="#64656c"
       fill-rule="nonzero"
       opacity="1"
       stroke="none"
       id="path6998"
       style="clip-rule:evenodd;fill-rule:nonzero;stroke-width:0.264583;stroke-linecap:round;stroke-linejoin:round" />
    <path
       d="m 5.2933438,65.75437 0.1349375,4.259792 c 0,0 24.8681867,1.5875 26.1196667,1.42875 2.611437,-0.3175 -0.854605,-4.841875 2.185458,-5.953125 1.944687,-0.714375 145.626664,-2.301875 145.626664,-2.301875 0,0 -0.56092,-3.122084 -1.9394,-3.307292 -12.39308,-1.481667 -27.08804,-1.42875 -58.6052,-1.190625 -38.224356,0.3175 -88.45021,1.984375 -89.889543,2.407708 -2.457979,0.687917 -2.153709,5.291667 -2.153709,5.291667 z"
       fill="#64656c"
       fill-rule="nonzero"
       opacity="1"
       stroke="none"
       id="path7000"
       style="clip-rule:evenodd;fill-rule:nonzero;stroke-width:0.264583;stroke-linecap:round;stroke-linejoin:round" />
  </g>
</svg>
