<?xml version="1.0" encoding="UTF-8" standalone="no"?>
<!-- Created with Inkscape (http://www.inkscape.org/) -->

<svg
   width="325.81464mm"
   height="81.848244mm"
   viewBox="0 0 325.81464 81.848244"
   version="1.1"
   id="svg16713"
   inkscape:version="1.2.1 (9c6d41e410, 2022-07-14)"
   sodipodi:docname="Shotgun.svg"
   xmlns:inkscape="http://www.inkscape.org/namespaces/inkscape"
   xmlns:sodipodi="http://sodipodi.sourceforge.net/DTD/sodipodi-0.dtd"
   xmlns="http://www.w3.org/2000/svg"
   xmlns:svg="http://www.w3.org/2000/svg">
  <sodipodi:namedview
     id="namedview16715"
     pagecolor="#ffffff"
     bordercolor="#000000"
     borderopacity="0.25"
     inkscape:showpageshadow="2"
     inkscape:pageopacity="0.0"
     inkscape:pagecheckerboard="0"
     inkscape:deskcolor="#d1d1d1"
     inkscape:document-units="mm"
     showgrid="false"
     inkscape:zoom="0.71624579"
     inkscape:cx="626.18169"
     inkscape:cy="159.86132"
     inkscape:window-width="1920"
     inkscape:window-height="991"
     inkscape:window-x="-9"
     inkscape:window-y="-9"
     inkscape:window-maximized="1"
     inkscape:current-layer="layer1" />
  <defs
     id="defs16710" />
  <g
     inkscape:label="Слой 1"
     inkscape:groupmode="layer"
     id="layer1"
     transform="translate(60.5827,-106.46767)">
    <path
       d="m 16.465415,136.26583 5.672666,11.29771 c 0,0 7.283979,-2.61938 15.036271,-4.23334 2.965979,-0.60854 5.998104,-1.08479 8.718021,-1.21708 5.095875,-0.21167 15.147395,1.27 17.877895,3.75708 2.759604,2.54 4.468813,14.79021 -1.981729,16.27188 -47.077312,10.84791 -45.23052,7.19666 -60.3064782,1.08479 -14.2795628,-5.76792 2.8548541,-16.72167 2.8548541,-16.72167 z"
       fill="#ffdec9"
       fill-rule="nonzero"
       opacity="1"
       stroke="#000000"
       stroke-linecap="round"
       stroke-linejoin="round"
       stroke-width="2.604"
       id="path510"
       style="clip-rule:evenodd;fill-rule:nonzero;stroke-linecap:round;stroke-linejoin:round" />
    <path
       d="m -22.071147,139.36145 c 0.738187,2.96334 8.162395,29.07771 16.7004995,22.96584 3.7994166,-2.72521 22.0292085,-14.84313 23.2595205,-23.68021 0.738188,-5.31813 -16.4279789,-20.08188 -37.560249,-29.68625 -17.885834,-8.12271 -3.010959,27.96646 -2.399771,30.40062 z"
       fill="#ca2042"
       fill-rule="nonzero"
       opacity="1"
       stroke="#000000"
       stroke-linecap="round"
       stroke-linejoin="round"
       stroke-width="2.604"
       id="path826"
       style="clip-rule:evenodd;fill-rule:nonzero;stroke-linecap:round;stroke-linejoin:round" />
    <path
       d="m 13.935998,165.18479 c 0.259292,-1.69334 1.680104,-3.01625 3.984625,-2.64584 2.301875,0.34396 4.616979,2.27542 4.355042,3.94229 -0.261938,1.66688 -8.601604,0.37042 -8.339667,-1.29645 z"
       fill="#f29a7f"
       fill-rule="nonzero"
       opacity="0.366279"
       stroke="none"
       id="path1066"
       style="clip-rule:evenodd;fill-rule:nonzero;stroke-width:0.264583;stroke-linecap:round;stroke-linejoin:round" />
    <path
       d="m 66.548393,148.19854 c -2.492375,0.76729 -8.162395,3.57187 -10.728854,0.52916 -2.566458,-3.04271 2.788709,-7.91104 6.564313,-8.36083 3.775604,-0.47625 5.677958,0.0794 5.677958,0.0794 0,0 2.066396,6.64105 -1.513417,7.7523 z"
       fill="#ffdec9"
       fill-rule="nonzero"
       opacity="1"
       stroke="#000000"
       stroke-linecap="butt"
       stroke-linejoin="round"
       stroke-width="2.604"
       id="path6640"
       style="clip-rule:evenodd;fill-rule:nonzero;stroke-linecap:round;stroke-linejoin:round" />
    <path
       d="m 50.887706,141.18708 c 0,0 -2.968625,6.19125 -0.494771,8.75771 2.473854,2.54 8.453438,2.30187 12.7,-0.15875 4.246562,-2.48709 4.288896,-10.23938 4.288896,-10.23938 z"
       fill="none"
       opacity="1"
       stroke="#0a0809"
       stroke-linecap="butt"
       stroke-linejoin="round"
       stroke-width="2.6035"
       id="path6954"
       style="clip-rule:evenodd;fill-rule:nonzero;stroke-linecap:round;stroke-linejoin:round" />
    <path
       d="m 98.40158,130.70958 164.0205,1.16416 0.34131,6.93209 -164.941247,1.98437 z"
       fill="#717380"
       fill-rule="nonzero"
       opacity="1"
       stroke="#0a0809"
       stroke-linecap="butt"
       stroke-linejoin="round"
       stroke-width="2.6035"
       id="path6956"
       style="clip-rule:evenodd;fill-rule:nonzero;stroke-linecap:round;stroke-linejoin:round" />
    <path
       d="m 97.229476,121.60791 166.579014,0.29104 0.12171,8.73125 -165.105286,-0.50271 z"
       fill="#717380"
       fill-rule="nonzero"
       opacity="1"
       stroke="#0a0809"
       stroke-linecap="butt"
       stroke-linejoin="round"
       stroke-width="2.6035"
       id="path6958"
       style="clip-rule:evenodd;fill-rule:nonzero;stroke-linecap:round;stroke-linejoin:round" />
    <path
       d="m -58.406376,187.01291 c 3.069167,0.0794 16.107833,-5.23875 31.543625,-14.15521 8.252354,-4.78896 30.2445201,-16.69521 33.3957075,-15.13416 16.5470415,8.255 17.1714585,5.55625 17.1714585,5.55625 0,0 0.489479,-18.15042 18.444104,-21.21959 28.032603,-4.78896 53.578124,0.23813 56.210728,-0.66146 4.140733,-1.42875 1.516063,-20.34645 1.516063,-20.34645 0,0 -29.215292,-1.56105 -49.416229,2.2225 -20.200937,3.78354 -29.794729,13.54666 -29.794729,13.54666 0,0 -66.198749,2.11667 -73.548874,3.62479 -7.323666,1.53459 -7.0485,46.54021 -5.521854,46.56667 z"
       fill="#9b775e"
       fill-rule="nonzero"
       opacity="1"
       stroke="#0a0809"
       stroke-linecap="butt"
       stroke-linejoin="round"
       stroke-width="2.6035"
       id="path6960"
       style="clip-rule:evenodd;fill-rule:nonzero;stroke-linecap:round;stroke-linejoin:round" />
    <path
       d="m 132.7101,128.43416 c -4.13544,1.93146 0.0238,15.79563 0.89429,15.875 11.28448,0.84667 60.58165,1.03188 63.77252,-0.52917 2.10873,-1.00541 3.3364,-13.36145 0.67998,-15.63687 -2.28071,-1.93146 -57.08385,-3.54542 -65.34679,0.29104 z"
       fill="#252629"
       fill-rule="nonzero"
       opacity="1"
       stroke="#0a0809"
       stroke-linecap="butt"
       stroke-linejoin="round"
       stroke-width="2.6035"
       id="path6962"
       style="clip-rule:evenodd;fill-rule:nonzero;stroke-linecap:round;stroke-linejoin:round" />
    <path
       d="m 217.48525,144.73249 c -1.92353,-4.7625 -1.44463,-18.67958 -1.44463,-18.67958 l 7.6491,-0.21167 c 0,0 0.86519,12.91167 0.0423,19.31459 -0.0635,0.47625 -4.32594,4.36562 -6.24681,-0.42334 z"
       fill="#d2d4dd"
       fill-rule="nonzero"
       opacity="1"
       stroke="#0a0809"
       stroke-linecap="butt"
       stroke-linejoin="round"
       stroke-width="2.6035"
       id="path6966"
       style="clip-rule:evenodd;fill-rule:nonzero;stroke-linecap:round;stroke-linejoin:round" />
    <path
       d="m 248.65581,125.47083 c -0.21431,8.73125 0.29104,16.53646 0.29104,16.53646 l 7.43215,0.0794 -0.48684,-15.74271 c 0,0 -7.20725,-2.01083 -7.23635,-0.87312 z"
       fill="#d2d4dd"
       fill-rule="nonzero"
       opacity="1"
       stroke="#0a0809"
       stroke-linecap="butt"
       stroke-linejoin="round"
       stroke-width="2.6035"
       id="path6968"
       style="clip-rule:evenodd;fill-rule:nonzero;stroke-linecap:round;stroke-linejoin:round" />
  </g>
</svg>
