<?xml version="1.0" encoding="UTF-8" standalone="no"?>
<!-- Created with Vectornator (http://vectornator.io/) -->

<svg
   height="190.67499"
   stroke-miterlimit="10"
   style="clip-rule:evenodd;fill-rule:nonzero;stroke-linecap:round;stroke-linejoin:round"
   version="1.1"
   viewBox="0 0 97.776062 190.67499"
   width="97.776062"
   xml:space="preserve"
   id="svg2113"
   sodipodi:docname="window.svg"
   inkscape:version="1.2.1 (9c6d41e410, 2022-07-14)"
   xmlns:inkscape="http://www.inkscape.org/namespaces/inkscape"
   xmlns:sodipodi="http://sodipodi.sourceforge.net/DTD/sodipodi-0.dtd"
   xmlns="http://www.w3.org/2000/svg"
   xmlns:svg="http://www.w3.org/2000/svg"
   xmlns:vectornator="http://vectornator.io"><sodipodi:namedview
   id="namedview2115"
   pagecolor="#ffffff"
   bordercolor="#000000"
   borderopacity="0.25"
   inkscape:showpageshadow="2"
   inkscape:pageopacity="0.0"
   inkscape:pagecheckerboard="0"
   inkscape:deskcolor="#d1d1d1"
   showgrid="false"
   inkscape:zoom="0.52640172"
   inkscape:cx="183.32007"
   inkscape:cy="268.80611"
   inkscape:window-width="1920"
   inkscape:window-height="991"
   inkscape:window-x="-9"
   inkscape:window-y="-9"
   inkscape:window-maximized="1"
   inkscape:current-layer="svg2113" />
<defs
   id="defs1189">
<linearGradient
   gradientTransform="matrix(3.00945,0,0,3.5504,364.055,-111.027)"
   gradientUnits="userSpaceOnUse"
   id="LinearGradient"
   x1="198.364"
   x2="244.97099"
   y1="235.86301"
   y2="235.86301">
<stop
   offset="0"
   stop-color="#b0bbf1"
   stop-opacity="0.942898"
   id="stop1175" />
<stop
   offset="0.530992"
   stop-color="#6d84ef"
   stop-opacity="0.942898"
   id="stop1177" />
<stop
   offset="1"
   stop-color="#4e6cf6"
   stop-opacity="0.942898"
   id="stop1179" />
</linearGradient>
<linearGradient
   gradientTransform="matrix(3.00945,0,0,3.5504,-468.70797,-667.811)"
   gradientUnits="userSpaceOnUse"
   id="LinearGradient_2"
   x1="155.979"
   x2="192.36"
   y1="213.886"
   y2="213.886">
<stop
   offset="0"
   stop-color="#b0bbf1"
   stop-opacity="0.942898"
   id="stop1182" />
<stop
   offset="0.530992"
   stop-color="#6d84ef"
   stop-opacity="0.942898"
   id="stop1184" />
<stop
   offset="1"
   stop-color="#4e6cf6"
   stop-opacity="0.942898"
   id="stop1186" />
</linearGradient>
</defs>
<clipPath
   id="ArtboardFrame">
<rect
   height="1080"
   width="1920"
   x="0"
   y="0"
   id="rect1191" />
</clipPath>



<g
   clip-path="url(#ArtboardFrame)"
   id="Layer-4"
   vectornator:layerName="Layer 4"
   style="display:none"
   transform="translate(-756.58046,-239.00791)">
<g
   opacity="1"
   id="g2071">
<path
   d="m 184.321,168.905 c 2.793,-1.725 -2.311,-6.185 -4,-9 -1.151,-1.917 -2.852,-8.231 -3,-6 -0.468,7.016 1.005,14.039 2,21 5.34,37.381 10.294,74.839 17,112 1.31,7.261 2.572,15.097 7,21 3.492,4.657 -2.715,-11.322 -4,-17 -2.715,-11.989 -5.54,-23.956 -8,-36 -7.263,-35.55 -11.2,-71.799 -20,-107 -0.292,-1.166 -3.075,0.801 -3,2 1.88,30.084 11.434,59.206 16,89 3.306,21.578 5.514,43.312 8,65 1.181,10.314 0.964,41.18 3,31 2.357,-11.785 -1.064,-24.018 -2,-36 -0.732,-9.358 -2.049,-18.662 -3,-28 -2.716,-26.662 -5.334,-53.333 -8,-80 -1,-10 -1.171,-20.118 -3,-30 -0.219,-1.182 -2.1,1.802 -2,3 1.256,15.081 3.305,30.109 6,45 3.643,20.137 8.986,39.933 13,60 3.321,16.606 5.791,33.372 9,50 0.459,2.383 2.475,9.38 2,7 -6.094,-30.468 -12.361,-61.041 -15,-92 -1.956,-22.938 -2.37,-45.987 -3,-69 -0.038,-1.374 0.802,-5.36 1,-4 6.118,42.148 10.584,84.547 14,127 0.695,8.645 1,17.327 1,26 0,1.054 -0.794,-1.966 -1,-3 -2.129,-10.642 -4.446,-21.259 -6,-32 -2.115,-14.609 -3.334,-29.333 -5,-44 -1.667,-14.667 -3.482,-29.317 -5,-44 -1.242,-11.999 -2.979,-27.003 13,-29 22.316,-2.789 35.426,8.712 49,25 5.036,6.044 10.877,11.779 14,19 2.396,5.541 3.605,12.18 2,18 -1.318,4.777 -6.004,8.07 -10,11 -6.136,4.499 -12.85,8.4 -20,11 -7.68,2.793 -15.831,4.81 -24,5 -6.471,0.151 -12.836,-2.027 -19,-4 -2.29,-0.733 -5.34,-6.311 -6,-4 -1.072,3.751 1.88,7.724 4,11 1.669,2.58 4.152,4.843 7,6 8.017,3.257 16.394,6.085 25,7 7.322,0.779 15.449,1.364 22,-2 6.722,-3.452 10.853,-10.682 15,-17 2.954,-4.502 5.21,-9.673 6,-15 1.578,-10.654 -6.077,-21.005 -12,-30 -5.244,-7.962 -10.623,-15.914 -17,-23 -5.686,-6.317 -11.219,-13.584 -19,-17 -6.722,-2.951 -14.663,-1.216 -22,-1 -4.054,0.119 -8.017,1.241 -12,2 -3.019,0.575 -12.043,2.435 -9,2 5.371,-0.767 10.636,-3.825 16,-3 4.021,0.619 6.625,4.726 10,7 11.959,8.06 23.717,16.441 36,24 9.402,5.786 20.465,8.997 29,16 4.862,3.989 9.134,9.771 10,16 0.945,6.807 -1.153,14.306 -5,20 -4.899,7.25 -12.313,12.822 -20,17 -7.968,4.33 -17.014,6.79 -26,8 -8.596,1.157 -17.445,0.426 -26,-1 -3.677,-0.613 -6.84,-3.025 -10,-5 -0.566,-0.353 1.348,-0.142 2,0 7.031,1.529 13.805,4.853 21,5 18.969,0.387 38.725,-6.745 54,-18 4.948,-3.646 10.056,-8.169 12,-14 1.406,-4.219 -1.37,-8.862 -3,-13 -6.28,-15.941 -17.74,-30.15 -31,-41 -7.085,-5.796 -14.369,-11.954 -23,-15 -8.852,-3.124 -18.617,-2.753 -28,-3 -3.162,-0.083 -11.691,4.661 -9,3 z"
   fill="none"
   opacity="1"
   stroke="#32b055"
   stroke-linecap="round"
   stroke-linejoin="round"
   stroke-width="5.08571"
   id="path2035" />
<path
   d="m 311.321,180.905 c -0.774,-1.547 -3.123,-4.755 -2,-7 0.333,-0.667 1.812,-1.721 2,-1 9.081,35.028 8.632,71.891 11,108 0.917,13.986 0.896,28.028 2,42 0.108,1.37 1.065,-2.627 1,-4 -0.605,-12.692 -1.807,-25.35 -3,-38 -3.807,-40.352 -9.87,-80.525 -12,-121 -0.268,-5.092 2.43,9.933 3,15 2.766,24.622 4.828,49.319 7,74 2.297,26.108 5.393,53.522 4,80 -0.177,3.345 -0.94,-6.651 -1,-10 -0.273,-14.997 0.727,-30.018 0,-45 -1.8,-37.078 -5.64,-74.031 -9,-111 -0.272,-2.988 -0.174,6.005 0,9 1.16,20.011 2.655,40.001 4,60 2.104,31.307 4.049,62.637 5,94 0.02,0.666 -0.058,-1.336 0,-2 0.609,-7.005 -0.877,-14.583 2,-21 1.854,-4.137 6.491,-7.525 11,-8 9.048,-0.952 18.009,2.605 27,4 10.343,1.605 21.108,1.576 31,5 7.779,2.693 13.88,8.866 21,13 3.222,1.871 7.671,2.09 10,5 1.249,1.562 -4.002,0.08 -6,0 -6.338,-0.253 -12.684,-0.426 -19,-1 -26.963,-2.451 -53.93,-6.437 -81,-6 -5.754,0.093 -16.618,-2.741 -17,3 -0.444,6.652 9.433,10.848 16,12 13.477,2.364 27.413,-0.382 41,-2 14.477,-1.723 28.456,-6.976 43,-8 9.363,-0.659 18.774,1.27 28,3 1.638,0.307 5.526,2.332 4,3 -12.967,5.673 -27.543,4.016 -41,3 -10.684,-0.806 -21.384,-1.56 -32,-3 -9.071,-1.23 -18.247,-2.325 -27,-5 -3.449,-1.054 -12.389,-4.768 -9,-6 6.296,-2.29 13.469,0.501 20,2 13.879,3.185 26.969,9.568 41,12 11.171,1.936 22.665,1.291 34,1 1.794,-0.046 3.333,-1.333 5,-2"
   fill="none"
   opacity="1"
   stroke="#32b055"
   stroke-linecap="round"
   stroke-linejoin="round"
   stroke-width="5.08571"
   id="path2037" />
<path
   d="m 455.321,147.905 c 0,-1.667 0,-3.333 0,-5 0,-2 0,-8 0,-6 0,14.333 -0.769,28.687 0,43 1.899,35.383 4.94,70.699 8,106 1.274,14.706 2.105,29.526 5,44 0.602,3.014 2.046,-5.927 2,-9 -0.289,-19.024 -2.149,-37.993 -3,-57 -1.149,-25.66 -2.554,-51.318 -3,-77 -0.221,-12.669 -1.903,-25.666 1,-38 1.619,-6.883 2.267,13.967 3,21 2.601,24.974 5.496,49.936 7,75 1.497,24.964 1.21,50.004 2,75 0.21,6.672 1,26.675 1,20 0,-37.72 -4.031,-75.332 -6,-113 -1.377,-26.316 -2.142,-52.662 -3,-79 -0.142,-4.331 0.56,-17.297 0,-13 -5.096,39.062 -3.354,74.661 -2,115 0.783,23.358 1.884,46.725 4,70 0.229,2.528 2.613,9.509 3,7 1.014,-6.597 -0.65,-13.334 -1,-20 -0.983,-18.668 -2.104,-37.328 -3,-56 -1.104,-22.995 -2.777,-45.979 -3,-69 -0.111,-11.352 -1.751,-23.284 2,-34 1.637,-4.677 3.715,9.214 5,14 6.054,22.566 9.392,45.909 17,68 9.776,28.39 23.223,55.38 35,83 6.557,15.38 13.025,30.804 20,46 2.363,5.15 10.534,9.932 8,15 -2.358,4.714 -6.896,-8.168 -9,-13 -6.948,-15.953 -12.289,-32.564 -18,-49 -10.623,-30.568 -22.221,-60.853 -31,-92 -5.25,-18.625 -6.307,-38.227 -11,-57 -0.405,-1.617 -4.327,-4.634 -4,-3 3.583,17.918 7.144,36.062 14,53 10.235,25.288 24.875,48.562 37,73 9.21,18.564 18.017,37.325 27,56 3.683,7.658 7.593,15.214 11,23 1.077,2.462 -2.898,-4.549 -4,-7 -4.904,-10.896 -9.258,-22.033 -14,-33 -5.925,-13.7 -12.707,-27.044 -18,-41 -5.72,-15.08 -10,-30.667 -15,-46"
   fill="none"
   opacity="1"
   stroke="#32b055"
   stroke-linecap="round"
   stroke-linejoin="round"
   stroke-width="5.08571"
   id="path2039" />
<path
   d="m 437.821,271.905 c -2.575,-0.257 -10.088,-2 -7.5,-2 9.405,0 20.627,4.562 30,4 28.076,-1.685 56.293,-3.158 84,-8 7.05,-1.232 26.059,-8.823 19,-10 -10.527,-1.754 -20.583,5.685 -31,8 -13.593,3.021 -27.279,5.634 -41,8 -15.285,2.635 -30.527,5.933 -46,7 -4.114,0.284 -11.192,1.043 -12,-3 -0.798,-3.99 5.936,-6.797 10,-7 10.125,-0.506 20.019,3.218 30,5 18.02,3.218 35.709,9.238 54,10 6.432,0.268 14.543,-1.569 18,-7 2.094,-3.292 -7.215,-3.054 -11,-4 -10.91,-2.727 -21.83,-5.711 -33,-7 -14.916,-1.721 -29.999,-1.357 -45,-2 -8.333,-0.357 -17.36,-4.343 -25,-1 -3.678,1.609 6.649,4.746 9,8 0.525,0.728 -1.607,1.089 -2.5,1 z"
   fill="none"
   opacity="1"
   stroke="#32b055"
   stroke-linecap="round"
   stroke-linejoin="round"
   stroke-width="5.08571"
   id="path2041" />
<path
   d="m 540.321,154.905 c -0.334,0.667 -1.378,1.358 -1,2 3.143,5.344 6.641,10.59 11,15 24.03,24.313 47.482,49.427 74,71 13.085,10.646 29.754,15.966 44,25 0.89,0.565 -2.075,1.505 -3,1 -6.737,-3.675 -12.42,-9.052 -19,-13 -11.772,-7.063 -24.556,-12.42 -36,-20 -14.285,-9.461 -28.691,-19.082 -41,-31 -8.909,-8.626 -14.56,-20.079 -22,-30 -0.566,-0.754 -2.536,-2.776 -2,-2 16.093,23.336 33.953,46.181 56,64 12.151,9.821 24.847,19.38 39,26 7.003,3.276 15.333,2 23,3"
   fill="none"
   opacity="1"
   stroke="#32b055"
   stroke-linecap="round"
   stroke-linejoin="round"
   stroke-width="5.08571"
   id="path2043" />
<path
   d="m 668.321,168.905 c -2.619,7.856 -2.544,17.88 -3,26 -1.423,25.328 -1.81,50.726 -4,76 -2.146,24.756 -5.486,49.401 -9,74 -0.519,3.63 -0.391,-7.354 0,-11 1.612,-15.047 4.711,-29.922 6,-45 2.046,-23.95 1.416,-48.102 4,-72 2.756,-25.499 6.47,-50.956 12,-76 0.366,-1.66 5.108,-2.696 5,-1 -1.034,16.188 -5.92,31.913 -8,48 -2.923,22.598 -4.382,45.365 -7,68 -2.049,17.702 -4.445,35.364 -7,53 -0.779,5.37 0.836,19.837 -3,16 -4.479,-4.478 -0.631,-12.698 0,-19 1.707,-17.074 5.043,-33.952 7,-51 2.711,-23.626 4.695,-47.33 7,-71 1.362,-13.997 5.818,-55.945 4,-42 -6.055,46.417 -7.227,93.342 -11,140 -1.651,20.4 -4.03,40.75 -7,61 -0.705,4.802 -3.518,18.829 -4,14 -1.13,-11.297 1.002,-22.691 2,-34 2.002,-22.698 5.146,-45.289 7,-68 2.146,-26.299 2.895,-52.698 5,-79 0.563,-7.049 2.864,-28.07 3,-21 0.468,24.338 -0.695,48.693 -2,73 -1.363,25.376 -3.868,50.678 -6,76 -0.535,6.346 -1.334,12.667 -2,19"
   fill="none"
   opacity="1"
   stroke="#32b055"
   stroke-linecap="round"
   stroke-linejoin="round"
   stroke-width="5.08571"
   id="path2045" />
<path
   d="m 540.321,160.905 c -0.667,0 -2.272,-0.609 -2,0 7.115,15.925 13.123,32.623 23,47 16.626,24.203 35.378,47.096 56,68 4.22,4.278 15.099,11.701 17,6 2.162,-6.488 -9.469,-9.877 -14,-15 -3.139,-3.548 -6.373,-7.058 -9,-11 -9.389,-14.082 -18.896,-28.142 -27,-43 -7.927,-14.532 -13.28,-30.358 -21,-45 -1.991,-3.776 -9.499,-13.997 -8,-10 2.468,6.584 7.382,11.97 11,18 9.382,15.637 16.608,32.76 28,47 11.488,14.361 25.337,26.899 40,38 8.913,6.749 20.363,9.331 30,15 1.839,1.082 6.07,5.518 4,5 -3.234,-0.808 -5.69,-3.597 -8,-6 -6.065,-6.307 -10.747,-13.88 -17,-20 -9.458,-9.256 -19.455,-18.006 -30,-26 -10.168,-7.707 -20.655,-15.165 -32,-21 -1.258,-0.647 -3.814,1.843 -3,3 8.564,12.188 18.466,23.467 29,34 10.533,10.533 23.466,18.467 34,29 6.883,6.884 12.064,15.284 18,23 0.732,0.953 2,4.202 2,3 0,-24.39 -4.561,-48.614 -5,-73 -0.379,-20.999 -0.611,-42.059 1,-63 1.063,-13.824 2.843,-27.773 7,-41 0.72,-2.293 3.911,3.598 4,6 0.592,16.003 -0.955,32.02 -2,48 -2.632,40.225 -8.514,80.214 -15,120 -1.685,10.331 -3.669,20.618 -5,31 -0.399,3.11 -1.213,13.212 4,8"
   fill="none"
   opacity="1"
   stroke="#32b055"
   stroke-linecap="round"
   stroke-linejoin="round"
   stroke-width="5.08571"
   id="path2047" />
<path
   d="m 174.321,150.905 c -0.334,-0.667 -0.255,-2 -1,-2 -0.943,0 -2.04,1.058 -2,2 0.973,23.373 3.267,46.671 5,70 3.267,44.005 6.335,88.026 10,132 0.669,8.034 -3.709,28.472 3,24 7.211,-4.807 0.407,-17.343 0,-26 -0.927,-19.69 -2.329,-39.359 -4,-59 -2.329,-27.364 -6.158,-54.599 -8,-82 -0.828,-12.306 0.385,-24.673 0,-37 -0.054,-1.699 -0.837,3.308 -1,5 -0.838,8.652 -2.326,17.314 -2,26 0.677,18.064 2.773,36.061 5,54 3.442,27.742 7.709,55.377 12,83 1.043,6.718 -1.439,24.079 4,20 6.133,-4.6 0.215,-15.336 0,-23 -0.451,-16.007 -0.85,-32.027 -2,-48 -1.851,-25.706 -5.073,-51.3 -7,-77 -1.074,-14.309 -0.573,-28.722 -2,-43 -0.763,-7.629 -0.485,15.349 0,23 1.183,18.704 3.443,37.324 5,56 3.082,36.993 4.533,74.148 9,111 0.089,0.74 1.039,-1.256 1,-2 -0.3,-5.698 -1.387,-11.327 -2,-17 -0.721,-6.661 -1.589,-13.313 -2,-20 -1.968,-31.967 -2.933,-63.99 -4,-96 -0.1,-2.998 0,-12 0,-9 0,48.754 1.213,97.231 12,145 0.44,1.951 0.199,-4.01 0,-6 -0.803,-8.022 -2,-16 -3,-24 -1,-8 -2.289,-15.969 -3,-24 -3.563,-40.205 -7.247,-80.674 -9,-121 -0.391,-8.991 -4.025,-18.95 0,-27 0.761,-1.522 7.985,-1.008 8,-1 3.766,2.009 6.49,5.57 10,8 5.171,3.58 10.502,6.946 16,10 3.52,1.956 7.905,2.422 11,5 3.125,2.605 4.773,6.595 7,10 7.041,10.77 13.204,19.223 16,32 4.963,22.692 -7.854,34.771 -29,39 -5.92,1.184 -11.975,1.623 -18,2 -4.658,0.291 -18.174,-2.087 -14,0 5.399,2.7 11.966,1.799 18,2 16.327,0.544 31.137,-9.439 45,-17 2.76,-1.506 6.291,-2.36 8,-5 4.346,-6.717 2.6,-16.434 0,-24 -2.335,-6.79 -4.488,-13.738 -8,-20 -4.209,-7.502 -9.787,-14.157 -15,-21 -5.459,-7.164 -9.685,-15.748 -17,-21 -6.252,-4.488 -14.871,-4.104 -22,-7 -3.602,-1.463 -6.313,-4.771 -10,-6 -1.789,-0.596 2.666,2.667 4,4"
   fill="none"
   opacity="1"
   stroke="#32b055"
   stroke-linecap="round"
   stroke-linejoin="round"
   stroke-width="5.08571"
   id="path2049" />
<path
   d="m 306.321,171.905 c -0.667,0 -2.138,-0.652 -2,0 1.368,6.499 5.157,12.412 6,19 2.841,22.214 3.998,44.627 5,67 1.52,33.968 -0.477,68.03 1,102 0.174,4.01 0.851,-7.989 1,-12 0.518,-13.994 1.432,-28.003 1,-42 -1.18,-38.128 -4.433,-76.263 -10,-114 -0.176,-1.189 -2.218,-2.912 -3,-2 -2.058,2.401 -2.843,5.842 -3,9 -0.517,10.326 -0.168,20.727 1,31 4.22,37.143 11.927,73.84 16,111 0.69,6.304 3.005,12.983 1,19 -1.7,5.099 -1.354,-10.664 -2,-16 -0.687,-5.664 -1.527,-11.314 -2,-17 -0.194,-2.325 -1.823,-5.542 0,-7 1.517,-1.214 3.519,1.741 5,3 5.211,4.43 8.798,11.116 15,14 8.654,4.026 18.589,4.405 28,6 10.272,1.741 20.664,2.681 31,4 5.331,0.681 10.654,2.563 16,2 1.657,-0.174 4.49,-3.255 3,-4 -2.7,-1.35 -5.988,0.806 -9,1 -7.326,0.473 -14.823,2.538 -22,1 -11.865,-2.542 -22.597,-8.853 -34,-13 -10.601,-3.855 -21.075,-8.198 -32,-11 -2.284,-0.585 -6.787,-1.347 -7,1 -0.352,3.871 2.646,8.034 6,10 6.913,4.053 15.115,5.566 23,7 14.197,2.581 28.625,6.258 43,5 12.916,-1.13 24.421,-8.855 37,-12 4.861,-1.215 10.138,-2.215 15,-1 1.648,0.412 2.27,3.871 1,5 -2.602,2.312 -6.61,2.218 -10,3 -5.288,1.22 -10.581,2.722 -16,3 -19.212,0.985 -40.705,-3.723 -59,-7 -10.361,-1.856 -20.809,-3.37 -31,-6 -0.646,-0.167 -0.647,-2.162 0,-2 9.51,2.378 18.318,7.457 28,9 13.512,2.154 27.36,3.091 41,2 15.715,-1.257 30.448,-8.408 46,-11 2.079,-0.347 -3.905,1.767 -6,2 -3.976,0.442 -8.011,0.285 -12,0 -5.362,-0.383 -10.699,-1.116 -16,-2 -10.705,-1.784 -21.572,-2.995 -32,-6 -9.339,-2.691 -17.901,-7.588 -27,-11 -4.246,-1.592 -9.228,-6.515 -13,-4 -3.34,2.227 -2.148,9.509 1,12 6.283,4.974 15.193,5.188 23,7 10.89,2.528 22.133,3.371 33,6 9.837,2.38 19.064,7.068 29,9 2.382,0.463 7.588,0.354 7,-2 -0.667,-2.667 -5.358,-1.245 -8,-2 -4.36,-1.246 -8.567,-3.05 -13,-4 -20.524,-4.398 -41.419,-6.884 -62,-11 -5.709,-1.142 -21.844,-7.229 -17,-4 7.726,5.151 17.378,6.551 26,10 6.38,2.552 12.436,5.963 19,8 12.817,3.978 25.643,8.691 39,10 4.312,0.423 8.761,-2.121 12,-5 1.057,-0.94 -1.788,-2.272 -3,-3 -2.177,-1.306 -4.667,-2 -7,-3"
   fill="none"
   opacity="1"
   stroke="#32b055"
   stroke-linecap="round"
   stroke-linejoin="round"
   stroke-width="5.08571"
   id="path2051" />
<path
   d="m 448.321,156.905 c 0,-1.4 -0.001,-7 0,-7 0.323,-1.455 0.721,-4.767 2,-4 2.176,1.306 2.865,4.465 3,7 1.54,28.967 1.131,58.005 2,87 1.257,41.987 4.396,84.063 2,126 -0.211,3.676 -0.94,-7.319 -1,-11 -0.274,-16.664 0,-33.333 0,-50 0,-37.024 0.387,-74.153 4,-111 0.102,-1.049 1.075,-4.051 1,-3 -0.407,5.691 -1.822,11.297 -2,17 -1.313,41.991 1.347,84.021 3,126 0.629,16.002 0.642,32.044 2,48 0.063,0.743 1.962,-0.256 2,-1 1.697,-33.959 0.197,-68.008 1,-102 0.504,-21.338 1.158,-42.673 2,-64 0.158,-4.011 0.866,-16.012 1,-12 0.466,13.992 -0.134,28.001 0,42 0.393,41.333 2.02,82.678 1,124 -0.166,6.698 3.359,15.98 -2,20 -4.565,3.423 -1.655,-11.305 -2,-17 -0.989,-16.317 -1.726,-32.655 -2,-49 -0.645,-38.333 -0.045,-79.367 1,-118 0.27,-10.002 -0.79,-20.156 1,-30 1.166,-6.415 4,-10.019 4,-17 0,-0.745 -1.839,0.272 -2,1 -0.579,2.603 -0.579,5.397 0,8 0.778,3.505 1.361,7.565 4,10 2.258,2.085 6.414,3.662 9,2 3.388,-2.178 4.239,-7.045 5,-11 0.944,-4.91 0.741,-10.055 0,-15 -0.289,-1.922 -1.115,-5.471 -3,-5 -1.968,0.492 -1.413,4.015 -1,6 3.285,15.832 6.85,31.673 12,47 9.206,27.405 20.621,54.017 31,81 7.955,20.684 15.14,41.687 24,62 4.828,11.071 12.043,20.985 17,32 1.102,2.451 3.149,9.612 1,8 -4.439,-3.329 -6.05,-9.302 -9,-14 -6.051,-9.635 -13.293,-18.642 -18,-29 -8.686,-19.108 -15.067,-39.189 -22,-59 -7.069,-20.197 -13.393,-40.647 -20,-61 -1.726,-5.315 -2.688,-21.087 -5,-16 -3.725,8.193 -2.304,18.3 0,27 3.819,14.429 11.528,27.55 18,41 10.535,21.897 20.329,44.266 33,65 5.788,9.472 14.15,17.151 22,25 1.9,1.9 4.415,4.738 7,4 1.923,-0.549 0,-4 0,-6"
   fill="none"
   opacity="1"
   stroke="#32b055"
   stroke-linecap="round"
   stroke-linejoin="round"
   stroke-width="5.08571"
   id="path2053" />
<path
   d="m 441.321,275.905 c -1,-0.333 -2.022,-0.608 -3,-1 -0.693,-0.277 -2.746,-1 -2,-1 3.681,0 7.324,0.784 11,1 18.993,1.117 37.978,2.595 57,3 12.335,0.262 24.662,-1 37,-1 1.699,0 6.578,0.369 5,1 -9.909,3.963 -21.329,1 -32,1 -10.334,0 -20.781,1.533 -31,0 -10.01,-1.501 -19.901,-4.567 -29,-9 -4.238,-2.065 -6.421,-6.932 -10,-10 -1.266,-1.085 1.509,3.255 3,4 8.692,4.346 17.544,8.754 27,11 24.429,5.802 49.917,8.14 75,7"
   fill="none"
   opacity="1"
   stroke="#32b055"
   stroke-linecap="round"
   stroke-linejoin="round"
   stroke-width="5.08571"
   id="path2055" />
<path
   d="m 542.321,174.905 c -1.62,2.429 -4.108,4.629 -1,8 14.695,15.946 31.023,30.318 46,46 13.364,13.994 25.029,29.611 39,43 10.11,9.689 22.875,16.325 33,26 5.014,4.792 8.349,11.102 12,17 0.723,1.169 2.374,4 1,4 -3.283,0 -6.345,-2.069 -9,-4 -4.77,-3.469 -8.765,-7.897 -13,-12 -6.434,-6.232 -13.296,-12.095 -19,-19 -7.009,-8.484 -12.662,-18.004 -19,-27 -3.995,-5.67 -5.371,-14.96 -12,-17 -4.154,-1.278 -2.784,9.037 -1,13 4.516,10.036 10.717,19.753 19,27 8.19,7.167 19.118,10.439 29,15 7.474,3.45 15.189,6.397 23,9 1.264,0.422 4.942,0.943 4,0 -2.749,-2.749 -7.189,-3.316 -10,-6 -4.632,-4.421 -9.902,-8.951 -12,-15 -3.755,-10.822 -6.113,-22.599 -5,-34 1.609,-16.498 9.152,-31.876 13,-48 3.156,-13.226 5.689,-26.6 8,-40 1.025,-5.949 2.6,-11.993 2,-18 -0.284,-2.834 -2.497,5.197 -3,8 -1.841,10.255 -3.249,20.608 -4,31 -1.251,17.301 -1.266,34.669 -2,52 -1.769,41.737 -2.217,83.78 -9,125 -1.147,6.97 -2.664,14.425 -7,20 -2.252,2.894 -0.603,-7.383 0,-11 2.074,-12.447 5.786,-24.577 8,-37 3.788,-21.257 6.877,-42.635 10,-64 4.185,-28.64 6.822,-57.522 12,-86 0.539,-2.97 -0.842,5.986 -1,9 -0.842,15.992 -1.299,32.002 -2,48 -0.965,22.002 -1.403,44.035 -3,66 -1.071,14.722 -3.206,29.348 -5,44 -0.207,1.687 -1.203,6.688 -1,5 2.881,-24.014 6.523,-47.94 9,-72 0.89,-8.647 6.472,-33.454 2,-26 -5.386,8.975 -3.448,20.649 -5,31 -1.448,9.65 -2.667,19.333 -4,29"
   fill="none"
   opacity="1"
   stroke="#32b055"
   stroke-linecap="round"
   stroke-linejoin="round"
   stroke-width="5.08571"
   id="path2057" />
<path
   d="m -126.679,14.905 c 1,-1 2,-2 3,-3"
   fill="none"
   opacity="1"
   stroke="#32b055"
   stroke-linecap="round"
   stroke-linejoin="round"
   stroke-width="5.08571"
   id="path2059" />
<path
   d="m 181.321,151.905 c -0.334,-1.667 -1.28,-3.323 -1,-5 0.122,-0.735 1.868,-1.734 2,-1 1.708,9.567 2.042,19.329 3,29 2.375,23.996 3.447,48.15 7,72 1.227,8.242 0,-16.667 0,-25 0,-23.667 1.26,-47.367 0,-71 -0.101,-1.883 -3.734,-2.133 -4,-4 -0.2,-1.4 2.611,-1.64 3,-3 0.377,-1.321 -0.218,-2.87 -1,-4 -2.285,-3.3 -3.997,-8.714 -8,-9 -3.325,-0.237 -7.055,4.838 -6,8 1.937,5.814 7.064,11.474 13,13 7.218,1.856 14.625,-5.084 22,-4 4.946,0.728 13.856,4.358 12,9 -1.985,4.962 -10.686,1.559 -16,1 -7.48,-0.787 -14.607,-3.624 -22,-5 -6.952,-1.293 -27.462,-0.128 -21,-3 9.143,-4.064 19.998,-1.294 30,-1 1.49,0.044 2.755,1.18 4,2 12.431,8.187 25.092,16.069 37,25 1.554,1.166 4.897,5.422 3,5 -4.521,-1.005 -8.042,-4.597 -12,-7 -5.377,-3.264 -11.055,-6.114 -16,-10 -0.587,-0.46 1.292,-1.236 2,-1 10.511,3.504 22.155,5.325 31,12 9.474,7.15 15.229,18.251 22,28 1.624,2.339 2.382,5.22 3,8 1.39,6.259 3.237,12.593 3,19 -0.111,2.979 -2.939,5.214 -4,8 -1.615,4.237 -1.411,9.278 -4,13 -2.974,4.274 -7.548,7.301 -12,10 -12.892,7.813 -28.119,11.6 -43,14 -2.98,0.481 -11.613,2.512 -9,1 12.391,-7.174 26.483,-11.047 39,-18 11.349,-6.305 23.475,-11.399 34,-19 1.967,-1.421 3.755,-5.324 2,-7 -6.7,-6.395 -16.961,-7.981 -24,-14 -16.123,-13.786 -30.159,-29.843 -45,-45 -0.841,-0.859 -1.334,-2 -2,-3"
   fill="none"
   opacity="1"
   stroke="#32b055"
   stroke-linecap="round"
   stroke-linejoin="round"
   stroke-width="5.08571"
   id="path2061" />
<path
   d="m 306.321,147.905 c -0.334,-0.667 -0.473,-2.527 -1,-2 -0.972,0.972 -1.192,2.639 -1,4 5.156,36.742 11.645,73.286 17,110 0.688,4.723 -2.447,-9.26 -3,-14 -1.784,-15.287 -2.441,-30.688 -4,-46 -2.108,-20.691 -4.104,-41.405 -7,-62 -0.132,-0.934 -2,-1.057 -2,-2 0,-3.073 1.633,-12.051 2,-9 4.489,37.412 3.53,75.324 3,113 -0.08,5.666 -2.105,22.261 0,17 2.734,-6.837 2.15,-14.638 2,-22 -0.518,-25.363 -1.451,-50.76 -4,-76 -0.797,-7.883 -1.747,-16.315 -6,-23 -1.443,-2.267 -7.835,-1.682 -8,1 -1.313,21.335 1.608,42.759 4,64 3.28,29.138 8.768,57.985 13,87 0.435,2.987 1.388,11.993 1,9 -2.722,-20.993 -6.43,-41.89 -8,-63 -1.435,-19.283 -0.551,-38.669 -1,-58 -0.218,-9.337 -1.456,-37.328 -1,-28 1.121,22.994 1.711,46.014 3,69 0.711,12.686 1.543,25.378 3,38 0.458,3.974 -0.252,-8.008 0,-12 2.082,-33.017 4.887,-65.985 7,-99 0.553,-8.655 1.333,-34.667 1,-26 -1.487,38.64 -1.443,77.409 1,116 0.318,5.034 1.374,20.005 2,15 0.951,-7.615 -0.912,-15.327 -1,-23 -0.246,-21.332 -0.257,-42.668 0,-64 0.076,-6.342 0.822,-25.34 1,-19 1.177,41.989 1.333,84 2,126"
   fill="none"
   opacity="1"
   stroke="#32b055"
   stroke-linecap="round"
   stroke-linejoin="round"
   stroke-width="5.08571"
   id="path2063" />
<path
   d="m 476.321,124.905 c -2,-3 -3.933,-6.046 -6,-9 -0.956,-1.365 -2.772,-5.651 -3,-4 -4.832,34.858 -7.686,69.965 -11,105 -1.354,14.304 -0.183,28.911 -3,43 -1.831,9.152 -0.488,-18.679 0,-28 2.18,-41.695 7.668,-83.249 8,-125 0.018,-2.357 -6.601,-3.323 -7,-1 -3.678,21.394 -3.511,43.298 -4,65 -0.512,22.663 -7.217,46.872 1,68 6.084,15.645 4.628,-33.27 6,-50 1.963,-23.957 2.736,-47.996 4,-72 0.07,-1.331 -0.477,-5.245 0,-4 13.628,35.644 21.705,73.23 35,109 5.402,14.535 11.293,29.169 20,42 2.627,3.871 0.629,-9.614 -1,-14 -2.808,-7.558 -8.659,-13.663 -12,-21 -13.677,-30.034 -28.564,-59.692 -39,-91 -8.777,-26.329 22.666,50.667 34,76"
   fill="none"
   opacity="1"
   stroke="#32b055"
   stroke-linecap="round"
   stroke-linejoin="round"
   stroke-width="5.08571"
   id="path2065" />
<path
   d="m 528.321,118.905 c -1,0 -2.594,-0.914 -3,0 -1.226,2.758 -2.364,6.307 -1,9 11.882,23.46 27.888,44.658 40,68 6.271,12.088 9.469,25.556 15,38 1.543,3.473 -1.361,-7.571 -3,-11 -13.057,-27.3 -25.573,-54.966 -41,-81 -6.028,-10.171 -28.049,-37.691 -23,-27 10.621,22.493 24.869,43.256 40,63 12.333,16.094 28.203,29.142 42,44 0.817,0.881 -2.386,-0.967 -3,-2 -7.784,-13.076 -14.98,-26.499 -22,-40 -10.317,-19.839 -20.479,-39.768 -30,-60 -1.171,-2.487 -3.039,-10.545 -2,-8 11.361,27.855 20.424,56.672 33,84 4.831,10.498 12.666,19.333 19,29"
   fill="none"
   opacity="1"
   stroke="#32b055"
   stroke-linecap="round"
   stroke-linejoin="round"
   stroke-width="5.08571"
   id="path2067" />
<path
   d="m 672.321,122.905 c -0.472,-1.415 -2,-5.744 -2,-7 0,-3.682 1,-14.682 1,-11 0,37.335 0.301,74.688 -1,112 -0.7,20.057 -5,80.069 -5,60 0,-27.384 2.651,-54.717 5,-82 1.986,-23.069 6.555,-45.891 8,-69 0.133,-2.13 -3.731,2.883 -4,5 -4.773,37.543 -8.304,75.251 -11,113 -0.642,8.983 0.666,18 1,27"
   fill="none"
   opacity="1"
   stroke="#32b055"
   stroke-linecap="round"
   stroke-linejoin="round"
   stroke-width="5.08571"
   id="path2069" />
</g>
</g>
<g
   id="Layer-5"
   vectornator:layerName="Layer 5"
   style="display:none"
   transform="translate(-756.58046,-239.00791)">
<g
   opacity="1"
   id="g2110">
<path
   d="m 186.321,605.905 c -0.334,-1.333 0.229,-4.615 -1,-4 -1.521,0.76 -1.041,3.301 -1,5 0.627,26.345 1.895,52.671 3,79 0.895,21.338 3,42.643 3,64 0,1.944 -2.279,6.805 -3,5 -2.504,-6.259 -2.69,-13.266 -3,-20 -0.692,-14.984 0.571,-30.011 0,-45 -1.122,-29.433 -2.438,-59.076 -8,-88 -0.141,-0.732 -1.025,1.255 -1,2 0.312,9.685 0.752,19.391 2,29 4.756,36.623 15.875,73.893 17,111 0.073,2.426 0.411,7.268 -2,7 -3.522,-0.391 -5.991,-4.604 -7,-8 -2.781,-9.354 -3.884,-19.242 -4,-29 -0.434,-36.386 6.512,-72.615 6,-109 -0.082,-5.821 0.327,-20.894 -4,-17 -6.612,5.95 -5.125,17.149 -6,26 -2.135,21.584 -3.874,43.328 -3,65 0.799,19.831 5.51,39.31 8,59 1.177,9.313 2.241,18.644 3,28 0.242,2.99 2.757,7.818 0,9 -2.825,1.211 -5.891,-3.134 -7,-6 -3.068,-7.925 -4.47,-16.518 -5,-25 -1.527,-24.431 3.063,-49.024 8,-73"
   fill="none"
   opacity="1"
   stroke="#ca2042"
   stroke-linecap="round"
   stroke-linejoin="round"
   stroke-width="5.08571"
   id="path2074" />
<path
   d="m 174.821,610.905 c 1.035,-2.071 -5.427,-4.716 -3.5,-6 18.484,-12.323 38.137,-23.363 59,-31 16.882,-6.18 35.098,-8.335 53,-10 3.87,-0.36 -6.329,4.723 -10,6 -11.764,4.092 -24.08,6.393 -36,10 -19.315,5.845 -40.243,10.394 -56,23 -1.647,1.317 3.988,-1.368 6,-2 9.655,-3.035 19.075,-7.015 29,-9 11.839,-2.368 24.019,-2.502 36,-4 6.689,-0.836 18.365,3.54 20,-3 1.538,-6.153 -12.697,-1.7 -19,-1 -27.467,3.052 -48.271,10.708 -74,21 -3.878,1.551 -8.494,2.659 -11,6 -1.3,1.733 5.531,1.938 6.5,0 z"
   fill="none"
   opacity="1"
   stroke="#ca2042"
   stroke-linecap="round"
   stroke-linejoin="round"
   stroke-width="5.08571"
   id="path2076" />
<path
   d="m 198.321,693.905 c 13.574,-3.394 27.207,-6.645 41,-9 6.645,-1.134 25.609,0.739 20,-3 -6.386,-4.257 -15.491,-0.581 -23,1 -11.657,2.454 -22.645,7.404 -34,11 -8.645,2.737 -17.031,6.671 -26,8 -1.36,0.201 -2.017,-3.075 -1,-4 6.91,-6.282 14.08,-13.232 23,-16 11.16,-3.464 23.316,-2.234 35,-2 5.098,0.102 10.439,0.72 15,3 2.683,1.342 -6.002,0.083 -9,0 -9.003,-0.25 -18.032,-1.828 -27,-1 -12.826,1.184 -25.386,4.397 -38,7 -8.394,1.732 -16.431,6 -25,6 -2.604,0 2.801,-4.606 5,-6 11.593,-7.352 22.577,-17.124 36,-20 7.02,-1.504 13.333,5.333 20,8"
   fill="none"
   opacity="1"
   stroke="#ca2042"
   stroke-linecap="round"
   stroke-linejoin="round"
   stroke-width="5.08571"
   id="path2078" />
<path
   d="m 169.321,759.905 c 9,2.667 17.723,6.563 27,8 14.527,2.251 29.327,2.083 44,3 11.995,0.75 24.267,-0.607 36,2 5.893,1.31 -12.037,1.059 -18,2 -13.047,2.06 -25.878,5.505 -39,7 -13.265,1.511 -26.65,2 -40,2 -5.706,0 -15.361,3.465 -17,-2 -1.545,-5.148 8.843,-6.483 14,-8 12.042,-3.542 24.456,-6.53 37,-7 14.385,-0.539 28.612,3.543 43,4 6.696,0.213 14.143,1.254 20,-2 3.322,-1.846 -7.212,-2.697 -11,-3 -12.963,-1.037 -26.005,-1.487 -39,-1 -13.722,0.515 -27.746,0.41 -41,4 -3.669,0.994 -4.667,6 -7,9"
   fill="none"
   opacity="1"
   stroke="#ca2042"
   stroke-linecap="round"
   stroke-linejoin="round"
   stroke-width="5.08571"
   id="path2080" />
<path
   d="m 297.321,613.905 c 0,-0.774 -0.324,-7.449 1,-8 3.398,-1.416 8.92,-4.039 11,-1 7.865,11.495 10.494,25.821 15,39 8.832,25.835 14.895,52.636 25,78 6.291,15.793 15.326,30.379 24,45 3.027,5.104 9.123,8.37 11,14 0.641,1.924 -4.173,1.877 -6,1 -6.919,-3.321 -13.748,-7.405 -19,-13 -10.267,-10.936 -21.092,-22.213 -27,-36 -9.364,-21.848 -14.559,-45.481 -18,-69 -2.607,-17.81 0.264,-36.002 0,-54 -0.069,-4.678 -1.814,-18.607 -1,-14 5.677,32.171 6.126,65.295 14,97 12.869,51.825 37.192,100.157 46,153"
   fill="none"
   opacity="1"
   stroke="#ca2042"
   stroke-linecap="round"
   stroke-linejoin="round"
   stroke-width="5.08571"
   id="path2082" />
<path
   d="m 382.321,638.905 c -0.667,-0.333 -1.631,-1.647 -2,-1 -3.997,6.994 -7.32,14.404 -10,22 -11.332,32.106 -21.845,64.503 -32,97 -8.181,26.178 -13.139,53.408 -23,79 -4.256,11.045 -10.86,21.407 -19,30 -2.533,2.673 -0.181,-7.513 1,-11 6.191,-18.294 14.682,-35.749 21,-54 8.69,-25.105 15.5,-50.83 24,-76 8.837,-26.173 18.577,-52.032 28,-78 4.244,-11.699 10.837,-22.744 13,-35 1.192,-6.759 -7.509,11.605 -10,18 -7.539,19.349 -13.316,39.339 -20,59 -10.316,30.339 -20.607,60.687 -31,91 -5.608,16.354 -10.157,33.124 -17,49 -1.589,3.686 -8.842,12.925 -8,9 1.78,-8.31 7.859,-15.103 11,-23 8.535,-21.461 15.495,-43.526 24,-65 4.835,-12.209 9.117,-24.816 16,-36 4.254,-6.913 -5.334,15.333 -8,23"
   fill="none"
   opacity="1"
   stroke="#ca2042"
   stroke-linecap="round"
   stroke-linejoin="round"
   stroke-width="5.08571"
   id="path2084" />
<path
   d="m 473.321,607.905 c -1.334,-1.667 -2.491,-3.491 -4,-5 -0.85,-0.85 -3.381,-0.86 -3,-2 0.434,-1.304 3.874,-2.369 4,-1 2.688,29.24 0.926,58.798 4,88 2.272,21.586 8.215,42.627 12,64 1.882,10.631 3.429,21.319 5,32 0.097,0.66 0.101,2.659 0,2 -8.156,-53.013 -2.457,-105.597 -5,-159 -0.467,-9.798 -2.904,-19.417 -5,-29 -0.257,-1.174 -1.892,-4.197 -2,-3 -5.043,55.473 6.218,111.262 13,166 1.896,15.307 3.296,30.671 5,46 0.296,2.671 1.651,10.607 1,8 -5.527,-22.106 -6.483,-45.219 -7,-68 -0.637,-27.993 0.195,-56.001 0,-84 -0.138,-19.669 -0.643,-39.334 -1,-59 -0.025,-1.333 0,2.667 0,4 0,19.333 -1.245,38.707 0,58 1.426,22.115 5.531,43.977 8,66 1.865,16.646 2.29,33.471 5,50 0.651,3.975 3.333,7.333 5,11"
   fill="none"
   opacity="1"
   stroke="#ca2042"
   stroke-linecap="round"
   stroke-linejoin="round"
   stroke-width="5.08571"
   id="path2086" />
<path
   d="m 423.321,611.905 c -1.415,0 -4.282,-2.402 -3,-3 4.981,-2.325 10.512,-3.665 16,-4 21.961,-1.339 44.082,0.934 66,-1 12.245,-1.08 24.338,-4.113 36,-8 1.843,-0.615 4.943,-5 3,-5 -10.138,0 -20.078,2.923 -30,5 -18.757,3.926 -37.171,9.438 -56,13 -18.204,3.444 -36.639,5.537 -55,8 -8.975,1.204 -18.186,5.074 -27,3 -3.961,-0.932 6.147,-5.691 10,-7 14.009,-4.758 28.398,-8.613 43,-11 20.163,-3.296 40.723,-3.486 61,-6 20.07,-2.488 39.968,-6.218 60,-9 3.975,-0.552 16.013,-1 12,-1 -35.264,0 -71.24,3.786 -106,9 -10.409,1.561 -20.626,4.229 -31,6 -3.303,0.564 -13.198,1.999 -10,1 8.489,-2.653 17.376,-3.819 26,-6 20.379,-5.153 40.177,-13.12 61,-16 10.941,-1.513 22,2 33,3"
   fill="none"
   opacity="1"
   stroke="#ca2042"
   stroke-linecap="round"
   stroke-linejoin="round"
   stroke-width="5.08571"
   id="path2088" />
<path
   d="m 429.321,820.905 c -2.749,1.374 -7.419,-0.635 -9,2 -1.151,1.917 3.775,3.229 6,3 20.823,-2.144 41.287,-6.962 62,-10 29.291,-4.296 58.429,-10.578 88,-12 5.814,-0.28 15.636,1.19 16,7 0.363,5.82 -9.295,7.799 -15,9 -13.735,2.892 -27.966,2.858 -42,3 -19.011,0.192 -37.995,-1.504 -57,-2 -19.33,-0.504 -38.74,-2.707 -58,-1 -7.462,0.661 -20.255,0.546 -21,8 -0.667,6.667 13.32,2.521 20,2 19.128,-1.49 38.228,-4.032 57,-8 22.31,-4.716 43.679,-13.333 66,-18 14.448,-3.021 29.251,-4.385 44,-5 1.665,-0.069 5.476,2.227 4,3 -7.751,4.06 -16.44,6.191 -25,8 -15.175,3.206 -30.565,5.484 -46,7 -21.935,2.154 -43.96,4 -66,4 -7.126,0 -13.875,-4 -21,-4 -1.667,0 -1.51,3.255 -3,4 z"
   fill="none"
   opacity="1"
   stroke="#ca2042"
   stroke-linecap="round"
   stroke-linejoin="round"
   stroke-width="5.08571"
   id="path2090" />
<path
   d="m 660.321,582.905 c -0.832,-1.664 -2.263,-4.163 -2,-6 0.492,-3.445 2.317,-13.412 3,-10 2.291,11.459 1.385,23.33 2,35 2.385,45.331 3.598,90.734 7,136 0.936,12.459 4.705,24.573 6,37 0.381,3.662 1.603,13.603 -1,11 -4.177,-4.177 -3.925,-11.192 -5,-17 -2.267,-12.237 -4.173,-24.582 -5,-37 -1.509,-22.626 -2.175,-45.324 -2,-68 0.159,-20.69 2.708,-41.311 3,-62 0.043,-3.073 -0.296,-11.557 -2,-9 -2.219,3.328 0.06,8 0,12 -0.273,18.001 -1.36,36.001 -1,54 0.64,32.021 0.397,64.176 4,96 2.419,21.376 9.984,41.866 14,63 2.323,12.227 3.586,24.635 5,37 0.084,0.741 -0.854,-1.269 -1,-2 -2.193,-10.963 -4.507,-21.92 -6,-33 -2.509,-18.605 -4.937,-37.257 -6,-56 -2.702,-47.609 -0.742,-95.426 -4,-143 -0.349,-5.087 0.605,-11.394 -3,-15 -2.237,-2.236 -2.651,5.857 -3,9 -2.327,20.937 -4.669,41.937 -5,63 -0.337,21.354 -0.021,42.858 3,64 0.719,5.037 5.333,8.667 8,13"
   fill="none"
   opacity="1"
   stroke="#ca2042"
   stroke-linecap="round"
   stroke-linejoin="round"
   stroke-width="5.08571"
   id="path2092" />
<path
   d="m 593.321,595.905 c 22.743,-3.791 47.412,-5.787 70,-6 19.677,-0.186 39.327,2.48 59,2 7.779,-0.19 16.327,0.004 23,-4 3.759,-2.256 -8.619,-2.149 -13,-2 -15.383,0.521 -30.69,2.43 -46,4 -23.693,2.43 -47.262,6.07 -71,8 -17.29,1.406 -34.677,2.896 -52,2 -2.6,-0.134 -8.329,-3.836 -6,-5 13.108,-6.554 27.544,-10.591 42,-13 21.762,-3.627 43.943,-4.462 66,-5 19.006,-0.464 38.076,0.176 57,2 8.853,0.853 18.67,0.961 26,6 3.071,2.111 -6.366,4.174 -10,5 -11.171,2.539 -22.571,4.238 -34,5 -28.584,1.906 -55.771,-0.433 -84,-5 -8.46,-1.368 -32.492,-1.838 -25,-6 9.911,-5.506 22.668,0.622 34,1 8.668,0.289 17.346,0.417 26,1 21.018,1.417 41.98,3.599 63,5 13.984,0.932 28.004,1.25 42,2 4.671,0.25 18.438,-0.479 14,1 -5.376,1.792 -11.334,0 -17,0 -11.667,0 -23.335,-0.134 -35,0 -17.336,0.199 -34.664,1 -52,1 -16.004,0 -32.117,0.955 -48,-1 -6.083,-0.749 -11.468,-4.365 -17,-7 -1.505,-0.717 -3,-1.667 -4,-3 -1.078,-1.436 -3.758,-4.634 -2,-5 8.484,-1.768 17.347,-0.494 26,0 14.703,0.84 29.284,3.405 44,4 18.318,0.74 36.687,-0.882 55,0 9.417,0.454 18.787,1.997 28,4 1.66,0.361 -3.322,0.735 -5,1 -10.99,1.735 -21.979,3.485 -33,5 -15.647,2.151 -31.309,4.207 -47,6 -19.311,2.207 -38.57,6.474 -58,6 -8.431,-0.206 -22.347,0.269 -24,-8 -1.525,-7.624 12.624,-9.541 20,-12 6.985,-2.329 14.666,-1.333 22,-2"
   fill="none"
   opacity="1"
   stroke="#ca2042"
   stroke-linecap="round"
   stroke-linejoin="round"
   stroke-width="5.08571"
   id="path2094" />
<path
   d="m 666.321,600.905 c -1.073,-5.363 -0.886,-5.502 -3,-11 -0.912,-2.369 -2.573,-9.502 -3,-7 -2.703,15.826 -3.755,31.946 -4,48 -0.77,50.417 3.336,100.896 9,151 1.774,15.694 3.841,31.354 6,47 0.509,3.692 3.666,14.333 2,11 -2.315,-4.628 -3.15,-9.896 -4,-15 -2.155,-12.928 -4.075,-25.926 -5,-39 -1.744,-24.625 -3.458,-49.317 -3,-74 0.686,-37.067 7,-73.926 7,-111 0,-3.018 -0.661,6.001 -1,9 -1.661,14.667 -4.354,29.253 -5,44 -2.164,49.326 1.049,98.875 6,148 1.72,17.073 5.263,33.929 7,51 0.271,2.674 -0.897,10.685 -1,8 -2.301,-59.806 -1.285,-119.136 1,-179 0.509,-13.34 10.546,-29.744 2,-40 -7.408,-8.889 -6.314,22.449 -7,34 -1.325,22.297 -1.169,44.77 1,67 1.847,18.934 8.197,37.184 11,56 1.871,12.567 2.717,25.297 3,38 0.053,2.426 0.379,7.476 -2,7 -2.793,-0.559 -2.71,-5.167 -3,-8 -1.055,-10.285 -1.214,-20.663 -1,-31 0.453,-22.018 0.953,-44.073 3,-66 2.624,-28.117 8.322,-55.888 11,-84 1.327,-13.941 1.518,-28.006 1,-42 -0.153,-4.12 -0.39,-8.809 -3,-12 -1.284,-1.569 -5.069,-0.801 -6,1 -4.505,8.708 -7.967,18.251 -9,28 -1.338,12.613 0.517,25.403 2,38 2.522,21.444 7.82,42.518 10,64 2.493,24.577 3.273,49.308 4,74 0.274,9.335 0.234,18.743 -1,28 -0.159,1.191 -2.815,3.187 -3,2 -1.753,-11.217 -1.634,-22.653 -2,-34 -0.635,-19.659 -1,-39.33 -1,-59 0,-27.335 2.147,-54.689 1,-82 -0.525,-12.483 -3.29,-24.803 -6,-37 -0.647,-2.91 -2.667,-10.667 -4,-8 -2.386,4.77 -0.208,10.671 0,16 0.792,20.343 0.366,40.813 3,61 3.382,25.93 10.077,51.318 15,77 2.744,14.319 6.191,28.533 8,43 0.222,1.781 -1.456,6.711 -2,5 -2.776,-8.722 -3.879,-17.916 -5,-27 -2.215,-17.941 -3.923,-35.955 -5,-54 -1.591,-26.638 -2.611,-53.317 -3,-80 -0.278,-19.001 2.646,-38.068 1,-57 -0.402,-4.613 -3.598,-15.141 -7,-12 -6.06,5.593 -5.486,15.77 -6,24 -1.83,29.278 -3.41,58.764 -1,88 2.61,31.677 8.688,63.068 16,94 1.446,6.121 6.666,10.667 10,16"
   fill="none"
   opacity="1"
   stroke="#ca2042"
   stroke-linecap="round"
   stroke-linejoin="round"
   stroke-width="5.08571"
   id="path2096" />
<path
   d="m 300.321,599.905 c -1.906,0 -3.184,0.211 -5,-1 -1.177,-0.784 -4.037,-3.962 -3,-3 5.702,5.295 13.984,8.826 17,16 7.018,16.699 8.104,35.31 12,53 4.105,18.644 8.067,37.319 12,56 2.733,12.986 5.773,25.918 8,39 0.447,2.629 2.218,9.479 0,8 -2.896,-1.93 -2.009,-6.664 -3,-10 -2.675,-8.998 -6.271,-17.774 -8,-27 -3.285,-17.515 -5.862,-35.216 -7,-53 -1.534,-23.953 1.944,-48.179 -1,-72 -0.807,-6.525 -3.764,-14.921 -10,-17 -4.111,-1.37 -5.082,7.667 -5,12 0.26,13.81 3.689,27.382 6,41 4.024,23.721 6.134,47.94 13,71 6.219,20.891 18.39,39.574 26,60 5.083,13.644 8.841,27.787 12,42 1.525,6.864 2.412,13.98 2,21 -0.098,1.664 -2.338,-2.471 -3,-4 -3.693,-8.52 -7.401,-17.086 -10,-26 -4.415,-15.135 -8.876,-30.378 -11,-46 -3.559,-26.168 -2.566,-52.815 -6,-79 -1.914,-14.591 -5.177,-29.097 -10,-43 -1.008,-2.903 -5.859,-8.853 -7,-6 -3.222,8.053 -1.641,17.351 -1,26 1.365,18.431 2.916,36.976 7,55 5.615,24.786 14.216,48.807 22,73 4.553,14.152 10.098,27.965 15,42 2.432,6.966 9.333,14 7,21 -2.077,6.229 -5.594,-11.891 -8,-18 -1.932,-4.904 -3.647,-9.906 -5,-15 -4.318,-16.252 -9.5,-32.371 -12,-49 -4.183,-27.814 -4.848,-56.05 -8,-84 -1.85,-16.395 -3.179,-32.949 -7,-49 -1.245,-5.229 -5.308,-9.348 -8,-14 -0.974,-1.682 -1.626,-6.374 -3,-5 -1.886,1.886 -0.054,5.334 0,8 0.28,14.001 -0.339,28.06 1,42 2.666,27.781 5.071,55.728 11,83 4.12,18.954 12.246,36.817 19,55 1.921,5.172 4.219,10.234 7,15 0.503,0.864 0,-2 0,-3"
   fill="none"
   opacity="1"
   stroke="#ca2042"
   stroke-linecap="round"
   stroke-linejoin="round"
   stroke-width="5.08571"
   id="path2098" />
<path
   d="m 366.321,623.905 c -2.427,2.427 -3.87,5.76 -5,9 -4.306,12.343 -8.645,24.674 -13,37 -13.312,37.674 -25.161,75.901 -40,113 -5.87,14.674 -14.834,27.914 -22,42 -2.503,4.918 -5.093,9.823 -7,15 -0.461,1.251 -0.785,5.078 0,4 14.236,-19.576 19.154,-44.469 28,-67 10.88,-27.714 21.271,-55.634 33,-83 8.281,-19.324 18.022,-37.989 27,-57 2.356,-4.989 5.255,-9.765 7,-15 0.76,-2.28 -3.108,3.768 -4,6 -4.464,11.159 -7.711,22.773 -12,34 -7.047,18.445 -15.284,36.432 -22,55 -10.291,28.449 -18.853,57.5 -29,86 -5.524,15.512 -12.705,30.409 -18,46 -0.751,2.209 -1.072,9.073 0,7 16.853,-32.584 23.371,-69.557 36,-104 10.186,-27.781 23.1,-54.491 34,-82 3.106,-7.84 6.534,-15.696 8,-24 0.498,-2.824 -3.785,4.403 -5,7 -6.142,13.121 -11.901,26.44 -17,40 -17.848,47.458 -34.489,95.418 -49,144 -0.959,3.21 -3.049,12.651 -1,10 7.483,-9.684 13.042,-20.811 18,-32 6.748,-15.232 11.333,-31.333 17,-47"
   fill="none"
   opacity="1"
   stroke="#ca2042"
   stroke-linecap="round"
   stroke-linejoin="round"
   stroke-width="5.08571"
   id="path2100" />
<path
   d="m 183.321,600.905 c -1,-0.667 -1.805,-2.12 -3,-2 -2.526,0.253 -6.614,0.491 -7,3 -3.81,24.764 -3.31,50.002 -5,75 -2.976,44.002 -6.067,87.996 -9,132 -0.734,10.996 -0.784,22.047 -2,33 -0.224,2.015 -1.077,-3.974 -1,-6 0.591,-15.687 1.238,-31.401 3,-47 5.951,-52.711 16.836,-104.998 19,-158 0.237,-5.817 0.545,-20.637 -4,-17 -8.074,6.459 -9.376,18.79 -11,29 -3.094,19.448 -3.158,39.309 -3,59 0.176,22.04 2.081,44.043 4,66 1.083,12.398 3.107,24.699 5,37 0.113,0.737 0.964,2.745 1,2 1.237,-25.979 0.298,-52.047 2,-78 1.467,-22.375 4.222,-44.648 6,-67 0.555,-6.986 1,-13.992 1,-21 0,-0.745 -0.967,1.255 -1,2 -0.303,6.66 0.144,13.335 0,20 -0.522,24.004 -1.395,47.998 -2,72 -0.395,15.665 0.22,31.377 -1,47 -0.454,5.804 -2.401,11.403 -4,17 -0.275,0.962 -0.149,-2.011 0,-3 1.853,-12.356 3.764,-24.707 6,-37 2.432,-13.378 5.333,-26.667 8,-40"
   fill="none"
   opacity="1"
   stroke="#ca2042"
   stroke-linecap="round"
   stroke-linejoin="round"
   stroke-width="5.08571"
   id="path2102" />
<path
   d="m 177.821,614.905 c 0.746,1.641 3.641,-1.415 4.5,-3 1.463,-2.702 3.967,-6.639 2,-9 -2.64,-3.167 -7.877,-3 -12,-3 -1.415,0 1.605,3.233 3,3 13.237,-2.206 25.906,-7.054 39,-10 13.584,-3.057 27.258,-5.751 41,-8 4.617,-0.755 14,-5.679 14,-1 0,4.714 -9.334,1.333 -14,2 -9.334,1.333 -18.709,2.403 -28,4 -12.049,2.071 -23.908,5.209 -36,7 -5.945,0.881 -13.308,4.754 -18,1 -3.135,-2.507 4.429,-7.166 8,-9 9.096,-4.671 19.046,-7.658 29,-10 12.803,-3.013 26.049,-3.702 39,-6 7.725,-1.371 15.982,-1.491 23,-5 3.293,-1.647 -7.381,-1.673 -11,-1 -10.894,2.027 -21.387,5.816 -32,9 -19.39,5.817 -38.653,12.047 -58,18 -2.32,0.714 4.661,-1.35 7,-2 9.661,-2.684 19.172,-6.006 29,-8 13.213,-2.681 26.848,-3.03 40,-6 7.611,-1.719 21.032,-0.257 22,-8 0.868,-6.946 -14.141,-1.395 -21,0 -13.017,2.648 -25.827,6.685 -38,12 -11.633,5.079 -24.094,9.957 -33,19 -3.277,3.327 -1.433,9.749 0.5,14 z"
   fill="none"
   opacity="1"
   stroke="#ca2042"
   stroke-linecap="round"
   stroke-linejoin="round"
   stroke-width="5.08571"
   id="path2104" />
<path
   d="m 178.821,691.405 c -1.302,-3.253 -2.225,-7.45 -0.5,-10.5 1.159,-2.052 4.692,-1.483 7,-1 12.19,2.551 23.699,8.048 36,10 8.888,1.411 18.011,0.461 27,0 4.049,-0.208 15.934,-2.983 12,-2 -30.571,7.643 -60.623,11.154 -92,13 -5.335,0.314 -18.965,5.446 -16,1 3.409,-5.114 11.894,-3.295 18,-4 11.278,-1.301 22.739,-0.552 34,-2 12.124,-1.559 24.168,-3.924 36,-7 4.913,-1.278 16.27,-1.459 14,-6 -2.315,-4.628 -9.987,2.718 -15,4 -18.41,4.71 -35.615,10.491 -55,9 -2.362,-0.182 -4.621,-2.301 -5.5,-4.5 z"
   fill="none"
   opacity="1"
   stroke="#ca2042"
   stroke-linecap="round"
   stroke-linejoin="round"
   stroke-width="5.08571"
   id="path2106" />
<path
   d="m 170.321,774.905 c 19.188,6.396 38.2,5.645 59,8 1.688,0.191 3.303,0.889 5,1 13.653,0.891 27.725,-1.319 41,2 5.647,1.412 -11.275,2.948 -17,4 -10.619,1.95 -21.325,3.391 -32,5 -25.09,3.781 -50.07,8.283 -75,13 -0.983,0.186 -3.993,-0.124 -3,0 17.58,2.198 35.31,4.983 53,4 12.803,-0.711 25.433,-3.444 38,-6 7.134,-1.451 22.765,1.063 21,-6 -1.786,-7.144 -14.732,0.821 -22,2 -20.031,3.248 -39.146,10.806 -59,15 -8.902,1.881 -20.567,10.433 -27,4 -5.603,-5.603 14.429,-6.662 22,-9 15.14,-4.676 30.543,-8.504 46,-12 12.562,-2.841 25.164,-5.93 38,-7 1.485,-0.124 -0.643,3.383 -2,4 -9.982,4.537 -20.599,7.533 -31,11 -27.223,9.074 -60.63,19.921 -89,26 -0.652,0.14 -0.63,-1.781 0,-2 7.483,-2.603 15.333,-4 23,-6"
   fill="none"
   opacity="1"
   stroke="#ca2042"
   stroke-linecap="round"
   stroke-linejoin="round"
   stroke-width="5.08571"
   id="path2108" />
</g>
</g>
<path
   d="M 7.1520331,0.70099813 0.70103309,145.352 87.119033,189.974 l 9.956,-148.134002 z"
   fill="url(#LinearGradient_2)"
   fill-rule="nonzero"
   opacity="1"
   stroke="#0a0809"
   stroke-linecap="butt"
   stroke-linejoin="round"
   stroke-width="1.40207"
   id="path1423"
   style="clip-rule:evenodd;display:inline;fill:url(#LinearGradient_2);fill-rule:nonzero;stroke-linecap:round;stroke-linejoin:round" /></svg>
